<svg width="33" height="20" viewBox="0 0 33 20" fill="none" xmlns="http://www.w3.org/2000/svg">
<path d="M28.0669 9.66077C28.0669 9.56409 28.0744 9.46913 28.0744 9.37074C28.0727 7.33456 27.4217 5.354 26.2187 3.72934C25.0158 2.10382 23.3271 0.922327 21.407 0.361951C19.4869 -0.198425 17.4405 -0.106027 15.5766 0.6246C13.7127 1.35523 12.133 2.68473 11.0755 4.41206C9.99404 4.00995 8.83902 3.85339 7.69227 3.9552C6.54552 4.05701 5.4343 4.41291 4.43709 4.99895C3.43988 5.58499 2.58064 6.38663 1.91969 7.34825C1.25874 8.30902 0.812599 9.40667 0.611835 10.5625C0.411071 11.7183 0.461469 12.905 0.758897 14.0385C1.05632 15.1721 1.59335 16.2261 2.33279 17.1262C3.07223 18.0253 3.9959 18.7491 5.03938 19.2453C6.08286 19.7415 7.21969 19.9991 8.37057 19.9999H27.3407C28.6337 20.0076 29.8812 19.5131 30.8305 18.6182C31.7798 17.7225 32.359 16.4922 32.4515 15.1773C32.544 13.8623 32.1425 12.5602 31.3279 11.5361C30.5141 10.512 29.3483 9.84128 28.0669 9.66077Z" fill="#00AEF8"/>
</svg>
