<svg width="70" height="142" viewBox="0 0 70 142" fill="none" xmlns="http://www.w3.org/2000/svg">
<rect width="66.9441" height="140" rx="8" transform="matrix(1 0 0 -1 1.48389 141)" fill="#CCEFFE" stroke="#002332" stroke-width="2"/>
<rect x="-0.5" y="0.5" width="50.8817" height="13" rx="1.5" transform="matrix(-1 1.05525e-07 1.21415e-07 1 59.897 9.75)" stroke="#002332"/>
<rect x="-0.5" y="-0.5" width="2.5" height="5.69441" rx="1.25" transform="matrix(-2.66453e-08 -1 -1 7.1708e-08 18.0566 17.5)" stroke="#002332"/>
<rect x="-0.5" y="-0.5" width="2.5" height="5.69441" rx="1.25" transform="matrix(-2.66453e-08 -1 -1 7.1708e-08 26.4246 17.5)" stroke="#002332"/>
<rect x="-0.5" y="0.5" width="50.8817" height="13" rx="1.5" transform="matrix(-1 1.05525e-07 1.21415e-07 1 59.897 29)" stroke="#002332"/>
<rect x="-0.5" y="-0.5" width="2.5" height="5.69441" rx="1.25" transform="matrix(-2.66453e-08 -1 -1 7.1708e-08 18.0566 36.75)" stroke="#002332"/>
<rect x="-0.5" y="-0.5" width="2.5" height="5.69441" rx="1.25" transform="matrix(-2.66453e-08 -1 -1 7.1708e-08 26.4246 36.75)" stroke="#002332"/>
<rect x="-0.5" y="0.5" width="50.8817" height="13" rx="1.5" transform="matrix(-1 1.05525e-07 1.21415e-07 1 59.897 48.25)" stroke="#002332"/>
<rect x="-0.5" y="-0.5" width="2.5" height="5.69441" rx="1.25" transform="matrix(-2.66453e-08 -1 -1 7.1708e-08 18.0566 56)" stroke="#002332"/>
<rect x="-0.5" y="-0.5" width="2.5" height="5.69441" rx="1.25" transform="matrix(-2.66453e-08 -1 -1 7.1708e-08 26.4246 56)" stroke="#002332"/>
<rect x="-0.5" y="0.5" width="50.8817" height="13" rx="1.5" transform="matrix(-1 1.05525e-07 1.21415e-07 1 59.897 67.5)" stroke="#002332"/>
<rect x="-0.5" y="-0.5" width="2.5" height="5.69441" rx="1.25" transform="matrix(-2.66453e-08 -1 -1 7.1708e-08 18.0566 75.25)" stroke="#002332"/>
<rect x="-0.5" y="-0.5" width="2.5" height="5.69441" rx="1.25" transform="matrix(-2.66453e-08 -1 -1 7.1708e-08 26.4246 75.25)" stroke="#002332"/>
<rect x="-0.5" y="0.5" width="50.8817" height="13" rx="1.5" transform="matrix(-1 1.05525e-07 1.21415e-07 1 59.897 86.75)" stroke="#002332"/>
<rect x="-0.5" y="-0.5" width="2.5" height="5.69441" rx="1.25" transform="matrix(-2.66453e-08 -1 -1 7.1708e-08 18.0566 94.5)" stroke="#002332"/>
<rect x="-0.5" y="-0.5" width="2.5" height="5.69441" rx="1.25" transform="matrix(-2.66453e-08 -1 -1 7.1708e-08 26.4246 94.5)" stroke="#002332"/>
<rect x="-0.5" y="0.5" width="50.8817" height="13" rx="1.5" transform="matrix(-1 1.05525e-07 1.21415e-07 1 59.897 106)" stroke="#002332"/>
<rect x="-0.5" y="-0.5" width="2.5" height="5.69441" rx="1.25" transform="matrix(-2.66453e-08 -1 -1 7.1708e-08 18.0566 113.75)" stroke="#002332"/>
<rect x="-0.5" y="-0.5" width="2.5" height="5.69441" rx="1.25" transform="matrix(-2.66453e-08 -1 -1 7.1708e-08 26.4246 113.75)" stroke="#002332"/>
<rect x="0.5" y="0.5" width="1.33333" height="10.9012" rx="0.666666" transform="matrix(-4.75477e-08 1 1 4.01846e-08 13.1992 128.75)" stroke="#002332"/>
<rect x="0.5" y="0.5" width="1.33333" height="11.645" rx="0.666666" transform="matrix(-4.5472e-08 1 1 4.2019e-08 43.324 128.75)" stroke="#002332"/>
<rect x="0.5" y="0.5" width="9.88889" height="9.41353" rx="4.70677" transform="matrix(-3.29507e-08 1 1 5.79862e-08 29.0981 125.25)" stroke="#002332"/>
</svg>
