<svg width="123" height="122" viewBox="0 0 123 122" fill="none" xmlns="http://www.w3.org/2000/svg">
<rect width="119.9" height="120" rx="8" transform="matrix(1 0 0 -1 1.95337 121)" fill="white" stroke="#002332" stroke-width="2"/>
<path d="M28.8395 99.9306C28.8395 100.522 28.3617 101 27.7709 101C27.1801 101 26.6936 100.513 26.6936 99.9306C26.6936 99.3481 27.1714 98.8525 27.7709 98.8525C28.3704 98.8525 28.8395 99.3394 28.8395 99.9306Z" fill="#002332"/>
<path d="M33.1398 99.9306C33.1398 100.522 32.662 101 32.0712 101C31.4804 101 30.9939 100.513 30.9939 99.9306C30.9939 99.3394 31.4717 98.8525 32.0712 98.8525C32.6707 98.8525 33.1398 99.3394 33.1398 99.9306Z" fill="#002332"/>
<path d="M37.4318 99.9306C37.4318 100.522 36.954 101 36.3632 101C35.7724 101 35.2859 100.513 35.2859 99.9306C35.2859 99.3481 35.7637 98.8525 36.3632 98.8525C36.9627 98.8525 37.4318 99.3394 37.4318 99.9306Z" fill="#002332"/>
<path d="M41.7238 99.9306C41.7238 100.522 41.246 101 40.6552 101C40.0644 101 39.5779 100.513 39.5779 99.9306C39.5779 99.3481 40.0557 98.8525 40.6552 98.8525C41.2546 98.8525 41.7238 99.3394 41.7238 99.9306Z" fill="#002332"/>
<path d="M46.0241 99.9306C46.0241 100.522 45.5463 101 44.9555 101C44.3647 101 43.8782 100.513 43.8782 99.9306C43.8782 99.3394 44.356 98.8525 44.9555 98.8525C45.5549 98.8525 46.0241 99.3394 46.0241 99.9306Z" fill="#002332"/>
<path d="M50.3158 99.9306C50.3158 100.522 49.838 101 49.2472 101C48.6564 101 48.1699 100.513 48.1699 99.9306C48.1699 99.3481 48.6478 98.8525 49.2472 98.8525C49.8467 98.8525 50.3158 99.3394 50.3158 99.9306Z" fill="#002332"/>
<path d="M54.6166 99.9306C54.6166 100.522 54.1388 101 53.548 101C52.9572 101 52.4707 100.513 52.4707 99.9306C52.4707 99.3481 52.9485 98.8525 53.548 98.8525C54.1475 98.8525 54.6166 99.3394 54.6166 99.9306Z" fill="#002332"/>
<path d="M67.5007 99.9306C67.5007 100.522 67.0228 101 66.432 101C65.8413 101 65.3547 100.513 65.3547 99.9306C65.3547 99.3481 65.8326 98.8525 66.432 98.8525C67.0315 98.8525 67.5007 99.3394 67.5007 99.9306Z" fill="#002332"/>
<path d="M71.8009 99.9306C71.8009 100.522 71.3231 101 70.7323 101C70.1416 101 69.655 100.513 69.655 99.9306C69.655 99.3481 70.1329 98.8525 70.7323 98.8525C71.3318 98.8525 71.8009 99.3394 71.8009 99.9306Z" fill="#002332"/>
<path d="M76.0929 99.9306C76.0929 100.522 75.6151 101 75.0243 101C74.4335 101 73.947 100.513 73.947 99.9306C73.947 99.3481 74.4335 98.8525 75.0243 98.8525C75.6151 98.8525 76.0929 99.3394 76.0929 99.9306Z" fill="#002332"/>
<path d="M80.3937 99.9306C80.3937 100.522 79.9159 101 79.3251 101C78.7343 101 78.2478 100.513 78.2478 99.9306C78.2478 99.3481 78.7256 98.8525 79.3251 98.8525C79.9246 98.8525 80.3937 99.3394 80.3937 99.9306Z" fill="#002332"/>
<path d="M84.6852 99.9306C84.6852 100.522 84.2074 101 83.6166 101C83.0258 101 82.5393 100.513 82.5393 99.9306C82.5393 99.3481 83.0171 98.8525 83.6166 98.8525C84.2161 98.8525 84.6852 99.3394 84.6852 99.9306Z" fill="#002332"/>
<path d="M88.977 99.9306C88.977 100.522 88.4991 101 87.9084 101C87.3176 101 86.8311 100.513 86.8311 99.9306C86.8311 99.3394 87.3176 98.8525 87.9084 98.8525C88.4991 98.8525 88.977 99.3394 88.977 99.9306Z" fill="#002332"/>
<path d="M93.278 99.9306C93.278 100.522 92.8002 101 92.2094 101C91.6186 101 91.1321 100.513 91.1321 99.9306C91.1321 99.3481 91.6099 98.8525 92.2094 98.8525C92.8088 98.8525 93.278 99.3394 93.278 99.9306Z" fill="#002332"/>
<path d="M97.5695 99.9306C97.5695 100.522 97.0917 101 96.5009 101C95.9101 101 95.4236 100.513 95.4236 99.9306C95.4236 99.3481 95.9014 98.8525 96.5009 98.8525C97.1003 98.8525 97.5695 99.3394 97.5695 99.9306Z" fill="#002332"/>
<path d="M24.5475 95.6274C24.5475 96.2186 24.0697 96.6967 23.4789 96.6967C22.8881 96.6967 22.4016 96.2099 22.4016 95.6274C22.4016 95.0449 22.8794 94.5493 23.4789 94.5493C24.0784 94.5493 24.5475 95.0362 24.5475 95.6274Z" fill="#002332"/>
<path d="M28.8395 95.6274C28.8395 96.2186 28.3617 96.6967 27.7709 96.6967C27.1801 96.6967 26.6936 96.2099 26.6936 95.6274C26.6936 95.0449 27.1714 94.5493 27.7709 94.5493C28.3704 94.5493 28.8395 95.0362 28.8395 95.6274Z" fill="#002332"/>
<path d="M33.1398 95.6274C33.1398 96.2186 32.662 96.6967 32.0712 96.6967C31.4804 96.6967 30.9939 96.2099 30.9939 95.6274C30.9939 95.0449 31.4717 94.5493 32.0712 94.5493C32.6707 94.5493 33.1398 95.0362 33.1398 95.6274Z" fill="#002332"/>
<path d="M37.4318 95.6274C37.4318 96.2186 36.954 96.6967 36.3632 96.6967C35.7724 96.6967 35.2859 96.2099 35.2859 95.6274C35.2859 95.0449 35.7637 94.5493 36.3632 94.5493C36.9627 94.5493 37.4318 95.0362 37.4318 95.6274Z" fill="#002332"/>
<path d="M41.7238 95.6274C41.7238 96.2186 41.246 96.6967 40.6552 96.6967C40.0644 96.6967 39.5779 96.2099 39.5779 95.6274C39.5779 95.0449 40.0557 94.5493 40.6552 94.5493C41.2546 94.5493 41.7238 95.0362 41.7238 95.6274Z" fill="#002332"/>
<path d="M46.0241 95.6274C46.0241 96.2186 45.5463 96.6967 44.9555 96.6967C44.3647 96.6967 43.8782 96.2099 43.8782 95.6274C43.8782 95.0449 44.356 94.5493 44.9555 94.5493C45.5549 94.5493 46.0241 95.0362 46.0241 95.6274Z" fill="#002332"/>
<path d="M50.3158 95.6274C50.3158 96.2186 49.838 96.6967 49.2472 96.6967C48.6564 96.6967 48.1699 96.2099 48.1699 95.6274C48.1699 95.0449 48.6478 94.5493 49.2472 94.5493C49.8467 94.5493 50.3158 95.0362 50.3158 95.6274Z" fill="#002332"/>
<path d="M58.9084 95.6274C58.9084 96.2186 58.4305 96.6967 57.8397 96.6967C57.249 96.6967 56.7625 96.2099 56.7625 95.6274C56.7625 95.0449 57.2403 94.5493 57.8397 94.5493C58.4392 94.5493 58.9084 95.0362 58.9084 95.6274Z" fill="#002332"/>
<path d="M67.5007 95.6274C67.5007 96.2186 67.0228 96.6967 66.432 96.6967C65.8413 96.6967 65.3547 96.2099 65.3547 95.6274C65.3547 95.0449 65.8326 94.5493 66.432 94.5493C67.0315 94.5493 67.5007 95.0362 67.5007 95.6274Z" fill="#002332"/>
<path d="M71.8009 95.6274C71.8009 96.2186 71.3231 96.6967 70.7323 96.6967C70.1416 96.6967 69.655 96.2099 69.655 95.6274C69.655 95.0449 70.1329 94.5493 70.7323 94.5493C71.3318 94.5493 71.8009 95.0362 71.8009 95.6274Z" fill="#002332"/>
<path d="M76.0929 95.6274C76.0929 96.2186 75.6151 96.6967 75.0243 96.6967C74.4335 96.6967 73.947 96.2099 73.947 95.6274C73.947 95.0449 74.4335 94.5493 75.0243 94.5493C75.6151 94.5493 76.0929 95.0362 76.0929 95.6274Z" fill="#002332"/>
<path d="M80.3937 95.6274C80.3937 96.2186 79.9159 96.6967 79.3251 96.6967C78.7343 96.6967 78.2478 96.2099 78.2478 95.6274C78.2478 95.0449 78.7256 94.5493 79.3251 94.5493C79.9246 94.5493 80.3937 95.0362 80.3937 95.6274Z" fill="#002332"/>
<path d="M84.6852 95.6274C84.6852 96.2186 84.2074 96.6967 83.6166 96.6967C83.0258 96.6967 82.5393 96.2099 82.5393 95.6274C82.5393 95.0449 83.0171 94.5493 83.6166 94.5493C84.2161 94.5493 84.6852 95.0362 84.6852 95.6274Z" fill="#002332"/>
<path d="M88.977 95.6274C88.977 96.2186 88.4991 96.6967 87.9084 96.6967C87.3176 96.6967 86.8311 96.2099 86.8311 95.6274C86.8311 95.0449 87.3176 94.5493 87.9084 94.5493C88.4991 94.5493 88.977 95.0362 88.977 95.6274Z" fill="#002332"/>
<path d="M93.278 95.6274C93.278 96.2186 92.8002 96.6967 92.2094 96.6967C91.6186 96.6967 91.1321 96.2099 91.1321 95.6274C91.1321 95.0449 91.6099 94.5493 92.2094 94.5493C92.8088 94.5493 93.278 95.0362 93.278 95.6274Z" fill="#002332"/>
<path d="M97.5695 95.6274C97.5695 96.2186 97.0917 96.6967 96.5009 96.6967C95.9101 96.6967 95.4236 96.2099 95.4236 95.6274C95.4236 95.0449 95.9014 94.5493 96.5009 94.5493C97.1003 94.5493 97.5695 95.0362 97.5695 95.6274Z" fill="#002332"/>
<path d="M101.87 95.6274C101.87 96.2186 101.392 96.6967 100.801 96.6967C100.211 96.6967 99.7241 96.2099 99.7241 95.6274C99.7241 95.0449 100.211 94.5493 100.801 94.5493C101.392 94.5493 101.87 95.0362 101.87 95.6274Z" fill="#002332"/>
<path d="M24.5475 91.3324C24.5475 91.9236 24.0697 92.4018 23.4789 92.4018C22.8881 92.4018 22.4016 91.9149 22.4016 91.3324C22.4016 90.7499 22.8794 90.2544 23.4789 90.2544C24.0784 90.2544 24.5475 90.7413 24.5475 91.3324Z" fill="#002332"/>
<path d="M28.8395 91.3324C28.8395 91.9236 28.3617 92.4018 27.7709 92.4018C27.1801 92.4018 26.6936 91.9149 26.6936 91.3324C26.6936 90.7499 27.1714 90.2544 27.7709 90.2544C28.3704 90.2544 28.8395 90.7413 28.8395 91.3324Z" fill="#002332"/>
<path d="M33.1398 91.3324C33.1398 91.9236 32.662 92.4018 32.0712 92.4018C31.4804 92.4018 30.9939 91.9149 30.9939 91.3324C30.9939 90.7499 31.4717 90.2544 32.0712 90.2544C32.6707 90.2544 33.1398 90.7413 33.1398 91.3324Z" fill="#002332"/>
<path d="M37.4318 91.3324C37.4318 91.9236 36.954 92.4018 36.3632 92.4018C35.7724 92.4018 35.2859 91.9149 35.2859 91.3324C35.2859 90.7499 35.7637 90.2544 36.3632 90.2544C36.9627 90.2544 37.4318 90.7413 37.4318 91.3324Z" fill="#002332"/>
<path d="M41.7323 91.3324C41.7323 91.9236 41.2545 92.4018 40.6637 92.4018C40.0729 92.4018 39.5864 91.9149 39.5864 91.3324C39.5864 90.7499 40.0643 90.2544 40.6637 90.2544C41.2632 90.2544 41.7323 90.7413 41.7323 91.3324Z" fill="#002332"/>
<path d="M46.0241 91.3324C46.0241 91.9236 45.5463 92.4018 44.9555 92.4018C44.3647 92.4018 43.8782 91.9149 43.8782 91.3324C43.8782 90.7499 44.356 90.2544 44.9555 90.2544C45.5549 90.2544 46.0241 90.7413 46.0241 91.3324Z" fill="#002332"/>
<path d="M54.6166 91.3324C54.6166 91.9236 54.1388 92.4018 53.548 92.4018C52.9572 92.4018 52.4707 91.9149 52.4707 91.3324C52.4707 90.7499 52.9485 90.2544 53.548 90.2544C54.1475 90.2544 54.6166 90.7413 54.6166 91.3324Z" fill="#002332"/>
<path d="M58.9084 91.3324C58.9084 91.9236 58.4305 92.4018 57.8397 92.4018C57.249 92.4018 56.7625 91.9149 56.7625 91.3324C56.7625 90.7499 57.2403 90.2544 57.8397 90.2544C58.4392 90.2544 58.9084 90.7413 58.9084 91.3324Z" fill="#002332"/>
<path d="M71.8009 91.3324C71.8009 91.9236 71.3231 92.4018 70.7323 92.4018C70.1416 92.4018 69.655 91.9149 69.655 91.3324C69.655 90.7499 70.1329 90.2544 70.7323 90.2544C71.3318 90.2544 71.8009 90.7413 71.8009 91.3324Z" fill="#002332"/>
<path d="M76.0929 91.3324C76.0929 91.9236 75.6151 92.4018 75.0243 92.4018C74.4335 92.4018 73.947 91.9149 73.947 91.3324C73.947 90.7499 74.4335 90.2544 75.0243 90.2544C75.6151 90.2544 76.0929 90.7413 76.0929 91.3324Z" fill="#002332"/>
<path d="M80.3937 91.3324C80.3937 91.9236 79.9159 92.4018 79.3251 92.4018C78.7343 92.4018 78.2478 91.9149 78.2478 91.3324C78.2478 90.7499 78.7256 90.2544 79.3251 90.2544C79.9246 90.2544 80.3937 90.7413 80.3937 91.3324Z" fill="#002332"/>
<path d="M84.6852 91.3324C84.6852 91.9236 84.2074 92.4018 83.6166 92.4018C83.0258 92.4018 82.5393 91.9149 82.5393 91.3324C82.5393 90.7499 83.0171 90.2544 83.6166 90.2544C84.2161 90.2544 84.6852 90.7413 84.6852 91.3324Z" fill="#002332"/>
<path d="M88.977 91.3324C88.977 91.9236 88.4991 92.4018 87.9084 92.4018C87.3176 92.4018 86.8311 91.9149 86.8311 91.3324C86.8311 90.7499 87.3176 90.2544 87.9084 90.2544C88.4991 90.2544 88.977 90.7413 88.977 91.3324Z" fill="#002332"/>
<path d="M93.278 91.3324C93.278 91.9236 92.8002 92.4018 92.2094 92.4018C91.6186 92.4018 91.1321 91.9149 91.1321 91.3324C91.1321 90.7499 91.6099 90.2544 92.2094 90.2544C92.8088 90.2544 93.278 90.7413 93.278 91.3324Z" fill="#002332"/>
<path d="M97.5695 91.3324C97.5695 91.9236 97.0917 92.4018 96.5009 92.4018C95.9101 92.4018 95.4236 91.9149 95.4236 91.3324C95.4236 90.7499 95.9014 90.2544 96.5009 90.2544C97.1003 90.2544 97.5695 90.7413 97.5695 91.3324Z" fill="#002332"/>
<path d="M101.87 91.3324C101.87 91.9236 101.392 92.4018 100.801 92.4018C100.211 92.4018 99.7241 91.9149 99.7241 91.3324C99.7241 90.7499 100.211 90.2544 100.801 90.2544C101.392 90.2544 101.87 90.7413 101.87 91.3324Z" fill="#002332"/>
<path d="M24.5475 87.0287C24.5475 87.6199 24.0697 88.0981 23.4789 88.0981C22.8881 88.0981 22.4016 87.6112 22.4016 87.0287C22.4016 86.4462 22.8794 85.9507 23.4789 85.9507C24.0784 85.9507 24.5475 86.4375 24.5475 87.0287Z" fill="#002332"/>
<path d="M28.8395 87.0287C28.8395 87.6199 28.3617 88.0981 27.7709 88.0981C27.1801 88.0981 26.6936 87.6112 26.6936 87.0287C26.6936 86.4462 27.1714 85.9507 27.7709 85.9507C28.3704 85.9507 28.8395 86.4375 28.8395 87.0287Z" fill="#002332"/>
<path d="M33.1398 87.0287C33.1398 87.6199 32.662 88.0981 32.0712 88.0981C31.4804 88.0981 30.9939 87.6112 30.9939 87.0287C30.9939 86.4462 31.4717 85.9507 32.0712 85.9507C32.6707 85.9507 33.1398 86.4375 33.1398 87.0287Z" fill="#002332"/>
<path d="M50.3158 87.0287C50.3158 87.6199 49.838 88.0981 49.2472 88.0981C48.6564 88.0981 48.1699 87.6112 48.1699 87.0287C48.1699 86.4462 48.6478 85.9507 49.2472 85.9507C49.8467 85.9507 50.3158 86.4375 50.3158 87.0287Z" fill="#002332"/>
<path d="M54.6166 87.0287C54.6166 87.6199 54.1388 88.0981 53.548 88.0981C52.9572 88.0981 52.4707 87.6112 52.4707 87.0287C52.4707 86.4462 52.9485 85.9507 53.548 85.9507C54.1475 85.9507 54.6166 86.4375 54.6166 87.0287Z" fill="#002332"/>
<path d="M58.9084 87.0287C58.9084 87.6199 58.4305 88.0981 57.8397 88.0981C57.249 88.0981 56.7625 87.6112 56.7625 87.0287C56.7625 86.4462 57.2403 85.9507 57.8397 85.9507C58.4392 85.9507 58.9084 86.4375 58.9084 87.0287Z" fill="#002332"/>
<path d="M67.5007 87.0287C67.5007 87.6199 67.0228 88.0981 66.432 88.0981C65.8413 88.0981 65.3547 87.6112 65.3547 87.0287C65.3547 86.4462 65.8326 85.9507 66.432 85.9507C67.0315 85.9507 67.5007 86.4375 67.5007 87.0287Z" fill="#002332"/>
<path d="M76.0929 87.0287C76.0929 87.6199 75.6151 88.0981 75.0243 88.0981C74.4335 88.0981 73.947 87.6112 73.947 87.0287C73.947 86.4462 74.4335 85.9507 75.0243 85.9507C75.6151 85.9507 76.0929 86.4375 76.0929 87.0287Z" fill="#002332"/>
<path d="M80.3937 87.0287C80.3937 87.6199 79.9159 88.0981 79.3251 88.0981C78.7343 88.0981 78.2478 87.6112 78.2478 87.0287C78.2478 86.4462 78.7256 85.9507 79.3251 85.9507C79.9246 85.9507 80.3937 86.4375 80.3937 87.0287Z" fill="#002332"/>
<path d="M84.6852 87.0287C84.6852 87.6199 84.2074 88.0981 83.6166 88.0981C83.0258 88.0981 82.5393 87.6112 82.5393 87.0287C82.5393 86.4462 83.0171 85.9507 83.6166 85.9507C84.2161 85.9507 84.6852 86.4375 84.6852 87.0287Z" fill="#002332"/>
<path d="M88.977 87.0287C88.977 87.6199 88.4991 88.0981 87.9084 88.0981C87.3176 88.0981 86.8311 87.6112 86.8311 87.0287C86.8311 86.4462 87.3176 85.9507 87.9084 85.9507C88.4991 85.9507 88.977 86.4375 88.977 87.0287Z" fill="#002332"/>
<path d="M93.278 87.0287C93.278 87.6199 92.8002 88.0981 92.2094 88.0981C91.6186 88.0981 91.1321 87.6112 91.1321 87.0287C91.1321 86.4462 91.6099 85.9507 92.2094 85.9507C92.8088 85.9507 93.278 86.4375 93.278 87.0287Z" fill="#002332"/>
<path d="M97.5695 87.0287C97.5695 87.6199 97.0917 88.0981 96.5009 88.0981C95.9101 88.0981 95.4236 87.6112 95.4236 87.0287C95.4236 86.4462 95.9014 85.9507 96.5009 85.9507C97.1003 85.9507 97.5695 86.4375 97.5695 87.0287Z" fill="#002332"/>
<path d="M101.87 87.0287C101.87 87.6199 101.392 88.0981 100.801 88.0981C100.211 88.0981 99.7241 87.6112 99.7241 87.0287C99.7241 86.4462 100.211 85.9507 100.801 85.9507C101.392 85.9507 101.87 86.4375 101.87 87.0287Z" fill="#002332"/>
<path d="M24.5475 82.7343C24.5475 83.3255 24.0697 83.8036 23.4789 83.8036C22.8881 83.8036 22.4016 83.3168 22.4016 82.7343C22.4016 82.1518 22.8794 81.6562 23.4789 81.6562C24.0784 81.6562 24.5475 82.1431 24.5475 82.7343Z" fill="#002332"/>
<path d="M28.8395 82.7343C28.8395 83.3255 28.3617 83.8036 27.7709 83.8036C27.1801 83.8036 26.6936 83.3168 26.6936 82.7343C26.6936 82.1518 27.1714 81.6562 27.7709 81.6562C28.3704 81.6562 28.8395 82.1431 28.8395 82.7343Z" fill="#002332"/>
<path d="M33.1398 82.7343C33.1398 83.3255 32.662 83.8036 32.0712 83.8036C31.4804 83.8036 30.9939 83.3168 30.9939 82.7343C30.9939 82.1518 31.4717 81.6562 32.0712 81.6562C32.6707 81.6562 33.1398 82.1431 33.1398 82.7343Z" fill="#002332"/>
<path d="M50.3158 82.7343C50.3158 83.3255 49.838 83.8036 49.2472 83.8036C48.6564 83.8036 48.1699 83.3168 48.1699 82.7343C48.1699 82.1518 48.6478 81.6562 49.2472 81.6562C49.8467 81.6562 50.3158 82.1431 50.3158 82.7343Z" fill="#002332"/>
<path d="M54.6166 82.7343C54.6166 83.3255 54.1388 83.8036 53.548 83.8036C52.9572 83.8036 52.4707 83.3168 52.4707 82.7343C52.4707 82.1518 52.9485 81.6562 53.548 81.6562C54.1475 81.6562 54.6166 82.1431 54.6166 82.7343Z" fill="#002332"/>
<path d="M58.9084 82.7343C58.9084 83.3255 58.4305 83.8036 57.8397 83.8036C57.249 83.8036 56.7625 83.3168 56.7625 82.7343C56.7625 82.1518 57.2403 81.6562 57.8397 81.6562C58.4392 81.6562 58.9084 82.1431 58.9084 82.7343Z" fill="#002332"/>
<path d="M67.5007 82.7343C67.5007 83.3255 67.0228 83.8036 66.432 83.8036C65.8413 83.8036 65.3547 83.3168 65.3547 82.7343C65.3547 82.1518 65.8326 81.6562 66.432 81.6562C67.0315 81.6562 67.5007 82.1431 67.5007 82.7343Z" fill="#002332"/>
<path d="M71.8009 82.7343C71.8009 83.3255 71.3231 83.8036 70.7323 83.8036C70.1416 83.8036 69.655 83.3168 69.655 82.7343C69.655 82.1518 70.1329 81.6562 70.7323 81.6562C71.3318 81.6562 71.8009 82.1431 71.8009 82.7343Z" fill="#002332"/>
<path d="M80.3937 82.7343C80.3937 83.3255 79.9159 83.8036 79.3251 83.8036C78.7343 83.8036 78.2478 83.3168 78.2478 82.7343C78.2478 82.1518 78.7256 81.6562 79.3251 81.6562C79.9246 81.6562 80.3937 82.1431 80.3937 82.7343Z" fill="#002332"/>
<path d="M84.6852 82.7343C84.6852 83.3255 84.2074 83.8036 83.6166 83.8036C83.0258 83.8036 82.5393 83.3168 82.5393 82.7343C82.5393 82.1518 83.0171 81.6562 83.6166 81.6562C84.2161 81.6562 84.6852 82.1431 84.6852 82.7343Z" fill="#002332"/>
<path d="M88.977 82.7343C88.977 83.3255 88.4991 83.8036 87.9084 83.8036C87.3176 83.8036 86.8311 83.3168 86.8311 82.7343C86.8311 82.1518 87.3176 81.6562 87.9084 81.6562C88.4991 81.6562 88.977 82.1431 88.977 82.7343Z" fill="#002332"/>
<path d="M93.278 82.7343C93.278 83.3255 92.8002 83.8036 92.2094 83.8036C91.6186 83.8036 91.1321 83.3168 91.1321 82.7343C91.1321 82.1518 91.6099 81.6562 92.2094 81.6562C92.8088 81.6562 93.278 82.1431 93.278 82.7343Z" fill="#002332"/>
<path d="M97.5695 82.7343C97.5695 83.3255 97.0917 83.8036 96.5009 83.8036C95.9101 83.8036 95.4236 83.3168 95.4236 82.7343C95.4236 82.1518 95.9014 81.6562 96.5009 81.6562C97.1003 81.6562 97.5695 82.1431 97.5695 82.7343Z" fill="#002332"/>
<path d="M101.87 82.7343C101.87 83.3255 101.392 83.8036 100.801 83.8036C100.211 83.8036 99.7241 83.3168 99.7241 82.7343C99.7241 82.1518 100.211 81.6562 100.801 81.6562C101.392 81.6562 101.87 82.1431 101.87 82.7343Z" fill="#002332"/>
<path d="M24.5475 78.4306C24.5475 79.0218 24.0697 79.4999 23.4789 79.4999C22.8881 79.4999 22.4016 79.0131 22.4016 78.4306C22.4016 77.8481 22.8794 77.3525 23.4789 77.3525C24.0784 77.3525 24.5475 77.8394 24.5475 78.4306Z" fill="#002332"/>
<path d="M28.8395 78.4306C28.8395 79.0218 28.3617 79.4999 27.7709 79.4999C27.1801 79.4999 26.6936 79.0131 26.6936 78.4306C26.6936 77.8481 27.1714 77.3525 27.7709 77.3525C28.3704 77.3525 28.8395 77.8394 28.8395 78.4306Z" fill="#002332"/>
<path d="M33.1398 78.4306C33.1398 79.0218 32.662 79.4999 32.0712 79.4999C31.4804 79.4999 30.9939 79.0131 30.9939 78.4306C30.9939 77.8481 31.4717 77.3525 32.0712 77.3525C32.6707 77.3525 33.1398 77.8394 33.1398 78.4306Z" fill="#002332"/>
<path d="M50.3158 78.4306C50.3158 79.0218 49.838 79.4999 49.2472 79.4999C48.6564 79.4999 48.1699 79.0131 48.1699 78.4306C48.1699 77.8481 48.6478 77.3525 49.2472 77.3525C49.8467 77.3525 50.3158 77.8394 50.3158 78.4306Z" fill="#002332"/>
<path d="M54.6166 78.4306C54.6166 79.0218 54.1388 79.4999 53.548 79.4999C52.9572 79.4999 52.4707 79.0131 52.4707 78.4306C52.4707 77.8481 52.9485 77.3525 53.548 77.3525C54.1475 77.3525 54.6166 77.8394 54.6166 78.4306Z" fill="#002332"/>
<path d="M58.9084 78.4306C58.9084 79.0218 58.4305 79.4999 57.8397 79.4999C57.249 79.4999 56.7625 79.0131 56.7625 78.4306C56.7625 77.8481 57.2403 77.3525 57.8397 77.3525C58.4392 77.3525 58.9084 77.8394 58.9084 78.4306Z" fill="#002332"/>
<path d="M67.5007 78.4306C67.5007 79.0218 67.0228 79.4999 66.432 79.4999C65.8413 79.4999 65.3547 79.0131 65.3547 78.4306C65.3547 77.8481 65.8326 77.3525 66.432 77.3525C67.0315 77.3525 67.5007 77.8394 67.5007 78.4306Z" fill="#002332"/>
<path d="M71.8009 78.4306C71.8009 79.0218 71.3231 79.4999 70.7323 79.4999C70.1416 79.4999 69.655 79.0131 69.655 78.4306C69.655 77.8481 70.1329 77.3525 70.7323 77.3525C71.3318 77.3525 71.8009 77.8394 71.8009 78.4306Z" fill="#002332"/>
<path d="M76.0929 78.4306C76.0929 79.0218 75.6151 79.4999 75.0243 79.4999C74.4335 79.4999 73.947 79.0131 73.947 78.4306C73.947 77.8481 74.4335 77.3525 75.0243 77.3525C75.6151 77.3525 76.0929 77.8394 76.0929 78.4306Z" fill="#002332"/>
<path d="M93.278 78.4306C93.278 79.0218 92.8002 79.4999 92.2094 79.4999C91.6186 79.4999 91.1321 79.0131 91.1321 78.4306C91.1321 77.8481 91.6099 77.3525 92.2094 77.3525C92.8088 77.3525 93.278 77.8394 93.278 78.4306Z" fill="#002332"/>
<path d="M97.5695 78.4306C97.5695 79.0218 97.0917 79.4999 96.5009 79.4999C95.9101 79.4999 95.4236 79.0131 95.4236 78.4306C95.4236 77.8481 95.9014 77.3525 96.5009 77.3525C97.1003 77.3525 97.5695 77.8394 97.5695 78.4306Z" fill="#002332"/>
<path d="M101.87 78.4306C101.87 79.0218 101.392 79.4999 100.801 79.4999C100.211 79.4999 99.7241 79.0131 99.7241 78.4306C99.7241 77.8481 100.211 77.3525 100.801 77.3525C101.392 77.3525 101.87 77.8394 101.87 78.4306Z" fill="#002332"/>
<path d="M24.5475 74.1357C24.5475 74.7269 24.0697 75.205 23.4789 75.205C22.8881 75.205 22.4016 74.7182 22.4016 74.1357C22.4016 73.5532 22.8794 73.0576 23.4789 73.0576C24.0784 73.0576 24.5475 73.5445 24.5475 74.1357Z" fill="#002332"/>
<path d="M28.8395 74.1357C28.8395 74.7269 28.3617 75.205 27.7709 75.205C27.1801 75.205 26.6936 74.7182 26.6936 74.1357C26.6936 73.5532 27.1714 73.0576 27.7709 73.0576C28.3704 73.0576 28.8395 73.5445 28.8395 74.1357Z" fill="#002332"/>
<path d="M33.1398 74.1357C33.1398 74.7269 32.662 75.205 32.0712 75.205C31.4804 75.205 30.9939 74.7182 30.9939 74.1357C30.9939 73.5532 31.4717 73.0576 32.0712 73.0576C32.6707 73.0576 33.1398 73.5445 33.1398 74.1357Z" fill="#002332"/>
<path d="M37.4318 74.1357C37.4318 74.7269 36.954 75.205 36.3632 75.205C35.7724 75.205 35.2859 74.7182 35.2859 74.1357C35.2859 73.5532 35.7637 73.0576 36.3632 73.0576C36.9627 73.0576 37.4318 73.5445 37.4318 74.1357Z" fill="#002332"/>
<path d="M41.7323 74.1357C41.7323 74.7269 41.2545 75.205 40.6637 75.205C40.0729 75.205 39.5864 74.7182 39.5864 74.1357C39.5864 73.5532 40.0643 73.0576 40.6637 73.0576C41.2632 73.0576 41.7323 73.5445 41.7323 74.1357Z" fill="#002332"/>
<path d="M46.0241 74.1357C46.0241 74.7269 45.5463 75.205 44.9555 75.205C44.3647 75.205 43.8782 74.7182 43.8782 74.1357C43.8782 73.5532 44.356 73.0576 44.9555 73.0576C45.5549 73.0576 46.0241 73.5445 46.0241 74.1357Z" fill="#002332"/>
<path d="M50.3158 74.1357C50.3158 74.7269 49.838 75.205 49.2472 75.205C48.6564 75.205 48.1699 74.7182 48.1699 74.1357C48.1699 73.5532 48.6478 73.0576 49.2472 73.0576C49.8467 73.0576 50.3158 73.5445 50.3158 74.1357Z" fill="#002332"/>
<path d="M54.6166 74.1357C54.6166 74.7269 54.1388 75.205 53.548 75.205C52.9572 75.205 52.4707 74.7182 52.4707 74.1357C52.4707 73.5532 52.9485 73.0576 53.548 73.0576C54.1475 73.0576 54.6166 73.5445 54.6166 74.1357Z" fill="#002332"/>
<path d="M58.9084 74.1357C58.9084 74.7269 58.4305 75.205 57.8397 75.205C57.249 75.205 56.7625 74.7182 56.7625 74.1357C56.7625 73.5532 57.2403 73.0576 57.8397 73.0576C58.4392 73.0576 58.9084 73.5445 58.9084 74.1357Z" fill="#002332"/>
<path d="M67.5007 74.1357C67.5007 74.7269 67.0228 75.205 66.432 75.205C65.8413 75.205 65.3547 74.7182 65.3547 74.1357C65.3547 73.5532 65.8326 73.0576 66.432 73.0576C67.0315 73.0576 67.5007 73.5445 67.5007 74.1357Z" fill="#002332"/>
<path d="M71.8009 74.1357C71.8009 74.7269 71.3231 75.205 70.7323 75.205C70.1416 75.205 69.655 74.7182 69.655 74.1357C69.655 73.5532 70.1329 73.0576 70.7323 73.0576C71.3318 73.0576 71.8009 73.5445 71.8009 74.1357Z" fill="#002332"/>
<path d="M76.0929 74.1357C76.0929 74.7269 75.6151 75.205 75.0243 75.205C74.4335 75.205 73.947 74.7182 73.947 74.1357C73.947 73.5532 74.4335 73.0576 75.0243 73.0576C75.6151 73.0576 76.0929 73.5445 76.0929 74.1357Z" fill="#002332"/>
<path d="M93.278 74.1357C93.278 74.7269 92.8002 75.205 92.2094 75.205C91.6186 75.205 91.1321 74.7182 91.1321 74.1357C91.1321 73.5532 91.6099 73.0576 92.2094 73.0576C92.8088 73.0576 93.278 73.5445 93.278 74.1357Z" fill="#002332"/>
<path d="M97.5695 74.1357C97.5695 74.7269 97.0917 75.205 96.5009 75.205C95.9101 75.205 95.4236 74.7182 95.4236 74.1357C95.4236 73.5532 95.9014 73.0576 96.5009 73.0576C97.1003 73.0576 97.5695 73.5445 97.5695 74.1357Z" fill="#002332"/>
<path d="M101.87 74.1357C101.87 74.7269 101.392 75.205 100.801 75.205C100.211 75.205 99.7241 74.7182 99.7241 74.1357C99.7241 73.5532 100.211 73.0576 100.801 73.0576C101.392 73.0576 101.87 73.5445 101.87 74.1357Z" fill="#002332"/>
<path d="M24.5475 69.8324C24.5475 70.4236 24.0697 70.9018 23.4789 70.9018C22.8881 70.9018 22.4016 70.4149 22.4016 69.8324C22.4016 69.2499 22.8794 68.7544 23.4789 68.7544C24.0784 68.7544 24.5475 69.2413 24.5475 69.8324Z" fill="#002332"/>
<path d="M28.8395 69.8324C28.8395 70.4236 28.3617 70.9018 27.7709 70.9018C27.1801 70.9018 26.6936 70.4149 26.6936 69.8324C26.6936 69.2499 27.1714 68.7544 27.7709 68.7544C28.3704 68.7544 28.8395 69.2413 28.8395 69.8324Z" fill="#002332"/>
<path d="M33.1398 69.8324C33.1398 70.4236 32.662 70.9018 32.0712 70.9018C31.4804 70.9018 30.9939 70.4149 30.9939 69.8324C30.9939 69.2499 31.4717 68.7544 32.0712 68.7544C32.6707 68.7544 33.1398 69.2413 33.1398 69.8324Z" fill="#002332"/>
<path d="M37.4318 69.8324C37.4318 70.4236 36.954 70.9018 36.3632 70.9018C35.7724 70.9018 35.2859 70.4149 35.2859 69.8324C35.2859 69.2499 35.7637 68.7544 36.3632 68.7544C36.9627 68.7544 37.4318 69.2413 37.4318 69.8324Z" fill="#002332"/>
<path d="M41.7323 69.8324C41.7323 70.4236 41.2545 70.9018 40.6637 70.9018C40.0729 70.9018 39.5864 70.4149 39.5864 69.8324C39.5864 69.2499 40.0643 68.7544 40.6637 68.7544C41.2632 68.7544 41.7323 69.2413 41.7323 69.8324Z" fill="#002332"/>
<path d="M46.0241 69.8324C46.0241 70.4236 45.5463 70.9018 44.9555 70.9018C44.3647 70.9018 43.8782 70.4149 43.8782 69.8324C43.8782 69.2499 44.356 68.7544 44.9555 68.7544C45.5549 68.7544 46.0241 69.2413 46.0241 69.8324Z" fill="#002332"/>
<path d="M50.3158 69.8324C50.3158 70.4236 49.838 70.9018 49.2472 70.9018C48.6564 70.9018 48.1699 70.4149 48.1699 69.8324C48.1699 69.2499 48.6478 68.7544 49.2472 68.7544C49.8467 68.7544 50.3158 69.2413 50.3158 69.8324Z" fill="#002332"/>
<path d="M54.6166 69.8324C54.6166 70.4236 54.1388 70.9018 53.548 70.9018C52.9572 70.9018 52.4707 70.4149 52.4707 69.8324C52.4707 69.2499 52.9485 68.7544 53.548 68.7544C54.1475 68.7544 54.6166 69.2413 54.6166 69.8324Z" fill="#002332"/>
<path d="M58.9084 69.8324C58.9084 70.4236 58.4305 70.9018 57.8397 70.9018C57.249 70.9018 56.7625 70.4149 56.7625 69.8324C56.7625 69.2499 57.2403 68.7544 57.8397 68.7544C58.4392 68.7544 58.9084 69.2413 58.9084 69.8324Z" fill="#002332"/>
<path d="M67.5007 69.8324C67.5007 70.4236 67.0228 70.9018 66.432 70.9018C65.8413 70.9018 65.3547 70.4149 65.3547 69.8324C65.3547 69.2499 65.8326 68.7544 66.432 68.7544C67.0315 68.7544 67.5007 69.2413 67.5007 69.8324Z" fill="#002332"/>
<path d="M71.8009 69.8324C71.8009 70.4236 71.3231 70.9018 70.7323 70.9018C70.1416 70.9018 69.655 70.4149 69.655 69.8324C69.655 69.2499 70.1329 68.7544 70.7323 68.7544C71.3318 68.7544 71.8009 69.2413 71.8009 69.8324Z" fill="#002332"/>
<path d="M76.0929 69.8324C76.0929 70.4236 75.6151 70.9018 75.0243 70.9018C74.4335 70.9018 73.947 70.4149 73.947 69.8324C73.947 69.2499 74.4335 68.7544 75.0243 68.7544C75.6151 68.7544 76.0929 69.2413 76.0929 69.8324Z" fill="#002332"/>
<path d="M93.278 69.8324C93.278 70.4236 92.8002 70.9018 92.2094 70.9018C91.6186 70.9018 91.1321 70.4149 91.1321 69.8324C91.1321 69.2499 91.6099 68.7544 92.2094 68.7544C92.8088 68.7544 93.278 69.2413 93.278 69.8324Z" fill="#002332"/>
<path d="M97.5695 69.8324C97.5695 70.4236 97.0917 70.9018 96.5009 70.9018C95.9101 70.9018 95.4236 70.4149 95.4236 69.8324C95.4236 69.2499 95.9014 68.7544 96.5009 68.7544C97.1003 68.7544 97.5695 69.2413 97.5695 69.8324Z" fill="#002332"/>
<path d="M101.87 69.8324C101.87 70.4236 101.392 70.9018 100.801 70.9018C100.211 70.9018 99.7241 70.4149 99.7241 69.8324C99.7241 69.2499 100.211 68.7544 100.801 68.7544C101.392 68.7544 101.87 69.2413 101.87 69.8324Z" fill="#002332"/>
<path d="M24.5475 65.5375C24.5475 66.1287 24.0697 66.6069 23.4789 66.6069C22.8881 66.6069 22.4016 66.12 22.4016 65.5375C22.4016 64.955 22.8794 64.4595 23.4789 64.4595C24.0784 64.4595 24.5475 64.9463 24.5475 65.5375Z" fill="#002332"/>
<path d="M28.8395 65.5375C28.8395 66.1287 28.3617 66.6069 27.7709 66.6069C27.1801 66.6069 26.6936 66.12 26.6936 65.5375C26.6936 64.955 27.1714 64.4595 27.7709 64.4595C28.3704 64.4595 28.8395 64.9463 28.8395 65.5375Z" fill="#002332"/>
<path d="M33.1398 65.5375C33.1398 66.1287 32.662 66.6069 32.0712 66.6069C31.4804 66.6069 30.9939 66.12 30.9939 65.5375C30.9939 64.955 31.4717 64.4595 32.0712 64.4595C32.6707 64.4595 33.1398 64.9463 33.1398 65.5375Z" fill="#002332"/>
<path d="M37.4318 65.5375C37.4318 66.1287 36.954 66.6069 36.3632 66.6069C35.7724 66.6069 35.2859 66.12 35.2859 65.5375C35.2859 64.955 35.7637 64.4595 36.3632 64.4595C36.9627 64.4595 37.4318 64.9463 37.4318 65.5375Z" fill="#002332"/>
<path d="M41.7323 65.5375C41.7323 66.1287 41.2545 66.6069 40.6637 66.6069C40.0729 66.6069 39.5864 66.12 39.5864 65.5375C39.5864 64.955 40.0643 64.4595 40.6637 64.4595C41.2632 64.4595 41.7323 64.9463 41.7323 65.5375Z" fill="#002332"/>
<path d="M46.0241 65.5375C46.0241 66.1287 45.5463 66.6069 44.9555 66.6069C44.3647 66.6069 43.8782 66.12 43.8782 65.5375C43.8782 64.955 44.356 64.4595 44.9555 64.4595C45.5549 64.4595 46.0241 64.9463 46.0241 65.5375Z" fill="#002332"/>
<path d="M50.3158 65.5375C50.3158 66.1287 49.838 66.6069 49.2472 66.6069C48.6564 66.6069 48.1699 66.12 48.1699 65.5375C48.1699 64.955 48.6478 64.4595 49.2472 64.4595C49.8467 64.4595 50.3158 64.9463 50.3158 65.5375Z" fill="#002332"/>
<path d="M54.6166 65.5375C54.6166 66.1287 54.1388 66.6069 53.548 66.6069C52.9572 66.6069 52.4707 66.12 52.4707 65.5375C52.4707 64.955 52.9485 64.4595 53.548 64.4595C54.1475 64.4595 54.6166 64.9463 54.6166 65.5375Z" fill="#002332"/>
<path d="M58.9084 65.5375C58.9084 66.1287 58.4305 66.6069 57.8397 66.6069C57.249 66.6069 56.7625 66.12 56.7625 65.5375C56.7625 64.955 57.2403 64.4595 57.8397 64.4595C58.4392 64.4595 58.9084 64.9463 58.9084 65.5375Z" fill="#002332"/>
<path d="M67.5007 65.5375C67.5007 66.1287 67.0228 66.6069 66.432 66.6069C65.8413 66.6069 65.3547 66.12 65.3547 65.5375C65.3547 64.955 65.8326 64.4595 66.432 64.4595C67.0315 64.4595 67.5007 64.9463 67.5007 65.5375Z" fill="#002332"/>
<path d="M71.8009 65.5375C71.8009 66.1287 71.3231 66.6069 70.7323 66.6069C70.1416 66.6069 69.655 66.12 69.655 65.5375C69.655 64.955 70.1329 64.4595 70.7323 64.4595C71.3318 64.4595 71.8009 64.9463 71.8009 65.5375Z" fill="#002332"/>
<path d="M76.0929 65.5375C76.0929 66.1287 75.6151 66.6069 75.0243 66.6069C74.4335 66.6069 73.947 66.12 73.947 65.5375C73.947 64.955 74.4335 64.4595 75.0243 64.4595C75.6151 64.4595 76.0929 64.9463 76.0929 65.5375Z" fill="#002332"/>
<path d="M80.3937 65.5375C80.3937 66.1287 79.9159 66.6069 79.3251 66.6069C78.7343 66.6069 78.2478 66.12 78.2478 65.5375C78.2478 64.955 78.7256 64.4595 79.3251 64.4595C79.9246 64.4595 80.3937 64.9463 80.3937 65.5375Z" fill="#002332"/>
<path d="M84.6852 65.5375C84.6852 66.1287 84.2074 66.6069 83.6166 66.6069C83.0258 66.6069 82.5393 66.12 82.5393 65.5375C82.5393 64.955 83.0171 64.4595 83.6166 64.4595C84.2161 64.4595 84.6852 64.9463 84.6852 65.5375Z" fill="#002332"/>
<path d="M88.977 65.5375C88.977 66.1287 88.4991 66.6069 87.9084 66.6069C87.3176 66.6069 86.8311 66.12 86.8311 65.5375C86.8311 64.955 87.3176 64.4595 87.9084 64.4595C88.4991 64.4595 88.977 64.9463 88.977 65.5375Z" fill="#002332"/>
<path d="M93.278 65.5375C93.278 66.1287 92.8002 66.6069 92.2094 66.6069C91.6186 66.6069 91.1321 66.12 91.1321 65.5375C91.1321 64.955 91.6099 64.4595 92.2094 64.4595C92.8088 64.4595 93.278 64.9463 93.278 65.5375Z" fill="#002332"/>
<path d="M97.5695 65.5375C97.5695 66.1287 97.0917 66.6069 96.5009 66.6069C95.9101 66.6069 95.4236 66.12 95.4236 65.5375C95.4236 64.955 95.9014 64.4595 96.5009 64.4595C97.1003 64.4595 97.5695 64.9463 97.5695 65.5375Z" fill="#002332"/>
<path d="M101.87 65.5375C101.87 66.1287 101.392 66.6069 100.801 66.6069C100.211 66.6069 99.7241 66.12 99.7241 65.5375C99.7241 64.955 100.211 64.4595 100.801 64.4595C101.392 64.4595 101.87 64.9463 101.87 65.5375Z" fill="#002332"/>
<path d="M24.5475 61.2343C24.5475 61.8255 24.0697 62.3037 23.4789 62.3037C22.8881 62.3037 22.4016 61.8168 22.4016 61.2343C22.4016 60.6518 22.8794 60.1562 23.4789 60.1562C24.0784 60.1562 24.5475 60.6431 24.5475 61.2343Z" fill="#002332"/>
<path d="M28.8395 61.2343C28.8395 61.8255 28.3617 62.3037 27.7709 62.3037C27.1801 62.3037 26.6936 61.8168 26.6936 61.2343C26.6936 60.6518 27.1714 60.1562 27.7709 60.1562C28.3704 60.1562 28.8395 60.6431 28.8395 61.2343Z" fill="#002332"/>
<path d="M33.1398 61.2343C33.1398 61.8255 32.662 62.3037 32.0712 62.3037C31.4804 62.3037 30.9939 61.8168 30.9939 61.2343C30.9939 60.6518 31.4717 60.1562 32.0712 60.1562C32.6707 60.1562 33.1398 60.6431 33.1398 61.2343Z" fill="#002332"/>
<path d="M37.4318 61.2343C37.4318 61.8255 36.954 62.3037 36.3632 62.3037C35.7724 62.3037 35.2859 61.8168 35.2859 61.2343C35.2859 60.6518 35.7637 60.1562 36.3632 60.1562C36.9627 60.1562 37.4318 60.6431 37.4318 61.2343Z" fill="#002332"/>
<path d="M41.7323 61.2343C41.7323 61.8255 41.2545 62.3037 40.6637 62.3037C40.0729 62.3037 39.5864 61.8168 39.5864 61.2343C39.5864 60.6518 40.0643 60.1562 40.6637 60.1562C41.2632 60.1562 41.7323 60.6431 41.7323 61.2343Z" fill="#002332"/>
<path d="M46.0241 61.2343C46.0241 61.8255 45.5463 62.3037 44.9555 62.3037C44.3647 62.3037 43.8782 61.8168 43.8782 61.2343C43.8782 60.6518 44.356 60.1562 44.9555 60.1562C45.5549 60.1562 46.0241 60.6431 46.0241 61.2343Z" fill="#002332"/>
<path d="M50.3158 61.2343C50.3158 61.8255 49.838 62.3037 49.2472 62.3037C48.6564 62.3037 48.1699 61.8168 48.1699 61.2343C48.1699 60.6518 48.6478 60.1562 49.2472 60.1562C49.8467 60.1562 50.3158 60.6431 50.3158 61.2343Z" fill="#002332"/>
<path d="M54.6166 61.2343C54.6166 61.8255 54.1388 62.3037 53.548 62.3037C52.9572 62.3037 52.4707 61.8168 52.4707 61.2343C52.4707 60.6518 52.9485 60.1562 53.548 60.1562C54.1475 60.1562 54.6166 60.6431 54.6166 61.2343Z" fill="#002332"/>
<path d="M58.9084 61.2343C58.9084 61.8255 58.4305 62.3037 57.8397 62.3037C57.249 62.3037 56.7625 61.8168 56.7625 61.2343C56.7625 60.6518 57.2403 60.1562 57.8397 60.1562C58.4392 60.1562 58.9084 60.6431 58.9084 61.2343Z" fill="#002332"/>
<path d="M67.5007 61.2343C67.5007 61.8255 67.0228 62.3037 66.432 62.3037C65.8413 62.3037 65.3547 61.8168 65.3547 61.2343C65.3547 60.6518 65.8326 60.1562 66.432 60.1562C67.0315 60.1562 67.5007 60.6431 67.5007 61.2343Z" fill="#002332"/>
<path d="M71.8009 61.2343C71.8009 61.8255 71.3231 62.3037 70.7323 62.3037C70.1416 62.3037 69.655 61.8168 69.655 61.2343C69.655 60.6518 70.1329 60.1562 70.7323 60.1562C71.3318 60.1562 71.8009 60.6431 71.8009 61.2343Z" fill="#002332"/>
<path d="M76.0929 61.2343C76.0929 61.8255 75.6151 62.3037 75.0243 62.3037C74.4335 62.3037 73.947 61.8168 73.947 61.2343C73.947 60.6518 74.4335 60.1562 75.0243 60.1562C75.6151 60.1562 76.0929 60.6431 76.0929 61.2343Z" fill="#002332"/>
<path d="M80.3937 61.2343C80.3937 61.8255 79.9159 62.3037 79.3251 62.3037C78.7343 62.3037 78.2478 61.8168 78.2478 61.2343C78.2478 60.6518 78.7256 60.1562 79.3251 60.1562C79.9246 60.1562 80.3937 60.6431 80.3937 61.2343Z" fill="#002332"/>
<path d="M84.6852 61.2343C84.6852 61.8255 84.2074 62.3037 83.6166 62.3037C83.0258 62.3037 82.5393 61.8168 82.5393 61.2343C82.5393 60.6518 83.0171 60.1562 83.6166 60.1562C84.2161 60.1562 84.6852 60.6431 84.6852 61.2343Z" fill="#002332"/>
<path d="M88.977 61.2343C88.977 61.8255 88.4991 62.3037 87.9084 62.3037C87.3176 62.3037 86.8311 61.8168 86.8311 61.2343C86.8311 60.6518 87.3176 60.1562 87.9084 60.1562C88.4991 60.1562 88.977 60.6431 88.977 61.2343Z" fill="#002332"/>
<path d="M93.278 61.2343C93.278 61.8255 92.8002 62.3037 92.2094 62.3037C91.6186 62.3037 91.1321 61.8168 91.1321 61.2343C91.1321 60.6518 91.6099 60.1562 92.2094 60.1562C92.8088 60.1562 93.278 60.6431 93.278 61.2343Z" fill="#002332"/>
<path d="M97.5695 61.2343C97.5695 61.8255 97.0917 62.3037 96.5009 62.3037C95.9101 62.3037 95.4236 61.8168 95.4236 61.2343C95.4236 60.6518 95.9014 60.1562 96.5009 60.1562C97.1003 60.1562 97.5695 60.6431 97.5695 61.2343Z" fill="#002332"/>
<path d="M101.87 61.2343C101.87 61.8255 101.392 62.3037 100.801 62.3037C100.211 62.3037 99.7241 61.8168 99.7241 61.2343C99.7241 60.6518 100.211 60.1562 100.801 60.1562C101.392 60.1562 101.87 60.6431 101.87 61.2343Z" fill="#002332"/>
<path d="M28.8395 56.9394C28.8395 57.5306 28.3617 58.0087 27.7709 58.0087C27.1801 58.0087 26.6936 57.5219 26.6936 56.9394C26.6936 56.3569 27.1714 55.8613 27.7709 55.8613C28.3704 55.8613 28.8395 56.3482 28.8395 56.9394Z" fill="#002332"/>
<path d="M33.1398 56.9394C33.1398 57.5306 32.662 58.0087 32.0712 58.0087C31.4804 58.0087 30.9939 57.5219 30.9939 56.9394C30.9939 56.3569 31.4717 55.8613 32.0712 55.8613C32.6707 55.8613 33.1398 56.3482 33.1398 56.9394Z" fill="#002332"/>
<path d="M37.4318 56.9394C37.4318 57.5306 36.954 58.0087 36.3632 58.0087C35.7724 58.0087 35.2859 57.5219 35.2859 56.9394C35.2859 56.3569 35.7637 55.8613 36.3632 55.8613C36.9627 55.8613 37.4318 56.3482 37.4318 56.9394Z" fill="#002332"/>
<path d="M41.7323 56.9394C41.7323 57.5306 41.2545 58.0087 40.6637 58.0087C40.0729 58.0087 39.5864 57.5219 39.5864 56.9394C39.5864 56.3569 40.0643 55.8613 40.6637 55.8613C41.2632 55.8613 41.7323 56.3482 41.7323 56.9394Z" fill="#002332"/>
<path d="M46.0241 56.9394C46.0241 57.5306 45.5463 58.0087 44.9555 58.0087C44.3647 58.0087 43.8782 57.5219 43.8782 56.9394C43.8782 56.3569 44.356 55.8613 44.9555 55.8613C45.5549 55.8613 46.0241 56.3482 46.0241 56.9394Z" fill="#002332"/>
<path d="M50.3158 56.9394C50.3158 57.5306 49.838 58.0087 49.2472 58.0087C48.6564 58.0087 48.1699 57.5219 48.1699 56.9394C48.1699 56.3569 48.6478 55.8613 49.2472 55.8613C49.8467 55.8613 50.3158 56.3482 50.3158 56.9394Z" fill="#002332"/>
<path d="M54.6166 56.9394C54.6166 57.5306 54.1388 58.0087 53.548 58.0087C52.9572 58.0087 52.4707 57.5219 52.4707 56.9394C52.4707 56.3569 52.9485 55.8613 53.548 55.8613C54.1475 55.8613 54.6166 56.3482 54.6166 56.9394Z" fill="#002332"/>
<path d="M71.8009 56.9394C71.8009 57.5306 71.3231 58.0087 70.7323 58.0087C70.1416 58.0087 69.655 57.5219 69.655 56.9394C69.655 56.3569 70.1329 55.8613 70.7323 55.8613C71.3318 55.8613 71.8009 56.3482 71.8009 56.9394Z" fill="#002332"/>
<path d="M76.0929 56.9394C76.0929 57.5306 75.6151 58.0087 75.0243 58.0087C74.4335 58.0087 73.947 57.5219 73.947 56.9394C73.947 56.3569 74.4335 55.8613 75.0243 55.8613C75.6151 55.8613 76.0929 56.3482 76.0929 56.9394Z" fill="#002332"/>
<path d="M80.3937 56.9394C80.3937 57.5306 79.9159 58.0087 79.3251 58.0087C78.7343 58.0087 78.2478 57.5219 78.2478 56.9394C78.2478 56.3569 78.7256 55.8613 79.3251 55.8613C79.9246 55.8613 80.3937 56.3482 80.3937 56.9394Z" fill="#002332"/>
<path d="M84.6852 56.9394C84.6852 57.5306 84.2074 58.0087 83.6166 58.0087C83.0258 58.0087 82.5393 57.5219 82.5393 56.9394C82.5393 56.3569 83.0171 55.8613 83.6166 55.8613C84.2161 55.8613 84.6852 56.3482 84.6852 56.9394Z" fill="#002332"/>
<path d="M88.977 56.9394C88.977 57.5306 88.4991 58.0087 87.9084 58.0087C87.3176 58.0087 86.8311 57.5219 86.8311 56.9394C86.8311 56.3569 87.3176 55.8613 87.9084 55.8613C88.4991 55.8613 88.977 56.3482 88.977 56.9394Z" fill="#002332"/>
<path d="M93.278 56.9394C93.278 57.5306 92.8002 58.0087 92.2094 58.0087C91.6186 58.0087 91.1321 57.5219 91.1321 56.9394C91.1321 56.3569 91.6099 55.8613 92.2094 55.8613C92.8088 55.8613 93.278 56.3482 93.278 56.9394Z" fill="#002332"/>
<path d="M97.5695 56.9394C97.5695 57.5306 97.0917 58.0087 96.5009 58.0087C95.9101 58.0087 95.4236 57.5219 95.4236 56.9394C95.4236 56.3569 95.9014 55.8613 96.5009 55.8613C97.1003 55.8613 97.5695 56.3482 97.5695 56.9394Z" fill="#002332"/>
<path d="M33.1398 52.6357C33.1398 53.2268 32.662 53.705 32.0712 53.705C31.4804 53.705 30.9939 53.2182 30.9939 52.6357C30.9939 52.0532 31.4717 51.5576 32.0712 51.5576C32.6707 51.5576 33.1398 52.0445 33.1398 52.6357Z" fill="#002332"/>
<path d="M37.4318 52.6357C37.4318 53.2268 36.954 53.705 36.3632 53.705C35.7724 53.705 35.2859 53.2182 35.2859 52.6357C35.2859 52.0532 35.7637 51.5576 36.3632 51.5576C36.9627 51.5576 37.4318 52.0445 37.4318 52.6357Z" fill="#002332"/>
<path d="M41.7323 52.6357C41.7323 53.2268 41.2545 53.705 40.6637 53.705C40.0729 53.705 39.5864 53.2182 39.5864 52.6357C39.5864 52.0532 40.0643 51.5576 40.6637 51.5576C41.2632 51.5576 41.7323 52.0445 41.7323 52.6357Z" fill="#002332"/>
<path d="M46.0241 52.6357C46.0241 53.2268 45.5463 53.705 44.9555 53.705C44.3647 53.705 43.8782 53.2182 43.8782 52.6357C43.8782 52.0532 44.356 51.5576 44.9555 51.5576C45.5549 51.5576 46.0241 52.0445 46.0241 52.6357Z" fill="#002332"/>
<path d="M50.3158 52.6357C50.3158 53.2268 49.838 53.705 49.2472 53.705C48.6564 53.705 48.1699 53.2182 48.1699 52.6357C48.1699 52.0532 48.6478 51.5576 49.2472 51.5576C49.8467 51.5576 50.3158 52.0445 50.3158 52.6357Z" fill="#002332"/>
<path d="M54.6166 52.6357C54.6166 53.2268 54.1388 53.705 53.548 53.705C52.9572 53.705 52.4707 53.2182 52.4707 52.6357C52.4707 52.0532 52.9485 51.5576 53.548 51.5576C54.1475 51.5576 54.6166 52.0445 54.6166 52.6357Z" fill="#002332"/>
<path d="M40.6549 80.5781C39.4647 80.5781 38.509 81.5432 38.509 82.7342C38.509 83.9253 39.4647 84.8816 40.6549 84.8816C41.8452 84.8816 42.8009 83.9166 42.8009 82.7342C42.8009 81.5432 41.8365 80.5781 40.6549 80.5781ZM40.6549 83.8036C40.0642 83.8036 39.5863 83.3167 39.5863 82.7255C39.5863 82.1256 40.0729 81.6475 40.6549 81.6475C41.237 81.6475 41.7322 82.1256 41.7322 82.7255C41.7322 83.3254 41.2457 83.8036 40.6549 83.8036Z" fill="#002332"/>
<path d="M83.6166 71.9795C82.4264 71.9795 81.4707 72.9445 81.4707 74.1356C81.4707 75.3267 82.4264 76.283 83.6166 76.283C84.8069 76.283 85.7625 75.318 85.7625 74.1356C85.7625 72.9445 84.7982 71.9795 83.6166 71.9795ZM83.6166 75.2049C83.0258 75.2049 82.548 74.7181 82.548 74.1269C82.548 73.5357 83.0345 73.0488 83.6166 73.0488C84.1987 73.0488 84.6939 73.527 84.6939 74.1269C84.6939 74.7268 84.2074 75.2049 83.6166 75.2049Z" fill="#002332"/>
<path d="M62.1315 50.4883C60.95 50.4883 59.9856 51.4533 59.9856 52.6357C59.9856 53.8181 60.95 54.7831 62.1315 54.7831C63.3131 54.7831 64.2774 53.8181 64.2774 52.6357C64.2774 51.4533 63.3131 50.4883 62.1315 50.4883ZM62.1315 53.7137C61.5407 53.7137 61.0629 53.2269 61.0629 52.6357C61.0629 52.0445 61.5494 51.5576 62.1315 51.5576C62.7136 51.5576 63.2088 52.0358 63.2088 52.6357C63.2088 53.2356 62.7223 53.7137 62.1315 53.7137Z" fill="#002332"/>
<path d="M71.8009 52.6357C71.8009 53.2268 71.3231 53.705 70.7323 53.705C70.1416 53.705 69.655 53.2182 69.655 52.6357C69.655 52.0532 70.1329 51.5576 70.7323 51.5576C71.3318 51.5576 71.8009 52.0445 71.8009 52.6357Z" fill="#002332"/>
<path d="M76.0929 52.6357C76.0929 53.2268 75.6151 53.705 75.0243 53.705C74.4335 53.705 73.947 53.2182 73.947 52.6357C73.947 52.0532 74.4335 51.5576 75.0243 51.5576C75.6151 51.5576 76.0929 52.0445 76.0929 52.6357Z" fill="#002332"/>
<path d="M80.3937 52.6357C80.3937 53.2268 79.9159 53.705 79.3251 53.705C78.7343 53.705 78.2478 53.2182 78.2478 52.6357C78.2478 52.0532 78.7256 51.5576 79.3251 51.5576C79.9246 51.5576 80.3937 52.0445 80.3937 52.6357Z" fill="#002332"/>
<path d="M84.6852 52.6357C84.6852 53.2268 84.2074 53.705 83.6166 53.705C83.0258 53.705 82.5393 53.2182 82.5393 52.6357C82.5393 52.0532 83.0171 51.5576 83.6166 51.5576C84.2161 51.5576 84.6852 52.0445 84.6852 52.6357Z" fill="#002332"/>
<path d="M88.977 52.6357C88.977 53.2268 88.4991 53.705 87.9084 53.705C87.3176 53.705 86.8311 53.2182 86.8311 52.6357C86.8311 52.0532 87.3176 51.5576 87.9084 51.5576C88.4991 51.5576 88.977 52.0445 88.977 52.6357Z" fill="#002332"/>
<path d="M93.278 52.6357C93.278 53.2268 92.8002 53.705 92.2094 53.705C91.6186 53.705 91.1321 53.2182 91.1321 52.6357C91.1321 52.0532 91.6099 51.5576 92.2094 51.5576C92.8088 51.5576 93.278 52.0445 93.278 52.6357Z" fill="#002332"/>
<path d="M37.4318 48.3412C37.4318 48.9324 36.954 49.4106 36.3632 49.4106C35.7724 49.4106 35.2859 48.9237 35.2859 48.3412C35.2859 47.7587 35.7637 47.2632 36.3632 47.2632C36.9627 47.2632 37.4318 47.75 37.4318 48.3412Z" fill="#002332"/>
<path d="M41.7323 48.3412C41.7323 48.9324 41.2545 49.4106 40.6637 49.4106C40.0729 49.4106 39.5864 48.9237 39.5864 48.3412C39.5864 47.7587 40.0643 47.2632 40.6637 47.2632C41.2632 47.2632 41.7323 47.75 41.7323 48.3412Z" fill="#002332"/>
<path d="M46.0241 48.3412C46.0241 48.9324 45.5463 49.4106 44.9555 49.4106C44.3647 49.4106 43.8782 48.9237 43.8782 48.3412C43.8782 47.7587 44.356 47.2632 44.9555 47.2632C45.5549 47.2632 46.0241 47.75 46.0241 48.3412Z" fill="#002332"/>
<path d="M50.3158 48.3412C50.3158 48.9324 49.838 49.4106 49.2472 49.4106C48.6564 49.4106 48.1699 48.9237 48.1699 48.3412C48.1699 47.7587 48.6478 47.2632 49.2472 47.2632C49.8467 47.2632 50.3158 47.75 50.3158 48.3412Z" fill="#002332"/>
<path d="M54.6166 48.3412C54.6166 48.9324 54.1388 49.4106 53.548 49.4106C52.9572 49.4106 52.4707 48.9237 52.4707 48.3412C52.4707 47.7587 52.9485 47.2632 53.548 47.2632C54.1475 47.2632 54.6166 47.75 54.6166 48.3412Z" fill="#002332"/>
<path d="M71.8009 48.3412C71.8009 48.9324 71.3231 49.4106 70.7323 49.4106C70.1416 49.4106 69.655 48.9237 69.655 48.3412C69.655 47.7587 70.1329 47.2632 70.7323 47.2632C71.3318 47.2632 71.8009 47.75 71.8009 48.3412Z" fill="#002332"/>
<path d="M76.0929 48.3412C76.0929 48.9324 75.6151 49.4106 75.0243 49.4106C74.4335 49.4106 73.947 48.9237 73.947 48.3412C73.947 47.7587 74.4335 47.2632 75.0243 47.2632C75.6151 47.2632 76.0929 47.75 76.0929 48.3412Z" fill="#002332"/>
<path d="M80.3937 48.3412C80.3937 48.9324 79.9159 49.4106 79.3251 49.4106C78.7343 49.4106 78.2478 48.9237 78.2478 48.3412C78.2478 47.7587 78.7256 47.2632 79.3251 47.2632C79.9246 47.2632 80.3937 47.75 80.3937 48.3412Z" fill="#002332"/>
<path d="M84.6852 48.3412C84.6852 48.9324 84.2074 49.4106 83.6166 49.4106C83.0258 49.4106 82.5393 48.9237 82.5393 48.3412C82.5393 47.7587 83.0171 47.2632 83.6166 47.2632C84.2161 47.2632 84.6852 47.75 84.6852 48.3412Z" fill="#002332"/>
<path d="M88.977 48.3412C88.977 48.9324 88.4991 49.4106 87.9084 49.4106C87.3176 49.4106 86.8311 48.9237 86.8311 48.3412C86.8311 47.7587 87.3176 47.2632 87.9084 47.2632C88.4991 47.2632 88.977 47.75 88.977 48.3412Z" fill="#002332"/>
<path d="M41.7323 44.0463C41.7323 44.6375 41.2545 45.1157 40.6637 45.1157C40.0729 45.1157 39.5864 44.6288 39.5864 44.0463C39.5864 43.4638 40.0643 42.9683 40.6637 42.9683C41.2632 42.9683 41.7323 43.4551 41.7323 44.0463Z" fill="#002332"/>
<path d="M46.0241 44.0463C46.0241 44.6375 45.5463 45.1157 44.9555 45.1157C44.3647 45.1157 43.8782 44.6288 43.8782 44.0463C43.8782 43.4638 44.356 42.9683 44.9555 42.9683C45.5549 42.9683 46.0241 43.4551 46.0241 44.0463Z" fill="#002332"/>
<path d="M50.3158 44.0463C50.3158 44.6375 49.838 45.1157 49.2472 45.1157C48.6564 45.1157 48.1699 44.6288 48.1699 44.0463C48.1699 43.4638 48.6478 42.9683 49.2472 42.9683C49.8467 42.9683 50.3158 43.4551 50.3158 44.0463Z" fill="#002332"/>
<path d="M54.6166 44.0463C54.6166 44.6375 54.1388 45.1157 53.548 45.1157C52.9572 45.1157 52.4707 44.6288 52.4707 44.0463C52.4707 43.4638 52.9485 42.9683 53.548 42.9683C54.1475 42.9683 54.6166 43.4551 54.6166 44.0463Z" fill="#002332"/>
<path d="M58.9084 44.0463C58.9084 44.6375 58.4305 45.1157 57.8397 45.1157C57.249 45.1157 56.7625 44.6288 56.7625 44.0463C56.7625 43.4638 57.2403 42.9683 57.8397 42.9683C58.4392 42.9683 58.9084 43.4551 58.9084 44.0463Z" fill="#002332"/>
<path d="M63.2087 44.0463C63.2087 44.6375 62.7308 45.1157 62.14 45.1157C61.5493 45.1157 61.0627 44.6288 61.0627 44.0463C61.0627 43.4638 61.5493 42.9683 62.14 42.9683C62.7308 42.9683 63.2087 43.4551 63.2087 44.0463Z" fill="#002332"/>
<path d="M67.5007 44.0463C67.5007 44.6375 67.0228 45.1157 66.432 45.1157C65.8413 45.1157 65.3547 44.6288 65.3547 44.0463C65.3547 43.4638 65.8326 42.9683 66.432 42.9683C67.0315 42.9683 67.5007 43.4551 67.5007 44.0463Z" fill="#002332"/>
<path d="M71.8009 44.0463C71.8009 44.6375 71.3231 45.1157 70.7323 45.1157C70.1416 45.1157 69.655 44.6288 69.655 44.0463C69.655 43.4638 70.1329 42.9683 70.7323 42.9683C71.3318 42.9683 71.8009 43.4551 71.8009 44.0463Z" fill="#002332"/>
<path d="M76.0929 44.0463C76.0929 44.6375 75.6151 45.1157 75.0243 45.1157C74.4335 45.1157 73.947 44.6288 73.947 44.0463C73.947 43.4638 74.4335 42.9683 75.0243 42.9683C75.6151 42.9683 76.0929 43.4551 76.0929 44.0463Z" fill="#002332"/>
<path d="M80.3937 44.0463C80.3937 44.6375 79.9159 45.1157 79.3251 45.1157C78.7343 45.1157 78.2478 44.6288 78.2478 44.0463C78.2478 43.4638 78.7256 42.9683 79.3251 42.9683C79.9246 42.9683 80.3937 43.4551 80.3937 44.0463Z" fill="#002332"/>
<path d="M84.6852 44.0463C84.6852 44.6375 84.2074 45.1157 83.6166 45.1157C83.0258 45.1157 82.5393 44.6288 82.5393 44.0463C82.5393 43.4638 83.0171 42.9683 83.6166 42.9683C84.2161 42.9683 84.6852 43.4551 84.6852 44.0463Z" fill="#002332"/>
<path d="M46.0241 39.7426C46.0241 40.3338 45.5463 40.812 44.9555 40.812C44.3647 40.812 43.8782 40.3251 43.8782 39.7426C43.8782 39.1601 44.356 38.6646 44.9555 38.6646C45.5549 38.6646 46.0241 39.1514 46.0241 39.7426Z" fill="#002332"/>
<path d="M50.3158 39.7426C50.3158 40.3338 49.838 40.812 49.2472 40.812C48.6564 40.812 48.1699 40.3251 48.1699 39.7426C48.1699 39.1601 48.6478 38.6646 49.2472 38.6646C49.8467 38.6646 50.3158 39.1514 50.3158 39.7426Z" fill="#002332"/>
<path d="M54.6166 39.7426C54.6166 40.3338 54.1388 40.812 53.548 40.812C52.9572 40.812 52.4707 40.3251 52.4707 39.7426C52.4707 39.1601 52.9485 38.6646 53.548 38.6646C54.1475 38.6646 54.6166 39.1514 54.6166 39.7426Z" fill="#002332"/>
<path d="M58.9084 39.7426C58.9084 40.3338 58.4305 40.812 57.8397 40.812C57.249 40.812 56.7625 40.3251 56.7625 39.7426C56.7625 39.1601 57.2403 38.6646 57.8397 38.6646C58.4392 38.6646 58.9084 39.1514 58.9084 39.7426Z" fill="#002332"/>
<path d="M63.2087 39.7426C63.2087 40.3338 62.7308 40.812 62.14 40.812C61.5493 40.812 61.0627 40.3251 61.0627 39.7426C61.0627 39.1601 61.5493 38.6646 62.14 38.6646C62.7308 38.6646 63.2087 39.1514 63.2087 39.7426Z" fill="#002332"/>
<path d="M67.5007 39.7426C67.5007 40.3338 67.0228 40.812 66.432 40.812C65.8413 40.812 65.3547 40.3251 65.3547 39.7426C65.3547 39.1601 65.8326 38.6646 66.432 38.6646C67.0315 38.6646 67.5007 39.1514 67.5007 39.7426Z" fill="#002332"/>
<path d="M71.8009 39.7426C71.8009 40.3338 71.3231 40.812 70.7323 40.812C70.1416 40.812 69.655 40.3251 69.655 39.7426C69.655 39.1601 70.1329 38.6646 70.7323 38.6646C71.3318 38.6646 71.8009 39.1514 71.8009 39.7426Z" fill="#002332"/>
<path d="M76.0929 39.7426C76.0929 40.3338 75.6151 40.812 75.0243 40.812C74.4335 40.812 73.947 40.3251 73.947 39.7426C73.947 39.1601 74.4335 38.6646 75.0243 38.6646C75.6151 38.6646 76.0929 39.1514 76.0929 39.7426Z" fill="#002332"/>
<path d="M80.3937 39.7426C80.3937 40.3338 79.9159 40.812 79.3251 40.812C78.7343 40.812 78.2478 40.3251 78.2478 39.7426C78.2478 39.1601 78.7256 38.6646 79.3251 38.6646C79.9246 38.6646 80.3937 39.1514 80.3937 39.7426Z" fill="#002332"/>
<path d="M50.3158 35.4482C50.3158 36.0394 49.838 36.5175 49.2472 36.5175C48.6564 36.5175 48.1699 36.0307 48.1699 35.4482C48.1699 34.8657 48.6478 34.3701 49.2472 34.3701C49.8467 34.3701 50.3158 34.857 50.3158 35.4482Z" fill="#002332"/>
<path d="M54.6166 35.4482C54.6166 36.0394 54.1388 36.5175 53.548 36.5175C52.9572 36.5175 52.4707 36.0307 52.4707 35.4482C52.4707 34.8657 52.9485 34.3701 53.548 34.3701C54.1475 34.3701 54.6166 34.857 54.6166 35.4482Z" fill="#002332"/>
<path d="M58.9084 35.4482C58.9084 36.0394 58.4305 36.5175 57.8397 36.5175C57.249 36.5175 56.7625 36.0307 56.7625 35.4482C56.7625 34.8657 57.2403 34.3701 57.8397 34.3701C58.4392 34.3701 58.9084 34.857 58.9084 35.4482Z" fill="#002332"/>
<path d="M63.2087 35.4482C63.2087 36.0394 62.7308 36.5175 62.14 36.5175C61.5493 36.5175 61.0627 36.0307 61.0627 35.4482C61.0627 34.8657 61.5493 34.3701 62.14 34.3701C62.7308 34.3701 63.2087 34.857 63.2087 35.4482Z" fill="#002332"/>
<path d="M67.5007 35.4482C67.5007 36.0394 67.0228 36.5175 66.432 36.5175C65.8413 36.5175 65.3547 36.0307 65.3547 35.4482C65.3547 34.8657 65.8326 34.3701 66.432 34.3701C67.0315 34.3701 67.5007 34.857 67.5007 35.4482Z" fill="#002332"/>
<path d="M71.8009 35.4482C71.8009 36.0394 71.3231 36.5175 70.7323 36.5175C70.1416 36.5175 69.655 36.0307 69.655 35.4482C69.655 34.8657 70.1329 34.3701 70.7323 34.3701C71.3318 34.3701 71.8009 34.857 71.8009 35.4482Z" fill="#002332"/>
<path d="M76.0929 35.4482C76.0929 36.0394 75.6151 36.5175 75.0243 36.5175C74.4335 36.5175 73.947 36.0307 73.947 35.4482C73.947 34.8657 74.4335 34.3701 75.0243 34.3701C75.6151 34.3701 76.0929 34.857 76.0929 35.4482Z" fill="#002332"/>
<path d="M54.6166 31.1445C54.6166 31.7356 54.1388 32.2138 53.548 32.2138C52.9572 32.2138 52.4707 31.7269 52.4707 31.1445C52.4707 30.562 52.9485 30.0664 53.548 30.0664C54.1475 30.0664 54.6166 30.5533 54.6166 31.1445Z" fill="#002332"/>
<path d="M58.9084 31.1445C58.9084 31.7356 58.4305 32.2138 57.8397 32.2138C57.249 32.2138 56.7625 31.7269 56.7625 31.1445C56.7625 30.562 57.2403 30.0664 57.8397 30.0664C58.4392 30.0664 58.9084 30.5533 58.9084 31.1445Z" fill="#002332"/>
<path d="M63.2087 31.1445C63.2087 31.7356 62.7308 32.2138 62.14 32.2138C61.5493 32.2138 61.0627 31.7269 61.0627 31.1445C61.0627 30.562 61.5493 30.0664 62.14 30.0664C62.7308 30.0664 63.2087 30.5533 63.2087 31.1445Z" fill="#002332"/>
<path d="M67.5007 31.1445C67.5007 31.7356 67.0228 32.2138 66.432 32.2138C65.8413 32.2138 65.3547 31.7269 65.3547 31.1445C65.3547 30.562 65.8326 30.0664 66.432 30.0664C67.0315 30.0664 67.5007 30.5533 67.5007 31.1445Z" fill="#002332"/>
<path d="M71.8009 31.1445C71.8009 31.7356 71.3231 32.2138 70.7323 32.2138C70.1416 32.2138 69.655 31.7269 69.655 31.1445C69.655 30.562 70.1329 30.0664 70.7323 30.0664C71.3318 30.0664 71.8009 30.5533 71.8009 31.1445Z" fill="#002332"/>
<path d="M58.9084 26.8495C58.9084 27.4407 58.4305 27.9189 57.8397 27.9189C57.249 27.9189 56.7625 27.432 56.7625 26.8495C56.7625 26.267 57.2403 25.7715 57.8397 25.7715C58.4392 25.7715 58.9084 26.2583 58.9084 26.8495Z" fill="#002332"/>
<path d="M63.2087 26.8495C63.2087 27.4407 62.7308 27.9189 62.14 27.9189C61.5493 27.9189 61.0627 27.432 61.0627 26.8495C61.0627 26.267 61.5493 25.7715 62.14 25.7715C62.7308 25.7715 63.2087 26.2583 63.2087 26.8495Z" fill="#002332"/>
<path d="M67.5007 26.8495C67.5007 27.4407 67.0228 27.9189 66.432 27.9189C65.8413 27.9189 65.3547 27.432 65.3547 26.8495C65.3547 26.267 65.8326 25.7715 66.432 25.7715C67.0315 25.7715 67.5007 26.2583 67.5007 26.8495Z" fill="#002332"/>
<path d="M63.2087 22.5463C63.2087 23.1375 62.7308 23.6157 62.14 23.6157C61.5493 23.6157 61.0627 23.1288 61.0627 22.5463C61.0627 21.9638 61.5493 21.4683 62.14 21.4683C62.7308 21.4683 63.2087 21.9551 63.2087 22.5463Z" fill="#002332"/>
</svg>
