<svg width="520" height="500" viewBox="0 0 520 500" fill="none" xmlns="http://www.w3.org/2000/svg">
<path d="M282.483 9.76654L282.483 9.76683L496.516 220.99C502.714 227.117 508.411 236.334 512.56 246.229C516.709 256.123 519.287 266.643 519.287 275.357V467.933C519.287 485.253 504.883 499.5 487.347 499.5H279.485H32.6596C15.1236 499.5 0.719727 485.253 0.719727 467.933V275.357C0.719727 266.642 3.25437 256.165 7.38059 246.293C11.5067 236.422 17.2042 227.204 23.4906 220.99C23.4906 220.99 23.4907 220.99 23.4907 220.99L237.347 9.76669L237.35 9.76407C249.67 -2.58667 269.983 -2.5902 282.483 9.76654Z" fill="#E5F7FE" stroke="white"/>
</svg>
