<svg width="172" height="244" viewBox="0 0 172 244" fill="none" xmlns="http://www.w3.org/2000/svg">
<path d="M12 46.6667C13.4728 46.6667 14.6667 45.4728 14.6667 44C14.6667 42.5272 13.4728 41.3333 12 41.3333C10.5272 41.3333 9.33333 42.5272 9.33333 44C9.33333 45.4728 10.5272 46.6667 12 46.6667ZM12 44.5L52 44.5L52 43.5L12 43.5L12 44.5ZM52 44.5C73.8152 44.5 91.5 62.1848 91.5 84L92.5 84C92.5 61.6325 74.3675 43.5 52 43.5L52 44.5Z" fill="#EAA088"/>
<rect x="0.5" y="32.5" width="22.98" height="23" rx="11.49" stroke="#EAA088"/>
<path d="M94.6666 3.00001C94.6666 4.47277 93.4727 5.66667 92 5.66667C90.5272 5.66667 89.3333 4.47277 89.3333 3.00001C89.3333 1.52725 90.5272 0.33334 92 0.33334C93.4727 0.33334 94.6666 1.52725 94.6666 3.00001ZM92.5 3.00001L92.5 203L91.5 203L91.5 3.00001L92.5 3.00001ZM132 242.5L172 242.5L172 243.5L132 243.5L132 242.5ZM92.5 203C92.5 224.815 110.185 242.5 132 242.5L132 243.5C109.632 243.5 91.5 225.368 91.5 203L92.5 203Z" fill="#EAA088"/>
</svg>
