<svg width="123" height="142" viewBox="0 0 123 142" fill="none" xmlns="http://www.w3.org/2000/svg">
<rect width="119.9" height="140" rx="8" transform="matrix(1 0 0 -1 1.15234 141)" fill="white" stroke="#002332" stroke-width="2"/>
<rect x="-0.5" y="-0.5" width="119.001" height="14.6129" rx="1.5" transform="matrix(-2.10388e-08 -1 -1 9.0817e-08 66.7229 130.001)" stroke="#002332"/>
<rect x="-0.5" y="-0.5" width="2" height="6.99334" rx="1" transform="matrix(-3.88623e-08 -1 -1 4.91655e-08 63.0999 20)" stroke="#002332"/>
<rect x="-0.5" y="-0.5" width="2" height="6.99334" rx="1" transform="matrix(-3.88623e-08 -1 -1 4.91655e-08 63.0999 118)" stroke="#002332"/>
<rect x="-0.5" y="-0.5" width="2" height="6.99334" rx="1" transform="matrix(-3.88623e-08 -1 -1 4.91655e-08 63.0999 124)" stroke="#002332"/>
<rect x="-0.5" y="-0.5" width="119.001" height="14.6129" rx="1.5" transform="matrix(-2.10388e-08 -1 -1 9.0817e-08 86.7063 130.001)" stroke="#002332"/>
<rect x="-0.5" y="-0.5" width="2" height="6.99334" rx="1" transform="matrix(-3.88623e-08 -1 -1 4.91655e-08 83.0833 20)" stroke="#002332"/>
<rect x="-0.5" y="-0.5" width="2" height="6.99334" rx="1" transform="matrix(-3.88623e-08 -1 -1 4.91655e-08 83.0833 118)" stroke="#002332"/>
<rect x="-0.5" y="-0.5" width="2" height="6.99334" rx="1" transform="matrix(-3.88623e-08 -1 -1 4.91655e-08 83.0833 124)" stroke="#002332"/>
<rect x="-0.5" y="-0.5" width="119.001" height="14.6129" rx="1.5" transform="matrix(-2.10388e-08 -1 -1 9.0817e-08 106.69 130.001)" stroke="#002332"/>
<rect x="-0.5" y="-0.5" width="2" height="6.99334" rx="1" transform="matrix(-3.88623e-08 -1 -1 4.91655e-08 103.067 20)" stroke="#002332"/>
<rect x="-0.5" y="-0.5" width="2" height="6.99334" rx="1" transform="matrix(-3.88623e-08 -1 -1 4.91655e-08 103.067 118)" stroke="#002332"/>
<rect x="-0.5" y="-0.5" width="2" height="6.99334" rx="1" transform="matrix(-3.88623e-08 -1 -1 4.91655e-08 103.067 124)" stroke="#002332"/>
<line x1="40.6199" y1="1" x2="40.6199" y2="141" stroke="#002332"/>
<rect x="-0.5" y="-0.5" width="2" height="11.9892" rx="1" transform="matrix(-4.77449e-08 -1 -1 4.00186e-08 27.1299 25)" stroke="#002332"/>
<rect x="-0.5" y="-0.5" width="2" height="11.9892" rx="1" transform="matrix(-4.77449e-08 -1 -1 4.00186e-08 27.1299 30)" stroke="#002332"/>
<rect x="-0.5" y="-0.5" width="2" height="11.9892" rx="1" transform="matrix(-4.77449e-08 -1 -1 4.00186e-08 27.1299 20)" stroke="#002332"/>
</svg>
