<svg width="284" height="293" viewBox="0 0 284 293" fill="none" xmlns="http://www.w3.org/2000/svg">
<path d="M79.3334 12C79.3334 13.4728 80.5273 14.6667 82 14.6667C83.4728 14.6667 84.6667 13.4728 84.6667 12C84.6667 10.5272 83.4728 9.33334 82 9.33334C80.5273 9.33334 79.3334 10.5272 79.3334 12ZM81.5 12L81.5 252L82.5 252L82.5 12L81.5 12ZM42 291.5L-2.44143e-05 291.5L-2.45017e-05 292.5L42 292.5L42 291.5ZM81.5 252C81.5 273.815 63.8152 291.5 42 291.5L42 292.5C64.3675 292.5 82.5 274.368 82.5 252L81.5 252Z" fill="#99DFFC"/>
<rect x="70.4768" y="0.5" width="22.98" height="23" rx="11.49" stroke="#99DFFC"/>
<path d="M281 134.667C279.527 134.667 278.333 133.473 278.333 132C278.333 130.527 279.527 129.333 281 129.333C282.473 129.333 283.667 130.527 283.667 132C283.667 133.473 282.473 134.667 281 134.667ZM281 132.5L122 132.5L122 131.5L281 131.5L281 132.5ZM122 132.5C100.185 132.5 82.5 150.185 82.5 172L81.5 172C81.5 149.632 99.6325 131.5 122 131.5L122 132.5Z" fill="#99DFFC"/>
</svg>
