<svg width="204" height="142" viewBox="0 0 204 142" fill="none" xmlns="http://www.w3.org/2000/svg">
<rect width="66.9441" height="140" rx="8" transform="matrix(1 0 0 -1 1.98682 141)" fill="#CCEFFE" stroke="#002332" stroke-width="2"/>
<rect x="-0.5" y="0.5" width="50.8817" height="13" rx="1.5" transform="matrix(-1 1.05525e-07 1.21415e-07 1 60.3999 9.75)" stroke="#002332"/>
<rect x="-0.5" y="-0.5" width="2.5" height="5.69441" rx="1.25" transform="matrix(-2.66453e-08 -1 -1 7.1708e-08 18.5596 17.5)" stroke="#002332"/>
<rect x="-0.5" y="-0.5" width="2.5" height="5.69441" rx="1.25" transform="matrix(-2.66453e-08 -1 -1 7.1708e-08 26.9275 17.5)" stroke="#002332"/>
<rect x="-0.5" y="0.5" width="50.8817" height="13" rx="1.5" transform="matrix(-1 1.05525e-07 1.21415e-07 1 60.3999 29)" stroke="#002332"/>
<rect x="-0.5" y="-0.5" width="2.5" height="5.69441" rx="1.25" transform="matrix(-2.66453e-08 -1 -1 7.1708e-08 18.5596 36.75)" stroke="#002332"/>
<rect x="-0.5" y="-0.5" width="2.5" height="5.69441" rx="1.25" transform="matrix(-2.66453e-08 -1 -1 7.1708e-08 26.9275 36.75)" stroke="#002332"/>
<rect x="-0.5" y="0.5" width="50.8817" height="13" rx="1.5" transform="matrix(-1 1.05525e-07 1.21415e-07 1 60.3999 48.25)" stroke="#002332"/>
<rect x="-0.5" y="-0.5" width="2.5" height="5.69441" rx="1.25" transform="matrix(-2.66453e-08 -1 -1 7.1708e-08 18.5596 56)" stroke="#002332"/>
<rect x="-0.5" y="-0.5" width="2.5" height="5.69441" rx="1.25" transform="matrix(-2.66453e-08 -1 -1 7.1708e-08 26.9275 56)" stroke="#002332"/>
<rect x="-0.5" y="0.5" width="50.8817" height="13" rx="1.5" transform="matrix(-1 1.05525e-07 1.21415e-07 1 60.3999 67.5)" stroke="#002332"/>
<rect x="-0.5" y="-0.5" width="2.5" height="5.69441" rx="1.25" transform="matrix(-2.66453e-08 -1 -1 7.1708e-08 18.5596 75.25)" stroke="#002332"/>
<rect x="-0.5" y="-0.5" width="2.5" height="5.69441" rx="1.25" transform="matrix(-2.66453e-08 -1 -1 7.1708e-08 26.9275 75.25)" stroke="#002332"/>
<rect x="-0.5" y="0.5" width="50.8817" height="13" rx="1.5" transform="matrix(-1 1.05525e-07 1.21415e-07 1 60.3999 86.75)" stroke="#002332"/>
<rect x="-0.5" y="-0.5" width="2.5" height="5.69441" rx="1.25" transform="matrix(-2.66453e-08 -1 -1 7.1708e-08 18.5596 94.5)" stroke="#002332"/>
<rect x="-0.5" y="-0.5" width="2.5" height="5.69441" rx="1.25" transform="matrix(-2.66453e-08 -1 -1 7.1708e-08 26.9275 94.5)" stroke="#002332"/>
<rect x="-0.5" y="0.5" width="50.8817" height="13" rx="1.5" transform="matrix(-1 1.05525e-07 1.21415e-07 1 60.3999 106)" stroke="#002332"/>
<rect x="-0.5" y="-0.5" width="2.5" height="5.69441" rx="1.25" transform="matrix(-2.66453e-08 -1 -1 7.1708e-08 18.5596 113.75)" stroke="#002332"/>
<rect x="-0.5" y="-0.5" width="2.5" height="5.69441" rx="1.25" transform="matrix(-2.66453e-08 -1 -1 7.1708e-08 26.9275 113.75)" stroke="#002332"/>
<rect x="0.5" y="0.5" width="1.33333" height="10.9012" rx="0.666666" transform="matrix(-4.75477e-08 1 1 4.01846e-08 13.7021 128.75)" stroke="#002332"/>
<rect x="0.5" y="0.5" width="1.33333" height="11.645" rx="0.666666" transform="matrix(-4.5472e-08 1 1 4.2019e-08 43.8269 128.75)" stroke="#002332"/>
<rect x="0.5" y="0.5" width="9.88889" height="9.41353" rx="4.70677" transform="matrix(-3.29507e-08 1 1 5.79862e-08 29.6011 125.25)" stroke="#002332"/>
<rect width="66.9441" height="140" rx="8" transform="matrix(1 0 0 -1 68.9309 141)" fill="#CCEFFE" stroke="#002332" stroke-width="2"/>
<rect x="-0.5" y="0.5" width="50.8817" height="13" rx="1.5" transform="matrix(-1 1.05525e-07 1.21415e-07 1 127.344 9.75)" stroke="#002332"/>
<rect x="-0.5" y="-0.5" width="2.5" height="5.69441" rx="1.25" transform="matrix(-2.66453e-08 -1 -1 7.1708e-08 85.5037 17.5)" stroke="#002332"/>
<rect x="-0.5" y="-0.5" width="2.5" height="5.69441" rx="1.25" transform="matrix(-2.66453e-08 -1 -1 7.1708e-08 93.8713 17.5)" stroke="#002332"/>
<rect x="-0.5" y="0.5" width="50.8817" height="13" rx="1.5" transform="matrix(-1 1.05525e-07 1.21415e-07 1 127.344 29)" stroke="#002332"/>
<rect x="-0.5" y="-0.5" width="2.5" height="5.69441" rx="1.25" transform="matrix(-2.66453e-08 -1 -1 7.1708e-08 85.5037 36.75)" stroke="#002332"/>
<rect x="-0.5" y="-0.5" width="2.5" height="5.69441" rx="1.25" transform="matrix(-2.66453e-08 -1 -1 7.1708e-08 93.8713 36.75)" stroke="#002332"/>
<rect x="-0.5" y="0.5" width="50.8817" height="13" rx="1.5" transform="matrix(-1 1.05525e-07 1.21415e-07 1 127.344 48.25)" stroke="#002332"/>
<rect x="-0.5" y="-0.5" width="2.5" height="5.69441" rx="1.25" transform="matrix(-2.66453e-08 -1 -1 7.1708e-08 85.5037 56)" stroke="#002332"/>
<rect x="-0.5" y="-0.5" width="2.5" height="5.69441" rx="1.25" transform="matrix(-2.66453e-08 -1 -1 7.1708e-08 93.8713 56)" stroke="#002332"/>
<rect x="-0.5" y="0.5" width="50.8817" height="13" rx="1.5" transform="matrix(-1 1.05525e-07 1.21415e-07 1 127.344 67.5)" stroke="#002332"/>
<rect x="-0.5" y="-0.5" width="2.5" height="5.69441" rx="1.25" transform="matrix(-2.66453e-08 -1 -1 7.1708e-08 85.5037 75.25)" stroke="#002332"/>
<rect x="-0.5" y="-0.5" width="2.5" height="5.69441" rx="1.25" transform="matrix(-2.66453e-08 -1 -1 7.1708e-08 93.8713 75.25)" stroke="#002332"/>
<rect x="-0.5" y="0.5" width="50.8817" height="13" rx="1.5" transform="matrix(-1 1.05525e-07 1.21415e-07 1 127.344 86.75)" stroke="#002332"/>
<rect x="-0.5" y="-0.5" width="2.5" height="5.69441" rx="1.25" transform="matrix(-2.66453e-08 -1 -1 7.1708e-08 85.5037 94.5)" stroke="#002332"/>
<rect x="-0.5" y="-0.5" width="2.5" height="5.69441" rx="1.25" transform="matrix(-2.66453e-08 -1 -1 7.1708e-08 93.8713 94.5)" stroke="#002332"/>
<rect x="-0.5" y="0.5" width="50.8817" height="13" rx="1.5" transform="matrix(-1 1.05525e-07 1.21415e-07 1 127.344 106)" stroke="#002332"/>
<rect x="-0.5" y="-0.5" width="2.5" height="5.69441" rx="1.25" transform="matrix(-2.66453e-08 -1 -1 7.1708e-08 85.5037 113.75)" stroke="#002332"/>
<rect x="-0.5" y="-0.5" width="2.5" height="5.69441" rx="1.25" transform="matrix(-2.66453e-08 -1 -1 7.1708e-08 93.8713 113.75)" stroke="#002332"/>
<rect x="0.5" y="0.5" width="1.33333" height="10.9012" rx="0.666666" transform="matrix(-4.75477e-08 1 1 4.01846e-08 80.646 128.75)" stroke="#002332"/>
<rect x="0.5" y="0.5" width="1.33333" height="11.645" rx="0.666666" transform="matrix(-4.5472e-08 1 1 4.2019e-08 110.771 128.75)" stroke="#002332"/>
<rect x="0.5" y="0.5" width="9.88889" height="9.41353" rx="4.70677" transform="matrix(-3.29507e-08 1 1 5.79862e-08 96.5452 125.25)" stroke="#002332"/>
<rect width="66.9441" height="140" rx="8" transform="matrix(1 0 0 -1 135.875 141)" fill="#CCEFFE" stroke="#002332" stroke-width="2"/>
<rect x="-0.5" y="0.5" width="50.8817" height="13" rx="1.5" transform="matrix(-1 1.05525e-07 1.21415e-07 1 194.288 9.75)" stroke="#002332"/>
<rect x="-0.5" y="-0.5" width="2.5" height="5.69441" rx="1.25" transform="matrix(-2.66453e-08 -1 -1 7.1708e-08 152.448 17.5)" stroke="#002332"/>
<rect x="-0.5" y="-0.5" width="2.5" height="5.69441" rx="1.25" transform="matrix(-2.66453e-08 -1 -1 7.1708e-08 160.816 17.5)" stroke="#002332"/>
<rect x="-0.5" y="0.5" width="50.8817" height="13" rx="1.5" transform="matrix(-1 1.05525e-07 1.21415e-07 1 194.288 29)" stroke="#002332"/>
<rect x="-0.5" y="-0.5" width="2.5" height="5.69441" rx="1.25" transform="matrix(-2.66453e-08 -1 -1 7.1708e-08 152.448 36.75)" stroke="#002332"/>
<rect x="-0.5" y="-0.5" width="2.5" height="5.69441" rx="1.25" transform="matrix(-2.66453e-08 -1 -1 7.1708e-08 160.816 36.75)" stroke="#002332"/>
<rect x="-0.5" y="0.5" width="50.8817" height="13" rx="1.5" transform="matrix(-1 1.05525e-07 1.21415e-07 1 194.288 48.25)" stroke="#002332"/>
<rect x="-0.5" y="-0.5" width="2.5" height="5.69441" rx="1.25" transform="matrix(-2.66453e-08 -1 -1 7.1708e-08 152.448 56)" stroke="#002332"/>
<rect x="-0.5" y="-0.5" width="2.5" height="5.69441" rx="1.25" transform="matrix(-2.66453e-08 -1 -1 7.1708e-08 160.816 56)" stroke="#002332"/>
<rect x="-0.5" y="0.5" width="50.8817" height="13" rx="1.5" transform="matrix(-1 1.05525e-07 1.21415e-07 1 194.288 67.5)" stroke="#002332"/>
<rect x="-0.5" y="-0.5" width="2.5" height="5.69441" rx="1.25" transform="matrix(-2.66453e-08 -1 -1 7.1708e-08 152.448 75.25)" stroke="#002332"/>
<rect x="-0.5" y="-0.5" width="2.5" height="5.69441" rx="1.25" transform="matrix(-2.66453e-08 -1 -1 7.1708e-08 160.816 75.25)" stroke="#002332"/>
<rect x="-0.5" y="0.5" width="50.8817" height="13" rx="1.5" transform="matrix(-1 1.05525e-07 1.21415e-07 1 194.288 86.75)" stroke="#002332"/>
<rect x="-0.5" y="-0.5" width="2.5" height="5.69441" rx="1.25" transform="matrix(-2.66453e-08 -1 -1 7.1708e-08 152.448 94.5)" stroke="#002332"/>
<rect x="-0.5" y="-0.5" width="2.5" height="5.69441" rx="1.25" transform="matrix(-2.66453e-08 -1 -1 7.1708e-08 160.816 94.5)" stroke="#002332"/>
<rect x="-0.5" y="0.5" width="50.8817" height="13" rx="1.5" transform="matrix(-1 1.05525e-07 1.21415e-07 1 194.288 106)" stroke="#002332"/>
<rect x="-0.5" y="-0.5" width="2.5" height="5.69441" rx="1.25" transform="matrix(-2.66453e-08 -1 -1 7.1708e-08 152.448 113.75)" stroke="#002332"/>
<rect x="-0.5" y="-0.5" width="2.5" height="5.69441" rx="1.25" transform="matrix(-2.66453e-08 -1 -1 7.1708e-08 160.816 113.75)" stroke="#002332"/>
<rect x="0.5" y="0.5" width="1.33333" height="10.9012" rx="0.666666" transform="matrix(-4.75477e-08 1 1 4.01846e-08 147.591 128.75)" stroke="#002332"/>
<rect x="0.5" y="0.5" width="1.33333" height="11.645" rx="0.666666" transform="matrix(-4.5472e-08 1 1 4.2019e-08 177.716 128.75)" stroke="#002332"/>
<rect x="0.5" y="0.5" width="9.88889" height="9.41353" rx="4.70677" transform="matrix(-3.29507e-08 1 1 5.79862e-08 163.49 125.25)" stroke="#002332"/>
</svg>
