<svg width="135" height="219" viewBox="0 0 135 219" fill="none" xmlns="http://www.w3.org/2000/svg">
<path d="M123 204.333C121.527 204.333 120.333 205.527 120.333 207C120.333 208.473 121.527 209.667 123 209.667C124.473 209.667 125.667 208.473 125.667 207C125.667 205.527 124.473 204.333 123 204.333ZM123.5 207L123.5 169.364L122.5 169.364L122.5 207L123.5 207ZM123.5 169.364L123.5 2.18557e-08L122.5 -2.18557e-08L122.5 169.364L123.5 169.364Z" fill="#EAA088"/>
<path d="M3 136.333C4.47276 136.333 5.66667 137.527 5.66666 139C5.66666 140.473 4.47276 141.667 3 141.667C1.52724 141.667 0.333331 140.473 0.333332 139C0.333332 137.527 1.52724 136.333 3 136.333ZM3 138.5L83 138.5L83 139.5L3 139.5L3 138.5ZM83 138.5C104.815 138.5 122.5 120.815 122.5 99L123.5 99C123.5 121.368 105.368 139.5 83 139.5L83 138.5Z" fill="#EAA088"/>
<rect x="111.167" y="195.5" width="22.98" height="23" rx="11.49" stroke="#EAA088"/>
</svg>
