<svg width="100" height="32" viewBox="0 0 100 32" fill="none" xmlns="http://www.w3.org/2000/svg">
<g clip-path="url(#clip0_831_14279)">
<path d="M24.5853 11.3013H12.8157V14.6811H21.1921C20.7838 19.4202 16.7437 21.4405 12.931 21.4405C8.05292 21.4405 3.7955 17.6948 3.7955 12.4437C3.7955 7.19255 7.8538 3.3896 12.9421 3.3896C16.868 3.3896 19.1807 5.83217 19.1807 5.83217L21.6055 3.38171C21.6055 3.38171 18.4933 0 12.8178 0C5.59065 0 0 5.95252 0 12.3825C0 18.8125 5.25912 24.8272 13.0017 24.8272C19.8114 24.8272 24.7966 20.2745 24.7966 13.5416C24.7966 12.1211 24.5853 11.3003 24.5853 11.3003V11.3013Z" fill="#4F606E"/>
<path d="M34.5486 8.85401C29.7605 8.85401 26.3289 12.507 26.3289 16.7677C26.3289 21.0284 29.6574 24.8126 34.6042 24.8126C39.0829 24.8126 42.7521 21.4713 42.7521 16.8604C42.7521 11.5758 38.4835 8.85303 34.5476 8.85303L34.5486 8.85401ZM34.5961 11.9881C36.9502 11.9881 39.182 13.8457 39.182 16.8397C39.182 19.8337 36.9603 21.6805 34.5849 21.6805C31.9751 21.6805 29.9171 19.6404 29.9171 16.816C29.9171 13.9917 31.9498 11.9881 34.5961 11.9881Z" fill="#4F606E"/>
<path d="M52.3232 8.85401C47.5351 8.85401 44.1035 12.507 44.1035 16.7677C44.1035 21.0284 47.432 24.8126 52.3788 24.8126C56.8576 24.8126 60.5268 21.4713 60.5268 16.8604C60.5268 11.5758 56.2582 8.85303 52.3222 8.85303L52.3232 8.85401ZM52.3707 11.9881C54.7248 11.9881 56.9567 13.8457 56.9567 16.8397C56.9567 19.8337 54.735 21.6805 52.3596 21.6805C49.7498 21.6805 47.6918 19.6404 47.6918 16.816C47.6918 13.9917 49.7245 11.9881 52.3707 11.9881Z" fill="#4F606E"/>
<path d="M69.8573 8.86182C65.4624 8.86182 62.0076 12.6184 62.0076 16.8347C62.0076 21.6379 66.0123 24.8224 69.7815 24.8224C72.1114 24.8224 73.3506 23.9197 74.2654 22.8839V24.4574C74.2654 27.2107 72.5531 28.8591 69.9675 28.8591C67.3819 28.8591 66.2175 27.0469 65.7818 26.018L62.6393 27.3004C63.7542 29.6009 65.9981 32.0001 69.9928 32.0001C74.3624 32.0001 77.6929 29.3139 77.6929 23.681V9.14494H74.2654V10.6937C73.2111 9.58492 71.7697 8.8628 69.8573 8.8628V8.86182ZM70.1747 11.99C72.3297 11.99 74.5423 13.7854 74.5423 16.8524C74.5423 19.9195 72.3348 21.6873 70.1272 21.6873C67.7842 21.6873 65.6039 19.8307 65.6039 16.882C65.6039 13.9334 67.8681 11.99 70.1747 11.99Z" fill="#4F606E"/>
<path d="M92.6325 8.84277C88.4872 8.84277 85.0061 12.0617 85.0061 16.8117C85.0061 21.8379 88.8855 24.8191 93.0307 24.8191C96.4896 24.8191 98.6133 22.9724 99.8798 21.317L97.0537 19.4812C96.3198 20.592 95.0937 21.6781 93.0479 21.6781C90.7494 21.6781 89.6921 20.4499 89.0381 19.2602L100.001 14.8209L99.432 13.5198C98.3727 10.9716 95.9024 8.84376 92.6335 8.84376L92.6325 8.84277ZM92.775 11.9118C94.2689 11.9118 95.3434 12.6872 95.8003 13.6164L88.4792 16.6026C88.1638 14.2902 90.4077 11.9118 92.775 11.9118Z" fill="#4F606E"/>
<path d="M83.3393 0.825684H79.9814V24.3458H83.3393V0.825684Z" fill="#4F606E"/>
</g>
<defs>
<clipPath id="clip0_831_14279">
<rect width="100" height="32" fill="white"/>
</clipPath>
</defs>
</svg>
