<svg width="36" height="48" viewBox="0 0 36 48" fill="none" xmlns="http://www.w3.org/2000/svg">
<g clip-path="url(#clip0_831_14298)">
<path d="M8.18418 0.0134279C7.74552 0.0859516 7.21934 0.320389 6.84782 0.609921C5.72447 1.48189 4.85374 3.33265 4.48608 5.63823C4.34793 6.5102 4.25326 7.72005 4.25326 8.64375C4.25326 9.73273 4.3782 11.1253 4.55708 12.0867C4.59781 12.3003 4.61762 12.4898 4.60111 12.5038C4.58735 12.5173 4.42223 12.6556 4.23675 12.8068C3.60269 13.3235 2.87727 14.1201 2.37751 14.8471C1.41927 16.2357 0.798426 17.8143 0.538639 19.524C0.437366 20.1992 0.410397 21.5642 0.491305 22.2394C0.670184 23.7973 1.12921 25.1134 1.91518 26.3199L2.17166 26.7095L2.09736 26.8371C1.57118 27.74 1.12206 29.046 0.912908 30.3008C0.747789 31.2931 0.727425 31.559 0.727425 32.8892C0.727425 34.2193 0.744487 34.4954 0.899698 35.4224C1.08518 36.5322 1.4633 37.7072 1.88491 38.4898C2.02306 38.745 2.36045 39.2757 2.40118 39.3033C2.41494 39.31 2.37421 39.4376 2.30981 39.5861C1.82381 40.6717 1.40881 42.1154 1.23709 43.332C1.11545 44.1657 1.09894 44.435 1.09894 45.3138C1.09894 46.4337 1.15949 46.9784 1.389 47.8706L1.42257 48.0016H4.3138L4.21913 47.8189C3.63571 46.7159 3.58123 44.6689 4.08429 42.6253C4.3138 41.6808 4.57359 40.9882 5.05959 40.0336L5.34965 39.4545V39.0998C5.34965 38.7686 5.34304 38.731 5.23847 38.514C5.15756 38.3487 5.04968 38.207 4.85704 38.0142C4.52956 37.6903 4.29344 37.3491 4.10465 36.9286C3.27466 35.0879 3.11284 32.3551 3.69626 30.0253C3.93898 29.0533 4.34077 28.1886 4.76237 27.7164C5.04913 27.3925 5.19774 27.0305 5.19774 26.6549C5.19774 26.2794 5.06289 25.9449 4.75907 25.6109C3.88835 24.6597 3.35226 23.5015 3.15962 22.154C2.88608 20.2346 3.38253 18.1427 4.50919 16.4847C5.61274 14.8583 7.161 13.8137 8.89199 13.5349C9.28002 13.4697 10.0054 13.4798 10.41 13.5557C10.852 13.635 11.1288 13.6108 11.4123 13.473C11.7634 13.3044 11.9384 13.0941 12.1443 12.6117C12.3265 12.1811 12.4679 11.9467 12.8493 11.4609C13.3084 10.8785 13.7503 10.4821 14.4587 10.0031C15.2683 9.46231 16.1897 9.06933 17.1072 8.87987C17.4413 8.81072 17.5965 8.8006 18.2206 8.8006C18.8448 8.8006 19 8.81072 19.3341 8.87987C20.6804 9.15928 22.0162 9.86878 23.0828 10.8751C23.3124 11.0921 23.8622 11.7881 24.0378 12.0782C24.1055 12.1918 24.2233 12.433 24.2976 12.6123C24.5034 13.0947 24.679 13.3049 25.0296 13.4736C25.3031 13.608 25.5899 13.6355 26.0148 13.563C26.6863 13.4461 27.2025 13.4562 27.8603 13.5939C30.1004 14.0555 32.051 15.9411 32.9146 18.4671C33.6669 20.6832 33.4545 23.0023 32.3344 24.7738C32.1457 25.0735 31.9563 25.3146 31.6833 25.6115C31.0927 26.2558 31.0927 27.0552 31.68 27.7169C32.6449 28.7958 33.2486 31.4494 33.0665 33.7892C32.9448 35.333 32.5568 36.7149 32.024 37.4975C31.9293 37.6352 31.734 37.8697 31.5854 38.0147C31.3933 38.2076 31.2848 38.3492 31.2039 38.5145C31.0993 38.7315 31.0927 38.7698 31.0927 39.1003V39.4551L31.3828 40.0341C31.8688 40.9888 32.1286 41.6814 32.3581 42.6259C32.854 44.6419 32.81 46.6479 32.2436 47.7886C32.1963 47.8853 32.1561 47.9746 32.1561 47.9848C32.1561 47.9949 32.8006 48.0022 33.5899 48.0022H35.0204L35.0572 47.8538C35.0776 47.7745 35.1112 47.6542 35.1282 47.585C35.1651 47.4332 35.2394 46.9852 35.3005 46.5545C35.3578 46.1205 35.3578 44.5211 35.3005 44.0387C35.0848 42.288 34.7237 40.8988 34.1331 39.5861C34.0693 39.4376 34.0286 39.3106 34.0418 39.3033C34.0588 39.2932 34.1529 39.1549 34.2542 38.9997C34.9895 37.8624 35.442 36.4321 35.6715 34.5437C35.732 34.0231 35.732 31.7867 35.6715 31.2869C35.5097 29.9978 35.3137 29.1224 34.9901 28.237C34.8552 27.8682 34.4975 27.0895 34.3456 26.8376L34.2713 26.71L34.5278 26.3204C35.3137 25.1139 35.7728 23.7978 35.9516 22.24C36.0325 21.5642 36.0056 20.1998 35.9043 19.5246C35.6412 17.8115 35.0237 16.2402 34.0654 14.8476C33.5662 14.1207 32.8408 13.3241 32.2062 12.8074C32.0207 12.6556 31.855 12.5179 31.8418 12.5044C31.8248 12.4903 31.8451 12.3009 31.8859 12.0872C32.2943 9.91263 32.2805 7.20058 31.8523 5.08109C31.4813 3.2337 30.8065 1.7658 29.9358 0.918006C29.2412 0.241119 28.5329 -0.048414 27.6825 0.0066815C25.7324 0.123619 24.16 2.41571 23.5391 6.02727C23.4378 6.60971 23.3503 7.29222 23.3503 7.47831C23.3503 7.55083 23.3366 7.6093 23.3201 7.6093C23.3035 7.6093 23.1715 7.54015 23.03 7.45413C21.5252 6.5445 19.8515 6.05819 18.2223 6.05819C16.5931 6.05819 14.9194 6.54393 13.4146 7.45413C13.2731 7.54015 13.1416 7.6093 13.1245 7.6093C13.1075 7.6093 13.0943 7.55083 13.0943 7.47831C13.0943 7.28547 13.0034 6.58216 12.9055 6.02727C12.3408 2.78451 11.0484 0.637469 9.33121 0.0960712C9.09509 0.0235475 8.42361 -0.0248017 8.18418 0.0134279ZM8.7577 2.8188C9.24369 3.21178 9.78363 4.33505 10.0941 5.59326C10.1513 5.82095 10.2118 6.08237 10.2289 6.17907C10.2421 6.27239 10.2795 6.48265 10.3098 6.64457C10.4414 7.37543 10.5019 8.16419 10.5091 9.12611L10.5124 10.074L10.2795 10.4254L10.0467 10.7801H9.50348C8.86943 10.7801 8.23812 10.8627 7.63434 11.028C7.41858 11.0831 7.20943 11.1382 7.1687 11.1489C7.10431 11.1624 7.0944 11.1422 7.05752 10.8594C6.85828 9.3257 6.86874 7.62673 7.0878 6.21392C7.33052 4.6392 7.89743 3.21234 8.45057 2.79182C8.58212 2.69174 8.60579 2.69512 8.7577 2.81936V2.8188ZM27.9962 2.79463C28.3303 3.04593 28.698 3.71495 28.9715 4.56949C29.5214 6.27914 29.6766 8.62576 29.3865 10.8588C29.3496 11.1416 29.3392 11.1618 29.2753 11.1483C29.2346 11.1382 29.0255 11.0831 28.8097 11.0275C28.2059 10.8622 27.5746 10.7795 26.9406 10.7795H26.3973L26.1645 10.4248L25.9317 10.0734L25.935 9.12555C25.9416 7.78808 26.0632 6.74408 26.3533 5.58257C26.6604 4.33505 27.2036 3.21122 27.6858 2.8188C27.8377 2.69456 27.8614 2.69118 27.9962 2.79463Z" fill="#4F606E"/>
<path d="M17.6993 20.1401C16.9673 20.2126 16.768 20.2401 16.4174 20.3127C15.8472 20.433 15.0849 20.7023 14.5549 20.9676C12.7127 21.888 11.444 23.4216 11.056 25.1965C10.9784 25.5479 10.9685 25.6654 10.9685 26.2579C10.9685 26.8505 10.9784 26.9714 11.0527 27.3059C11.569 29.6255 13.6605 31.338 16.3668 31.6517C16.9541 31.7174 19.4914 31.7174 20.0781 31.6517C22.2511 31.4004 24.1202 30.1973 24.9601 28.5084C25.183 28.057 25.2909 27.7641 25.3922 27.3059C25.4665 26.9714 25.4764 26.8443 25.4764 26.2579C25.4764 25.6716 25.4665 25.5479 25.3889 25.1965C24.8253 22.6188 22.376 20.5887 19.373 20.203C18.9817 20.1547 17.9558 20.1137 17.6993 20.1412V20.1401ZM18.9608 22.015C19.9631 22.1252 20.9719 22.4906 21.7816 23.0421C22.2169 23.3384 22.8312 23.9591 23.0943 24.3656C23.4185 24.8687 23.6039 25.382 23.6881 26.0061C23.725 26.2922 23.7052 26.5092 23.6039 26.9708C23.4454 27.6601 22.9528 28.3802 22.2879 28.8834C21.9775 29.1145 21.333 29.4484 20.9384 29.5794C20.1893 29.824 19.7 29.8689 17.9525 29.8549C16.8121 29.8448 16.6095 29.8341 16.2826 29.7722C15.1658 29.5586 14.2819 29.1038 13.6407 28.4111C13.1211 27.8529 12.885 27.343 12.7567 26.5193C12.6995 26.1371 12.8074 25.5029 13.0264 24.9682C13.2928 24.3167 13.9814 23.5071 14.6628 23.0416C15.452 22.5041 16.4917 22.1213 17.4461 22.0178C17.8138 21.9762 18.5931 21.9762 18.9608 22.0144V22.015Z" fill="#4F606E"/>
<path d="M18.3911 24.0692C18.1346 24.2103 17.9557 24.5689 18.0096 24.8343C18.0702 25.1205 18.3167 25.41 18.7015 25.6478C18.9073 25.7754 18.9211 25.7923 18.931 25.9199C18.9376 25.9958 18.9106 26.2128 18.8738 26.4057C18.833 26.5951 18.8027 26.7953 18.8027 26.8504C18.8061 26.9988 18.9409 27.24 19.0829 27.3569C19.2078 27.4603 19.2315 27.4637 19.5821 27.4738C19.9024 27.4839 19.9701 27.4772 20.0984 27.4154C20.4292 27.2501 20.5134 26.9465 20.3917 26.364C20.2905 25.8783 20.3108 25.8024 20.564 25.654C20.8304 25.4955 21.1139 25.216 21.1981 25.0266C21.3599 24.6645 21.2113 24.2547 20.8541 24.0652C20.7666 24.0202 20.6587 24 20.4996 24C20.253 24 20.0945 24.0585 19.8045 24.2479L19.6394 24.3547L19.5348 24.289C19.106 24.0304 19.029 23.9994 18.7686 24.0028C18.5831 24.0028 18.4819 24.0208 18.3911 24.0692Z" fill="#4F606E"/>
<path d="M8.74093 20.5298C8.14375 20.7227 7.69848 21.1707 7.46896 21.8083C7.35778 22.1118 7.30384 22.5908 7.35063 22.8489C7.46181 23.4656 7.95771 24.0273 8.52132 24.1824C9.22968 24.3719 9.75971 24.2476 10.2286 23.7726C10.5016 23.5005 10.6502 23.2627 10.7989 22.8764C10.9067 22.6043 10.9133 22.556 10.9133 22.1698L10.9166 21.756L10.7752 21.4597C10.549 20.9908 10.1411 20.6428 9.66834 20.5152C9.40195 20.4461 8.97319 20.45 8.74038 20.5287L8.74093 20.5298Z" fill="#4F606E"/>
<path d="M26.7614 20.5191C26.2991 20.6468 25.8874 20.9981 25.6683 21.4603L25.5269 21.7565L25.5302 22.1703C25.5302 22.5566 25.5368 22.6043 25.6446 22.877C25.7932 23.2632 25.9413 23.5011 26.2149 23.7732C26.6838 24.2488 27.2138 24.373 27.9222 24.183C28.3306 24.0728 28.7384 23.7214 28.9344 23.311C29.1033 22.963 29.1435 22.7112 29.0896 22.3148C28.9646 21.4085 28.4451 20.7502 27.6723 20.5191C27.4461 20.45 27.0074 20.45 26.7614 20.5191Z" fill="#4F606E"/>
</g>
<defs>
<clipPath id="clip0_831_14298">
<rect width="35.5556" height="48" fill="white" transform="translate(0.444336)"/>
</clipPath>
</defs>
</svg>
