<svg width="40" height="42" viewBox="0 0 40 42" fill="none" xmlns="http://www.w3.org/2000/svg">
<g clip-path="url(#clip0_831_14286)">
<path d="M36.9099 17.1901C37.8066 14.33 37.4978 11.197 36.0638 8.59554C33.9072 4.60541 29.5718 2.5526 25.3377 3.51863C23.4541 1.26368 20.7479 -0.018669 17.9107 -0.00029347C13.5828 -0.0107938 9.74266 2.9503 8.41116 7.32631C5.63083 7.93139 3.23092 9.78076 1.82655 12.4019C-0.346083 16.3815 0.149214 21.3981 3.05183 24.8107C2.1551 27.6707 2.46389 30.8037 3.89791 33.4052C6.05449 37.3953 10.3899 39.4481 14.624 38.4821C16.5064 40.737 19.2138 42.0194 22.051 41.9997C26.3814 42.0115 30.2228 39.0478 31.5543 34.6679C34.3346 34.0628 36.7345 32.2134 38.1389 29.5923C40.309 25.6126 39.8125 20.6 36.9111 17.1874V17.1901H36.9099ZM22.0534 39.2552C20.3205 39.2578 18.6419 38.6134 17.3117 37.4334C17.3722 37.3993 17.4772 37.3376 17.5451 37.2929L25.4155 32.4628C25.8182 32.22 26.0652 31.7645 26.0628 31.2723V19.4818L29.389 21.5228C29.4248 21.5411 29.4483 21.5779 29.4533 21.6199V31.3839C29.4483 35.7258 26.1393 39.246 22.0534 39.2552ZM6.13971 32.0323C5.2714 30.4388 4.95891 28.5711 5.25658 26.7585C5.31463 26.7952 5.41715 26.8622 5.49002 26.9068L13.3604 31.7369C13.7594 31.985 14.2534 31.985 14.6536 31.7369L24.2619 25.841V29.923C24.2644 29.965 24.2458 30.0057 24.215 30.032L16.2593 34.9133C12.7157 37.0816 8.19007 35.7927 6.14095 32.0323H6.13971ZM4.06836 13.7761C4.93297 12.1801 6.29781 10.9594 7.92328 10.3255C7.92328 10.3977 7.91957 10.525 7.91957 10.6142V20.2758C7.9171 20.7667 8.16413 21.2222 8.56556 21.465L18.1738 27.3596L14.8476 29.4006C14.8142 29.4243 14.7722 29.4282 14.7352 29.4111L6.77829 24.5258C3.24204 22.3497 2.02912 17.5418 4.06712 13.7775H4.06836V13.7761ZM31.3974 20.5344L21.7891 14.6385L25.1154 12.5988C25.1487 12.5752 25.1907 12.5712 25.2278 12.5883L33.1847 17.4696C36.7271 19.6445 37.9412 24.4602 35.8946 28.2246C35.0287 29.818 33.6651 31.0387 32.0409 31.6739V21.7236C32.0446 21.2327 31.7988 20.7785 31.3986 20.5344H31.3974ZM34.7076 15.2396C34.6496 15.2016 34.547 15.1359 34.4742 15.0913L26.6038 10.2612C26.2048 10.0131 25.7107 10.0131 25.3105 10.2612L15.7023 16.1571V12.0751C15.6998 12.0331 15.7183 11.9924 15.7492 11.9661L23.7048 7.08874C27.2485 4.91649 31.7791 6.20934 33.822 9.97633C34.6854 11.5671 34.9979 13.4296 34.7051 15.2396H34.7076ZM13.894 22.515L10.5665 20.474C10.5307 20.4557 10.5072 20.4189 10.5023 20.3769V10.6129C10.5047 6.26578 13.8236 2.74292 17.9144 2.74554C19.6449 2.74554 21.3198 3.39131 22.65 4.56735C22.5895 4.60148 22.4857 4.66316 22.4166 4.70779L14.5462 9.53794C14.1435 9.78076 13.8965 10.2349 13.899 10.7271L13.894 22.5124V22.515ZM15.701 18.3753L19.9809 15.7489L24.2607 18.374V23.6254L19.9809 26.2505L15.701 23.6254V18.3753Z" fill="#4F606E"/>
</g>
<defs>
<clipPath id="clip0_831_14286">
<rect width="39" height="42" fill="white" transform="translate(0.481445)"/>
</clipPath>
</defs>
</svg>
