<svg width="280" height="34" viewBox="0 0 280 34" fill="none" xmlns="http://www.w3.org/2000/svg">
<path d="M15.428 27V7.4H18.676V27H15.428ZM2.324 27V7.4H5.572V27H2.324ZM4.872 18.432V15.464H16.744V18.432H4.872ZM29.176 27.336C27.776 27.336 26.5253 27.028 25.424 26.412C24.3413 25.7773 23.492 24.9093 22.876 23.808C22.26 22.7067 21.952 21.4373 21.952 20C21.952 18.5627 22.2507 17.2933 22.848 16.192C23.464 15.0907 24.3133 14.232 25.396 13.616C26.4787 12.9813 27.72 12.664 29.12 12.664C30.52 12.664 31.7613 12.9813 32.844 13.616C33.9267 14.232 34.7667 15.0907 35.364 16.192C35.98 17.2933 36.288 18.5627 36.288 20C36.288 21.4373 35.9893 22.7067 35.392 23.808C34.7947 24.9093 33.9547 25.7773 32.872 26.412C31.7893 27.028 30.5573 27.336 29.176 27.336ZM29.176 24.452C29.9413 24.452 30.6227 24.2653 31.22 23.892C31.8173 23.5 32.284 22.9773 32.62 22.324C32.956 21.652 33.124 20.8773 33.124 20C33.124 19.1227 32.9467 18.3573 32.592 17.704C32.256 17.032 31.7893 16.5093 31.192 16.136C30.5947 15.744 29.904 15.548 29.12 15.548C28.336 15.548 27.6453 15.7347 27.048 16.108C26.4507 16.4813 25.984 17.004 25.648 17.676C25.312 18.348 25.144 19.1227 25.144 20C25.144 20.8773 25.312 21.652 25.648 22.324C26.0027 22.9773 26.4787 23.5 27.076 23.892C27.692 24.2653 28.392 24.452 29.176 24.452ZM39.0055 27V13H41.9455L42.0855 14.876C42.5149 14.148 43.0655 13.5973 43.7375 13.224C44.4095 12.8507 45.1749 12.664 46.0335 12.664C47.1535 12.664 48.1055 12.916 48.8895 13.42C49.6735 13.924 50.2429 14.6893 50.5975 15.716C51.0082 14.7267 51.5869 13.9707 52.3335 13.448C53.0802 12.9253 53.9575 12.664 54.9655 12.664C56.5895 12.664 57.8402 13.1867 58.7175 14.232C59.5949 15.2587 60.0242 16.8453 60.0055 18.992V27H56.8975V19.832C56.8975 18.712 56.7762 17.8533 56.5335 17.256C56.2909 16.64 55.9642 16.2107 55.5535 15.968C55.1429 15.7253 54.6669 15.604 54.1255 15.604C53.1549 15.5853 52.3989 15.9307 51.8575 16.64C51.3349 17.3493 51.0735 18.3667 51.0735 19.692V27H47.9375V19.832C47.9375 18.712 47.8162 17.8533 47.5735 17.256C47.3495 16.64 47.0322 16.2107 46.6215 15.968C46.2109 15.7253 45.7349 15.604 45.1935 15.604C44.2229 15.5853 43.4669 15.9307 42.9255 16.64C42.4029 17.3493 42.1415 18.3667 42.1415 19.692V27H39.0055ZM69.4488 27.336C68.0861 27.336 66.8728 27.028 65.8088 26.412C64.7634 25.7773 63.9328 24.9093 63.3167 23.808C62.7194 22.7067 62.4208 21.4373 62.4208 20C62.4208 18.5627 62.7288 17.2933 63.3448 16.192C63.9608 15.0907 64.8008 14.232 65.8648 13.616C66.9474 12.9813 68.1794 12.664 69.5608 12.664C70.8114 12.664 71.9408 12.9907 72.9488 13.644C73.9568 14.2787 74.7501 15.2027 75.3288 16.416C75.9261 17.6293 76.2248 19.076 76.2248 20.756H65.2208L65.6408 20.364C65.6408 21.2227 65.8274 21.9693 66.2008 22.604C66.5741 23.22 67.0688 23.696 67.6848 24.032C68.3008 24.368 68.9821 24.536 69.7288 24.536C70.5874 24.536 71.2968 24.3493 71.8568 23.976C72.4168 23.584 72.8554 23.08 73.1728 22.464L75.9448 23.64C75.5528 24.3867 75.0488 25.04 74.4328 25.6C73.8354 26.16 73.1168 26.5893 72.2768 26.888C71.4554 27.1867 70.5128 27.336 69.4488 27.336ZM65.8368 18.74L65.3888 18.348H73.2848L72.8648 18.74C72.8648 17.9747 72.6968 17.3493 72.3608 16.864C72.0248 16.36 71.5954 15.9867 71.0728 15.744C70.5688 15.4827 70.0368 15.352 69.4768 15.352C68.9168 15.352 68.3568 15.4827 67.7968 15.744C67.2368 15.9867 66.7701 16.36 66.3968 16.864C66.0234 17.3493 65.8368 17.9747 65.8368 18.74ZM99.5485 27L91.9045 7.4H95.1525L102.993 27H99.5485ZM83.8965 27L91.7085 7.4H94.9845L87.3405 27H83.8965ZM87.5645 22.184V19.3H99.2965V22.184H87.5645ZM110.055 27.336C109.121 27.336 108.263 27.196 107.479 26.916C106.695 26.636 106.023 26.244 105.463 25.74C104.903 25.2173 104.473 24.6107 104.175 23.92L106.891 22.716C107.171 23.2387 107.581 23.6773 108.123 24.032C108.683 24.3867 109.299 24.564 109.971 24.564C110.699 24.564 111.277 24.4427 111.707 24.2C112.155 23.9387 112.379 23.584 112.379 23.136C112.379 22.7067 112.211 22.38 111.875 22.156C111.539 21.9133 111.063 21.7173 110.447 21.568L109.131 21.204C107.805 20.868 106.769 20.336 106.023 19.608C105.276 18.8613 104.903 18.012 104.903 17.06C104.903 15.66 105.351 14.5773 106.247 13.812C107.161 13.0467 108.468 12.664 110.167 12.664C111.025 12.664 111.809 12.7947 112.519 13.056C113.247 13.2987 113.872 13.6533 114.395 14.12C114.917 14.568 115.281 15.1 115.487 15.716L112.883 16.892C112.696 16.4253 112.341 16.0707 111.819 15.828C111.296 15.5667 110.717 15.436 110.083 15.436C109.448 15.436 108.953 15.576 108.599 15.856C108.244 16.1173 108.067 16.4907 108.067 16.976C108.067 17.256 108.225 17.5173 108.543 17.76C108.86 17.984 109.317 18.1707 109.915 18.32L111.567 18.712C112.481 18.936 113.228 19.2907 113.807 19.776C114.385 20.2427 114.815 20.7747 115.095 21.372C115.375 21.9507 115.515 22.5387 115.515 23.136C115.515 23.976 115.272 24.7133 114.787 25.348C114.32 25.9827 113.676 26.4773 112.855 26.832C112.033 27.168 111.1 27.336 110.055 27.336ZM123.07 27.336C122.137 27.336 121.278 27.196 120.494 26.916C119.71 26.636 119.038 26.244 118.478 25.74C117.918 25.2173 117.489 24.6107 117.19 23.92L119.906 22.716C120.186 23.2387 120.597 23.6773 121.138 24.032C121.698 24.3867 122.314 24.564 122.986 24.564C123.714 24.564 124.293 24.4427 124.722 24.2C125.17 23.9387 125.394 23.584 125.394 23.136C125.394 22.7067 125.226 22.38 124.89 22.156C124.554 21.9133 124.078 21.7173 123.462 21.568L122.146 21.204C120.821 20.868 119.785 20.336 119.038 19.608C118.292 18.8613 117.918 18.012 117.918 17.06C117.918 15.66 118.366 14.5773 119.262 13.812C120.177 13.0467 121.484 12.664 123.182 12.664C124.041 12.664 124.825 12.7947 125.534 13.056C126.262 13.2987 126.888 13.6533 127.41 14.12C127.933 14.568 128.297 15.1 128.502 15.716L125.898 16.892C125.712 16.4253 125.357 16.0707 124.834 15.828C124.312 15.5667 123.733 15.436 123.098 15.436C122.464 15.436 121.969 15.576 121.614 15.856C121.26 16.1173 121.082 16.4907 121.082 16.976C121.082 17.256 121.241 17.5173 121.558 17.76C121.876 17.984 122.333 18.1707 122.93 18.32L124.582 18.712C125.497 18.936 126.244 19.2907 126.822 19.776C127.401 20.2427 127.83 20.7747 128.11 21.372C128.39 21.9507 128.53 22.5387 128.53 23.136C128.53 23.976 128.288 24.7133 127.802 25.348C127.336 25.9827 126.692 26.4773 125.87 26.832C125.049 27.168 124.116 27.336 123.07 27.336ZM131.213 27V13H134.321V27H131.213ZM132.781 10.34C132.277 10.34 131.839 10.1627 131.465 9.808C131.111 9.43467 130.933 8.996 130.933 8.492C130.933 7.988 131.111 7.55867 131.465 7.204C131.839 6.84933 132.277 6.672 132.781 6.672C133.285 6.672 133.715 6.84933 134.069 7.204C134.443 7.55867 134.629 7.988 134.629 8.492C134.629 8.996 134.443 9.43467 134.069 9.808C133.715 10.1627 133.285 10.34 132.781 10.34ZM143.113 27.336C142.18 27.336 141.321 27.196 140.537 26.916C139.753 26.636 139.081 26.244 138.521 25.74C137.961 25.2173 137.532 24.6107 137.233 23.92L139.949 22.716C140.229 23.2387 140.64 23.6773 141.181 24.032C141.741 24.3867 142.357 24.564 143.029 24.564C143.757 24.564 144.336 24.4427 144.765 24.2C145.213 23.9387 145.437 23.584 145.437 23.136C145.437 22.7067 145.269 22.38 144.933 22.156C144.597 21.9133 144.121 21.7173 143.505 21.568L142.189 21.204C140.864 20.868 139.828 20.336 139.081 19.608C138.335 18.8613 137.961 18.012 137.961 17.06C137.961 15.66 138.409 14.5773 139.305 13.812C140.22 13.0467 141.527 12.664 143.225 12.664C144.084 12.664 144.868 12.7947 145.577 13.056C146.305 13.2987 146.931 13.6533 147.453 14.12C147.976 14.568 148.34 15.1 148.545 15.716L145.941 16.892C145.755 16.4253 145.4 16.0707 144.877 15.828C144.355 15.5667 143.776 15.436 143.141 15.436C142.507 15.436 142.012 15.576 141.657 15.856C141.303 16.1173 141.125 16.4907 141.125 16.976C141.125 17.256 141.284 17.5173 141.601 17.76C141.919 17.984 142.376 18.1707 142.973 18.32L144.625 18.712C145.54 18.936 146.287 19.2907 146.865 19.776C147.444 20.2427 147.873 20.7747 148.153 21.372C148.433 21.9507 148.573 22.5387 148.573 23.136C148.573 23.976 148.331 24.7133 147.845 25.348C147.379 25.9827 146.735 26.4773 145.913 26.832C145.092 27.168 144.159 27.336 143.113 27.336ZM156.632 27.336C155.158 27.336 154.028 26.972 153.244 26.244C152.479 25.4973 152.096 24.4333 152.096 23.052V8.632H155.204V22.464C155.204 23.1173 155.354 23.612 155.652 23.948C155.97 24.284 156.427 24.452 157.024 24.452C157.211 24.452 157.416 24.4147 157.64 24.34C157.864 24.2653 158.116 24.1253 158.396 23.92L159.544 26.3C159.059 26.636 158.574 26.888 158.088 27.056C157.603 27.2427 157.118 27.336 156.632 27.336ZM149.772 15.688V13H158.984V15.688H149.772ZM170.401 27L170.261 24.368V19.804C170.261 18.852 170.158 18.0587 169.953 17.424C169.766 16.7707 169.449 16.276 169.001 15.94C168.572 15.5853 167.993 15.408 167.265 15.408C166.593 15.408 166.005 15.548 165.501 15.828C164.997 16.108 164.568 16.5467 164.213 17.144L161.469 16.136C161.768 15.52 162.16 14.9507 162.645 14.428C163.149 13.8867 163.774 13.4573 164.521 13.14C165.286 12.8227 166.201 12.664 167.265 12.664C168.628 12.664 169.766 12.9347 170.681 13.476C171.596 13.9987 172.268 14.7547 172.697 15.744C173.145 16.7333 173.369 17.928 173.369 19.328L173.285 27H170.401ZM166.369 27.336C164.689 27.336 163.382 26.9627 162.449 26.216C161.534 25.4693 161.077 24.4147 161.077 23.052C161.077 21.596 161.562 20.4853 162.533 19.72C163.522 18.9547 164.894 18.572 166.649 18.572H170.401V20.98H167.657C166.406 20.98 165.529 21.1573 165.025 21.512C164.521 21.848 164.269 22.3333 164.269 22.968C164.269 23.5093 164.484 23.9387 164.913 24.256C165.361 24.5547 165.977 24.704 166.761 24.704C167.47 24.704 168.086 24.5453 168.609 24.228C169.132 23.9107 169.533 23.4907 169.813 22.968C170.112 22.4453 170.261 21.8573 170.261 21.204H171.185C171.185 23.108 170.802 24.6107 170.037 25.712C169.272 26.7947 168.049 27.336 166.369 27.336ZM176.545 27V13H179.485L179.681 15.576V27H176.545ZM186.037 27V19.832H189.173V27H186.037ZM186.037 19.832C186.037 18.712 185.906 17.8533 185.645 17.256C185.402 16.64 185.047 16.2107 184.581 15.968C184.133 15.7253 183.601 15.604 182.985 15.604C181.939 15.5853 181.127 15.9307 180.549 16.64C179.97 17.3493 179.681 18.3667 179.681 19.692H178.505C178.505 18.2173 178.719 16.9573 179.149 15.912C179.578 14.848 180.194 14.0453 180.997 13.504C181.799 12.944 182.751 12.664 183.853 12.664C184.973 12.664 185.925 12.888 186.709 13.336C187.511 13.784 188.118 14.484 188.529 15.436C188.958 16.3693 189.173 17.592 189.173 19.104V19.832H186.037ZM197.921 27.336C196.447 27.336 195.317 26.972 194.533 26.244C193.768 25.4973 193.385 24.4333 193.385 23.052V8.632H196.493V22.464C196.493 23.1173 196.643 23.612 196.941 23.948C197.259 24.284 197.716 24.452 198.313 24.452C198.5 24.452 198.705 24.4147 198.929 24.34C199.153 24.2653 199.405 24.1253 199.685 23.92L200.833 26.3C200.348 26.636 199.863 26.888 199.377 27.056C198.892 27.2427 198.407 27.336 197.921 27.336ZM191.061 15.688V13H200.273V15.688H191.061ZM216.983 27L224.991 7.4H227.483L219.363 27H216.983ZM216.731 27L208.611 7.4H211.103L219.083 27H216.731ZM234.8 27.336C233.438 27.336 232.224 27.028 231.16 26.412C230.115 25.7773 229.294 24.9093 228.696 23.808C228.099 22.7067 227.8 21.4373 227.8 20C227.8 18.5627 228.09 17.2933 228.668 16.192C229.266 15.0907 230.087 14.232 231.132 13.616C232.196 12.9813 233.4 12.664 234.744 12.664C236.126 12.664 237.339 12.9813 238.384 13.616C239.448 14.232 240.27 15.0907 240.848 16.192C241.446 17.2933 241.744 18.5627 241.744 20C241.744 21.4373 241.446 22.7067 240.848 23.808C240.27 24.9093 239.458 25.7773 238.412 26.412C237.367 27.028 236.163 27.336 234.8 27.336ZM234.8 25.264C235.734 25.264 236.546 25.04 237.236 24.592C237.927 24.144 238.468 23.528 238.86 22.744C239.271 21.96 239.476 21.0453 239.476 20C239.476 18.9547 239.271 18.04 238.86 17.256C238.468 16.472 237.918 15.856 237.208 15.408C236.499 14.96 235.678 14.736 234.744 14.736C233.83 14.736 233.018 14.96 232.308 15.408C231.618 15.856 231.067 16.472 230.656 17.256C230.264 18.04 230.068 18.9547 230.068 20C230.068 21.0267 230.264 21.9413 230.656 22.744C231.067 23.528 231.627 24.144 232.336 24.592C233.064 25.04 233.886 25.264 234.8 25.264ZM244.995 27V13H247.235V27H244.995ZM246.143 9.752C245.769 9.752 245.443 9.612 245.163 9.332C244.883 9.052 244.743 8.72533 244.743 8.352C244.743 7.96 244.883 7.63333 245.163 7.372C245.443 7.092 245.769 6.952 246.143 6.952C246.535 6.952 246.861 7.092 247.123 7.372C247.403 7.63333 247.543 7.96 247.543 8.352C247.543 8.72533 247.403 9.052 247.123 9.332C246.861 9.612 246.535 9.752 246.143 9.752ZM257.606 27.336C256.225 27.336 255.002 27.028 253.938 26.412C252.874 25.7773 252.044 24.9093 251.446 23.808C250.849 22.7067 250.55 21.4373 250.55 20C250.55 18.5627 250.84 17.2933 251.418 16.192C252.016 15.0907 252.846 14.232 253.91 13.616C254.974 12.9813 256.188 12.664 257.55 12.664C258.894 12.664 260.098 12.972 261.162 13.588C262.226 14.204 263.038 15.072 263.598 16.192L261.554 17.116C261.181 16.3693 260.64 15.7907 259.93 15.38C259.221 14.9507 258.409 14.736 257.494 14.736C256.58 14.736 255.768 14.96 255.058 15.408C254.368 15.856 253.817 16.4813 253.406 17.284C253.014 18.068 252.818 18.9733 252.818 20C252.818 21.0267 253.014 21.9413 253.406 22.744C253.817 23.528 254.377 24.144 255.086 24.592C255.814 25.04 256.636 25.264 257.55 25.264C258.465 25.264 259.277 25.0307 259.986 24.564C260.714 24.0973 261.265 23.444 261.638 22.604L263.682 23.528C263.122 24.7227 262.31 25.656 261.246 26.328C260.182 27 258.969 27.336 257.606 27.336ZM272.643 27.336C271.28 27.336 270.076 27.028 269.031 26.412C267.985 25.7773 267.164 24.9093 266.567 23.808C265.988 22.7067 265.699 21.4373 265.699 20C265.699 18.5627 265.988 17.2933 266.567 16.192C267.164 15.0907 267.976 14.232 269.003 13.616C270.048 12.9813 271.243 12.664 272.587 12.664C273.893 12.664 275.023 12.9907 275.975 13.644C276.927 14.2787 277.664 15.1747 278.187 16.332C278.709 17.4893 278.971 18.852 278.971 20.42H267.407L267.967 19.944C267.967 21.064 268.163 22.0253 268.555 22.828C268.965 23.6307 269.535 24.2467 270.263 24.676C270.991 25.0867 271.821 25.292 272.755 25.292C273.744 25.292 274.575 25.0587 275.247 24.592C275.937 24.1253 276.469 23.5093 276.843 22.744L278.775 23.724C278.42 24.452 277.944 25.0867 277.347 25.628C276.768 26.1693 276.077 26.5893 275.275 26.888C274.491 27.1867 273.613 27.336 272.643 27.336ZM268.107 18.992L267.519 18.544H277.179L276.591 19.02C276.591 18.124 276.413 17.3493 276.059 16.696C275.704 16.0427 275.228 15.5387 274.631 15.184C274.033 14.8293 273.343 14.652 272.559 14.652C271.793 14.652 271.065 14.8293 270.375 15.184C269.703 15.5387 269.152 16.0427 268.723 16.696C268.312 17.3307 268.107 18.096 268.107 18.992Z" fill="#002332"/>
</svg>
