<svg width="240" height="238" viewBox="0 0 240 238" fill="none" xmlns="http://www.w3.org/2000/svg">
<g clip-path="url(#clip0_2_315)">
<path d="M27.0225 237.565C14.2394 237.565 3.84184 227.106 3.84184 214.25V65.5537L2.32931 65.5015C1.60329 65.4754 1.03285 64.8798 1.03285 64.1451V64.0582C0.669843 63.8495 0.432159 63.4583 0.432159 63.0235V62.7192C0.432159 62.2801 0.669843 61.8845 1.03285 61.6802V60.5673C0.669843 60.363 0.432159 59.9673 0.432159 59.5326V59.2283C0.432159 58.7892 0.669843 58.3979 1.03285 58.1893V57.0764C0.669843 56.8677 0.432159 56.4764 0.432159 56.0373V55.7374C0.432159 55.2983 0.669843 54.9027 1.03285 54.6984C1.05014 53.981 1.61193 53.4028 2.32931 53.3768L3.84184 53.3202V23.7496C3.84184 10.8945 14.2394 0.434738 27.0225 0.434738H216.387C229.17 0.434738 239.568 10.8945 239.568 23.7496V214.25C239.568 227.106 229.17 237.565 216.387 237.565H27.0225Z" fill="white"/>
<path d="M216.387 0.86947C228.95 0.86947 239.136 11.1162 239.136 23.7496V214.25C239.136 226.888 228.95 237.131 216.387 237.131H27.0225C14.4598 237.131 4.27398 226.888 4.27398 214.25V65.1363L2.34659 65.0668C1.85393 65.0494 1.465 64.6451 1.465 64.1451V63.7626C1.11927 63.693 0.864304 63.3887 0.864304 63.0235V62.7192C0.864304 62.3497 1.11927 62.0454 1.465 61.9758V60.2717C1.11927 60.2021 0.864304 59.8978 0.864304 59.5326V59.2283C0.864304 58.8588 1.11927 58.5545 1.465 58.4849V56.7807C1.11927 56.7112 0.864304 56.4069 0.864304 56.0373V55.7374C0.864304 55.3678 1.11927 55.0635 1.465 54.994V54.7288C1.465 54.2332 1.85393 53.8289 2.34659 53.8115L4.27398 53.7419V23.7496C4.27398 11.1162 14.4598 0.86947 27.0225 0.86947H216.387ZM216.387 0H27.0225C14.0017 0 3.40968 10.6554 3.40968 23.7496V52.9029L2.31634 52.942C1.44771 52.9725 0.747623 53.6159 0.622299 54.4549C0.242005 54.7549 0 55.2244 0 55.7374V56.0373C0 56.5416 0.233362 57.0024 0.600691 57.3024V57.9589C0.233362 58.2588 0 58.7197 0 59.2239V59.5283C0 60.0325 0.233362 60.489 0.600691 60.7933V61.4498C0.233362 61.7498 0 62.2106 0 62.7149V63.0192C0 63.5235 0.233362 63.9843 0.605013 64.2886C0.678479 65.1885 1.40017 65.9015 2.31634 65.9319L3.40968 65.971V214.246C3.40968 227.34 14.0017 237.996 27.0225 237.996H216.387C229.408 237.996 240 227.34 240 214.246V23.7496C240 10.6554 229.408 0 216.387 0Z" fill="black"/>
<path d="M239.136 23.7496V214.25C239.136 226.888 228.95 237.131 216.387 237.131H27.0225C14.4598 237.131 4.27399 226.888 4.27399 214.25V23.7496C4.27399 11.1162 14.4598 0.869476 27.0225 0.869476H216.387C228.95 0.869476 239.136 11.1162 239.136 23.7496Z" stroke="black" stroke-width="0.5" stroke-miterlimit="10"/>
<path d="M215.804 4.84294H27.6015C16.8995 4.84294 8.22385 13.5705 8.22385 24.3365V213.664C8.22385 224.429 16.8995 233.157 27.6015 233.157H215.804C226.506 233.157 235.181 224.429 235.181 213.664V24.3365C235.181 13.5705 226.506 4.84294 215.804 4.84294Z" stroke="black" stroke-width="0.5" stroke-miterlimit="10"/>
<path d="M121.703 146.962C137.054 146.962 149.499 134.443 149.499 119C149.499 103.557 137.054 91.0378 121.703 91.0378C106.351 91.0378 93.9066 103.557 93.9066 119C93.9066 134.443 106.351 146.962 121.703 146.962Z" stroke="black" stroke-width="0.5" stroke-miterlimit="10"/>
<path d="M121.703 141.363C133.98 141.363 143.933 131.351 143.933 119C143.933 106.649 133.98 96.6372 121.703 96.6372C109.425 96.6372 99.4728 106.649 99.4728 119C99.4728 131.351 109.425 141.363 121.703 141.363Z" stroke="black" stroke-width="0.5" stroke-miterlimit="10"/>
<path d="M121.703 184.21C157.503 184.21 186.525 155.015 186.525 119C186.525 82.9854 157.503 53.7898 121.703 53.7898C85.902 53.7898 56.8799 82.9854 56.8799 119C56.8799 155.015 85.902 184.21 121.703 184.21Z" stroke="black" stroke-width="0.5" stroke-miterlimit="10"/>
<path d="M121.703 194.453C163.126 194.453 196.707 160.671 196.707 119C196.707 77.3287 163.126 43.5474 121.703 43.5474C80.2789 43.5474 46.6984 77.3287 46.6984 119C46.6984 160.671 80.2789 194.453 121.703 194.453Z" stroke="black" stroke-width="0.5" stroke-miterlimit="10"/>
<path d="M21.2705 122.674C23.2873 122.674 24.9222 121.029 24.9222 119C24.9222 116.971 23.2873 115.327 21.2705 115.327C19.2538 115.327 17.6188 116.971 17.6188 119C17.6188 121.029 19.2538 122.674 21.2705 122.674Z" stroke="black" stroke-width="0.5" stroke-miterlimit="10"/>
<path d="M21.2705 120.265C21.9651 120.265 22.5281 119.699 22.5281 119C22.5281 118.301 21.9651 117.735 21.2705 117.735C20.576 117.735 20.013 118.301 20.013 119C20.013 119.699 20.576 120.265 21.2705 120.265Z" stroke="black" stroke-width="0.5" stroke-miterlimit="10"/>
<path d="M222.2 122.674C224.216 122.674 225.851 121.029 225.851 119C225.851 116.971 224.216 115.327 222.2 115.327C220.183 115.327 218.548 116.971 218.548 119C218.548 121.029 220.183 122.674 222.2 122.674Z" stroke="black" stroke-width="0.5" stroke-miterlimit="10"/>
<path d="M222.2 120.265C222.894 120.265 223.457 119.699 223.457 119C223.457 118.301 222.894 117.735 222.2 117.735C221.505 117.735 220.942 118.301 220.942 119C220.942 119.699 221.505 120.265 222.2 120.265Z" stroke="black" stroke-width="0.5" stroke-miterlimit="10"/>
<path d="M121.703 187.232C159.162 187.232 189.529 156.683 189.529 119C189.529 81.3167 159.162 50.7683 121.703 50.7683C84.2433 50.7683 53.8764 81.3167 53.8764 119C53.8764 156.683 84.2433 187.232 121.703 187.232Z" stroke="black" stroke-width="0.5" stroke-miterlimit="10"/>
<path d="M121.703 191.201C161.341 191.201 193.474 158.875 193.474 119C193.474 79.1246 161.341 46.7992 121.703 46.7992C82.0642 46.7992 49.9308 79.1246 49.9308 119C49.9308 158.875 82.0642 191.201 121.703 191.201Z" stroke="black" stroke-width="0.5" stroke-miterlimit="10"/>
</g>
<defs>
<clipPath id="clip0_2_315">
<rect width="240" height="238" fill="white"/>
</clipPath>
</defs>
</svg>
