<svg width="63" height="207" viewBox="0 0 63 207" fill="none" xmlns="http://www.w3.org/2000/svg">
<g clip-path="url(#clip0_1114_1894)">
<path d="M31.5936 206.397C23.3957 206.397 15.6786 204.571 9.84391 201.249C3.96033 197.895 0.676276 193.391 0.611084 188.581V185.042C0.676276 180.232 3.95218 175.728 9.84391 172.366C10.2106 172.157 10.5855 171.956 10.9685 171.763V12.5957C10.9766 9.32211 13.1769 6.28178 17.1536 4.02163C21.0081 1.8178 26.1338 0.603271 31.561 0.603271C36.9883 0.603271 42.0977 1.8178 45.9359 4.02163C49.88 6.28178 52.0476 9.32211 52.0232 12.5957V171.674C52.4551 171.891 52.8788 172.125 53.2863 172.366C59.1373 175.72 62.3724 180.224 62.3887 185.034L62.3561 187.889C62.3724 188.082 62.3806 188.324 62.3806 188.565C62.3724 193.383 59.1373 197.879 53.2863 201.241C47.4923 204.563 39.7915 206.389 31.6018 206.389L31.5936 206.397Z" fill="white"/>
<path d="M31.5611 1.20648C36.6542 1.20648 41.7474 2.31644 45.6263 4.54441C49.5052 6.76434 51.4284 9.68402 51.4121 12.5957V172.101H51.518C52.0151 172.35 52.5041 172.615 52.9767 172.889C58.8277 176.243 61.7613 180.634 61.7776 185.042L61.7451 187.889C61.7613 188.115 61.7695 188.348 61.7695 188.573C61.7614 192.973 58.8277 197.372 52.9767 200.726C47.085 204.104 39.3434 205.794 31.5937 205.794C23.844 205.794 16.0861 204.104 10.1537 200.726C4.26193 197.364 1.28754 192.973 1.22235 188.573V185.042C1.27939 180.642 4.26193 176.251 10.1537 172.889C10.6182 172.623 11.0908 172.374 11.5716 172.133H11.5797V12.5957C11.5879 9.68402 13.5518 6.76434 17.4552 4.54441C21.3586 2.31644 26.4598 1.20648 31.5611 1.20648ZM31.5611 0C26.0279 0 20.7963 1.2467 16.844 3.4988C12.6799 5.87154 10.3737 9.09687 10.3492 12.5876V171.393C10.0722 171.546 9.80326 171.69 9.54249 171.843C3.45518 175.318 0.0651921 179.999 0 185.026V188.573C0.0733411 193.624 3.46333 198.305 9.54249 201.772C15.4668 205.142 23.298 207 31.5937 207C39.8894 207 47.7043 205.142 53.5879 201.772C59.6426 198.305 62.9837 193.616 62.9919 188.581C62.9919 188.34 62.9918 188.098 62.9674 187.857L63 185.058C62.9837 179.999 59.6426 175.318 53.5879 171.851C53.2701 171.666 52.9523 171.489 52.6345 171.32V12.5957C52.6508 9.10491 50.3853 5.87154 46.2375 3.4988C42.3097 1.2467 37.0943 0 31.5611 0Z" fill="#002332"/>
<path d="M1.23047 184.865V185.041" stroke="#002332" stroke-width="0.61" stroke-linecap="round" stroke-linejoin="round"/>
<path d="M61.7776 188.573C61.7695 192.973 58.8358 197.372 52.9848 200.726C41.2014 207.483 22.0267 207.483 10.1618 200.726C4.27005 197.364 1.29566 192.973 1.23047 188.573V185.042C1.24677 186.112 1.43419 187.173 1.79275 188.227C2.90916 191.509 5.70428 194.646 10.1618 197.187C22.0267 203.952 41.2014 203.952 52.9848 197.187C57.4097 194.646 60.1723 191.509 61.2561 188.227C61.525 187.399 61.6961 186.562 61.7532 185.726V187.881C61.7695 188.106 61.7776 188.34 61.7776 188.565V188.573Z" stroke="#002332" stroke-width="0.61" stroke-linecap="round" stroke-linejoin="round"/>
<path d="M61.7776 185.042C61.7776 185.275 61.7776 185.5 61.7532 185.734" stroke="#002332" stroke-width="0.61" stroke-linecap="round" stroke-linejoin="round"/>
<path d="M1.23047 185.042C1.28751 180.642 4.27005 176.251 10.1618 172.889C10.6263 172.623 11.0989 172.374 11.5797 172.133" stroke="#002332" stroke-width="0.61" stroke-linecap="round" stroke-linejoin="round"/>
<path d="M61.7776 185.034C61.7613 180.634 58.8358 176.235 52.9848 172.881C52.5122 172.607 52.0232 172.35 51.5261 172.093" stroke="#002332" stroke-width="0.61" stroke-linecap="round" stroke-linejoin="round"/>
<path d="M51.4121 150.352V150.312" stroke="#002332" stroke-width="0.5" stroke-linecap="round" stroke-linejoin="round"/>
<path d="M11.5796 181.656C11.5959 184.568 13.5598 187.487 17.4632 189.707C21.3666 191.935 26.4678 193.045 31.5691 193.045" stroke="#002332" stroke-width="0.5" stroke-linecap="round" stroke-linejoin="round"/>
<path d="M31.561 193.045C36.6623 193.045 41.7554 191.935 45.6262 189.715C49.5052 187.487 51.4283 184.576 51.412 181.664" stroke="#002332" stroke-width="0.5" stroke-linecap="round" stroke-linejoin="round"/>
<path d="M11.5796 12.5957C11.5959 15.5073 13.5598 18.427 17.4632 20.647C21.3666 22.8749 26.4678 23.9849 31.5691 23.9849" stroke="#002332" stroke-width="0.5" stroke-linecap="round" stroke-linejoin="round"/>
<path d="M31.561 23.9849C36.6623 23.9849 41.7554 22.8749 45.6262 20.655C49.5052 18.427 51.4283 15.5154 51.412 12.6038" stroke="#002332" stroke-width="0.5" stroke-linecap="round" stroke-linejoin="round"/>
<path d="M51.4203 20.0517V143.459C51.4203 146.362 49.4972 149.258 45.6345 151.478C41.7556 153.698 36.6625 154.808 31.5612 154.808C31.5041 154.808 31.4553 154.808 31.3982 154.808C29.4506 154.8 27.886 153.199 27.886 151.277V34.9236C27.886 32.953 29.5239 31.3927 31.5204 31.3927C31.5367 31.3927 31.5449 31.3927 31.5612 31.3927C36.6625 31.3927 41.7556 30.2827 45.6345 28.0628C49.4972 25.8429 51.4203 22.9473 51.4203 20.0437V20.0517Z" stroke="#002332" stroke-width="0.5" stroke-linecap="round" stroke-linejoin="round"/>
<path d="M51.4202 20.0518V20.0115" stroke="#002332" stroke-width="0.5" stroke-linecap="round" stroke-linejoin="round"/>
<path d="M11.5796 181.656V177.835" stroke="#002332" stroke-width="0.5" stroke-linecap="round" stroke-linejoin="round"/>
<path d="M11.5796 150.312V12.5957" stroke="#002332" stroke-width="0.5" stroke-linecap="round" stroke-linejoin="round"/>
<path d="M51.4202 12.5957V20.0115V20.0518" stroke="#002332" stroke-width="0.5" stroke-linecap="round" stroke-linejoin="round"/>
<path d="M51.4202 150.312V143.459" stroke="#002332" stroke-width="0.5" stroke-linecap="round" stroke-linejoin="round"/>
<path d="M51.4121 181.656V177.884" stroke="#002332" stroke-width="0.5" stroke-linecap="round" stroke-linejoin="round"/>
<path d="M51.412 177.884V150.352C51.412 153.255 49.4806 156.151 45.6262 158.363C41.7472 160.583 36.6541 161.693 31.561 161.693C26.4678 161.693 21.3584 160.583 17.4632 158.363C13.5598 156.135 11.5959 153.223 11.5796 150.312V177.843M43.5074 179.613C43.0755 179.677 42.6844 179.532 42.4236 179.251C42.3829 179.203 42.3503 179.154 42.3095 179.106C42.3095 179.09 42.2932 179.082 42.2851 179.066C42.2688 179.042 42.2525 179.018 42.2443 178.994C42.2362 178.969 42.228 178.953 42.2117 178.929C42.1139 178.728 42.0569 178.495 42.0569 178.238C42.0569 178.109 42.0732 177.972 42.0976 177.843C42.1302 177.715 42.171 177.586 42.228 177.465C42.3666 177.176 42.5703 176.926 42.8229 176.75C42.8392 176.733 42.8636 176.717 42.8881 176.709C43.0837 176.589 43.2955 176.5 43.5237 176.468C44.3386 176.355 44.9987 176.967 44.9987 177.835C44.9987 178.704 44.3386 179.492 43.5156 179.605L43.5074 179.613Z" stroke="#002332" stroke-width="0.5" stroke-linecap="round" stroke-linejoin="round"/>
<path d="M44.9825 177.843C44.9825 178.712 44.3224 179.5 43.4994 179.613C43.0675 179.677 42.6763 179.532 42.4155 179.251C42.3748 179.203 42.3422 179.154 42.3014 179.106C42.3014 179.09 42.2852 179.082 42.277 179.066C42.2607 179.042 42.2444 179.018 42.2363 178.994C42.2281 178.969 42.22 178.953 42.2037 178.929C42.1059 178.728 42.0488 178.495 42.0488 178.237C42.0488 178.109 42.0651 177.972 42.0896 177.843C42.1222 177.715 42.1629 177.586 42.22 177.465C42.3585 177.176 42.5622 176.926 42.8148 176.749C42.8311 176.733 42.8556 176.717 42.88 176.709C43.0756 176.589 43.2875 176.5 43.5157 176.468C44.3306 176.355 44.9906 176.967 44.9906 177.835L44.9825 177.843Z" stroke="#002332" stroke-width="0.5" stroke-linecap="round" stroke-linejoin="round"/>
<path d="M11.5796 12.5957C11.5959 9.68408 13.5598 6.7644 17.4632 4.54447C21.3666 2.31651 26.4678 1.20654 31.5691 1.20654" stroke="#002332" stroke-width="0.5" stroke-linecap="round" stroke-linejoin="round"/>
<path d="M31.561 1.20654C36.6623 1.20654 41.7554 2.31651 45.6262 4.53643C49.5052 6.7644 51.4283 9.67604 51.412 12.5877" stroke="#002332" stroke-width="0.5" stroke-linecap="round" stroke-linejoin="round"/>
<path d="M61.7532 185.734V185.211" stroke="#002332" stroke-width="0.61" stroke-linecap="round" stroke-linejoin="round"/>
<path d="M48.3725 30.9824C48.3725 30.8296 48.3155 30.7009 48.2259 30.6205C48.1362 30.532 48.0058 30.4918 47.8673 30.5079C47.7288 30.524 47.5984 30.6044 47.5087 30.717C47.4191 30.8296 47.3621 30.9744 47.3621 31.1191V62.5922C47.3621 62.745 47.4191 62.8737 47.5087 62.9542C47.5984 63.0426 47.7288 63.0829 47.8673 63.0668C48.0058 63.0507 48.1362 62.9703 48.2259 62.8576C48.3155 62.745 48.3725 62.6003 48.3725 62.4555V30.9824Z" stroke="#002332" stroke-width="0.5" stroke-linecap="round" stroke-linejoin="round"/>
<path d="M48.3725 71.9143C48.3725 71.7615 48.3155 71.6328 48.2259 71.5524C48.1362 71.4639 48.0058 71.4237 47.8673 71.4398C47.7288 71.4558 47.5984 71.5363 47.5087 71.6489C47.4191 71.7615 47.3621 71.9063 47.3621 72.051V103.524C47.3621 103.677 47.4191 103.806 47.5087 103.886C47.5984 103.975 47.7288 104.015 47.8673 103.999C48.0058 103.983 48.1362 103.902 48.2259 103.79C48.3155 103.677 48.3725 103.532 48.3725 103.387V71.9143Z" stroke="#002332" stroke-width="0.5" stroke-linecap="round" stroke-linejoin="round"/>
<path d="M48.3725 112.838C48.3725 112.685 48.3155 112.557 48.2259 112.476C48.1362 112.388 48.0058 112.347 47.8673 112.364C47.7288 112.38 47.5984 112.46 47.5087 112.573C47.4191 112.685 47.3621 112.83 47.3621 112.975V144.448C47.3621 144.601 47.4191 144.729 47.5087 144.81C47.5984 144.898 47.7288 144.939 47.8673 144.922C48.0058 144.906 48.1362 144.826 48.2259 144.713C48.3155 144.601 48.3725 144.456 48.3725 144.311V112.838Z" stroke="#002332" stroke-width="0.5" stroke-linecap="round" stroke-linejoin="round"/>
<path d="M45.2107 33.0898C45.2107 32.937 45.1536 32.8083 45.064 32.7279C44.9743 32.6394 44.844 32.5992 44.7054 32.6153C44.5669 32.6314 44.4365 32.7118 44.3469 32.8244C44.2572 32.937 44.2002 33.0818 44.2002 33.2266V64.6996C44.2002 64.8525 44.2572 64.9812 44.3469 65.0616C44.4365 65.1501 44.5669 65.1903 44.7054 65.1742C44.844 65.1581 44.9743 65.0777 45.064 64.9651C45.1536 64.8525 45.2107 64.7077 45.2107 64.5629V33.0898Z" stroke="#002332" stroke-width="0.5" stroke-linecap="round" stroke-linejoin="round"/>
<path d="M45.2107 74.0217C45.2107 73.8689 45.1536 73.7402 45.064 73.6598C44.9743 73.5713 44.844 73.5311 44.7054 73.5472C44.5669 73.5633 44.4365 73.6437 44.3469 73.7563C44.2572 73.8689 44.2002 74.0137 44.2002 74.1585V105.632C44.2002 105.784 44.2572 105.913 44.3469 105.993C44.4365 106.082 44.5669 106.122 44.7054 106.106C44.844 106.09 44.9743 106.01 45.064 105.897C45.1536 105.784 45.2107 105.64 45.2107 105.495V74.0217Z" stroke="#002332" stroke-width="0.5" stroke-linecap="round" stroke-linejoin="round"/>
<path d="M45.2107 114.946C45.2107 114.793 45.1536 114.664 45.064 114.584C44.9743 114.495 44.844 114.455 44.7054 114.471C44.5669 114.487 44.4365 114.568 44.3469 114.68C44.2572 114.793 44.2002 114.938 44.2002 115.082V146.555C44.2002 146.708 44.2572 146.837 44.3469 146.917C44.4365 147.006 44.5669 147.046 44.7054 147.03C44.844 147.014 44.9743 146.933 45.064 146.821C45.1536 146.708 45.2107 146.563 45.2107 146.419V114.946Z" stroke="#002332" stroke-width="0.5" stroke-linecap="round" stroke-linejoin="round"/>
<path d="M50.9231 28.0627C50.9231 27.9099 50.866 27.7812 50.7764 27.7008C50.6868 27.6123 50.5564 27.5721 50.4178 27.5882C50.2793 27.6043 50.1489 27.6847 50.0593 27.7973C49.9696 27.9099 49.9126 28.0547 49.9126 28.1995V59.6725C49.9126 59.8254 49.9696 59.9541 50.0593 60.0345C50.1489 60.123 50.2793 60.1632 50.4178 60.1471C50.5564 60.131 50.6868 60.0506 50.7764 59.938C50.866 59.8254 50.9231 59.6806 50.9231 59.5358V28.0627Z" stroke="#002332" stroke-width="0.5" stroke-linecap="round" stroke-linejoin="round"/>
<path d="M50.9231 68.9946C50.9231 68.8418 50.866 68.7131 50.7764 68.6327C50.6868 68.5442 50.5564 68.504 50.4178 68.5201C50.2793 68.5362 50.1489 68.6166 50.0593 68.7292C49.9696 68.8418 49.9126 68.9866 49.9126 69.1314V100.604C49.9126 100.757 49.9696 100.886 50.0593 100.966C50.1489 101.055 50.2793 101.095 50.4178 101.079C50.5564 101.063 50.6868 100.982 50.7764 100.87C50.866 100.757 50.9231 100.612 50.9231 100.468V68.9946Z" stroke="#002332" stroke-width="0.5" stroke-linecap="round" stroke-linejoin="round"/>
<path d="M50.9231 109.927C50.9231 109.774 50.866 109.645 50.7764 109.565C50.6868 109.476 50.5564 109.436 50.4178 109.452C50.2793 109.468 50.1489 109.548 50.0593 109.661C49.9696 109.774 49.9126 109.918 49.9126 110.063V141.536C49.9126 141.689 49.9696 141.818 50.0593 141.898C50.1489 141.987 50.2793 142.027 50.4178 142.011C50.5564 141.995 50.6868 141.914 50.7764 141.802C50.866 141.689 50.9231 141.544 50.9231 141.4V109.927Z" stroke="#002332" stroke-width="0.5" stroke-linecap="round" stroke-linejoin="round"/>
<path d="M42.0488 34.2722C42.0488 34.1194 41.9918 33.9907 41.9021 33.9103C41.8125 33.8218 41.6821 33.7816 41.5436 33.7977C41.405 33.8137 41.2747 33.8942 41.185 34.0068C41.0954 34.1194 41.0383 34.2642 41.0383 34.4089V65.882C41.0383 66.0348 41.0954 66.1635 41.185 66.244C41.2747 66.3324 41.405 66.3727 41.5436 66.3566C41.6821 66.3405 41.8125 66.26 41.9021 66.1474C41.9918 66.0348 42.0488 65.8901 42.0488 65.7453V34.2722Z" stroke="#002332" stroke-width="0.5" stroke-linecap="round" stroke-linejoin="round"/>
<path d="M42.0488 75.2041C42.0488 75.0513 41.9918 74.9226 41.9021 74.8421C41.8125 74.7537 41.6821 74.7135 41.5436 74.7295C41.405 74.7456 41.2747 74.8261 41.185 74.9387C41.0954 75.0513 41.0383 75.196 41.0383 75.3408V106.814C41.0383 106.967 41.0954 107.095 41.185 107.176C41.2747 107.264 41.405 107.305 41.5436 107.288C41.6821 107.272 41.8125 107.192 41.9021 107.079C41.9918 106.967 42.0488 106.822 42.0488 106.677V75.2041Z" stroke="#002332" stroke-width="0.5" stroke-linecap="round" stroke-linejoin="round"/>
<path d="M42.0488 116.128C42.0488 115.975 41.9918 115.846 41.9021 115.766C41.8125 115.678 41.6821 115.637 41.5436 115.653C41.405 115.669 41.2747 115.75 41.185 115.863C41.0954 115.975 41.0383 116.12 41.0383 116.265V147.738C41.0383 147.891 41.0954 148.019 41.185 148.1C41.2747 148.188 41.405 148.228 41.5436 148.212C41.6821 148.196 41.8125 148.116 41.9021 148.003C41.9918 147.891 42.0488 147.746 42.0488 147.601V116.128Z" stroke="#002332" stroke-width="0.5" stroke-linecap="round" stroke-linejoin="round"/>
<path d="M38.8869 35.157C38.8869 35.0042 38.8299 34.8755 38.7403 34.795C38.6506 34.7066 38.5202 34.6663 38.3817 34.6824C38.2432 34.6985 38.1128 34.7789 38.0231 34.8916C37.9335 35.0042 37.8765 35.1489 37.8765 35.2937V66.7668C37.8765 66.9196 37.9335 67.0483 38.0231 67.1287C38.1128 67.2172 38.2432 67.2574 38.3817 67.2413C38.5202 67.2252 38.6506 67.1448 38.7403 67.0322C38.8299 66.9196 38.8869 66.7748 38.8869 66.63V35.157Z" stroke="#002332" stroke-width="0.5" stroke-linecap="round" stroke-linejoin="round"/>
<path d="M38.8869 76.0889C38.8869 75.936 38.8299 75.8073 38.7403 75.7269C38.6506 75.6384 38.5202 75.5982 38.3817 75.6143C38.2432 75.6304 38.1128 75.7108 38.0231 75.8234C37.9335 75.936 37.8765 76.0808 37.8765 76.2256V107.699C37.8765 107.851 37.9335 107.98 38.0231 108.061C38.1128 108.149 38.2432 108.189 38.3817 108.173C38.5202 108.157 38.6506 108.077 38.7403 107.964C38.8299 107.851 38.8869 107.707 38.8869 107.562V76.0889Z" stroke="#002332" stroke-width="0.5" stroke-linecap="round" stroke-linejoin="round"/>
<path d="M38.8869 117.021C38.8869 116.868 38.8299 116.739 38.7403 116.659C38.6506 116.57 38.5202 116.53 38.3817 116.546C38.2432 116.562 38.1128 116.643 38.0231 116.755C37.9335 116.868 37.8765 117.013 37.8765 117.157V148.631C37.8765 148.783 37.9335 148.912 38.0231 148.993C38.1128 149.081 38.2432 149.121 38.3817 149.105C38.5202 149.089 38.6506 149.009 38.7403 148.896C38.8299 148.783 38.8869 148.639 38.8869 148.494V117.021Z" stroke="#002332" stroke-width="0.5" stroke-linecap="round" stroke-linejoin="round"/>
<path d="M35.717 35.6555C35.717 35.5027 35.66 35.374 35.5703 35.2936C35.4807 35.2051 35.3503 35.1649 35.2118 35.181C35.0732 35.197 34.9429 35.2775 34.8532 35.3901C34.7636 35.5027 34.7065 35.6475 34.7065 35.7922V67.2653C34.7065 67.4181 34.7636 67.5468 34.8532 67.6273C34.9429 67.7157 35.0732 67.756 35.2118 67.7399C35.3503 67.7238 35.4807 67.6433 35.5703 67.5307C35.66 67.4181 35.717 67.2734 35.717 67.1286V35.6555Z" stroke="#002332" stroke-width="0.5" stroke-linecap="round" stroke-linejoin="round"/>
<path d="M35.717 76.5793C35.717 76.4265 35.66 76.2978 35.5703 76.2174C35.4807 76.1289 35.3503 76.0887 35.2118 76.1048C35.0732 76.1209 34.9429 76.2013 34.8532 76.3139C34.7636 76.4265 34.7065 76.5713 34.7065 76.7161V108.189C34.7065 108.342 34.7636 108.471 34.8532 108.551C34.9429 108.64 35.0732 108.68 35.2118 108.664C35.3503 108.648 35.4807 108.567 35.5703 108.455C35.66 108.342 35.717 108.197 35.717 108.052V76.5793Z" stroke="#002332" stroke-width="0.5" stroke-linecap="round" stroke-linejoin="round"/>
<path d="M35.717 117.511C35.717 117.358 35.66 117.23 35.5703 117.149C35.4807 117.061 35.3503 117.021 35.2118 117.037C35.0732 117.053 34.9429 117.133 34.8532 117.246C34.7636 117.358 34.7065 117.503 34.7065 117.648V149.121C34.7065 149.274 34.7636 149.403 34.8532 149.483C34.9429 149.571 35.0732 149.612 35.2118 149.596C35.3503 149.58 35.4807 149.499 35.5703 149.386C35.66 149.274 35.717 149.129 35.717 148.984V117.511Z" stroke="#002332" stroke-width="0.5" stroke-linecap="round" stroke-linejoin="round"/>
<path d="M32.5552 35.8406C32.5552 35.6877 32.4981 35.5591 32.4085 35.4786C32.3188 35.3901 32.1885 35.3499 32.0499 35.366C31.9114 35.3821 31.781 35.4625 31.6914 35.5751C31.6017 35.6877 31.5447 35.8325 31.5447 35.9773V67.4504C31.5447 67.6032 31.6017 67.7319 31.6914 67.8123C31.781 67.9008 31.9114 67.941 32.0499 67.9249C32.1885 67.9088 32.3188 67.8284 32.4085 67.7158C32.4981 67.6032 32.5552 67.4584 32.5552 67.3136V35.8406Z" stroke="#002332" stroke-width="0.5" stroke-linecap="round" stroke-linejoin="round"/>
<path d="M32.5552 76.7725C32.5552 76.6196 32.4981 76.4909 32.4085 76.4105C32.3188 76.322 32.1885 76.2818 32.0499 76.2979C31.9114 76.314 31.781 76.3944 31.6914 76.507C31.6017 76.6196 31.5447 76.7644 31.5447 76.9092V108.382C31.5447 108.535 31.6017 108.664 31.6914 108.744C31.781 108.833 31.9114 108.873 32.0499 108.857C32.1885 108.841 32.3188 108.76 32.4085 108.648C32.4981 108.535 32.5552 108.39 32.5552 108.246V76.7725Z" stroke="#002332" stroke-width="0.5" stroke-linecap="round" stroke-linejoin="round"/>
<path d="M32.5552 117.704C32.5552 117.552 32.4981 117.423 32.4085 117.342C32.3188 117.254 32.1885 117.214 32.0499 117.23C31.9114 117.246 31.781 117.326 31.6914 117.439C31.6017 117.552 31.5447 117.696 31.5447 117.841V149.314C31.5447 149.467 31.6017 149.596 31.6914 149.676C31.781 149.765 31.9114 149.805 32.0499 149.789C32.1885 149.773 32.3188 149.692 32.4085 149.58C32.4981 149.467 32.5552 149.322 32.5552 149.177V117.704Z" stroke="#002332" stroke-width="0.5" stroke-linecap="round" stroke-linejoin="round"/>
</g>
<defs>
<clipPath id="clip0_1114_1894">
<rect width="63" height="207" fill="white"/>
</clipPath>
</defs>
</svg>
