<svg width="70" height="120" fill="none" xmlns="http://www.w3.org/2000/svg"><mask id="a" fill="#fff"><path d="M15.53 76.976a.488.488 0 0 1-.438-.273c-.069-.137-.069-.264-.069-.322v-.215c0-.263.215-.488.479-.488h.01c.263 0 .477.205.487.469l.02.322a.493.493 0 0 1-.371.497.487.487 0 0 1-.117.02v-.01Z"/></mask><path d="M15.53 76.976a.488.488 0 0 1-.438-.273c-.069-.137-.069-.264-.069-.322v-.215c0-.263.215-.488.479-.488h.01c.263 0 .477.205.487.469l.02.322a.493.493 0 0 1-.371.497.487.487 0 0 1-.117.02v-.01Z" fill="#002332"/><path d="M15.53 76.976h1v-1h-1v1Zm-.438-.273.904-.426-.005-.011-.005-.01-.894.447Zm.907-.556-1 .036.001.012v.012l.999-.06Zm.02.322.999-.042v-.01l-.001-.009-.998.06Zm-.371.497.242.97.01-.002-.252-.968Zm-.117.02h-1v1h1v-1Zm0-1.01c.184 0 .371.1.465.3l-1.81.852c.251.533.79.848 1.345.848v-2Zm.455.28c.042.084.037.158.037.125h-2c0 .084-.005.411.174.769l1.79-.895Zm.037.125v-.215h-2v.215h2Zm0-.215a.513.513 0 0 1-.521.512v-2c-.842 0-1.479.699-1.479 1.488h2Zm-.521.512h.01v-2h-.01v2Zm.01 0a.515.515 0 0 1-.512-.495l1.998-.074a1.485 1.485 0 0 0-1.487-1.43v2ZM15 76.207l.02.322 1.996-.121-.02-.322-1.996.121Zm.018.303a.507.507 0 0 1 .376-.512l.505 1.936a1.493 1.493 0 0 0 1.118-1.507l-1.999.083Zm.386-.514L15.39 76l.015-.004a.694.694 0 0 1 .126-.01v2c.183 0 .343-.046.36-.05l-.486-1.94Zm1.126.99v-.01h-2v.01h2Z" fill="#008BC6" mask="url(#a)"/><path d="M15.511 75.68c.243 0 .457.193.476.456l-.951.03v-.01c0-.257.203-.469.461-.475h.014Zm-.446.924.466-.116-.466.116Zm0 .002.942-.145v.003a.486.486 0 0 1-.356.486.48.48 0 0 1-.549-.251l-.002-.005a.551.551 0 0 1-.035-.088Z" fill="#008BC6" stroke="#008BC6"/><mask id="b" fill="#fff"><path d="M53.813 76.976s-.078 0-.117-.02a.494.494 0 0 1-.37-.497l.02-.322a.485.485 0 0 1 .487-.469h.01c.263 0 .478.225.478.488v.215c0 .058 0 .185-.069.322a.482.482 0 0 1-.439.273v.01Z"/></mask><path d="M53.813 76.976s-.078 0-.117-.02a.494.494 0 0 1-.37-.497l.02-.322a.485.485 0 0 1 .487-.469h.01c.263 0 .478.225.478.488v.215c0 .058 0 .185-.069.322a.482.482 0 0 1-.439.273v.01Z" fill="#002332"/><path d="M53.813 76.976v1h1v-1h-1Zm-.117-.02.448-.894-.094-.047-.101-.026-.253.967Zm-.37-.497-.998-.06-.001.009v.01l.999.04Zm.02-.322.997.06.001-.011v-.012l-.999-.037Zm.467.829v-1h-1v1h1Zm0 .01v-1h.008a.137.137 0 0 1 .018 0 .515.515 0 0 1 .102.014.86.86 0 0 1 .203.072l-.895 1.789c.198.098.389.114.421.117.037.004.07.006.092.007h.051v-1Zm.136-.987c.22.057.386.264.376.511l-1.998-.083a1.493 1.493 0 0 0 1.117 1.507l.505-1.935Zm.375.53.02-.322-1.997-.12-.02.321 1.997.121Zm.02-.345a.515.515 0 0 1-.511.494v-2c-.796 0-1.457.626-1.487 1.432l1.998.074Zm-.511.494h.01v-2h-.01v2Zm.01 0a.513.513 0 0 1-.522-.512h2c0-.79-.637-1.488-1.478-1.488v2Zm-.522-.512v.215h2v-.215h-2Zm0 .215c0 .033-.005-.041.037-.125l1.789.894c.179-.357.174-.685.174-.77h-2Zm.037-.125a.513.513 0 0 1 .455-.28v2c.559 0 1.074-.306 1.334-.826l-1.789-.894Zm-.545.72v.01h2v-.01h-2Z" fill="#008BC6" mask="url(#b)"/><path d="M54.299 76.156v.01l-.952-.03a.477.477 0 0 1 .476-.455h.014a.475.475 0 0 1 .462.475Z" fill="#008BC6" stroke="#008BC6"/><path d="m66.672 33.815-.46-.197-.001.003-.004.01-.016.037-.062.145-.228.532c-.192.45-.46 1.073-.758 1.766-.594 1.382-1.31 3.04-1.802 4.154-.227.456-.405.87-.578 1.285a21.23 21.23 0 0 0-.39.86l-.127.292-.002.002-.423.924c-.069.138-.14.297-.202.434-.038.085-.072.161-.1.22l-.006.013-.002.003-.004.009-.014.031a21.108 21.108 0 0 0-.089.209l-.001.004c-.005.01-.015.034-.025.062l-.02.043-.027.026-.037.107c-.32.902-5.206 13.99-5.42 14.543l-.003.008c-1.233 3.37-1.777 6.659-1.806 10.95v.227a4185.62 4185.62 0 0 1-.066 5.102l-.009.626-.002.174-.001.046V76.478c-.105 4.775-1.862 9.055-5.081 12.425l-.139.145v.2c0 .325-.035.651-.106.99l-.034.163.07.151a6.254 6.254 0 0 1 .182 4.888l-.07.18.07.179c.043.113.079.219.115.338l.004.011c.085.256.24.991.258 1.367v.016l.002.014c.088.832-.054 1.855-.39 2.735l-.069.181.07.18c.55 1.405.56 3.003.009 4.46l-.068.177.068.178a6.215 6.215 0 0 1-.108 4.694l-.003.008-.004.009a6.677 6.677 0 0 1-.954 1.634l-.009.011c-.268.367-.606.734-1.094 1.203l-.007.007a3.355 3.355 0 0 1-.242.207l-.021.017-.02.02-.01.011-.002.001-.047.039c-1.364 1.166-3.502 2.436-4.944 2.93l-.005.002-.619.197-.18.045-.117.029-.09.079c-.721.631-1.901 1.269-2.917 1.563l-.005.001-.05.014c-.297.079-.663.177-.908.218l-.055.009-.052.021c-.505.205-1.104.315-1.77.334h-.031l-.005.017a5.297 5.297 0 0 1-1.726-.335l-.05-.019-.052-.008a9.87 9.87 0 0 1-.855-.204l-.106-.029c-1.026-.293-2.205-.932-2.926-1.562l-.086-.075-.11-.031-.165-.046-.615-.198-.005-.002c-1.461-.504-3.599-1.773-4.963-2.938-.056-.05-.082-.071-.098-.084-.014-.012-.02-.016-.031-.028l-.035-.035-.033-.022-.009-.007a1.82 1.82 0 0 1-.148-.131l-.007-.007c-.477-.458-.816-.827-1.095-1.205l-.005-.006-.004-.006a6.887 6.887 0 0 1-.956-1.639l-.003-.007a6.236 6.236 0 0 1-.099-4.686l.067-.176-.066-.177c-.544-1.46-.541-3.059.007-4.463l.071-.18-.07-.182c-.334-.867-.478-1.9-.388-2.774v-.012l.002-.013c.007-.152.047-.412.103-.687.055-.273.116-.518.154-.634.04-.117.077-.23.124-.36l.062-.176-.066-.173a6.254 6.254 0 0 1 .181-4.887l.068-.145-.03-.157a6.537 6.537 0 0 1-.108-1.025l-.005-.193-.134-.14c-3.219-3.36-4.976-7.65-5.08-12.416v-.011l-.002-.046-.002-.174-.009-.626-.027-1.93c-.02-1.429-.039-2.909-.039-3.143v-.267c-.03-4.29-.573-7.579-1.816-10.95l-1.08-2.901c-1.516-4.063-4.102-11-4.332-11.65l-.013-.035-.017-.032-.078-.147-.002-.003a1.572 1.572 0 0 1-.047-.112 12.314 12.314 0 0 1-.038-.094l-.012-.03-.003-.008v-.002H7.8l-.003-.008-.003-.007c-.09-.21-.19-.43-.301-.653l-.422-.92a19.72 19.72 0 0 0-.51-1.14c-.194-.453-.38-.877-.589-1.293a557.345 557.345 0 0 1-1.828-4.208l-.767-1.784-.23-.537-.063-.146-.016-.038-.004-.01-.001-.002-.46.196.46-.196-.006-.014-.007-.013a19.038 19.038 0 0 1-.883-2.021c-2.624-7.603.282-16.742 7.11-22.214l.007-.006c6.145-5.12 15.35-8.09 25.28-8.09h.166c9.92 0 19.135 2.97 25.29 8.1l.007.006c6.817 5.461 9.723 14.6 7.11 22.182a19.83 19.83 0 0 1-.912 2.07l-.007.014-.007.015.46.197Z" fill="#002332" stroke="#008BC6"/><mask id="c" fill="#fff"><path d="M34.75 1.473c8.81 0 18.361 2.4 25.132 8.049 6.37 5.102 9.795 13.96 7.044 21.941a20.421 20.421 0 0 1-.898 2.04s-1.902 4.458-2.897 6.702c-.215.43-.4.868-.586 1.297-.185.39-.351.771-.507 1.142-.137.312-.283.605-.42.917-.136.283-.263.576-.39.849-.02.029-.03.049-.03.078-.028.058-.058.127-.097.185-.02.02-.02.03-.02.049-.321.917-5.414 14.546-5.414 14.546-1.346 3.669-1.795 7.044-1.824 11.034v.264c0 .478-.078 5.922-.078 5.922-.108 4.917-2.01 9.22-5.21 12.468v.166c0 .498-.059.946-.166 1.405l.078.03a6.03 6.03 0 0 1 .127 5.043s0 .02-.02.03h.02c.098.233.156.4.215.585.078.234.234.946.244 1.297.097.917-.078 2-.469 2.898l-.02.049c.684 1.512.664 3.278.02 4.809a6.032 6.032 0 0 1 0 4.781 6.662 6.662 0 0 1-.927 1.59c-.321.429-.692.82-1.082 1.19-.059.059-.157.137-.235.205-.029.029-.078.059-.107.098-1.288 1.102-3.405 2.38-4.878 2.897-.205.059-.42.137-.615.205-.107.029-.234.059-.341.098-.683.653-1.932 1.327-2.956 1.629-.283.078-.693.185-.976.234-.02 0-.049.02-.058.02-.527.214-1.132.322-1.747.341-.614-.019-1.22-.127-1.746-.341-.02 0-.049-.02-.058-.02a11.903 11.903 0 0 1-.976-.234c-1.024-.293-2.273-.976-2.956-1.629-.107-.03-.234-.059-.342-.098-.205-.058-.42-.136-.614-.205-1.473-.507-3.59-1.795-4.878-2.897-.03-.03-.078-.059-.108-.098a2.184 2.184 0 0 1-.234-.205 9.582 9.582 0 0 1-1.083-1.19 6.708 6.708 0 0 1-.927-1.59 6.032 6.032 0 0 1 0-4.781c-.653-1.531-.663-3.297.02-4.809l-.02-.049a6.135 6.135 0 0 1-.468-2.898c.02-.351.166-1.063.244-1.297.059-.186.127-.352.215-.586h.02l-.02-.029a6.03 6.03 0 0 1 .127-5.044l.078-.03a6.149 6.149 0 0 1-.166-1.404v-.166c-3.2-3.249-5.103-7.551-5.21-12.468 0 0-.078-5.444-.078-5.922v-.264c-.03-3.99-.478-7.365-1.824-11.034 0 0-5.093-13.629-5.415-14.546 0-.02 0-.03-.02-.049-.029-.058-.058-.127-.097-.185 0-.03-.02-.049-.03-.078-.126-.283-.243-.576-.39-.849-.136-.312-.283-.605-.42-.917-.155-.37-.321-.761-.507-1.142-.185-.429-.37-.868-.585-1.297-.995-2.244-2.898-6.703-2.898-6.703a21.445 21.445 0 0 1-.897-2.039c-2.751-7.98.663-16.839 7.044-21.941 6.77-5.649 16.322-8.049 25.132-8.049h.175Zm0-1.463h-.175C24.398.01 14.896 3.063 8.506 8.39c-7.19 5.756-10.283 15.444-7.483 23.542.264.712.566 1.414.956 2.175.196.45 1.952 4.566 2.888 6.674 0 .019.02.038.03.068.195.39.36.79.546 1.21 0 .019.02.048.03.068.155.331.311.683.477 1.073l.225.498.204.448.03.059c.097.195.185.39.273.585l.088.195.058.147.049.097c.41 1.142 5.21 13.98 5.415 14.537 1.18 3.22 1.697 6.37 1.736 10.527v.224c0 .517.078 5.756.078 5.98.108 4.996 1.912 9.493 5.23 13.054.01.234.039.468.078.703a7.52 7.52 0 0 0-.215 5.375c-.02.049-.03.088-.049.137-.107.331-.292 1.141-.322 1.649-.097.975.04 2.058.37 3.034a7.479 7.479 0 0 0-.009 4.819 7.49 7.49 0 0 0 .225 5.366 7.522 7.522 0 0 0 1.121 1.912c.313.42.693.839 1.22 1.347.068.068.185.166.293.263.029.02.049.049.078.068l.029.03c1.463 1.258 3.766 2.614 5.346 3.161.02 0 .03.009.05.019l.272.088c.117.039.235.078.342.107l.058.02c.859.712 2.147 1.385 3.269 1.707.243.068.663.176 1.014.244a6.46 6.46 0 0 0 2.137.4h.078a6.46 6.46 0 0 0 2.137-.4c.35-.068.77-.176 1.004-.244 1.132-.322 2.42-1.005 3.278-1.707h.03c.136-.049.253-.088.37-.127.098-.029.186-.059.274-.088.02 0 .029-.01.048-.019 1.58-.547 3.883-1.913 5.347-3.161l.029-.03a.5.5 0 0 0 .078-.068c.107-.088.234-.195.322-.283.507-.488.888-.907 1.22-1.346a8.216 8.216 0 0 0 1.112-1.922c.722-1.668.8-3.59.205-5.337a7.544 7.544 0 0 0-.01-4.819c.331-.986.468-2.059.37-3.034-.029-.517-.204-1.327-.321-1.65-.02-.048-.03-.087-.05-.136a7.52 7.52 0 0 0-.214-5.375c.04-.235.059-.469.078-.703 3.317-3.56 5.122-8.058 5.23-13.044 0-.234.078-5.473.078-5.96v-.264c.029-4.146.556-7.298 1.736-10.527.205-.546 4.995-13.376 5.405-14.527l.049-.097s.048-.098.068-.147l.088-.195c.088-.195.175-.4.273-.585 0-.02.02-.04.03-.059l.204-.448.215-.459c.175-.43.331-.78.497-1.112 0-.02.02-.04.03-.059.185-.429.36-.829.556-1.22.01-.019.02-.038.029-.067.937-2.118 2.693-6.225 2.888-6.674.38-.77.693-1.473.936-2.146 2.8-8.127-.282-17.815-7.502-23.59C54.468 3.063 44.965 0 34.789 0l-.039.01Z"/></mask><path d="M34.75 1.473c8.81 0 18.361 2.4 25.132 8.049 6.37 5.102 9.795 13.96 7.044 21.941a20.421 20.421 0 0 1-.898 2.04s-1.902 4.458-2.897 6.702c-.215.43-.4.868-.586 1.297-.185.39-.351.771-.507 1.142-.137.312-.283.605-.42.917-.136.283-.263.576-.39.849-.02.029-.03.049-.03.078-.028.058-.058.127-.097.185-.02.02-.02.03-.02.049-.321.917-5.414 14.546-5.414 14.546-1.346 3.669-1.795 7.044-1.824 11.034v.264c0 .478-.078 5.922-.078 5.922-.108 4.917-2.01 9.22-5.21 12.468v.166c0 .498-.059.946-.166 1.405l.078.03a6.03 6.03 0 0 1 .127 5.043s0 .02-.02.03h.02c.098.233.156.4.215.585.078.234.234.946.244 1.297.097.917-.078 2-.469 2.898l-.02.049c.684 1.512.664 3.278.02 4.809a6.032 6.032 0 0 1 0 4.781 6.662 6.662 0 0 1-.927 1.59c-.321.429-.692.82-1.082 1.19-.059.059-.157.137-.235.205-.029.029-.078.059-.107.098-1.288 1.102-3.405 2.38-4.878 2.897-.205.059-.42.137-.615.205-.107.029-.234.059-.341.098-.683.653-1.932 1.327-2.956 1.629-.283.078-.693.185-.976.234-.02 0-.049.02-.058.02-.527.214-1.132.322-1.747.341-.614-.019-1.22-.127-1.746-.341-.02 0-.049-.02-.058-.02a11.903 11.903 0 0 1-.976-.234c-1.024-.293-2.273-.976-2.956-1.629-.107-.03-.234-.059-.342-.098-.205-.058-.42-.136-.614-.205-1.473-.507-3.59-1.795-4.878-2.897-.03-.03-.078-.059-.108-.098a2.184 2.184 0 0 1-.234-.205 9.582 9.582 0 0 1-1.083-1.19 6.708 6.708 0 0 1-.927-1.59 6.032 6.032 0 0 1 0-4.781c-.653-1.531-.663-3.297.02-4.809l-.02-.049a6.135 6.135 0 0 1-.468-2.898c.02-.351.166-1.063.244-1.297.059-.186.127-.352.215-.586h.02l-.02-.029a6.03 6.03 0 0 1 .127-5.044l.078-.03a6.149 6.149 0 0 1-.166-1.404v-.166c-3.2-3.249-5.103-7.551-5.21-12.468 0 0-.078-5.444-.078-5.922v-.264c-.03-3.99-.478-7.365-1.824-11.034 0 0-5.093-13.629-5.415-14.546 0-.02 0-.03-.02-.049-.029-.058-.058-.127-.097-.185 0-.03-.02-.049-.03-.078-.126-.283-.243-.576-.39-.849-.136-.312-.283-.605-.42-.917-.155-.37-.321-.761-.507-1.142-.185-.429-.37-.868-.585-1.297-.995-2.244-2.898-6.703-2.898-6.703a21.445 21.445 0 0 1-.897-2.039c-2.751-7.98.663-16.839 7.044-21.941 6.77-5.649 16.322-8.049 25.132-8.049h.175Zm0-1.463h-.175C24.398.01 14.896 3.063 8.506 8.39c-7.19 5.756-10.283 15.444-7.483 23.542.264.712.566 1.414.956 2.175.196.45 1.952 4.566 2.888 6.674 0 .019.02.038.03.068.195.39.36.79.546 1.21 0 .019.02.048.03.068.155.331.311.683.477 1.073l.225.498.204.448.03.059c.097.195.185.39.273.585l.088.195.058.147.049.097c.41 1.142 5.21 13.98 5.415 14.537 1.18 3.22 1.697 6.37 1.736 10.527v.224c0 .517.078 5.756.078 5.98.108 4.996 1.912 9.493 5.23 13.054.01.234.039.468.078.703a7.52 7.52 0 0 0-.215 5.375c-.02.049-.03.088-.049.137-.107.331-.292 1.141-.322 1.649-.097.975.04 2.058.37 3.034a7.479 7.479 0 0 0-.009 4.819 7.49 7.49 0 0 0 .225 5.366 7.522 7.522 0 0 0 1.121 1.912c.313.42.693.839 1.22 1.347.068.068.185.166.293.263.029.02.049.049.078.068l.029.03c1.463 1.258 3.766 2.614 5.346 3.161.02 0 .03.009.05.019l.272.088c.117.039.235.078.342.107l.058.02c.859.712 2.147 1.385 3.269 1.707.243.068.663.176 1.014.244a6.46 6.46 0 0 0 2.137.4h.078a6.46 6.46 0 0 0 2.137-.4c.35-.068.77-.176 1.004-.244 1.132-.322 2.42-1.005 3.278-1.707h.03c.136-.049.253-.088.37-.127.098-.029.186-.059.274-.088.02 0 .029-.01.048-.019 1.58-.547 3.883-1.913 5.347-3.161l.029-.03a.5.5 0 0 0 .078-.068c.107-.088.234-.195.322-.283.507-.488.888-.907 1.22-1.346a8.216 8.216 0 0 0 1.112-1.922c.722-1.668.8-3.59.205-5.337a7.544 7.544 0 0 0-.01-4.819c.331-.986.468-2.059.37-3.034-.029-.517-.204-1.327-.321-1.65-.02-.048-.03-.087-.05-.136a7.52 7.52 0 0 0-.214-5.375c.04-.235.059-.469.078-.703 3.317-3.56 5.122-8.058 5.23-13.044 0-.234.078-5.473.078-5.96v-.264c.029-4.146.556-7.298 1.736-10.527.205-.546 4.995-13.376 5.405-14.527l.049-.097s.048-.098.068-.147l.088-.195c.088-.195.175-.4.273-.585 0-.02.02-.04.03-.059l.204-.448.215-.459c.175-.43.331-.78.497-1.112 0-.02.02-.04.03-.059.185-.429.36-.829.556-1.22.01-.019.02-.038.029-.067.937-2.118 2.693-6.225 2.888-6.674.38-.77.693-1.473.936-2.146 2.8-8.127-.282-17.815-7.502-23.59C54.468 3.063 44.965 0 34.789 0l-.039.01Z" fill="#008BC6" stroke="#008BC6" stroke-width="2" mask="url(#c)"/><path d="M15.511 76.38s0 .079.02.108l-.02-.322v.214ZM53.823 76.38v-.214l-.02.322s.02-.078.02-.108Z" stroke="#008BC6" stroke-width=".5" stroke-linecap="round" stroke-linejoin="round"/><path d="M59.892 9.522c-6.79-5.659-16.39-8.059-25.22-8.049-8.839-.02-18.43 2.38-25.22 8.049-6.37 5.102-9.795 13.96-7.043 21.941.263.712.575 1.395.897 2.04 0 0 1.903 4.458 2.898 6.702.214.429.4.868.585 1.297.186.39.351.771.507 1.142.137.312.283.605.42.917.137.283.263.575.39.849.02.029.03.048.03.078.029.058.058.127.097.185.02.02.02.03.02.049.322.917 5.414 14.546 5.414 14.546 1.347 3.668 1.795 7.044 1.825 11.034v.264c0 .478.078 5.922.078 5.922.107 4.917 2.01 9.22 5.21 12.468v.166c0 .497.058.946.165 1.405l-.078.029a6.03 6.03 0 0 0-.127 5.044s0 .02.02.03h-.02c-.097.233-.156.4-.214.585-.078.234-.234.946-.244 1.297-.098.917.078 2 .468 2.898l.02.048c-.683 1.513-.664 3.278-.02 4.81a6.031 6.031 0 0 0 0 4.781c.234.575.547 1.102.927 1.59.322.429.693.819 1.083 1.19.058.059.156.137.234.205.03.029.078.059.107.098 1.288 1.102 3.405 2.38 4.878 2.897.205.059.42.137.615.205.107.029.234.059.341.098.683.653 1.932 1.326 2.957 1.629.283.078.692.185.975.234.02 0 .049.019.059.019.527.215 1.131.322 1.746.342.615-.02 1.22-.127 1.746-.342.02 0 .05-.019.059-.019.283-.049.693-.156.976-.234 1.024-.293 2.273-.976 2.956-1.629.107-.03.234-.059.341-.098.205-.059.42-.137.615-.205 1.473-.507 3.59-1.795 4.878-2.897.03-.03.078-.059.107-.098.078-.059.166-.137.234-.205.39-.371.761-.761 1.083-1.19.39-.498.693-1.025.927-1.59a6.032 6.032 0 0 0 0-4.781c.654-1.532.663-3.297-.02-4.81l.02-.048c.39-.898.556-1.98.468-2.898a7.323 7.323 0 0 0-.244-1.297c-.058-.186-.126-.352-.214-.586h-.02l.02-.03a6.03 6.03 0 0 0-.127-5.043l-.078-.03c.107-.468.166-.916.166-1.404v-.166c3.2-3.249 5.102-7.551 5.21-12.468 0 0 .078-5.444.078-5.922v-.264c.029-3.99.478-7.366 1.824-11.034 0 0 5.093-13.63 5.415-14.546 0-.02 0-.03.02-.049.028-.059.058-.127.097-.185 0-.03.02-.05.029-.078.127-.283.244-.576.39-.85.137-.311.283-.604.42-.916.156-.371.322-.761.507-1.142.185-.429.37-.868.585-1.297a723.979 723.979 0 0 0 2.898-6.703c.322-.653.634-1.327.898-2.039 2.75-7.98-.664-16.839-7.044-21.941Z" stroke="#008BC6" stroke-width=".5" stroke-linecap="round" stroke-linejoin="round"/><path d="M53.833 76.273c-.01 6.625-3.746 12.751-9.444 15.912M24.897 92.136c-5.747-3.336-9.298-9.073-9.356-15.96M34.682 56.81c-10.986.078-22.186-3.59-26.517-12.323 0 0-3.318-7.287-5.005-11.043" stroke="#008BC6" stroke-width=".5" stroke-linecap="round" stroke-linejoin="round"/><path d="M53.882 70.41c-1.18 14.77-37.063 14.907-38.361.107M44.39 92.185C38.934 95.24 30.3 95.2 24.895 92.136" stroke="#008BC6" stroke-width=".5" stroke-linecap="round" stroke-linejoin="round"/><path d="M20.77 88.956c-.264 11.717 28.477 11.688 27.98-.146" stroke="#008BC6" stroke-width=".5" stroke-linecap="round" stroke-linejoin="round"/><path d="M22.233 93.249c3.697 7.561 21.093 7.658 24.936.126" stroke="#008BC6" stroke-width=".5" stroke-linecap="round" stroke-linejoin="round"/><path d="M22.116 97.746c3.258 7.981 21.873 8.088 25.21.05" stroke="#008BC6" stroke-width=".5" stroke-linecap="round" stroke-linejoin="round"/><path d="M22.116 102.556c3.258 7.98 21.863 8.088 25.2.058" stroke="#008BC6" stroke-width=".5" stroke-linecap="round" stroke-linejoin="round"/><path d="M22.116 107.385c3.239 8 21.902 8.108 25.22.049" stroke="#008BC6" stroke-width=".5" stroke-linecap="round" stroke-linejoin="round"/><path d="M23.443 113.444c1.2 1.141 2.917 2.039 4.527 2.595.205.068.42.146.614.205 4.225 1.268 8.674 1.229 12.869-.166m0 0c-.04.01-.078.019-.108.039.04-.01.078-.029.108-.039Zm0 0c1.639-.556 3.453-1.493 4.634-2.663M20.74 95.649s0 .02-.01.039v.01a8.655 8.655 0 0 0-.195.536c-.087.224-.244.946-.253 1.298-.088.917.078 1.99.468 2.887a7.48 7.48 0 0 0 1.132 1.854 10.16 10.16 0 0 0 2.068 1.873c.146.108.312.215.488.322.097.068.205.127.293.176 1.131.673 2.38 1.2 3.639 1.58.634.195 1.307.361 1.97.488.693.137 1.405.244 2.098.303 0 0 .907.097 2.097.117.537.009 1.6-.02 2.118-.069.916-.087.878-.068 2.078-.263 1.99-.342 3.95-.966 5.717-1.951.039-.02.078-.039.117-.069.166-.087.322-.185.478-.283m0 0s.029-.019.049-.029c-.02 0-.03.02-.05.029Zm0 0a11.48 11.48 0 0 0 1.268-.907c1.102-.907 2.03-2.058 2.517-3.375.254-.683.38-1.357.39-2.108m0 0v.049-.049Zm0 0c0-.156 0-.332-.02-.478a5.149 5.149 0 0 0-.136-.878 6.51 6.51 0 0 0-.292-.937c-.02-.038-.04-.087-.059-.136" stroke="#008BC6" stroke-width=".5" stroke-linecap="round" stroke-linejoin="round"/><path d="M20.75 100.458c-.79 1.766-.624 3.883.351 5.552.108.185.225.37.342.546.478.712 1.258 1.493 1.863 1.961 1.473 1.161 3.25 2 5.044 2.537.634.195 1.307.361 1.961.487.693.137 1.405.244 2.098.303.322.078 3.327.175 4.214.039.918-.088.878-.068 2.069-.254 2-.341 3.95-.966 5.727-1.951.01 0 .029-.02.039-.029 0 0 .019 0 .019-.01.273-.166.605-.351.849-.517 2.058-1.346 3.766-3.454 3.844-5.981m0 0v.049-.049Zm0 0v-.048.048Zm0 0v-.204m0 0v.048-.048Zm0 0c0-.839-.176-1.649-.508-2.43" stroke="#008BC6" stroke-width=".5" stroke-linecap="round" stroke-linejoin="round"/><path d="M20.75 105.288c-.644 1.493-.673 3.258-.01 4.78.244.576.547 1.093.927 1.6.83 1.083 1.854 1.913 3.025 2.615 1.814 1.073 3.843 1.746 5.912 2.127.741.136 1.434.224 2.039.273 1.102.127 3.18.117 4.224 0 .927-.098.869-.078 2.069-.283 2.038-.38 3.853-.985 5.531-1.922a12.034 12.034 0 0 0 1.805-1.229c2.224-1.727 3.61-4.771 2.585-7.512-.039-.127-.087-.244-.146-.391 0-.009 0-.019-.01-.029" stroke="#008BC6" stroke-width=".5" stroke-linecap="round" stroke-linejoin="round"/><path d="M28.926 116.342c.683.634 1.932 1.326 2.956 1.609.283.088.702.195.976.244.341.068.546.088.858.127.595.059 1.239.068 1.824.02.108 0 .459-.049.459-.049a8.97 8.97 0 0 0 2.302-.586c.117-.048.254-.107.39-.165.186-.079.4-.196.576-.293l.059-.029c.42-.244.839-.527 1.19-.849M66.243 33.444c-1.688 3.746-5.005 11.043-5.005 11.043-4.322 8.732-15.531 12.4-26.517 12.322M20.857 90.566a6.104 6.104 0 0 0-.117 5.044 7.493 7.493 0 0 0 1.132 1.853 10.188 10.188 0 0 0 2.068 1.873c.303.215.664.45 1.005.635.04.029.088.048.127.068 0 0-.02 0-.02-.01.254.146.508.273.771.4-.01 0-.02-.01-.03-.019.352.165.703.322 1.074.468-.088-.039-.175-.068-.263-.107.4.165.78.302 1.2.439-.04-.01-.069-.03-.108-.039 1.054.361 2.186.634 3.308.819h.01c-.118-.019-.225-.029-.332-.049.731.127 1.405.215 2 .264-.205-.02-.42-.049-.654-.078 1.873.224 3.805.214 5.668-.02-.273.039-.526.068-.76.098.897-.098.936-.088 2.077-.283a19.23 19.23 0 0 1-.936.136c1.18-.165 2.38-.439 3.502-.8-.214.069-.42.137-.614.195.897-.263 1.034-.331 1.648-.565-.087.029-.175.068-.273.097a14.047 14.047 0 0 0 .273-.107c.625-.234 1.279-.566 1.854-.878a12.78 12.78 0 0 0 1.825-1.24c1.102-.907 2.029-2.058 2.517-3.375.253-.683.38-1.356.39-2.107m0 0v.049-.05Zm0 0c0-.634-.137-1.454-.342-2.02v-.02c-.039-.116-.087-.233-.136-.36-.03-.068-.059-.127-.078-.186m.536 2.966v.05-.05Zm.01-.204v.097-.097Zm-22.312 7.434h.01-.01Zm4.185 1.122h.01c.205.029.42.068.624.087-.214-.029-.439-.058-.644-.087h.01Zm6.937.068h-.059H38Z" stroke="#008BC6" stroke-width=".5" stroke-linecap="round" stroke-linejoin="round"/></svg>