<svg width="120" height="122" fill="none" xmlns="http://www.w3.org/2000/svg"><path d="m54.977 94.162-36.929 5.285a12.592 12.592 0 0 1-2.963-.067C7.497 98.315 1.257 90.77 1.237 82.536V45.348a.26.26 0 0 1 .217-.241h.004l26.475-3.782.43-.061v-.434l-.02-17.457c-.01-6.858 4.263-12.166 10.34-13.012h.002l62.619-8.96.019-.003.018-.004-.108-.488.108.488h.002l.003-.001.011-.003.036-.008.06-.014c.556-.074 1.125-.12 1.68-.12.57 0 1.204.038 1.803.132l.008.001c7.587 1.065 13.827 8.611 13.846 16.835l-.01 92.44a.231.231 0 0 1-.197.233l-.004.001-62.701 8.984H55.785a.23.23 0 0 1-.155-.055.253.253 0 0 1-.084-.183V94.08l-.57.082Z" fill="#002332" stroke="#008BC6"/><mask id="a" fill="#fff"><path d="M103.124 1.487c.581 0 1.172.04 1.773.128 7.522 1.053 13.626 8.487 13.636 16.61l-.01 92.431-62.737 8.99V93.81l-36.695 5.258-1.093.148a11.856 11.856 0 0 1-2.895-.069C7.581 98.093 1.477 90.65 1.467 82.537V45.349l27.125-3.869-.02-18.096c-.01-6.823 4.293-11.963 10.132-12.78l.443-.06 62.304-8.92a10.368 10.368 0 0 1 1.673-.127m0-1.487c-.63 0-1.26.04-1.88.128a.574.574 0 0 0-.187.04L38.94 9.067l-.443.059c-6.725.935-11.421 6.794-11.401 14.237l.02 16.817L1.27 43.873A1.481 1.481 0 0 0 0 45.33v37.187c0 8.812 6.695 16.915 14.897 18.067a13.892 13.892 0 0 0 3.24.079h.058l1.093-.148 35.021-5.011v24.132c0 .433.177.837.502 1.112.266.237.61.365.965.365.07 0 .138 0 .207-.02l62.737-8.989a1.481 1.481 0 0 0 1.27-1.457V18.234s.01-.02.01-.03c-.02-8.811-6.705-16.914-14.906-18.066-.66-.089-1.33-.138-1.979-.138l.009.01Z"/></mask><path d="M103.124 1.487c.581 0 1.172.04 1.773.128 7.522 1.053 13.626 8.487 13.636 16.61l-.01 92.431-62.737 8.99V93.81l-36.695 5.258-1.093.148a11.856 11.856 0 0 1-2.895-.069C7.581 98.093 1.477 90.65 1.467 82.537V45.349l27.125-3.869-.02-18.096c-.01-6.823 4.293-11.963 10.132-12.78l.443-.06 62.304-8.92a10.368 10.368 0 0 1 1.673-.127m0-1.487c-.63 0-1.26.04-1.88.128a.574.574 0 0 0-.187.04L38.94 9.067l-.443.059c-6.725.935-11.421 6.794-11.401 14.237l.02 16.817L1.27 43.873A1.481 1.481 0 0 0 0 45.33v37.187c0 8.812 6.695 16.915 14.897 18.067a13.892 13.892 0 0 0 3.24.079h.058l1.093-.148 35.021-5.011v24.132c0 .433.177.837.502 1.112.266.237.61.365.965.365.07 0 .138 0 .207-.02l62.737-8.989a1.481 1.481 0 0 0 1.27-1.457V18.234s.01-.02.01-.03c-.02-8.811-6.705-16.914-14.906-18.066-.66-.089-1.33-.138-1.979-.138l.009.01Z" fill="#008BC6"/><path d="m104.897 1.615-.146.989.007.001.139-.99Zm13.636 16.61h1v-.002l-1 .002Zm-.01 92.431.142.99.858-.123v-.867h-1Zm-62.737 8.99h-1v1.153l1.142-.164-.142-.989Zm0-25.836h1v-1.153l-1.142.163.142.99Zm-36.695 5.258.134.991.008-.001-.142-.99Zm-1.093.148.105.994.014-.001.015-.002-.134-.991Zm-2.895-.07.149-.988-.01-.002-.139.99ZM1.467 82.537h-1v.002l1-.001Zm0-37.187-.141-.99-.859.123v.867h1Zm27.125-3.869.141.99.86-.123v-.868l-1 .001Zm-.02-18.096 1-.001h-1Zm10.132-12.78-.133-.991h-.006l.139.99Zm.443-.06.132.992.01-.001-.142-.99Zm62.304-8.92.141.99.01-.001.01-.002-.161-.986ZM103.124.01v1h2.417l-1.71-1.708-.707.708Zm-1.88.128v1h.071l.07-.01-.141-.99Zm-.187.04.141.99.09-.014.085-.028-.316-.949ZM38.94 9.067l.132.991.01-.001-.142-.99Zm-.443.059-.132-.991h-.006l.138.991ZM27.096 23.364l1-.001v-.002l-1 .003Zm.02 16.817.14.99.86-.123v-.869l-1 .002ZM1.27 43.873l-.141-.99h-.006l.147.99Zm13.627 56.711-.14.99.005.001.135-.991Zm3.239.079v-1h-.046l-.047.004.093.996Zm.059 0v1h.067l.067-.009-.134-.991Zm1.093-.148.134.991.008-.001-.142-.99Zm35.021-5.011h1V94.35l-1.142.164.142.99Zm.502 25.244.665-.747-.009-.008-.009-.007-.647.762Zm1.172.345-.142-.99-.067.01-.066.018.275.962Zm62.737-8.989.142.99.005-.001-.147-.989Zm1.27-93.87-.895-.445-.105.21v.235h1Zm.01-.03h1v-.001l-1 .002ZM105.094.139l.139-.99-.006-.001-.133.99ZM103.115 0v-1h-2.417l1.71 1.708.707-.708Zm.009 2.487c.536 0 1.078.036 1.627.117l.292-1.979a13.128 13.128 0 0 0-1.919-.138v2Zm1.634.118c6.979.977 12.766 7.944 12.775 15.62l2-.002c-.01-8.569-6.432-16.47-14.498-17.599l-.277 1.981Zm12.775 15.62-.01 92.431h2l.01-92.431h-2Zm.848 91.441-62.737 8.99.284 1.979 62.737-8.989-.284-1.98Zm-61.595 9.98V93.81h-2v25.836h2ZM55.644 92.82 18.95 98.078l.284 1.98L55.928 94.8l-.284-1.98Zm-36.687 5.257-1.093.148.268 1.982 1.093-.148-.268-1.982Zm-1.064.144a9.953 9.953 0 0 1-1.037.054v2c.418 0 .837-.022 1.247-.065l-.21-1.989Zm-1.037.054a10.86 10.86 0 0 1-1.604-.117l-.297 1.978c.644.096 1.285.139 1.901.139v-2Zm-1.614-.119c-6.978-.977-12.766-7.953-12.775-15.62l-2 .002c.01 8.559 6.432 16.47 14.498 17.599l.277-1.98ZM2.467 82.536V45.35h-2v37.188h2ZM1.608 46.34l27.125-3.869-.282-1.98-27.125 3.87.282 1.98Zm27.984-4.86-.02-18.096-2 .002.02 18.096 2-.002Zm-.02-18.097c-.009-6.39 3.99-11.049 9.27-11.788l-.277-1.98c-6.396.895-11.003 6.516-10.993 13.771l2-.003Zm9.264-11.787.443-.059-.265-1.982-.443.059.265 1.982Zm.452-.06 62.304-8.92-.283-1.98-62.304 8.92.283 1.98Zm62.324-8.924c.48-.078.987-.114 1.512-.114v-2c-.616 0-1.232.042-1.835.14l.323 1.974Zm1.512-3.601c-.671 0-1.349.042-2.022.138l.283 1.98a12.322 12.322 0 0 1 1.739-.118v-2Zm-1.88.128c-.254 0-.46.076-.503.09l.632 1.898a.457.457 0 0 1 .024-.008l-.017.005a.586.586 0 0 1-.136.015v-2Zm-.329.05-62.117 8.89.284 1.98 62.116-8.89-.283-1.98ZM38.808 8.076l-.443.059.264 1.982.443-.059-.264-1.982Zm-.449.06c-7.288 1.013-12.284 7.358-12.264 15.23l2-.006c-.018-7.015 4.378-12.386 10.54-13.244l-.276-1.98ZM26.095 23.365l.02 16.817 2-.003-.02-16.816-2 .002Zm.879 15.826L1.129 42.883l.283 1.98 25.845-3.693-.283-1.98Zm-25.85 3.692A2.481 2.481 0 0 0-1 45.33h2c0-.224.169-.431.417-.468l-.294-1.979ZM-1 45.33v37.187h2V45.33h-2Zm0 37.187c0 9.264 7.018 17.83 15.758 19.057l.278-1.98C7.372 98.518 1 90.877 1 82.517h-2Zm15.761 19.058c.69.094 1.395.147 2.095.147v-2c-.6 0-1.214-.045-1.824-.129l-.27 1.982Zm2.095.147c.464 0 .918-.021 1.372-.063l-.185-1.992c-.392.037-.784.055-1.187.055v2Zm1.28-.059H18.196v-2H18.135v2Zm.193-.009 1.093-.148-.268-1.982-1.093.148.268 1.982Zm1.1-.149 35.022-5.011-.284-1.98-35.02 5.011.283 1.98Zm33.88-6.001v24.132h2V95.504h-2Zm0 24.132c0 .708.293 1.398.855 1.875l1.294-1.525a.444.444 0 0 1-.149-.35h-2Zm.838 1.86a2.455 2.455 0 0 0 1.63.617v-2a.453.453 0 0 1-.301-.112l-1.329 1.495Zm1.63.617c.048 0 .256.006.48-.059l-.549-1.923c.05-.014.088-.017.1-.018.006-.001.008-.001.002-.001l-.034.001v2Zm.348-.03 62.737-8.989-.284-1.98-62.737 8.989.284 1.98Zm62.742-8.99a2.482 2.482 0 0 0 2.123-2.446h-2a.482.482 0 0 1-.417.468l.294 1.978Zm2.123-2.446V18.234h-2v92.413h2Zm-1-92.413.896.446v-.001l.001-.002.002-.003a.132.132 0 0 0 .003-.008l.009-.018.023-.055a.994.994 0 0 0 .076-.388h-2a.933.933 0 0 1 .089-.404l.003-.006.001-.003.001-.002h.001l.895.444Zm1.01-.031C120.979 8.94 113.973.375 105.233-.852l-.279 1.98c7.663 1.076 14.027 8.717 14.046 17.079l2-.004ZM105.227-.853A15.974 15.974 0 0 0 103.115-1v2c.6 0 1.225.046 1.845.129l.267-1.982Zm-2.819 1.56.01.01 1.413-1.415-.01-.01-1.413 1.416Z" fill="#008BC6" mask="url(#a)"/><path d="m118.543 18.215-.02 92.431-62.737 8.99.01-92.442M1.467 82.537l.02-37.197 27.203-3.89" stroke="#008BC6" stroke-width=".5" stroke-linecap="round" stroke-linejoin="round"/><path d="M108.638 23.906c.758-.109 1.368.472 1.368 1.29 0 .817-.62 1.565-1.378 1.673l-33.81 4.756c-.758.108-1.369-.473-1.369-1.29 0-.817.62-1.566 1.379-1.674l33.81-4.755ZM67.66 27.538c1.851-.256 3.348 1.143 3.348 3.141 0 1.999-1.507 3.82-3.358 4.086-1.85.266-3.347-1.142-3.338-3.14 0-2 1.507-3.82 3.358-4.087h-.01Z" stroke="#008BC6" stroke-width=".5" stroke-linecap="round" stroke-linejoin="round"/><path d="m64.374 29.728.242-.296 2.239 2.104.389.366.34-.413 5.323-6.48.143.133-5.9 7.19-2.776-2.604Z" fill="#008BC6" stroke="#008BC6"/><path d="M108.638 42.396c.758-.108 1.368.472 1.368 1.29 0 .817-.62 1.565-1.378 1.673l-33.81 4.756c-.758.108-1.369-.473-1.369-1.29 0-.817.62-1.565 1.379-1.674l33.81-4.755Z" stroke="#008BC6" stroke-width=".5" stroke-linecap="round" stroke-linejoin="round"/><path d="M67.741 46.514v-.001c1.51-.202 2.767.919 2.767 2.647 0 1.772-1.346 3.364-2.929 3.59-1.51.218-2.775-.91-2.766-2.643v-.002c0-1.773 1.345-3.364 2.928-3.591Z" fill="#008BC6" stroke="#008BC6"/><path d="M108.638 60.876c.758-.108 1.368.473 1.368 1.29 0 .817-.62 1.566-1.378 1.674l-33.81 4.755c-.758.109-1.369-.472-1.369-1.29 0-.817.62-1.565 1.379-1.673l33.81-4.756Z" stroke="#008BC6" stroke-width=".5" stroke-linecap="round" stroke-linejoin="round"/><path d="M67.741 65.004v-.001c1.51-.202 2.767.92 2.767 2.647 0 1.772-1.345 3.363-2.928 3.59-1.505.21-2.776-.913-2.767-2.642v-.003c0-1.772 1.345-3.364 2.928-3.59Z" fill="#008BC6" stroke="#008BC6"/><path d="M108.638 79.367c.758-.109 1.368.472 1.368 1.29 0 .817-.62 1.565-1.378 1.673l-33.81 4.756c-.758.108-1.369-.473-1.369-1.29 0-.817.62-1.566 1.379-1.674l33.81-4.755ZM67.66 83c1.851-.256 3.348 1.142 3.348 3.14 0 2-1.507 3.82-3.358 4.087-1.85.265-3.347-1.143-3.338-3.141 0-1.999 1.507-3.82 3.358-4.086h-.01Z" stroke="#008BC6" stroke-width=".5" stroke-linecap="round" stroke-linejoin="round"/><path d="m64.376 85.181.239-.29 2.24 2.106.389.366.34-.413 5.323-6.48.143.133-5.9 7.19-2.775-2.612Z" fill="#008BC6" stroke="#008BC6"/><path d="M108.638 97.847c.758-.108 1.368.473 1.368 1.29 0 .817-.62 1.565-1.378 1.674l-33.81 4.755c-.758.108-1.369-.473-1.369-1.29 0-.817.62-1.565 1.379-1.674l33.81-4.755ZM67.66 101.48c1.851-.256 3.348 1.142 3.348 3.141s-1.507 3.82-3.358 4.086c-1.85.266-3.347-1.142-3.338-3.141 0-1.999 1.507-3.82 3.358-4.086h-.01Z" stroke="#008BC6" stroke-width=".5" stroke-linecap="round" stroke-linejoin="round"/><path d="m64.374 103.67.242-.297 2.239 2.105.389.366.34-.413 5.32-6.478.148.138-5.902 7.183-2.776-2.604Z" fill="#008BC6" stroke="#008BC6"/><path d="M55.796 27.194c-.02-8.113-6.124-15.546-13.637-16.61-7.522-1.053-13.597 4.667-13.587 12.78l.118 62.993M1.467 82.537c.02 8.113 6.124 15.546 13.636 16.61C22.625 100.2 28.7 94.48 28.69 86.367M101.451 1.605a12.617 12.617 0 0 1 3.446 0c7.522 1.053 13.626 8.487 13.636 16.61M17.624 99.265 55.786 93.8M38.713 10.594l62.738-8.98" stroke="#008BC6" stroke-width=".5" stroke-linecap="round" stroke-linejoin="round"/></svg>