<svg width="86" height="119" fill="none" xmlns="http://www.w3.org/2000/svg"><path d="M1.258 39.627a6.015 6.015 0 0 0-.013.377v.001l.184 63.078v.002c0 1.266.464 2.131 1.182 2.547h.001l20.347 11.823h.005l.114.065c.244.137.524.221.833.246l.001-.001h.207c.542 0 1.134-.17 1.763-.533l.25.433-.25-.433 54.893-31.694h.001c1.04-.605 1.99-1.63 2.679-2.827.689-1.198 1.096-2.53 1.096-3.725v-.001l-.183-63.076v-.002m-83.11 23.72 82.197-26.692c.91.542 1.403 1.587 1.413 2.97l-.5.002m-83.11 23.72.227.024.028-.136h.001l.018-.09.153-.75-.011-.003.026-.136-.255-.07c.014-.056.03-.113.048-.17l.126-.407a5.328 5.328 0 0 1 .194-.517l.001-.001.066-.163a11.765 11.765 0 0 0 .149-.335c.025-.05.05-.1.079-.153v-.002c.029-.054.06-.113.09-.175.028-.056.056-.105.089-.162l.053-.094c.045-.077.084-.14.12-.2l.005-.008.097-.162.024-.035.211.129.593-.8-.197-.177c.044-.054.089-.105.134-.155h.001l.427-.456c.072-.072.142-.134.21-.186l.005-.004.096-.078.014-.01.013-.013c.114-.105.166-.148.217-.191.263-.206.49-.371.71-.498L59.915 1.75c.167-.097.325-.176.485-.247l.01-.005.01-.005a.587.587 0 0 1 .056-.026h.002l.014-.004.025-.006.025-.009c.11-.04.202-.073.282-.097l.007-.003.008-.002h.002l.009-.004.026-.008.012-.004.013-.003.045-.01.137-.03c.05-.01.1-.02.137-.029l.027-.005.142-.014h.008l.093-.011.012-.001H61.86c.022 0 .05.002.085.007l-.053.19.94.334.079-.181.06.035.65.377 2.316 1.347a126530.955 126530.955 0 0 0 16.385 9.522l.65.377.174.1.045.026.014.008m1.163 2.539c-.01-1.267-.455-2.113-1.162-2.538m1.162 2.538-1.162-2.538" fill="#fff"/><mask id="a" fill="#fff"><path d="M61.638 1.451h.165c.077 0 .154.01.222.03h.039c.02 0 .038.009.068.019.038 0 .067.01.106.019.029.01.068.02.097.039.02 0 .038.01.058.019.01 0 .029 0 .038.01.068.029.126.058.184.087h.02l20.413 11.87c.668.378 1.074 1.2 1.084 2.361l.174 63.08c0 2.332-1.635 5.186-3.667 6.347l-54.894 31.694c-.59.339-1.152.503-1.645.503-.368 0-.697-.087-.987-.251h.01L2.709 105.417c-.658-.387-1.074-1.2-1.074-2.361l-.174-63.08c0-.232.02-.474.048-.716 0-.038.02-.087.02-.125 0-.049.019-.087.019-.136.02-.087.029-.164.039-.251.029-.146.067-.281.106-.426.01-.039.03-.087.039-.126 0-.029.02-.048.02-.077.018-.058.028-.116.048-.174.038-.117.077-.233.125-.349a4.7 4.7 0 0 1 .136-.329v-.039c.038-.096.087-.183.126-.28.048-.106.106-.213.154-.31l.145-.26s0-.01.01-.02c0 0 0-.02.01-.02.058-.106.126-.212.193-.31a6.1 6.1 0 0 1 .213-.318c.03-.049.068-.087.097-.136a.294.294 0 0 0 .048-.067c.03-.04.068-.088.097-.136.097-.126.193-.242.3-.368.048-.048.097-.096.145-.154a1.59 1.59 0 0 1 .126-.136c.048-.048.087-.097.135-.145.107-.106.213-.193.33-.28.067-.059.135-.126.212-.184.223-.184.455-.339.687-.484L59.984 1.925c.154-.087.31-.164.464-.232.02 0 .039-.02.048-.029.03-.01.059-.02.097-.029.087-.029.174-.068.261-.087.03 0 .059-.02.087-.03.03 0 .059-.009.088-.018l.145-.03c.029 0 .058-.019.087-.019.038 0 .067 0 .106-.01.039 0 .078 0 .107-.01h.116M61.638 0h-.116s-.087 0-.135.01c-.049 0-.097 0-.145.019-.049 0-.107.01-.165.02-.039 0-.097.019-.155.028-.038 0-.116.02-.193.04a.61.61 0 0 0-.116.028 1.38 1.38 0 0 0-.155.048 3.704 3.704 0 0 0-.3.107c-.058.02-.107.039-.165.058a.452.452 0 0 0-.096.048 5.253 5.253 0 0 0-.571.29L4.412 32.392a7.06 7.06 0 0 0-.871.6l-.213.184-.058.048-.077.068c-.107.087-.213.174-.31.28-.048.049-.087.097-.135.146l-.03.038-.144.155-.04.039s-.086.097-.135.145c-.116.135-.232.28-.348.426l-.087.116-.068.087-.048.058s-.058.077-.087.126c-.078.116-.165.242-.242.367-.077.116-.145.242-.223.358 0 .01-.019.039-.029.049a8.752 8.752 0 0 1-.174.31c-.058.115-.126.241-.184.357a9.436 9.436 0 0 0-.154.33l-.02.047c-.048.126-.106.252-.155.378-.048.135-.106.27-.145.416-.019.048-.029.106-.048.155l1.374.474-1.393-.416-.03.077-.048.145a7.94 7.94 0 0 0-.126.513c-.019.077-.029.165-.038.242v.068l-.039.164-.029.155c-.039.31-.058.619-.058.91l.174 63.079c0 1.635.658 2.951 1.8 3.609l20.413 11.861s.068.039.097.048a3.339 3.339 0 0 0 1.606.397c.774 0 1.568-.232 2.37-.697l54.895-31.694c2.467-1.422 4.393-4.77 4.393-7.614l-.174-63.08c0-1.635-.658-2.941-1.8-3.609L63.36.445C63.215.358 63.1.31 62.983.261c-.039-.01-.087-.038-.126-.048h-.029a.69.69 0 0 0-.174-.068c-.077-.02-.136-.039-.194-.048a.182.182 0 0 1-.077-.02.182.182 0 0 1-.077-.019 3.528 3.528 0 0 0-.407-.048h-.27l.01-.01Z"/></mask><path d="M61.638 1.451h.165c.077 0 .154.01.222.03h.039c.02 0 .038.009.068.019.038 0 .067.01.106.019.029.01.068.02.097.039.02 0 .038.01.058.019.01 0 .029 0 .038.01.068.029.126.058.184.087h.02l20.413 11.87c.668.378 1.074 1.2 1.084 2.361l.174 63.08c0 2.332-1.635 5.186-3.667 6.347l-54.894 31.694c-.59.339-1.152.503-1.645.503-.368 0-.697-.087-.987-.251h.01L2.709 105.417c-.658-.387-1.074-1.2-1.074-2.361l-.174-63.08c0-.232.02-.474.048-.716 0-.038.02-.087.02-.125 0-.049.019-.087.019-.136.02-.087.029-.164.039-.251.029-.146.067-.281.106-.426.01-.039.03-.087.039-.126 0-.029.02-.048.02-.077.018-.058.028-.116.048-.174.038-.117.077-.233.125-.349a4.7 4.7 0 0 1 .136-.329v-.039c.038-.096.087-.183.126-.28.048-.106.106-.213.154-.31l.145-.26s0-.01.01-.02c0 0 0-.02.01-.02.058-.106.126-.212.193-.31a6.1 6.1 0 0 1 .213-.318c.03-.049.068-.087.097-.136a.294.294 0 0 0 .048-.067c.03-.04.068-.088.097-.136.097-.126.193-.242.3-.368.048-.048.097-.096.145-.154a1.59 1.59 0 0 1 .126-.136c.048-.048.087-.097.135-.145.107-.106.213-.193.33-.28.067-.059.135-.126.212-.184.223-.184.455-.339.687-.484L59.984 1.925c.154-.087.31-.164.464-.232.02 0 .039-.02.048-.029.03-.01.059-.02.097-.029.087-.029.174-.068.261-.087.03 0 .059-.02.087-.03.03 0 .059-.009.088-.018l.145-.03c.029 0 .058-.019.087-.019.038 0 .067 0 .106-.01.039 0 .078 0 .107-.01h.116M61.638 0h-.116s-.087 0-.135.01c-.049 0-.097 0-.145.019-.049 0-.107.01-.165.02-.039 0-.097.019-.155.028-.038 0-.116.02-.193.04a.61.61 0 0 0-.116.028 1.38 1.38 0 0 0-.155.048 3.704 3.704 0 0 0-.3.107c-.058.02-.107.039-.165.058a.452.452 0 0 0-.096.048 5.253 5.253 0 0 0-.571.29L4.412 32.392a7.06 7.06 0 0 0-.871.6l-.213.184-.058.048-.077.068c-.107.087-.213.174-.31.28-.048.049-.087.097-.135.146l-.03.038-.144.155-.04.039s-.086.097-.135.145c-.116.135-.232.28-.348.426l-.087.116-.068.087-.048.058s-.058.077-.087.126c-.078.116-.165.242-.242.367-.077.116-.145.242-.223.358 0 .01-.019.039-.029.049a8.752 8.752 0 0 1-.174.31c-.058.115-.126.241-.184.357a9.436 9.436 0 0 0-.154.33l-.02.047c-.048.126-.106.252-.155.378-.048.135-.106.27-.145.416-.019.048-.029.106-.048.155l1.374.474-1.393-.416-.03.077-.048.145a7.94 7.94 0 0 0-.126.513c-.019.077-.029.165-.038.242v.068l-.039.164-.029.155c-.039.31-.058.619-.058.91l.174 63.079c0 1.635.658 2.951 1.8 3.609l20.413 11.861s.068.039.097.048a3.339 3.339 0 0 0 1.606.397c.774 0 1.568-.232 2.37-.697l54.895-31.694c2.467-1.422 4.393-4.77 4.393-7.614l-.174-63.08c0-1.635-.658-2.941-1.8-3.609L63.36.445C63.215.358 63.1.31 62.983.261c-.039-.01-.087-.038-.126-.048h-.029a.69.69 0 0 0-.174-.068c-.077-.02-.136-.039-.194-.048a.182.182 0 0 1-.077-.02.182.182 0 0 1-.077-.019 3.528 3.528 0 0 0-.407-.048h-.27l.01-.01Z" fill="#F0B7A5"/><path d="m62.025 1.48-.275.962.135.038h.14v-1Zm.107.02-.317.948.154.052h.163v-1Zm.106.019.316-.949-.036-.012-.038-.01-.242.97Zm.097.039-.555.832.252.168h.303v-1Zm.058.019-.447.894.21.106h.237v-1Zm.038.01-.707.707.137.136.177.076.394-.92Zm.184.087-.447.894.211.106h.236v-1Zm.02 0 .502-.865-.233-.135h-.27v1Zm20.413 11.87-.502.865.01.006.492-.87Zm1.084 2.361 1-.002v-.006l-1 .008Zm.174 63.08h1v-.003l-1 .003Zm-3.667 6.347-.496-.869-.004.003.5.866Zm-54.894 31.694.497.868.003-.002-.5-.866Zm-2.632.252.493-.87-.23-.13h-.263v1Zm.01 0v1h3.711l-3.209-1.865-.502.865ZM2.709 105.417l-.507.862.005.002.502-.864Zm-1.074-2.361h1v-.003l-1 .003Zm-.174-63.08h-1v.003l1-.003Zm.048-.716.993.12.007-.06v-.06h-1Zm.039-.26-.976-.218-.024.107V39h1Zm.039-.252-.98-.197-.01.043-.004.043.994.11Zm.106-.426.966.258.002-.008.002-.008-.97-.242Zm.039-.126.97.243.03-.12v-.123h-1Zm.02-.077-.95-.316-.05.153v.163h1Zm.048-.174-.95-.317.95.317Zm.125-.349.923.385.01-.021.007-.022-.94-.342Zm.136-.329.91.414.09-.197v-.217h-1Zm0-.038-.929-.372-.071.179v.193h1Zm.126-.28-.91-.415-.01.021-.009.022.929.371Zm.154-.31-.874-.486-.01.019-.01.02.894.447Zm.145-.262.875.486.125-.227v-.259h-1Zm.01-.02.707.708.293-.293v-.414h-1Zm.01-.018v1h.593l.285-.522-.878-.478Zm.193-.31.82.573.012-.018.012-.018-.844-.537Zm.213-.32.809.589.026-.036.023-.038-.858-.514Zm.097-.135-.707-.707-.087.087-.064.106.858.514Zm.048-.067-.8-.6-.054.072-.04.08.894.448Zm.097-.136-.793-.61-.035.046-.03.05.858.514Zm.3-.368-.707-.707-.03.03-.026.032.763.645Zm.145-.154.768.64.007-.008.006-.008-.781-.624Zm.261-.28-.707-.708.707.707Zm.33-.282.6.8.025-.02.025-.02-.65-.76Zm.212-.183.6.8.019-.014.018-.015-.637-.771Zm.687-.484-.5-.866-.015.009-.015.009.53.848ZM59.984 1.925l-.49-.871-.01.005.5.866Zm.464-.232v-1h-.21l-.19.084.4.916Zm.048-.029L60.18.715l-.224.075-.167.167.707.707Zm.097-.029.243.97.037-.01.037-.011-.317-.949Zm.261-.087v-1h-.11l-.106.024.217.976Zm.087-.03v-1h-.162l-.154.052.316.949Zm.088-.018-.197-.981-.06.012-.06.02.317.949Zm.145-.03v-1h-.1l-.096.02.196.98Zm.193-.028v-1h-.123l-.12.03.243.97Zm.107-.01v-1h-.163l-.154.051.317.949ZM61.638 0l.707.707L64.052-1h-2.414v1Zm-.116 0v1-1Zm-.135.01v1h.099l.097-.02-.196-.98Zm-.145.019v1h.192l.179-.071-.371-.929Zm-.165.02v1h.083l.081-.014-.164-.987Zm-.155.028v1h.083l.082-.013-.165-.987Zm-.193.04v1h.123l.12-.03-.243-.97Zm-.116.028.242.97.037-.01.037-.011-.316-.949Zm-.155.048.287.958.043-.012.041-.017-.371-.929Zm-.3.107.316.949.028-.01.027-.01-.371-.93Zm-.261.106.394.92.084-.037.076-.05-.554-.833Zm-.571.29.5.867v-.001l-.5-.865ZM4.412 32.392l-.5-.866-.006.004.506.862Zm-.871.6-.628-.778-.011.009-.012.01.651.76Zm-.213.184.64.768.01-.008.009-.008-.659-.752Zm-.058.048-.64-.768-.01.008-.008.008.658.752Zm-.077.068.633.774.013-.01.012-.011-.658-.753Zm-.31.28.707.708.017-.017.016-.018-.74-.672Zm-.135.146-.707-.707-.05.05-.043.057.8.6Zm-.03.038.73.684.038-.04.033-.044-.8-.6Zm-.144.155.707.707.011-.011.011-.012-.73-.684Zm-.04.039-.706-.707-.019.018-.017.02.743.669Zm-.135.145-.707-.707-.027.027-.025.03.76.65Zm-.348.426-.78-.625-.01.012-.01.013.8.6Zm-.087.116.79.614.005-.007.005-.007-.8-.6Zm-.068.087.768.64.011-.013.01-.013-.789-.614Zm-.048.058-.768-.64-.017.02-.015.02.8.6Zm-.087.126.832.554.013-.02.012-.02-.857-.514Zm-.242.367.832.555.01-.015.01-.016-.852-.524Zm-.223.358-.832-.554-.168.252v.302h1Zm-.029.049-.707-.707-.102.101-.068.127.877.479Zm-.174.31-.857-.515-.02.033-.017.034.894.447Zm-.338.686-.91-.414-.01.021-.009.022.929.371Zm-.02.048-.928-.37-.005.012.933.358Zm-.155.378-.933-.36-.004.012-.004.011.941.337Zm-.145.416.929.371.022-.056.016-.058-.967-.257Zm-.048.155-.928-.372-.39.975.992.342.326-.945Zm1.374.474-.286.958.612-1.904-.326.946Zm-1.393-.416.286-.959-.895-.267-.328.875.937.35Zm-.03.077-.936-.351-.006.017-.006.018.949.316Zm-.048.145-.948-.316-.006.017-.005.017.96.282Zm-.126.513.97.242.004-.012.003-.013-.977-.217Zm-.038.242-.993-.124-.007.062v.062h1Zm0 .068.973.229.027-.113v-.116h-1Zm-.039.164-.973-.229-.008.032-.005.033.986.164Zm-.029.155-.98-.196-.008.036-.004.036.992.124Zm-.058.91h-1v.002l1-.003Zm.174 63.079h1v-.003l-1 .003Zm1.8 3.609.502-.865-.003-.002-.5.867Zm20.413 11.861-.502.865.006.003.497-.868Zm.097.048.475-.88-.076-.041-.082-.027-.317.948Zm3.977-.3-.5-.866-.001.001.5.865Zm54.894-31.694-.5-.867.5.867Zm4.393-7.614h1v-.003l-1 .003Zm-.174-63.08h-1v.003l1-.003Zm-1.8-3.609.505-.863-.002-.001-.503.864ZM63.36.445l-.514.858.012.007.502-.865Zm-.377-.184.385-.923-.07-.029-.073-.018-.242.97Zm-.126-.048.243-.97-.12-.03h-.123v1Zm-.029 0-.447.894.211.106h.236v-1Zm-.174-.068-.243.97.023.006.024.005.196-.98ZM62.46.097l.165-.987-.082-.013h-.082v1Zm-.077-.02.447-.894-.21-.106h-.237v1Zm-.077-.019.447-.894-.125-.063-.138-.026-.184.983ZM61.899.01l.077-.997-.038-.003h-.039v1Zm-.27 0-.708-.707-1.707 1.707h2.415v-1Zm.01 1.441v1H61.755v-2H61.638v1Zm.115 0v1H61.764v-2h-.008v1Zm.01 1h.02v-2h-.02v2Zm.02-1v1h.008v-2h-.008v1Zm.009 1h.01v-2h-.01v2Zm.01 0a.269.269 0 0 1-.052-.01L62.3.52a1.822 1.822 0 0 0-.497-.068v2Zm.222.03H62.064v-2H62.025v2Zm.039 0c-.153 0-.266-.04-.286-.046-.012-.004-.022-.008-.01-.003l.047.016.633-1.897.007.002-.045-.015a1.093 1.093 0 0 0-.346-.058v2Zm.068.019a.755.755 0 0 1-.157-.017l-.015-.003.012.003.023.006.486-1.94-.02-.005A1.246 1.246 0 0 0 62.13.5v2Zm-.21-.032a1.632 1.632 0 0 0 .034.01l.005.002-.011-.004a.715.715 0 0 1-.17-.086L62.89.726a1.22 1.22 0 0 0-.328-.154L62.553.57l-.632 1.898Zm.413.09a.918.918 0 0 1-.322-.058c-.049-.018-.087-.038-.067-.029L62.84.683s-.058-.03-.125-.056a1.082 1.082 0 0 0-.38-.07v2Zm.058.019c.01 0-.06.002-.145-.012a.95.95 0 0 1-.524-.271L63.14.88a1.034 1.034 0 0 0-.692-.302l-.054-.001v2Zm-.355-.071c.037.016.07.032.13.062L63.063.78c-.057-.028-.14-.07-.238-.111l-.788 1.838Zm.577.168h.02v-2h-.02v2Zm-.483-.136L82.546 14.41l1.005-1.729L63.137.81l-1.005 1.728Zm20.424 11.877c.24.136.568.538.576 1.499l2-.017c-.011-1.361-.497-2.604-1.592-3.223l-.984 1.741Zm.576 1.493.174 63.08 2-.006-.174-63.08-2 .006Zm.174 63.077c0 .95-.34 2.075-.938 3.113-.598 1.038-1.4 1.894-2.225 2.365l.993 1.737c1.207-.69 2.238-1.841 2.965-3.103.727-1.262 1.205-2.73 1.205-4.112h-2Zm-3.167 5.48L25.245 116.16l1 1.732 54.894-31.694-1-1.732ZM25.247 116.16c-.481.276-.872.37-1.147.37v2c.711 0 1.443-.234 2.142-.635l-.995-1.735Zm-1.147.37a.974.974 0 0 1-.494-.121l-.986 1.74c.448.254.948.381 1.48.381v-2Zm-.987.749v1H23.123v-2h-.008v1Zm.512-.865L3.211 104.552l-1.004 1.729 20.413 11.862 1.005-1.73ZM3.216 104.555c-.253-.149-.581-.56-.581-1.499h-2c0 1.383.505 2.598 1.567 3.223l1.014-1.724Zm-.581-1.502-.174-63.08-2 .006.174 63.08 2-.006Zm-.174-63.077c0-.179.015-.379.041-.596L.516 39.14c-.031.266-.055.55-.055.835h2Zm.048-.716a.82.82 0 0 1-.011.139l-.003.015a1.179 1.179 0 0 0 .033-.28h-2c0-.068.009-.12.012-.138l.003-.016a1.18 1.18 0 0 0-.033.28h2Zm.02-.125a.788.788 0 0 1-.01.125l-.005.024.018-.09c.008-.049.016-.116.016-.195h-2c0-.055.006-.099.01-.125l.004-.024c-.001.006-.01.045-.017.09a1.215 1.215 0 0 0-.016.195h2Zm-.005.081c.032-.142.046-.264.057-.358l-1.988-.22c-.01.08-.014.112-.021.144l1.952.434Zm.043-.272c.021-.105.048-.197.092-.364l-1.932-.516c-.033.123-.084.302-.12.487l1.96.393Zm.096-.38a.571.571 0 0 1-.005.02l-.002.007.001-.004.004-.012.016-.049c.006-.02.016-.051.025-.087l-1.94-.485a.561.561 0 0 1 .006-.023l-.004.012-.016.049c-.007.02-.016.05-.025.087l1.94.485Zm.069-.368a.928.928 0 0 1-.056.318l-.006.015.013-.033a1.131 1.131 0 0 0 .068-.377h-2a.928.928 0 0 1 .056-.318l.006-.015-.013.033a1.129 1.129 0 0 0-.068.377h2Zm-.032.239c.024-.071.04-.137.045-.16.01-.035.008-.027.003-.014l-1.897-.633c-.024.072-.04.138-.046.161-.008.035-.007.027-.003.014l1.898.632Zm.048-.174c.04-.121.068-.203.1-.28l-1.846-.77c-.064.156-.114.306-.151.417l1.897.633Zm.117-.323c.028-.077.066-.169.106-.257l-1.82-.828a5.719 5.719 0 0 0-.166.401l1.88.684Zm-.804-.67h1V37.247h-2V37.268h1Zm0-.02h1V37.228h-2V37.249h1Zm.928.352.038-.084c.02-.041.055-.115.088-.197l-1.857-.742a1.675 1.675 0 0 1-.038.083c-.02.042-.055.116-.088.197l1.857.743Zm.108-.238c.04-.087.067-.133.139-.276l-1.79-.895c-.024.05-.113.217-.17.343l1.82.828Zm.118-.238.073-.13.073-.131-1.749-.971-.072.13a153.2 153.2 0 0 1-.073.13l1.748.972Zm-.729-.747 1 .001v.003a.507.507 0 0 1-.002.062.98.98 0 0 1-.28.622l-1.415-1.414a1.034 1.034 0 0 0-.303.718v.007l1 .001Zm.01-.02 1 .001v.016a.927.927 0 0 1-.029.217.982.982 0 0 1-.468.617.994.994 0 0 1-.493.13v-2a1.007 1.007 0 0 0-1.01.983 1.032 1.032 0 0 0 0 .033v.003h1Zm.888.46c.037-.067.084-.142.135-.215L1.88 35.456c-.084.12-.173.258-.252.404l1.756.957Zm.159-.251c.07-.11.122-.19.178-.268L2.103 35.12c-.098.136-.182.268-.247.371l1.687 1.074Zm.227-.342a.553.553 0 0 1-.027.04c-.002.004-.003.005.007-.008.007-.009.025-.032.043-.058.02-.027.046-.064.073-.11L2.151 35.06a.554.554 0 0 1 .027-.04c.002-.004.003-.005-.007.008-.007.009-.025.032-.043.058-.02.027-.046.064-.073.11l1.715 1.028Zm-.054.057a1.29 1.29 0 0 0 .236-.327l-1.79-.895a.717.717 0 0 1 .14-.192l1.414 1.414Zm.141-.175c.001 0 .09-.114.154-.22l-1.715-1.03.01-.013-.005.006a1.165 1.165 0 0 1-.016.021l-.028.037 1.6 1.2Zm.09-.125c.082-.107.166-.208.27-.332l-1.526-1.291c-.109.128-.218.258-.33.403l1.586 1.22Zm.214-.27c.045-.046.125-.124.206-.222l-1.536-1.28a1.352 1.352 0 0 1-.084.087l1.414 1.415Zm.219-.238.005-.005.047-.048-1.414-1.414c-.043.043-.121.12-.2.218l1.562 1.25Zm.052-.053c.046-.045.084-.089.104-.11l.031-.035-1.414-1.414c-.045.046-.084.089-.104.11a1.314 1.314 0 0 1-.031.035l1.414 1.414Zm.135-.145c.062-.061.129-.117.222-.188l-1.2-1.6a3.97 3.97 0 0 0-.436.374l1.414 1.414Zm.273-.228.07-.062.05-.045a.705.705 0 0 1 .042-.036l-1.2-1.6c-.074.055-.136.11-.178.147l-.086.077 1.302 1.519Zm.199-.172c.173-.143.363-.271.58-.407l-1.06-1.696a7.326 7.326 0 0 0-.794.56l1.274 1.543Zm.55-.39L60.484 2.792l-1-1.732L4.589 32.754l1 1.732ZM60.474 2.798c.127-.072.252-.134.375-.188L60.047.777a6.19 6.19 0 0 0-.553.277l.98 1.743Zm-.026-.104c.323 0 .544-.15.61-.197.084-.06.145-.124.146-.125L59.789.957c-.008.009.038-.04.106-.089a.932.932 0 0 1 .553-.175v2Zm.365-.08a2.99 2.99 0 0 1 .022-.008h.001L60.35.665c-.08.02-.14.04-.17.05l.632 1.898Zm.096-.03c.037-.011.07-.024.095-.033l.06-.022c.032-.011.028-.008.007-.004L60.638.572c-.108.024-.2.056-.254.075-.076.028-.077.03-.107.04l.633 1.897Zm-.054-.035a1.082 1.082 0 0 0 .428-.088l.038-.016s-.026.011-.063.024L60.625.57a1.24 1.24 0 0 0-.106.041l-.01.005-.005.002.01-.004a.918.918 0 0 1 .341-.066v2Zm.087-.03c.123 0 .224-.02.286-.035.058-.015.109-.032.117-.035L60.712.551c-.02.007.001-.001.03-.008a.823.823 0 0 1 .2-.024v2Zm.283-.038.072-.014.073-.015L60.978.49l-.073.014-.072.015.392 1.961Zm-.051-.01a1.089 1.089 0 0 0 .33-.051l.03-.01-.008.003a.912.912 0 0 1-.266.04v-2a1.088 1.088 0 0 0-.33.05l-.029.01.007-.002a.91.91 0 0 1 .266-.04v2Zm.087-.019c.037 0 .178.003.349-.04l-.485-1.94a.698.698 0 0 1 .146-.02h-.01v2Zm.106-.01c.013 0 .066.001.124-.003.055-.004.168-.014.299-.057L61.157.483a.851.851 0 0 1 .2-.04c.022-.002.037-.001.01-.001v2Zm.107-.01H61.532v-2H61.473v2Zm.058 0H61.59v-2H61.531v2ZM61.638-1h-.116v2h.116v-2Zm-.116 1v-1h-.002a.912.912 0 0 0-.03 0l-.061.002c-.032.002-.133.006-.239.027L61.584.99c-.058.012-.091.011-.067.01h.009s.001 0 0 0h-.002l-.001-1Zm-.135-.99c-.024 0-.263-.01-.517.09l.743 1.857a.74.74 0 0 1-.2.05c-.033.003-.059.003-.026.003v-2Zm-.145.019c-.15 0-.297.028-.33.033l.33 1.973a3.922 3.922 0 0 1 .05-.008h-.008a.527.527 0 0 1-.042.002v-2Zm-.165.02a1.197 1.197 0 0 0-.292.035l-.025.006-.013.003.01-.002.33 1.973a1.644 1.644 0 0 0 .096-.02l.03-.006a4.028 4.028 0 0 0 .015-.004c.004 0 .003 0 0 0a.505.505 0 0 1-.102.013.863.863 0 0 1-.049.001v-2Zm-.155.028c-.137 0-.261.028-.291.035-.054.011-.11.025-.145.034l.485 1.94.05-.012.029-.007c.002 0 .002 0 0 0l-.013.002a.656.656 0 0 1-.115.008v-2Zm-.193.04c-.102 0-.188.016-.19.016a1.474 1.474 0 0 0-.243.063l.633 1.898a.974.974 0 0 1-.2.022v-2Zm-.359.058a2.357 2.357 0 0 0-.284.09l.743 1.857-.01.004a.425.425 0 0 1 .027-.008l.01-.003-.486-1.94Zm-.2.06c-.133.04-.269.09-.384.136l.743 1.857c.079-.031.156-.059.216-.077L60.17-.764Zm-.328.116-.108.038-.057.02.633 1.898.107-.038.057-.02-.632-1.898Zm-.165.058a1.445 1.445 0 0 0-.335.165l1.11 1.664a.544.544 0 0 1-.142.069l-.633-1.898Zm-.174.078c-.25.107-.471.224-.678.344l1.002 1.731c.16-.093.307-.17.464-.237l-.788-1.838Zm-.677.343L3.912 31.525l1 1.732L59.826 1.563l-1-1.733ZM3.906 31.53c-.317.186-.65.407-.993.684l1.256 1.556c.256-.206.505-.372.748-.515l-1.011-1.725Zm-1.016.703-.22.19 1.317 1.506.205-.178-1.302-1.518Zm-.202.175-.058.048 1.28 1.537.058-.049-1.28-1.536Zm-.076.064-.078.067 1.317 1.506.078-.068-1.317-1.505Zm-.053.046c-.098.08-.262.212-.416.382l1.48 1.345c.04-.043.089-.086.203-.18l-1.267-1.547Zm-.383.347c-.046.046-.084.09-.104.111l-.031.035 1.414 1.414c.045-.046.084-.09.104-.11l.031-.035-1.414-1.415Zm-.228.253-.03.038 1.6 1.2.03-.038-1.6-1.2Zm.041-.046-.145.155 1.459 1.368.145-.155-1.459-1.368Zm-.123.132-.038.039 1.414 1.414.039-.039-1.415-1.414Zm.669.746-.743-.67v.001a.182.182 0 0 1-.012.013l-.03.033-.058.06 1.414 1.415a4.271 4.271 0 0 0 .155-.164l.012-.014.003-.003.002-.002-.743-.67Zm-.895-.506c-.129.15-.256.31-.37.452l1.562 1.25c.118-.148.223-.28.327-.4L1.64 33.443Zm-.389.477-.043.058-.044.058 1.6 1.2.044-.058.043-.058-1.6-1.2Zm-.076.102-.068.087 1.579 1.228.067-.087-1.578-1.228Zm-.047.06-.048.059 1.536 1.28.048-.058-1.536-1.28Zm.72.699-.8-.6-.002.002a.5.5 0 0 0-.013.018 3.536 3.536 0 0 0-.13.191l1.715 1.03c-.007.012-.006.008.011-.015l.015-.02.004-.006-.8-.6Zm-.92-.429c-.063.096-.17.252-.26.398l1.703 1.048c.064-.105.131-.2.222-.337L.929 34.352Zm-.241.368c-.054.08-.103.162-.137.219a3.602 3.602 0 0 1-.086.139l1.664 1.109c.055-.081.103-.162.137-.22.039-.063.063-.103.086-.138l-1.664-1.11Zm-.39.912a.985.985 0 0 1 .14-.506.813.813 0 0 1 .123-.152l1.415 1.414a1.148 1.148 0 0 0 .225-.324c.003-.006.096-.188.096-.432h-2Zm.093-.43c-.06.11-.109.198-.154.274l1.715 1.029c.07-.118.138-.243.194-.346L.39 35.203Zm-.191.341-.085.165-.099.193 1.789.894.085-.164.099-.194-1.79-.894Zm-.184.358c-.067.135-.123.257-.17.362l1.82.828c.05-.108.09-.198.139-.296l-1.789-.894Zm-.189.405-.02.048 1.858.743.02-.048-1.858-.743Zm-.024.06a5.142 5.142 0 0 1-.065.159c-.026.06-.059.138-.09.219l1.867.718c.017-.045.037-.093.065-.158.025-.06.058-.139.09-.22l-1.867-.718Zm-.163.4c-.02.058-.117.299-.17.495l1.933.515c.025-.093.044-.123.12-.337l-1.883-.672Zm-.132.382c-.02.048-.033.09-.042.12l-.019.065-.003.014a.542.542 0 0 1 .016-.045l1.856.743c.02-.048.033-.09.042-.12l.019-.066.004-.013a.55.55 0 0 1-.016.044l-1.857-.742Zm.554 1.471 1.374.474.652-1.89-1.374-.475-.652 1.891Zm1.986-1.43-1.393-.416-.572 1.917 1.393.416.572-1.916Zm-2.616.192-.029.077 1.873.702.029-.077-1.873-.702Zm-.041.112-.048.145 1.897.633.048-.146-1.897-.632Zm-.06.18c-.059.202-.104.41-.142.577l1.953.434c.04-.18.071-.321.109-.448l-1.92-.564Zm-.136.551c-.037.15-.054.311-.06.36l1.984.249.013-.1c.003-.024.005-.03.004-.023l-1.94-.486Zm-.068.485v.068h2v-.068h-2Zm.026-.162-.038.165 1.946.458.04-.164-1.948-.459Zm-.051.23-.024.123 1.962.392c.01-.048.022-.11.034-.187l-1.972-.328Zm-.035.195c-.044.349-.066.7-.066 1.033h2c0-.247.017-.515.05-.785l-1.984-.248ZM-1 40.008l.174 63.08 2-.006L1 40.002l-2 .006Zm.174 63.077c0 1.893.772 3.594 2.3 4.475l.999-1.733c-.755-.435-1.299-1.365-1.299-2.742h-2Zm2.297 4.473 20.414 11.862 1.005-1.73-20.414-11.861-1.005 1.729Zm20.916 10.997-.496.868v.001h.002l.001.001.005.002c.003.003.008.005.014.008l.044.024c.007.004.105.058.211.093l.633-1.897c.032.01.055.02.065.024l.022.011.005.002-.009-.005-.002-.001h.001v.001l-.495.868Zm-.378.928a4.347 4.347 0 0 0 2.081.517v-2a2.34 2.34 0 0 1-1.13-.277l-.95 1.76Zm2.081.517c.98 0 1.945-.295 2.871-.831l-1.001-1.731c-.68.393-1.302.562-1.87.562v2Zm2.87-.831 54.895-31.694-1-1.732-54.894 31.694 1 1.732Zm54.895-31.694c1.418-.817 2.631-2.154 3.488-3.64.857-1.488 1.405-3.206 1.405-4.84h-2c0 1.21-.415 2.587-1.138 3.84-.722 1.254-1.705 2.303-2.754 2.907l.999 1.733Zm4.893-8.483-.174-63.08-2 .006.174 63.08 2-.006Zm-.174-63.077c0-1.898-.775-3.583-2.295-4.472l-1.01 1.727c.763.446 1.305 1.373 1.305 2.745h2Zm-2.297-4.473L63.862-.42l-1.005 1.73L83.272 13.17l1.004-1.73ZM63.874-.412c-.213-.128-.387-.2-.508-.25l-.769 1.846c.112.047.17.072.248.119l1.029-1.715Zm-.65-.297a.767.767 0 0 1 .099.031l.002.001-.067-.028a1.238 1.238 0 0 0-.16-.052l-.484 1.94a.767.767 0 0 1-.099-.031l-.002-.001.067.028c.03.013.088.034.16.052l.484-1.94Zm-.368-.078h-.029v2h.03v-2Zm.418.105a1.665 1.665 0 0 0-.425-.153l-.392 1.96a.602.602 0 0 1-.092-.026c-.013-.005-.012-.005.015.008l.894-1.789Zm-.378-.143-.087-.023a1.922 1.922 0 0 0-.185-.042l-.329 1.973c-.021-.003-.03-.007-.006 0l.02.005.027.008a4 4 0 0 0 .074.02l.486-1.941Zm-.436-.078a.838.838 0 0 1 .37.086L61.935.972c.113.056.297.125.525.125v-2Zm-.078-.02a.838.838 0 0 1 .37.087L61.858.952c.113.057.297.125.525.125v-2Zm.107-.002c-.214-.04-.388-.053-.514-.062l-.153 1.994c.125.01.203.016.298.034l.369-1.966ZM61.9-.99H61.812v2H61.9v-2Zm-.088 0H61.783v2H61.813v-2Zm-.029 0H61.628v2H61.784v-2Zm.553 1.707.01-.01L60.93-.707l-.01.01L62.336.717Z" fill="#002332" mask="url(#a)"/><path d="M53.134 76.683c-2.448 1.412-4.431 4.837-4.421 7.652.01 2.816 2.002 3.938 4.45 2.526 2.448-1.413 4.431-4.838 4.422-7.653-.01-2.816-1.993-3.948-4.45-2.535m.038 14.348c-2.216 1.277-4.238 1.403-5.699.57-1.46-.831-2.37-2.621-2.38-5.175-.01-2.555.89-5.39 2.342-7.905 1.45-2.515 3.463-4.711 5.679-5.989 2.215-1.277 4.237-1.412 5.698-.58 1.461.832 2.36 2.622 2.37 5.176.01 2.554-.88 5.38-2.331 7.895-1.451 2.515-3.464 4.711-5.68 5.998v.01ZM36.968 89.085c.454.262.735.813.735 1.607 0 .793-.271 1.664-.726 2.447-.455.784-1.074 1.461-1.76 1.858-.688.397-1.316.435-1.761.174-.455-.261-.736-.813-.736-1.606 0-.793.271-1.664.726-2.448.445-.783 1.074-1.46 1.76-1.857.688-.397 1.316-.436 1.771-.184l-.01.01Zm-.91 2.642v-.174l-1.703.986v.175l1.703-.987Z" stroke="#002332" stroke-width=".5" stroke-linecap="round" stroke-linejoin="round"/><path d="M84.142 15.915c0-2.332-1.664-3.27-3.686-2.1L25.56 45.51c-2.032 1.17-3.677 4.015-3.667 6.347l.174 63.08c0 2.331 1.664 3.279 3.696 2.099l54.895-31.695c2.022-1.17 3.667-4.015 3.667-6.346l-.175-63.08h-.01Z" stroke="#002332" stroke-width=".5" stroke-linecap="round" stroke-linejoin="round"/><path d="M76.944 10.081c-.61-.165-1.365-.029-2.168.435L19.882 42.211c-2.032 1.17-3.677 4.015-3.667 6.347l.174 63.079c0 1.171.416 1.984 1.084 2.371" stroke="#002332" stroke-width=".25" stroke-linecap="round" stroke-linejoin="round"/><mask id="b" fill="#fff"><path d="m65.963 34.336-.32.551c-.038.068-.096.136-.145.194a.633.633 0 0 1-.174.145.434.434 0 0 1-.174.068c-.058 0-.106 0-.155-.02l-.319-.183a.437.437 0 0 0-.252-.049.71.71 0 0 0-.29.107 1.53 1.53 0 0 0-.29.232 1.378 1.378 0 0 0-.242.329l-.31.551.223.126.31-.551c.038-.068.087-.126.145-.194.058-.058.106-.106.164-.135a.536.536 0 0 1 .184-.068c.058-.01.106 0 .155.02l.32.183a.532.532 0 0 0 .25.048.71.71 0 0 0 .29-.106c.107-.058.204-.136.3-.232.098-.097.175-.203.252-.339l.31-.551-.223-.126h-.01Z"/></mask><path d="m65.963 34.336-.32.551c-.038.068-.096.136-.145.194a.633.633 0 0 1-.174.145.434.434 0 0 1-.174.068c-.058 0-.106 0-.155-.02l-.319-.183a.437.437 0 0 0-.252-.049.71.71 0 0 0-.29.107 1.53 1.53 0 0 0-.29.232 1.378 1.378 0 0 0-.242.329l-.31.551.223.126.31-.551c.038-.068.087-.126.145-.194.058-.058.106-.106.164-.135a.536.536 0 0 1 .184-.068c.058-.01.106 0 .155.02l.32.183a.532.532 0 0 0 .25.048.71.71 0 0 0 .29-.106c.107-.058.204-.136.3-.232.098-.097.175-.203.252-.339l.31-.551-.223-.126h-.01Z" fill="#F0B7A5"/><path d="M65.963 34.336v-1h-.577l-.289.499.866.5Zm-.32.551-.865-.5-.003.004.868.496Zm-.319.339-.496-.868-.03.017-.029.019.555.832Zm-.174.068v1h.083l.081-.014-.164-.986Zm-.155-.02-.499.867.062.035.066.027.371-.929Zm-.319-.183.499-.867-.025-.015-.027-.013-.447.895Zm-1.074.619.872.49.004-.008.005-.008-.88-.474Zm-.31.551-.872-.49-.488.87.868.49.492-.87Zm.223.126-.492.87.873.494.491-.874-.872-.49Zm.31-.551-.869-.497-.003.007.872.49Zm.145-.194-.707-.707-.027.027-.025.03.759.65Zm.164-.135.447.894.025-.012.024-.014-.496-.868Zm.339-.049.499-.866-.062-.036-.066-.026-.371.928Zm.32.184-.5.867.026.014.026.013.447-.894Zm.25.048v1h.05l.05-.005-.1-.995Zm.29-.106-.478-.878-.018.01-.018.01.515.858Zm.552-.57.869.495.003-.006-.872-.49Zm.31-.552.872.49.488-.87-.868-.49-.492.87Zm-.223-.126.493-.87-.23-.13h-.263v1Zm-.875-.501-.319.551 1.73 1.002.32-.551-1.73-1.002Zm-.322.556.015-.023c0-.002 0 0-.005.006a.962.962 0 0 1-.02.025l-.035.042 1.537 1.28c.025-.03.152-.175.245-.337l-1.737-.993Zm-.045.05a.368.368 0 0 1 .098-.083l.992 1.736c.168-.096.32-.22.447-.373l-1.537-1.28Zm.04-.047a.572.572 0 0 1 .216-.087l.328 1.973c.173-.029.37-.092.565-.222l-1.11-1.664Zm.38-.1h-.019l.033.002a.744.744 0 0 1 .203.05l-.743 1.857c.257.103.502.09.526.09v-2Zm.344.114-.32-.184-.997 1.733.32.184.997-1.733Zm-.37-.212c-.22-.11-.486-.18-.8-.149l.2 1.99a.567.567 0 0 1-.295-.052l.894-1.789Zm-.8-.149c-.29.03-.53.14-.704.244l1.029 1.715-.019.008a.425.425 0 0 1-.106.023l-.2-1.99Zm-.704.244c-.18.108-.34.24-.483.383l1.414 1.414a.55.55 0 0 1 .098-.082l-1.03-1.715Zm-.483.383a2.374 2.374 0 0 0-.415.562l1.76.948a.384.384 0 0 1 .07-.096l-1.415-1.414Zm-.407.546-.31.552 1.745.979.31-.552-1.745-.979Zm.07 1.912.223.126.984-1.742-.223-.125-.984 1.74Zm1.587-.255.31-.552-1.744-.979-.31.552 1.744.978Zm.306-.545c-.01.015-.015.022-.01.017a.75.75 0 0 1 .046-.056l-1.518-1.302c-.055.064-.163.188-.255.348l1.737.993Zm-.016.017.03-.03-.001.001a.606.606 0 0 1-.125.081l-.894-1.789c-.231.116-.397.295-.424.323l1.414 1.414Zm-.047.026a.5.5 0 0 1-.148.05l-.328-1.972c-.18.03-.35.09-.516.185l.992 1.737Zm-.148.05a.739.739 0 0 1-.38-.038l.742-1.857a1.275 1.275 0 0 0-.69-.078l.328 1.973Zm-.508-.1.32.184.997-1.734-.32-.183-.997 1.733Zm.37.211c.279.14.535.154.7.154v-2c-.019 0 .002 0 .04.006.045.008.1.024.155.052l-.894 1.788Zm.8.15c.29-.03.53-.14.704-.245l-1.029-1.715c-.007.005 0 0 .019-.007a.425.425 0 0 1 .106-.024l.2 1.99Zm.669-.224c.212-.116.384-.26.528-.403l-1.414-1.414a.373.373 0 0 1-.072.061l.958 1.756Zm.528-.403c.174-.174.302-.356.413-.55l-1.737-.992a.56.56 0 0 1-.09.128l1.414 1.414Zm.416-.556.31-.552-1.744-.979-.31.552 1.744.979Zm-.07-1.912-.222-.126-.985 1.741.223.126.984-1.74Zm-.715-.255h-.01v2h.01v-2Z" fill="#002332" mask="url(#b)"/><mask id="c" fill="#fff"><path d="M63.815 34.849a1.26 1.26 0 0 1 .145-.194c.058-.058.116-.107.174-.145a.436.436 0 0 1 .174-.068c.058-.01.107 0 .155.02l.32.183a.437.437 0 0 0 .25.049.576.576 0 0 0 .291-.097.967.967 0 0 0 .29-.242 1.54 1.54 0 0 0 .252-.339l.32-.551-.223-.116-.32.551c-.038.068-.096.136-.145.194a.708.708 0 0 1-.174.135.312.312 0 0 1-.174.058c-.058 0-.107 0-.155-.019l-.32-.184a.437.437 0 0 0-.25-.048.576.576 0 0 0-.29.096 1.277 1.277 0 0 0-.291.233 1.376 1.376 0 0 0-.242.329l-.32.551.223.116.31-.551v.038Z"/></mask><path d="M63.815 34.849a1.26 1.26 0 0 1 .145-.194c.058-.058.116-.107.174-.145a.436.436 0 0 1 .174-.068c.058-.01.107 0 .155.02l.32.183a.437.437 0 0 0 .25.049.576.576 0 0 0 .291-.097.967.967 0 0 0 .29-.242 1.54 1.54 0 0 0 .252-.339l.32-.551-.223-.116-.32.551c-.038.068-.096.136-.145.194a.708.708 0 0 1-.174.135.312.312 0 0 1-.174.058c-.058 0-.107 0-.155-.019l-.32-.184a.437.437 0 0 0-.25-.048.576.576 0 0 0-.29.096 1.277 1.277 0 0 0-.291.233 1.376 1.376 0 0 0-.242.329l-.32.551.223.116.31-.551v.038Z" fill="#F0B7A5"/><path d="M63.815 34.849h-1v3.765l1.868-3.27-.868-.495Zm.145-.194-.707-.707-.027.027-.025.03.759.65Zm.503-.194.499-.866-.062-.036-.066-.026-.371.928Zm.32.184-.5.867.026.015.026.013.447-.895Zm.25.049v-1h-.049l-.05.005.1.995Zm.291-.097-.479-.878-.018.01-.017.01.514.858Zm.29-.242-.707-.707-.035.035-.032.039.774.633Zm.252-.339-.866-.5-.002.004.868.496Zm.32-.551.865.501.523-.904-.926-.484-.463.887Zm-.223-.116.462-.887-.848-.442-.48.828.866.5Zm-.32.551-.865-.5-.003.004.868.496Zm-.145.194.707.707.032-.032.03-.035-.769-.64Zm-.174.135-.447-.894-.056.028-.052.034.555.832Zm-.329.039-.499.867.062.035.066.026.371-.928Zm-.32-.184.5-.867-.026-.014-.026-.013-.447.894Zm-.25-.048v1h.05l.049-.005-.1-.995Zm-.29.096.478.878.018-.01.018-.01-.515-.858Zm-.533.562.865.5.008-.013.008-.013-.881-.474Zm-.32.551-.865-.5-.523.903.926.484.463-.887Zm.223.116-.462.887.86.448.474-.845-.872-.49Zm.31-.551h1v-3.824l-1.872 3.334.872.49Zm.868.535c-.009.015-.015.022-.01.016a.629.629 0 0 1 .046-.055l-1.518-1.302c-.055.064-.163.188-.254.348l1.736.993Zm-.016.017c.02-.02.027-.024.022-.02l-1.11-1.664a2.15 2.15 0 0 0-.326.27l1.414 1.414Zm.022-.02a.576.576 0 0 1-.216.087l-.33-1.973c-.172.028-.368.092-.564.222l1.11 1.664Zm-.216.087a.739.739 0 0 1-.381-.039l.742-1.857a1.276 1.276 0 0 0-.69-.077l.329 1.972Zm-.509-.1.32.183.997-1.733-.319-.184-.998 1.733Zm.371.21c.22.11.486.181.798.15l-.199-1.99a.564.564 0 0 1 .296.052l-.895 1.789Zm.699.155c.359 0 .64-.141.805-.24l-1.03-1.715c-.008.006.006-.004.04-.016.035-.012.099-.03.185-.03v2Zm.769-.22c.217-.117.415-.277.585-.486l-1.548-1.266-.002.003a.064.064 0 0 1 .006-.005l.001-.001.958 1.756Zm.519-.412c.173-.174.302-.356.412-.55l-1.736-.992a.553.553 0 0 1-.09.128l1.413 1.414Zm.41-.544.319-.552-1.731-1.002-.32.551 1.731 1.002Zm-.084-1.94-.223-.116-.925 1.773.223.117.925-1.774Zm-1.55.27-.32.551 1.73 1.002.32-.551-1.73-1.002Zm-.323.556a.335.335 0 0 1 .014-.023l-.004.006a1.218 1.218 0 0 1-.02.025l-.035.042 1.536 1.28c.026-.03.153-.175.246-.337l-1.737-.993Zm.016-.017c-.01.01-.01.01 0 .001a.504.504 0 0 1 .086-.053l.894 1.789c.201-.1.35-.238.434-.323l-1.414-1.414Zm-.022.01a.692.692 0 0 1 .381-.11v2c.292 0 .54-.1.729-.226l-1.11-1.664Zm.381-.11h-.019l.033.002a.74.74 0 0 1 .203.05l-.743 1.858c.257.102.502.09.526.09v-2Zm.344.114-.32-.184-.997 1.734.32.184.997-1.734Zm-.37-.211c-.22-.11-.486-.18-.8-.15l.2 1.99a.566.566 0 0 1-.295-.051l.894-1.79Zm-.7-.154c-.359 0-.64.14-.804.239l1.029 1.715c.008-.005-.006.005-.04.016a.567.567 0 0 1-.185.03v-2Zm-.769.219a2.26 2.26 0 0 0-.518.403l1.414 1.414c.038-.039.058-.056.069-.065.008-.007.005-.003-.007.003l-.958-1.755Zm-.518.403a2.374 2.374 0 0 0-.416.562l1.762.948a.381.381 0 0 1 .068-.096l-1.414-1.414Zm-.4.535-.32.551 1.731 1.002.32-.551-1.731-1.002Zm.083 1.939.223.116.925-1.773-.223-.116-.925 1.773Zm1.557-.281.31-.552-1.744-.979-.31.552 1.744.979Zm-1.562-1.041v.038h2v-.038h-2Z" fill="#002332" mask="url(#c)"/><mask id="d" fill="#fff"><path d="M63.815 33.871c.038-.067.097-.135.145-.193a1.02 1.02 0 0 1 .164-.136.434.434 0 0 1 .175-.067c.058-.01.106 0 .154.02l.32.183a.437.437 0 0 0 .251.048.71.71 0 0 0 .29-.106 1.1 1.1 0 0 0 .29-.232c.097-.097.184-.213.252-.339l.32-.551-.223-.126-.32.551c-.038.068-.096.136-.144.194a.77.77 0 0 1-.175.145.433.433 0 0 1-.174.068.322.322 0 0 1-.145-.03l-.32-.183a.437.437 0 0 0-.25-.049.71.71 0 0 0-.29.107 1.277 1.277 0 0 0-.291.232 1.6 1.6 0 0 0-.242.329l-.32.551.223.126.32-.551-.01.01Z"/></mask><path d="M63.815 33.871c.038-.067.097-.135.145-.193a1.02 1.02 0 0 1 .164-.136.434.434 0 0 1 .175-.067c.058-.01.106 0 .154.02l.32.183a.437.437 0 0 0 .251.048.71.71 0 0 0 .29-.106 1.1 1.1 0 0 0 .29-.232c.097-.097.184-.213.252-.339l.32-.551-.223-.126-.32.551c-.038.068-.096.136-.144.194a.77.77 0 0 1-.175.145.433.433 0 0 1-.174.068.322.322 0 0 1-.145-.03l-.32-.183a.437.437 0 0 0-.25-.049.71.71 0 0 0-.29.107 1.277 1.277 0 0 0-.291.232 1.6 1.6 0 0 0-.242.329l-.32.551.223.126.32-.551-.01.01Z" fill="#F0B7A5"/><path d="m63.815 33.871-.868-.496 1.575 1.203-.707-.707Zm.145-.193-.707-.707-.032.032-.03.035.769.64Zm.493-.184.5-.867-.062-.035-.066-.026-.372.928Zm.32.184-.5.867.026.014.026.013.448-.894Zm.541-.058-.478-.878-.019.01-.017.01.514.858Zm.29-.232-.706-.707-.019.018-.018.02.744.669Zm.252-.339-.865-.501-.008.013-.007.014.88.474Zm.32-.551.865.5.506-.874-.88-.497-.492.87Zm-.223-.126.492-.87-.862-.488-.495.857.865.5Zm-.32.551-.865-.5-.003.004.869.496Zm-.144.194.759.65.009-.01-.768-.64Zm-.349.213v1h.083l.082-.014-.165-.986Zm-.145-.03-.499.867.026.015.026.013.447-.894Zm-.32-.183.5-.867-.026-.014-.026-.014-.447.895Zm-.54.058.478.878.018-.01.018-.01-.515-.858Zm-.533.561-.864-.504-.001.003.865.501Zm-.32.551-.865-.5-.506.874.88.497.492-.87Zm.223.126-.492.87.862.488.496-.857-.866-.5Zm.32-.551.865.5-1.573-1.207.708.707Zm.858.506-.014.023.004-.006.02-.025.035-.042-1.536-1.28c-.026.03-.153.175-.245.337l1.736.993Zm-.016.017.008-.008c.001-.001.001 0 0 0l-.001.001.005-.004-1.11-1.664a2.02 2.02 0 0 0-.316.26l1.414 1.415Zm.012-.01a.572.572 0 0 1-.216.086l-.329-1.973c-.172.03-.37.092-.564.222l1.11 1.664Zm-.216.086a.736.736 0 0 1-.381-.038l.743-1.857a1.275 1.275 0 0 0-.69-.078l.328 1.973Zm-.509-.1.32.184.998-1.734-.32-.184-.998 1.734Zm.371.211c.22.11.486.18.799.15l-.2-1.99a.566.566 0 0 1 .296.051l-.895 1.79Zm.799.15c.291-.03.531-.14.705-.245l-1.03-1.715c-.006.005 0 0 .02-.007a.425.425 0 0 1 .106-.024l.199 1.99Zm.67-.224c.212-.116.397-.267.554-.441l-1.487-1.338c-.017.019-.025.023-.025.023l.957 1.756Zm.518-.403c.165-.165.31-.36.425-.572l-1.761-.948a.472.472 0 0 1-.078.106l1.414 1.414Zm.41-.545L67.04 33l-1.731-1.002-.32.551 1.732 1.002Zm-.054-1.923-.223-.126-.984 1.741.222.126.984-1.741Zm-1.58.244-.32.551 1.731 1.002.32-.551-1.731-1.002Zm-.323.556.015-.023-.005.006a1.165 1.165 0 0 1-.02.025l-.035.042 1.537 1.28c.025-.03.152-.175.245-.338l-1.737-.992Zm-.036.039a.384.384 0 0 1 .052-.05l.005-.004-.026.018 1.11 1.664c.059-.04.221-.144.378-.326l-1.519-1.302Zm.03-.036a.572.572 0 0 1 .217-.087l.329 1.973c.172-.029.369-.092.564-.222l-1.11-1.664Zm.381-.1c.047 0 .163.007.302.076l-.894 1.789c.217.108.43.135.592.135v-2Zm.354.104-.32-.184-.997 1.733.32.184.997-1.733Zm-.37-.212c-.22-.11-.486-.18-.8-.149l.2 1.99a.56.56 0 0 1-.295-.052l.894-1.789Zm-.8-.149c-.29.03-.53.14-.704.244l1.029 1.715-.019.008a.425.425 0 0 1-.106.023l-.2-1.99Zm-.669.224a2.26 2.26 0 0 0-.518.403l1.414 1.414a1.03 1.03 0 0 1 .069-.064c.008-.007.005-.004-.007.003l-.958-1.756Zm-.518.403a2.59 2.59 0 0 0-.399.532l1.728 1.008a1.2 1.2 0 0 1 .085-.126L63.137 32.7Zm-.4.535-.32.551 1.731 1.002.32-.551-1.731-1.002Zm.054 1.923.222.126.984-1.741-.222-.126-.984 1.741Zm1.58-.244.319-.551-1.73-1.002-.32.551 1.73 1.002Zm-1.254-1.76-.01.01 1.415 1.414.01-.01-1.415-1.413Z" fill="#002332" mask="url(#d)"/><mask id="e" fill="#fff"><path d="M35.826 51.315a.818.818 0 0 1 .096.387c0 .261-.077.532-.241.813-.155.27-.349.483-.58.61-.233.125-.426.144-.581.057-.165-.096-.242-.27-.242-.532 0-.155.029-.32.087-.503.058-.174.155-.338.27-.493v-1.055c0-.145.04-.3.127-.455a.922.922 0 0 1 .328-.338c.126-.068.242-.087.33-.039.096.048.135.145.135.3v1.055c.116.019.203.077.27.183v.01Zm-.368 1.074c.097-.174.155-.339.155-.503 0-.126-.039-.213-.116-.271a.73.73 0 0 0-.252-.106V50.27l-.048-.097h-.107l-.106.126-.048.155v1.238a2.822 2.822 0 0 0-.242.407.79.79 0 0 0-.107.396c0 .165.049.281.145.339.107.058.223.048.368-.039s.271-.212.368-.387"/></mask><path d="M35.826 51.315a.818.818 0 0 1 .096.387c0 .261-.077.532-.241.813-.155.27-.349.483-.58.61-.233.125-.426.144-.581.057-.165-.096-.242-.27-.242-.532 0-.155.029-.32.087-.503.058-.174.155-.338.27-.493v-1.055c0-.145.04-.3.127-.455a.922.922 0 0 1 .328-.338c.126-.068.242-.087.33-.039.096.048.135.145.135.3v1.055c.116.019.203.077.27.183v.01Zm-.368 1.074c.097-.174.155-.339.155-.503 0-.126-.039-.213-.116-.271a.73.73 0 0 0-.252-.106V50.27l-.048-.097h-.107l-.106.126-.048.155v1.238a2.822 2.822 0 0 0-.242.407.79.79 0 0 0-.107.396c0 .165.049.281.145.339.107.058.223.048.368-.039s.271-.212.368-.387" fill="#F0B7A5"/><path d="M35.826 51.315h-1v.255l.122.224.878-.479Zm-.145 1.2-.863-.506-.006.01.869.496Zm-1.161.667-.507.862.008.005.008.005.49-.872Zm-.155-1.035-.949-.316-.002.007-.003.008.954.301Zm.27-.493.8.6.2-.267v-.333h-1Zm.127-1.51-.848-.53-.013.02-.011.02.872.49Zm.657-.377-.485.874.019.01.02.01.447-.894Zm.136 1.355h-1v.847l.836.139.164-.986Zm.27.183h1v-.29l-.156-.246-.843.536Zm-.328.31.6-.8-.034-.026-.036-.022-.53.848Zm-.252-.106h-1v.82l.804.16.196-.98Zm0-1.239h1v-.236l-.105-.211-.895.447Zm-.048-.097.894-.447-.276-.553h-.618v1Zm-.107 0v-1h-.463l-.3.355.764.645Zm-.106.126-.763-.646-.131.155-.06.193.954.298Zm-.048.155-.955-.298-.045.145v.153h1Zm0 1.238.822.57.178-.257v-.313h-1Zm-.242.407.868.496.02-.036.018-.037-.906-.423Zm.038.735-.514.857.018.011.018.01.479-.878Zm.216-1.04a.217.217 0 0 1-.02-.049.171.171 0 0 1-.005-.043h2c0-.318-.084-.617-.22-.866l-1.755.958Zm-.026-.092c0 .055-.014.153-.104.307l1.725 1.011c.24-.407.38-.85.38-1.318h-2Zm-.11.317c-.093.163-.167.214-.188.226l.953 1.759c.443-.24.755-.614.972-.993l-1.737-.992Zm-.188.226c-.039.02-.016 0 .057-.007a.57.57 0 0 1 .329.073l-.98 1.743c.582.328 1.17.153 1.547-.05l-.953-1.759Zm.403.075a.555.555 0 0 1 .221.246c.037.08.03.123.03.084h-2c0 .458.15 1.05.735 1.394l1.014-1.724Zm.25.33c0-.028.006-.089.041-.202l-1.907-.602a2.66 2.66 0 0 0-.133.804h2Zm.037-.187a.795.795 0 0 1 .122-.21l-1.6-1.2c-.157.21-.317.47-.42.778l1.898.632Zm.322-.81V50.6h-2v1.055h2Zm0-1.054c0 .017-.003.03-.005.037-.002.007-.002.007.002-.001l-1.743-.98a1.924 1.924 0 0 0-.254.944h2Zm-.026.075a.473.473 0 0 1 .023-.034l.005-.006a.303.303 0 0 1-.073.052l-.949-1.76a1.913 1.913 0 0 0-.702.688l1.696 1.06Zm-.045.012a.487.487 0 0 1-.166.048.763.763 0 0 1-.465-.093l.971-1.748c-.543-.302-1.067-.087-1.289.032l.949 1.761Zm-.593-.025a.786.786 0 0 1-.364-.382.654.654 0 0 1-.048-.157c-.005-.033-.005-.054-.005-.055h2c0-.29-.08-.89-.688-1.194l-.895 1.788Zm-.417-.594v1.055h2v-1.055h-2Zm.836 2.041a.622.622 0 0 1-.409-.266l1.688-1.073a1.377 1.377 0 0 0-.95-.634l-.33 1.973Zm-.565-.803v.01h2v-.01h-2Zm1.506 1.57c.139-.25.281-.587.281-.99h-2c0-.036.007-.057.006-.055l-.008.02a.681.681 0 0 1-.027.053l1.748.972Zm.281-.99c0-.352-.124-.776-.516-1.07l-1.2 1.6a.731.731 0 0 1-.23-.293.605.605 0 0 1-.054-.236h2Zm-.586-1.118a1.726 1.726 0 0 0-.586-.239l-.392 1.961a.36.36 0 0 1-.074-.023c-.017-.008-.022-.012-.008-.003l1.06-1.696Zm.218.742V50.27h-2v1.239h2Zm-.105-1.686-.049-.097-1.788.895.048.096 1.789-.894Zm-.943-.65h-.107v2h.107v-2Zm-.87.355-.106.125 1.527 1.292.106-.126-1.527-1.291ZM34.03 50l-.049.155 1.91.596.048-.155-1.91-.596Zm-.094.453v1.238h2v-1.238h-2Zm.178.67a3.793 3.793 0 0 0-.326.552l1.812.846c.032-.069.081-.15.158-.26l-1.645-1.139Zm-.288.479a1.79 1.79 0 0 0-.239.892h2a.212.212 0 0 1-.025.1l-1.736-.992Zm-.239.892c0 .326.1.878.631 1.197l1.029-1.715a.733.733 0 0 1 .297.336.486.486 0 0 1 .043.182h-2Zm.667 1.217c.221.12.477.18.747.152a1.48 1.48 0 0 0 .614-.211l-1.03-1.715c.01-.005.086-.05.217-.064.15-.015.294.02.41.082l-.958 1.756Zm1.36-.06c.3-.178.548-.434.728-.758l-1.748-.971a.147.147 0 0 1-.01.015l-.002.003.002-.002.002-.001 1.029 1.715Z" fill="#002332" mask="url(#e)"/><path d="M73.074 68.236c.454.262.735.813.735 1.606 0 .794-.271 1.665-.726 2.448-.454.784-1.074 1.461-1.76 1.858-.688.396-1.316.435-1.761.174-.455-.261-.736-.813-.745-1.597-.01-.783.28-1.673.725-2.457.445-.784 1.074-1.46 1.761-1.857.687-.397 1.316-.436 1.77-.184v.01Z" stroke="#002332" stroke-width=".5" stroke-linecap="round" stroke-linejoin="round"/><path d="M72.164 70.887v-.174l-.784.445v-.89l-.145.087v.89l-.774.445v.174l.774-.445v.89l.155-.087-.01-.89.784-.445Z" stroke="#002332" stroke-width=".5" stroke-linecap="round" stroke-linejoin="round"/><mask id="f" fill="#fff"><path d="M72.261 29.14c-.116-.203-.261-.31-.455-.329l-.067.136-.107.164s-.087.078-.135.107c-.087.048-.155.058-.213.029-.058-.039-.097-.097-.097-.194v-.59a8.09 8.09 0 0 0-.91 1.538c-.212.503-.319.939-.319 1.306 0 .397.126.668.368.804.242.135.532.106.87-.087.35-.204.64-.504.881-.92.242-.416.358-.822.358-1.219 0-.29-.058-.532-.174-.735v-.01Zm-.842 2.284a.575.575 0 0 1-.222.232c-.087.048-.155.058-.213.02-.058-.04-.097-.098-.097-.194l.02-.145.058-.146.222-.425.223.164.058.078.02.116a.62.62 0 0 1-.088.3h.02Zm.62-.871a2.306 2.306 0 0 1-.233.493V30.94a.538.538 0 0 0-.038-.223.428.428 0 0 0-.116-.145l-.465-.329-.454.861a2.06 2.06 0 0 0-.117.271.916.916 0 0 0-.038.271v.097a.537.537 0 0 1-.233-.232.789.789 0 0 1-.087-.387c0-.116.01-.252.04-.387.019-.126.067-.28.115-.426.058-.155.116-.3.194-.464.077-.155.164-.32.27-.484a.382.382 0 0 0 .213.29c.117.039.242.01.397-.077a1.15 1.15 0 0 0 .174-.126c.049-.048.107-.107.155-.174a.9.9 0 0 1 .223.329c.048.135.077.29.077.454 0 .155-.029.33-.077.494Z"/></mask><path d="M72.261 29.14c-.116-.203-.261-.31-.455-.329l-.067.136-.107.164s-.087.078-.135.107c-.087.048-.155.058-.213.029-.058-.039-.097-.097-.097-.194v-.59a8.09 8.09 0 0 0-.91 1.538c-.212.503-.319.939-.319 1.306 0 .397.126.668.368.804.242.135.532.106.87-.087.35-.204.64-.504.881-.92.242-.416.358-.822.358-1.219 0-.29-.058-.532-.174-.735v-.01Zm-.842 2.284a.575.575 0 0 1-.222.232c-.087.048-.155.058-.213.02-.058-.04-.097-.098-.097-.194l.02-.145.058-.146.222-.425.223.164.058.078.02.116a.62.62 0 0 1-.088.3h.02Zm.62-.871a2.306 2.306 0 0 1-.233.493V30.94a.538.538 0 0 0-.038-.223.428.428 0 0 0-.116-.145l-.465-.329-.454.861a2.06 2.06 0 0 0-.117.271.916.916 0 0 0-.038.271v.097a.537.537 0 0 1-.233-.232.789.789 0 0 1-.087-.387c0-.116.01-.252.04-.387.019-.126.067-.28.115-.426.058-.155.116-.3.194-.464.077-.155.164-.32.27-.484a.382.382 0 0 0 .213.29c.117.039.242.01.397-.077a1.15 1.15 0 0 0 .174-.126c.049-.048.107-.107.155-.174a.9.9 0 0 1 .223.329c.048.135.077.29.077.454 0 .155-.029.33-.077.494Z" fill="#F0B7A5"/><path d="M72.261 29.14h1v-.265l-.132-.23-.868.495Zm-.455-.329.1-.995-.686-.068-.308.616.894.447Zm-.067.136.84.543.03-.046.024-.05-.894-.447Zm-.107.164.665.748.101-.09.074-.114-.84-.544Zm-.135.107.485.874.015-.008.014-.009-.514-.857Zm-.213.029-.555.832.052.034.056.028.447-.894Zm-.097-.784h1v-3.03l-1.803 2.435.803.595Zm-.91 1.538-.914-.404-.003.007-.003.008.92.39Zm.92 2.022.496.869.008-.005-.504-.864Zm1.064-2.873h-1v.266l.132.23.868-.496Zm-.842 2.274.878.479.807-1.48h-1.685v1Zm-.532.058-.991-.133-.009.066v.067h1Zm.02-.145-.929-.372-.046.116-.017.123.992.133Zm.058-.146-.887-.463-.023.045-.019.047.929.371Zm.222-.425.595-.804-.94-.695-.541 1.035.886.464Zm.223.164.8-.6-.088-.117-.118-.087-.594.804Zm.058.078.986-.165-.04-.24-.146-.195-.8.6Zm.02.116h1v-.083l-.014-.082-.987.165Zm-.088.3-.878-.48-.806 1.48H71.4v-1Zm.639-.871.948.316.006-.017.005-.017-.96-.282Zm-.233.493h-1v3.487l1.848-2.957-.848-.53Zm-.038-.329.919-.394-.012-.027-.013-.026-.894.447Zm-.116-.145.624-.78-.022-.019-.024-.017-.578.816Zm-.465-.329.578-.816-.93-.659-.532 1.008.884.467Zm-.454.861-.885-.467-.005.01-.005.01.895.447Zm-.117.271-.948-.316-.005.014-.004.015.957.287Zm-.038.368-.448.894 1.448.724v-1.618h-1Zm-.28-1.006.977.21.006-.03.004-.028-.988-.152Zm.115-.426-.936-.351-.007.017-.005.018.948.316Zm.194-.464-.895-.448-.005.011-.005.01.905.427Zm.27-.484.981-.196-.483-2.414-1.337 2.067.84.543Zm.213.29-.413.91.047.022.05.017.316-.949Zm.397-.077.49.871.006-.003-.496-.868Zm.174-.126.64.768.035-.029.032-.032-.707-.707Zm.155-.174.669-.744-.832-.748-.65.91.813.582Zm.223.329.941-.337-.01-.029-.012-.028-.92.394Zm1.09-.96c-.236-.413-.634-.77-1.223-.829l-.2 1.99a.49.49 0 0 1-.23-.09c-.069-.05-.09-.093-.083-.08l1.736-.992Zm-2.217-.28-.068.135 1.79.894.067-.135-1.789-.895Zm-.013.039-.106.164 1.679 1.087.106-.165-1.679-1.086Zm.733.707-.664-.747.001-.001-.005.004-.018.016c-.03.025-.012.006.036-.023l1.03 1.715c.096-.058.183-.13.207-.15l.053-.045.016-.014.005-.004.002-.002h.001v-.001l-.664-.748Zm-.62-.767a.671.671 0 0 1 .23-.073.842.842 0 0 1 .49.081l-.895 1.79c.491.245.938.065 1.145-.05l-.97-1.748Zm.827.07a.793.793 0 0 1 .348.64h-2a1.209 1.209 0 0 0 .542 1.026l1.11-1.665Zm.348.64v-.59h-2v.59h2Zm-1.803-1.186a9.09 9.09 0 0 0-1.02 1.729l1.828.809c.19-.429.451-.878.799-1.348l-1.607-1.19Zm-1.027 1.744c-.242.572-.398 1.145-.398 1.696h2c0-.186.056-.483.24-.917l-1.842-.78Zm-.398 1.696c0 .592.198 1.294.879 1.675l.977-1.745a.376.376 0 0 1 .145.152c.015.031-.001.016-.001-.082h-2Zm.879 1.675c.664.372 1.349.198 1.855-.091l-.992-1.737c-.087.05-.108.044-.075.04a.353.353 0 0 1 .189.043l-.977 1.745Zm1.863-.096c.52-.303.926-.739 1.24-1.28l-1.728-1.005c-.17.29-.343.455-.52.558l1.008 1.727Zm1.24-1.28c.317-.543.494-1.121.494-1.722h-2c0 .193-.054.428-.222.717l1.729 1.005Zm.494-1.722c0-.426-.086-.847-.306-1.231l-1.736.992c.013.022.042.085.042.24h2Zm-.174-.735v-.01h-2v.01h2Zm-2.72 1.795a.43.43 0 0 1 .17-.163l.972 1.748c.266-.148.474-.37.614-.628l-1.755-.957Zm.17-.163a.7.7 0 0 1 .266-.079.86.86 0 0 1 .562.14l-1.11 1.664c.534.356 1.057.132 1.254.023l-.972-1.748Zm.828.061a.794.794 0 0 1 .348.639h-2a1.208 1.208 0 0 0 .542 1.025l1.11-1.664Zm.34.77.019-.144-1.983-.265-.019.145 1.983.265Zm-.044.095.058-.145-1.857-.743-.058.145 1.857.743Zm.016-.053.222-.426-1.772-.927-.223.426 1.773.927Zm-1.258-.085.222.164 1.19-1.608-.223-.164-1.19 1.608Zm.017-.04.058.078 1.6-1.2-.058-.078-1.6 1.2Zm-.129-.358.02.116 1.972-.329-.019-.116-1.973.33Zm.006-.048c0-.116.038-.184.035-.18l1.756.959c.113-.209.21-.47.21-.78h-2Zm.913 1.3h.02v-2h-.02v2Zm-.31-2.187c-.033.1-.077.192-.132.28l1.696 1.06c.14-.223.25-.46.333-.708l-1.897-.632Zm1.716.81v-.059h-2v.058h2Zm0-.059v-.048h-2v.048h2Zm0-.048c0-.167-.019-.382-.12-.617l-1.838.788a.557.557 0 0 1-.037-.125c-.005-.035-.005-.054-.005-.046h2Zm-.144-.67a1.429 1.429 0 0 0-.386-.479l-1.25 1.562a.571.571 0 0 1-.153-.188l1.79-.895Zm-.432-.514-.465-.329-1.156 1.632.465.33 1.156-1.633Zm-1.927.02-.455.861 1.769.934.454-.86-1.768-.935Zm-.465.881c-.06.119-.12.253-.17.402l1.897.633c.008-.025.025-.066.062-.14l-1.789-.895Zm-.18.43c-.06.205-.08.39-.08.56h2v.001a.09.09 0 0 1-.004.015l-1.915-.575Zm-.08.56v.048h2v-.049h-2Zm0 .048v.048h2v-.048h-2Zm1.447-.846a.5.5 0 0 1 .198.183l-1.755.957c.143.264.361.498.662.648l.895-1.788Zm.198.183a.328.328 0 0 1 .032.082c.005.02.003.025.003.01h-2c0 .283.055.581.21.866l1.755-.958Zm.035.092c0-.065.006-.127.017-.178l-1.956-.419c-.047.22-.06.429-.06.597h2Zm.028-.235c.004-.03.025-.11.076-.262l-1.897-.632a3.769 3.769 0 0 0-.156.59l1.977.304Zm.064-.227c.052-.14.1-.258.162-.39l-1.81-.851c-.093.197-.162.37-.225.539l1.873.702Zm.151-.368c.07-.141.139-.268.216-.388l-1.679-1.086a5.96 5.96 0 0 0-.326.58l1.79.894Zm-1.604-.735c.084.42.344.807.78 1.005l.827-1.821a.652.652 0 0 1 .251.201.56.56 0 0 1 .103.223l-1.961.392Zm.877 1.043c.513.17.953-.014 1.203-.155l-.98-1.743c-.024.014.006-.008.078-.022a.654.654 0 0 1 .332.023l-.633 1.897Zm1.21-.158c.146-.084.25-.17.317-.226l-1.28-1.536a1.62 1.62 0 0 1-.038.03l.003-.001a.07.07 0 0 1 .005-.003l.992 1.736Zm.384-.287c.042-.041.158-.155.262-.3l-1.628-1.162c.007-.01.008-.01 0 0l-.048.048 1.414 1.414Zm-1.22-.138a.265.265 0 0 1-.038-.042c-.006-.008-.002-.004.01.022l1.838-.788a1.893 1.893 0 0 0-.473-.678l-1.338 1.486Zm-.051-.078c.01.03.019.07.019.119h2c0-.281-.05-.55-.136-.792l-1.883.673Zm.019.119c0 .04-.01.117-.037.21l1.919.565c.07-.236.118-.506.118-.776h-2Z" fill="#002332" mask="url(#f)"/><path d="M81.055 13.525c.087-.029.175-.067.262-.087.058-.019.106-.029.164-.048l.145-.029.194-.029c.039 0 .077 0 .106-.01h.29c.097 0 .184.02.271.039.02 0 .039.01.068.02l.203.057c.02 0 .039.01.058.02.087.029.165.067.242.116L62.644 1.713s-.01 0-.019-.01c-.058-.03-.126-.068-.184-.087-.01 0-.029 0-.038-.01a.137.137 0 0 1-.059-.02c-.029-.009-.067-.028-.096-.038-.039-.01-.068-.02-.107-.029-.02 0-.038-.01-.067-.02h-.04l-.222-.028h-.29c-.039 0-.077 0-.106.01-.04 0-.068 0-.107.01a.283.283 0 0 0-.087.018c-.048 0-.097.02-.145.03-.029 0-.058.01-.087.019-.03 0-.058.02-.087.029l-.261.087c-.03.01-.058.02-.097.029-.02 0-.039.02-.049.029-.154.068-.3.135-.464.232L5.137 33.65c-.232.136-.464.3-.687.484-.077.058-.145.126-.212.184-.107.096-.223.184-.33.28-.048.049-.086.097-.135.145-.039.039-.077.087-.126.136-.048.048-.096.096-.145.155a5.503 5.503 0 0 0-.3.367c-.029.039-.067.087-.096.136a.292.292 0 0 0-.049.067c-.029.049-.067.087-.096.136a6.137 6.137 0 0 0-.213.32c-.068.105-.126.202-.194.309 0 0 0 .019-.01.019 0 0 0 .01-.01.02l-.144.26a4.619 4.619 0 0 0-.155.31 3.57 3.57 0 0 0-.126.28v.04a4.718 4.718 0 0 0-.135.328 5.017 5.017 0 0 0-.126.349c-.02.058-.039.116-.048.174 0 .029-.02.048-.02.077-.01.039-.029.087-.039.126-.038.145-.077.28-.106.426-.02.087-.029.164-.039.251 0 .049-.019.087-.019.136 0 .038-.02.087-.02.125a6.069 6.069 0 0 0-.048.716l.174 63.08c0 1.161.416 1.974 1.074 2.361l20.414 11.861c-.658-.387-1.074-1.2-1.074-2.361l-.174-63.08c0-.27.03-.56.068-.841 0-.048.02-.087.02-.135.047-.262.106-.533.183-.803 0-.03.02-.049.02-.078.086-.29.193-.58.319-.87v-.02c.125-.29.27-.58.435-.861 0 0 0-.02.01-.02a8.379 8.379 0 0 1 .56-.85c.165-.223.35-.446.533-.649a6.5 6.5 0 0 1 .59-.57c.068-.059.136-.127.213-.185.222-.174.455-.338.687-.483l54.895-31.695c.154-.087.31-.164.464-.232l.145-.058-.01.01Z" stroke="#002332" stroke-width=".5" stroke-linecap="round" stroke-linejoin="round"/><path d="m32.73 93.603-10.71 6.183M45.123 86.454l-7.4 4.267M68.826 72.764l-7.623 4.402M84.316 63.825 73.819 69.88M5.137 33.649 25.551 45.51M60.032 1.954l20.414 11.862M21.884 51.857 1.471 39.996M22.058 114.937 1.645 103.075" stroke="#002332" stroke-width=".25" stroke-linecap="round" stroke-linejoin="round"/></svg>