<svg width="65" height="123" fill="none" xmlns="http://www.w3.org/2000/svg"><g clip-path="url(#a)"><path d="M32.19 121.74h-1.38c-.3-.01-1.58-.07-1.58-.07-.27-.02-1.47-.1-1.47-.1-.4-.03-.77-.07-1.14-.11l-.39-.04c-.49-.06-.99-.12-1.48-.19l-.14-.02c-.5-.07-.93-.14-1.36-.21l-1.58-.3-.4-.09c-.35-.08-.7-.15-1.04-.24a9.16 9.16 0 0 1-.56-.14c-.33-.08-.64-.17-.95-.25l-.29-.08-.81-.24c-.4-.12-.8-.25-1.19-.38l-.22-.08c-.33-.11-.65-.23-.97-.35l-.59-.22-1.01-.42c-.24-.1-.48-.21-.72-.32l-.47-.22c-.27-.13-.52-.26-.78-.39l-.38-.19c-.38-.2-.76-.41-1.13-.62-6.07-3.5-9.4-8.21-9.39-13.25v-2.24c.03-3.6 1.78-7.06 5.09-10.03 2.51-8.97 7.95-14.53 12.76-19.43 4.23-4.32 7.89-8.05 7.89-12.9 0-3.38-3.75-7.3-8.1-11.84-3.94-4.11-8.39-8.77-11.33-14.29-4.1-3.2-6.34-7.17-6.33-11.2v-2.24C.78 14.1 4.06 9.48 10 6.03 15.86 2.63 23.66.75 31.95.75s16.1 1.88 22 5.28c6.04 3.49 9.36 8.14 9.39 13.14v2.3l-.01.29c0 .07 0 .13-.01.2-.02.26-.03.42-.04.59-.01.14-.03.28-.05.42-.02.17-.05.34-.08.5l-.03.17c-.01.06-.03.12-.04.18-.06.24-.09.4-.14.56-.04.14-.08.29-.13.43-.05.16-.22.67-.22.67l-.06.15c-.1.24-.17.4-.24.56-.06.14-.12.27-.19.41a7.5 7.5 0 0 1-.25.49l-.12.24-.23.39c-.15.25-.31.49-.48.73l-.1.14c-.15.22-.31.43-.48.65l-.13.15c-.2.24-.37.45-.55.65l-.15.16c-.22.24-.44.47-.67.69l-.1.1c-.14.14-.26.25-.38.36l-.12.11c-.21.19-.36.32-.52.45-.14.12-.28.24-.43.36-.14.12-.29.23-.43.34-2.94 5.45-7.36 10.06-11.25 14.14-4.35 4.54-8.1 8.47-8.1 11.84 0 4.85 3.66 8.58 7.89 12.9C50.33 76.42 55.8 82 58.29 91.05c3.29 2.98 5.03 6.43 5.05 10.02v2.31l-.01.29c0 .07 0 .13-.01.2-.02.26-.03.42-.04.59-.01.14-.03.28-.05.43-.02.17-.05.33-.08.49l-.03.17c-.01.06-.03.12-.04.18-.06.24-.09.4-.14.56-.04.14-.08.29-.13.43-.05.16-.1.32-.16.47l-.07.2s-.23.55-.3.71c-.06.14-.12.27-.19.41a7.5 7.5 0 0 1-.25.49c-.07.13-.09.19-.12.24l-.16.28-.71-.27.64.39c-.15.24-.31.49-.48.73l-.1.14c-.15.22-.31.44-.48.65l-.12.14c-.21.25-.38.46-.56.66l-.15.17c-.21.23-.43.46-.66.69 0 0-.38.37-.48.46l-.64.56c-.14.12-.29.25-.44.37-.16.13-.32.26-.49.38-.15.12-.31.23-.47.35l-.64.45-.4.27-.57.36-.34.21-.37.22c-.36.21-.7.4-1.05.58l-.27.14c-.32.17-.64.33-.96.48l-.42-.63.3.69c-.37.18-.74.34-1.11.5l-.29.12c-.31.13-.63.26-.95.39l-.21.08c-.38.14-.76.28-1.15.42l-.74.25s-.83.26-1.09.33l-.65.18-.78.21c-.22.06-.44.11-.66.16-.26.06-.52.12-.79.18-.23.05-.44.1-.66.14-.27.06-1.27.25-1.27.25s-.11.02-.12.02c-.63.11-1.21.21-1.8.29l-.25.03c-.51.07-1.03.13-1.55.18l-.24.03-.35.03c-.33.03-.67.06-1 .08l-.63.04c-.35.02-.69.04-1.04.05l-.43.02-.19-.75.02.75c-.24 0-.9.02-.9.02h-.72l.04.03Z" fill="#002332"/><path d="M31.95 1.5c7.82 0 15.64 1.73 21.63 5.18 6.2 3.58 9.19 8.31 9 12.99 0-.13.02-.26.02-.39v2.19c0 .09 0 .18-.01.27 0 .09-.01.18-.02.27 0 .15-.02.31-.03.46-.01.13-.03.27-.05.4-.02.15-.04.31-.07.46 0 .05-.01.11-.03.16l-.06.24c-.03.15-.07.3-.11.45-.04.14-.08.27-.12.4-.05.15-.09.29-.15.44-.02.06-.04.13-.06.19l-.09.21c-.06.15-.13.31-.19.46l-.18.39c-.07.15-.15.31-.24.46-.04.07-.07.15-.11.22-.05.09-.1.18-.16.26-.02.04-.04.08-.07.11-.14.23-.29.46-.45.69-.03.04-.06.09-.09.13-.15.21-.3.42-.46.62-.02.02-.03.04-.05.06-.03.04-.07.08-.1.13-.16.2-.33.39-.5.58-.05.05-.09.11-.14.16-.2.22-.42.44-.64.66l-.12.12c-.11.11-.22.22-.34.33-.06.05-.12.1-.18.16-.14.13-.29.26-.44.38-.14.12-.28.23-.42.35-.16.13-.32.25-.48.37-.02.02-.04.03-.06.05-6.23 11.68-19.52 19.61-19.52 26.48 0 10.73 16.12 15.58 20.77 32.87 3.45 3.06 5.1 6.6 4.96 10.11 0-.13.02-.26.02-.39v2.19c0 .09 0 .18-.01.27 0 .09-.01.18-.02.27 0 .15-.02.31-.03.46-.01.13-.03.27-.05.4-.02.15-.04.31-.07.46 0 .05-.01.11-.03.16l-.06.24c-.03.15-.07.3-.11.45l-.12.4c-.05.15-.09.29-.15.44-.02.06-.04.13-.06.19l-.09.21c-.06.15-.13.31-.19.46l-.18.39c-.07.15-.15.31-.24.46-.04.07-.07.15-.11.22-.05.09-.1.18-.16.26-.02.04-.04.08-.07.11-.14.23-.29.46-.45.69-.03.04-.06.09-.09.13-.15.21-.3.42-.46.62-.02.02-.03.04-.05.06-.03.04-.07.08-.1.13-.16.2-.33.39-.5.58-.05.05-.09.11-.14.16-.2.22-.42.44-.64.66l-.12.12c-.11.11-.22.22-.34.33-.06.05-.12.1-.18.16-.14.13-.29.26-.44.38-.14.12-.28.23-.42.35-.16.13-.32.25-.48.37-.15.11-.3.23-.45.34-.17.12-.34.24-.52.36-.16.11-.32.22-.49.33-.18.12-.37.23-.55.35l-.33.21c-.12.07-.25.15-.37.22-.33.19-.67.38-1.01.56-.09.05-.18.09-.27.14-.31.16-.62.31-.93.47l-.12.06c-.35.17-.71.33-1.07.48-.09.04-.19.08-.28.12-.31.13-.62.26-.94.38-.07.03-.14.05-.2.08-.37.14-.75.28-1.13.41-.09.03-.19.06-.28.09l-.45.15c-.11.04-.22.07-.33.1-.25.08-.49.15-.74.23l-.63.18c-.25.07-.51.14-.76.2-.21.06-.43.11-.64.16l-.78.18c-.22.05-.43.1-.65.14-.26.06-.53.11-.8.16l-.45.09c-.05 0-.11.02-.16.03-.57.1-1.15.19-1.73.28l-.24.03c-.51.07-1.02.13-1.53.18-.08 0-.16.02-.24.03l-.35.03c-.33.03-.65.06-.98.08-.21.02-.41.03-.62.04-.34.02-.68.04-1.03.05-.14 0-.28.02-.41.02h-.17c-.3 0-.59.01-.89.02h-2.15c-.29 0-.58-.02-.86-.03-.21 0-.41-.01-.62-.03l-.93-.06c-.17-.01-.35-.02-.52-.04h-.03c-.36-.03-.73-.07-1.09-.11-.13-.01-.25-.02-.38-.04-.49-.05-.97-.12-1.46-.18-.07 0-.13-.02-.2-.03-.42-.06-.85-.13-1.27-.2-.17-.03-.34-.06-.51-.1l-.95-.18c-.03 0-.07-.01-.1-.02-.13-.03-.26-.06-.38-.09-.34-.07-.69-.15-1.03-.23-.19-.05-.38-.09-.57-.14-.31-.08-.62-.16-.93-.25-.09-.03-.19-.05-.28-.07l-.51-.15c-.1-.03-.2-.06-.29-.09-.39-.12-.78-.25-1.17-.38-.07-.03-.15-.05-.22-.08-.32-.11-.63-.22-.95-.34-.11-.04-.21-.08-.32-.12-.08-.03-.17-.06-.25-.1-.16-.06-.32-.14-.49-.2l-.51-.21c-.24-.1-.47-.21-.71-.32-.15-.07-.31-.14-.46-.21-.26-.12-.51-.25-.76-.38-.12-.06-.25-.12-.37-.19-.37-.2-.74-.4-1.1-.6-6.02-3.48-9.03-8.04-9.01-12.6v-2.19.04c0-3.39 1.66-6.78 5-9.71 4.69-17.19 20.73-22.04 20.73-32.75 0-6.89-13.4-14.87-19.6-26.63-4.1-3.16-6.16-6.92-6.15-10.68v-2.19.04c0-4.51 2.95-9.02 8.87-12.47 5.92-3.4 13.73-5.13 21.55-5.13Zm0-1.5C23.53 0 15.6 1.91 9.63 5.38 3.44 8.98.02 13.85 0 19.1v2.19c-.02 4.22 2.28 8.36 6.46 11.67 2.99 5.55 7.44 10.2 11.38 14.32 4.23 4.43 7.89 8.25 7.89 11.32 0 4.55-3.39 8-7.67 12.38-4.59 4.69-10.29 10.5-12.89 19.54C1.8 93.62.02 97.24 0 101.02v2.19c-.02 5.32 3.45 10.26 9.76 13.9a25.636 25.636 0 0 0 1.41.76l.13.07c.26.13.53.27.8.4l.33.15.15.07c.25.12.49.23.74.33.13.06.26.11.39.16l.14.06.18.07c.11.05.22.09.33.14l.18.07.09.03.33.12.99.36.08.03.15.05c.4.14.8.27 1.21.39l.23.07.08.02.16.05c.12.04.24.07.36.11.06.02.12.03.19.05l.1.03c.32.09.64.17.96.25l.14.04c.15.04.29.07.44.11l1.06.24.14.03.26.06.08.02c.34.07.67.13.99.19l.21.04.33.06 1.31.21h.06l.14.03c.51.07 1.01.13 1.51.19l.24.02h.15c.37.05.75.09 1.12.12h.03c.11 0 .22.02.33.02h.21l.12.02.83.06c.14 0 .29.01.43.02h.21l.17.02.71.03h2.33c.26 0 .53 0 .79-.02h.18c.09 0 .18 0 .27-.01h.16l1.06-.06c.21-.01.42-.03.63-.04.34-.03.68-.05 1.01-.08h.14l.21-.03c.06 0 .11-.01.17-.02h.08c.53-.06 1.05-.13 1.57-.2h.1l.14-.03c.61-.09 1.2-.18 1.79-.29l.17-.03.29-.06.17-.03c.28-.05.55-.1.82-.16.22-.05.44-.1.66-.14.28-.06.55-.12.81-.19.22-.05.44-.11.66-.17l.79-.21c.22-.06.44-.12.66-.19.26-.08.51-.15.77-.23l.12-.04c.07-.02.15-.04.22-.07.1-.03.2-.07.31-.1l.15-.05.09-.03.2-.07c.4-.14.79-.28 1.18-.43l.14-.05.07-.03c.33-.13.66-.26.98-.4l.29-.12c.38-.16.75-.33 1.12-.5l.07-.04.05-.02c.34-.16.66-.32.98-.49l.28-.15c.36-.19.72-.39 1.07-.59.13-.08.26-.15.39-.23.08-.05.16-.1.23-.15l.12-.08c.2-.12.39-.24.58-.37.18-.12.35-.23.52-.35.19-.13.37-.26.55-.39.17-.12.33-.24.48-.36.17-.13.34-.27.51-.4.15-.12.3-.25.45-.38.16-.14.32-.27.47-.41l.05-.05s.09-.08.14-.12c.1-.09.2-.18.29-.28l.08-.07.05-.04.09-.09c.24-.24.47-.48.69-.72l.11-.12.05-.05c.19-.21.37-.42.54-.64l.11-.14.06-.08c.17-.21.34-.44.5-.67l.1-.15c.17-.25.34-.51.5-.77l.05-.09.07-.11c.04-.07.09-.15.13-.22.04-.07.07-.13.1-.2l.03-.05c.09-.17.18-.34.26-.51.07-.14.14-.29.2-.43.08-.17.15-.35.22-.52.05-.11.07-.17.1-.23l.06-.18c.07-.2.12-.36.17-.53.05-.15.09-.31.13-.46.05-.17.09-.34.12-.51v-.06c.03-.07.05-.15.07-.22l.03-.18c.03-.19.06-.36.08-.53l.06-.46c.02-.18.03-.35.04-.53v-.07c.01-.08.02-.16.02-.24v-2.5c.01-3.79-1.75-7.42-5.14-10.54-2.58-9.12-8.31-14.96-12.92-19.67-4.29-4.38-7.67-7.83-7.67-12.38 0-3.07 3.66-6.9 7.89-11.32 3.9-4.07 8.3-8.68 11.29-14.16.11-.08.21-.17.32-.25.15-.12.3-.25.45-.38.16-.14.32-.27.47-.41l.05-.04c.05-.04.1-.09.15-.13.1-.1.21-.2.31-.3l.05-.05.03-.03.1-.1c.24-.24.47-.48.69-.72l.11-.12.05-.05c.19-.21.37-.42.54-.64l.03-.04.08-.1.05-.06c.18-.23.35-.46.51-.69l.1-.14c.17-.25.34-.51.5-.76l.06-.1.06-.1c.04-.07.09-.15.13-.22.03-.06.07-.13.1-.19l.03-.06c.09-.17.18-.34.26-.51.07-.15.14-.29.2-.43.08-.17.15-.35.22-.52.05-.1.07-.17.1-.23l.06-.18c.07-.2.12-.36.17-.53.05-.15.09-.31.13-.46.05-.17.09-.34.12-.51v-.06c.03-.07.05-.14.07-.22l.03-.18c.03-.18.06-.36.08-.53l.06-.46c.02-.18.03-.35.04-.53V22c.01-.08.02-.16.02-.24v-2.51c0-.07 0-.13-.01-.19-.08-5.18-3.6-10.15-9.76-13.71C48.31 1.91 40.37 0 31.95 0Z" fill="#008BC6"/><path d="M62.57 101.74c0 .15-.02.31-.03.46-.01.13-.03.27-.05.4-.02.15-.04.31-.07.46-.02.13-.05.27-.08.4-.03.15-.07.3-.11.45l-.12.4c-.05.15-.09.3-.15.44l-.15.39c-.06.15-.13.31-.19.46l-.18.39c-.07.15-.15.31-.24.46-.09.16-.17.32-.27.49-.02.04-.04.08-.07.11-.14.23-.29.46-.45.69-.03.04-.06.09-.09.13-.16.23-.33.46-.51.68-.03.04-.07.08-.1.13-.16.2-.32.39-.5.58-.05.05-.09.11-.14.16-.2.22-.42.44-.64.66l-.12.12-.52.49c-.14.13-.29.26-.44.38-.14.12-.28.23-.42.35-.16.13-.32.25-.48.37-.15.11-.3.23-.45.34-.17.12-.34.24-.52.36-.16.11-.32.22-.49.33-.18.12-.37.23-.55.35-.23.14-.46.29-.71.43-.33.19-.67.38-1.01.56-.09.05-.18.09-.27.14-.31.16-.62.32-.93.47l-.12.06c-.35.17-.71.33-1.07.48-.09.04-.19.08-.28.12-.31.13-.62.26-.94.38-.07.03-.14.05-.2.08-.37.14-.75.28-1.13.41-.09.03-.18.06-.28.09-.26.09-.52.17-.78.25-.25.08-.49.15-.74.23l-.63.18c-.25.07-.51.14-.76.2-.21.06-.43.11-.64.16l-.78.18c-.22.05-.43.1-.65.14-.26.06-.53.11-.8.16l-.62.12c-.57.1-1.15.19-1.73.28l-.24.03c-.51.07-1.01.13-1.52.18l-.58.06c-.33.03-.65.06-.98.08-.21.02-.41.03-.62.04-.34.02-.68.04-1.03.05-.19 0-.39.02-.58.02-.3 0-.59.01-.89.02h-2.15c-.29 0-.58-.02-.87-.03-.21 0-.41-.01-.62-.03l-.94-.06a42.422 42.422 0 0 1-1.66-.15l-.35-.03c-.49-.05-.98-.12-1.46-.18-.07 0-.14-.02-.21-.03-.42-.06-.85-.13-1.27-.2-.17-.03-.34-.06-.51-.1l-.95-.18c-.16-.03-.33-.07-.49-.11-.34-.07-.69-.15-1.03-.23-.19-.05-.38-.09-.57-.14-.31-.08-.62-.16-.93-.25a23.505 23.505 0 0 1-1.08-.32c-.39-.12-.78-.25-1.17-.38-.07-.03-.15-.05-.22-.08-.32-.11-.64-.22-.95-.34-.11-.04-.21-.08-.32-.12-.25-.1-.5-.2-.74-.3l-.51-.21c-.24-.1-.48-.21-.71-.32-.15-.07-.31-.14-.46-.21-.26-.12-.51-.25-.76-.38-.12-.06-.25-.12-.37-.19-.37-.2-.74-.4-1.1-.6-6.02-3.48-9.03-8.04-9.01-12.6v2.19c-.02 4.56 2.99 9.12 9.01 12.6.36.21.73.41 1.1.6.12.06.25.12.37.19.25.13.51.26.76.38.15.07.31.14.46.21.24.11.47.21.71.32l.51.21c.16.07.32.14.49.2.08.03.17.06.25.1.11.04.21.08.32.12.31.12.63.23.95.34.07.03.15.05.22.08.39.13.77.26 1.17.38l.29.09.51.15c.09.03.19.05.28.07.31.09.62.17.93.25.19.05.38.1.57.14.34.08.68.16 1.03.23.13.03.26.06.38.09.03 0 .07.01.1.02.31.06.63.12.95.18.17.03.34.07.51.1.42.07.84.14 1.27.2.07 0 .13.02.2.03.48.07.97.13 1.46.18.13.01.25.02.38.04.36.04.73.08 1.09.11h.03c.17.01.35.02.52.04.31.02.62.05.93.06l.62.03c.29.01.58.03.86.03H31.32c.32 0 .63.01.95 0h.63c.3 0 .59 0 .89-.02h.17c.14 0 .28-.02.41-.02.34-.01.69-.03 1.03-.05.21-.01.41-.03.62-.04.33-.02.66-.05.98-.08l.35-.03c.08 0 .16-.02.24-.03.51-.05 1.02-.11 1.53-.18l.24-.03c.58-.08 1.16-.17 1.73-.28.05 0 .11-.02.16-.03l.45-.09c.27-.05.53-.1.8-.16.22-.05.43-.09.65-.14l.78-.18c.22-.05.43-.11.64-.16.25-.07.51-.13.76-.2l.63-.18c.25-.07.5-.15.74-.23.11-.03.22-.06.33-.1l.45-.15c.09-.03.19-.06.28-.09.38-.13.76-.27 1.13-.41.07-.03.14-.05.2-.08.32-.12.63-.25.94-.38.09-.04.19-.08.28-.12.36-.16.72-.32 1.07-.48l.12-.06c.32-.15.63-.31.93-.47.09-.05.18-.09.27-.14.34-.18.68-.37 1.01-.56.13-.07.25-.15.37-.22s.22-.14.33-.21c.19-.12.37-.23.55-.35.17-.11.33-.22.49-.33.17-.12.35-.24.52-.36.15-.11.31-.23.45-.34.16-.12.32-.25.48-.37.14-.12.28-.23.42-.35l.44-.38c.06-.05.12-.1.18-.16.12-.11.23-.22.34-.33l.12-.12c.22-.22.43-.44.64-.66.05-.05.1-.11.14-.16.17-.19.34-.39.5-.58.03-.04.07-.08.1-.13.02-.02.03-.04.05-.06.16-.21.32-.42.46-.62.03-.04.06-.09.09-.13.16-.23.31-.46.45-.69.02-.04.04-.08.07-.11.05-.09.11-.18.16-.26.04-.07.08-.15.12-.22.08-.15.16-.3.24-.46l.18-.39c.07-.15.13-.31.19-.46l.09-.21c.02-.06.04-.13.06-.19.05-.15.1-.29.15-.44l.12-.4c.04-.15.08-.3.11-.45l.06-.24.03-.16c.03-.15.05-.31.07-.46.02-.13.04-.27.05-.4.02-.15.02-.31.03-.46 0-.09.02-.18.02-.27v-2.46c0 .18 0 .36-.02.54h.01Z" stroke="#008BC6" stroke-width=".25" stroke-linecap="round" stroke-linejoin="round"/><path d="M57.56 91.42c7.81 6.86 6.54 16.17-3.84 22.2-11.89 6.91-31.23 6.91-43.2 0-10.48-6.05-11.83-15.4-4.01-22.27" stroke="#008BC6" stroke-width=".25" stroke-linecap="round" stroke-linejoin="round"/><path d="M56.41 32.07c-6.22 11.71-19.56 19.66-19.56 26.54 0 12.54 22.02 17.03 22.02 42.74 0 6.51-10.49 14.88-26.82 14.88s-26.82-8.37-26.82-14.88c0-25.72 22.02-30.2 22.02-42.74 0-6.89-13.41-14.86-19.61-26.62" stroke="#008BC6" stroke-width=".25" stroke-linecap="round" stroke-linejoin="round"/><path d="M42.42 47.53c-1.56 2.59-6.66 5.79-6.66 10.61 0 12.76 20.72 20.13 20.72 40.88 0 9.18-11.03 14.65-24.44 14.65-13.41 0-24.44-5.48-24.44-14.65 0-20.18 20.72-28.12 20.72-40.88 0-4.82-5.1-8.02-6.66-10.61" stroke="#008BC6" stroke-width=".25" stroke-linecap="round" stroke-linejoin="round"/><path d="M37.02 38.84c3.81 1.07 6.45 3.32 6.45 5.93 0 3.64-5.11 6.59-11.42 6.59s-11.42-2.95-11.42-6.59c0-2.62 2.65-4.88 6.48-5.94M32.05 35.57c15.243 0 27.6-7.128 27.6-15.92S47.293 3.73 32.05 3.73c-15.243 0-27.6 7.128-27.6 15.92s12.357 15.92 27.6 15.92Z" stroke="#008BC6" stroke-width=".25" stroke-linecap="round" stroke-linejoin="round"/><path d="M62.57 19.82c0 .15-.02.31-.03.46-.01.13-.03.27-.05.4-.02.15-.04.31-.07.46-.02.13-.05.27-.08.4-.03.15-.07.3-.11.45l-.12.4c-.05.15-.09.3-.15.44l-.15.39c-.06.15-.13.31-.19.46l-.18.39c-.07.15-.15.31-.24.46-.09.16-.17.32-.27.49-.02.04-.04.08-.07.11-.14.23-.29.46-.45.69-.03.04-.06.09-.09.13-.16.23-.33.46-.51.68-.03.04-.07.08-.1.13-.16.2-.32.39-.5.58-.05.05-.09.11-.14.16-.2.22-.42.44-.64.66l-.12.12-.52.49c-.14.13-.29.26-.44.38-.14.12-.28.23-.42.35-.16.13-.32.25-.48.37-.15.11-.3.23-.45.34-.17.12-.34.24-.52.36-.16.11-.32.22-.49.33-.18.12-.37.23-.55.35-.23.15-.46.29-.71.43-.33.19-.67.38-1.01.56-.09.05-.18.09-.27.14-.31.16-.62.32-.93.47l-.12.06c-.35.17-.71.33-1.07.48-.09.04-.19.08-.28.12-.31.13-.62.26-.94.38-.07.03-.14.05-.2.08-.37.14-.75.28-1.13.41-.09.03-.18.06-.28.09-.26.09-.52.17-.78.25-.25.08-.49.15-.74.23l-.63.18c-.25.07-.51.14-.76.2-.21.06-.43.11-.64.16l-.78.18c-.22.05-.43.1-.65.14-.26.06-.53.11-.8.16l-.62.12c-.57.1-1.15.19-1.73.28l-.24.03c-.51.07-1.01.13-1.52.18l-.58.06c-.33.03-.65.06-.98.08-.21.02-.41.03-.62.04-.34.02-.68.04-1.03.05-.19 0-.39.02-.58.02-.3 0-.59.01-.89.02h-2.15c-.29 0-.58-.02-.87-.03-.21 0-.41-.01-.62-.03l-.94-.06a42.422 42.422 0 0 1-1.66-.15l-.35-.03c-.49-.05-.98-.12-1.46-.18-.07 0-.14-.02-.21-.03-.42-.06-.85-.13-1.27-.2-.17-.03-.34-.06-.51-.1l-.95-.18c-.16-.03-.33-.07-.49-.11-.34-.07-.69-.15-1.03-.23-.19-.05-.38-.09-.57-.14-.31-.08-.62-.16-.93-.25-.26-.07-.53-.15-.79-.23-.1-.03-.2-.06-.29-.09-.39-.12-.78-.25-1.17-.38-.07-.03-.15-.05-.22-.08-.32-.11-.64-.22-.95-.34-.11-.04-.21-.08-.32-.12-.25-.1-.5-.2-.74-.3l-.51-.21c-.24-.1-.48-.21-.71-.32-.15-.07-.31-.14-.46-.21-.26-.12-.51-.25-.76-.38-.12-.06-.25-.12-.37-.19-.37-.2-.74-.4-1.1-.6-6.03-3.46-9.04-8.02-9.02-12.58v2.19c-.02 4.56 2.99 9.12 9.01 12.6.36.21.73.41 1.1.6.12.06.25.12.37.19.25.13.51.26.76.38.15.07.31.14.46.21.24.11.47.21.71.32l.51.21c.16.07.32.14.49.2.08.03.17.06.25.1.11.04.21.08.32.12.31.12.63.23.95.34.07.03.15.05.22.08.39.13.77.26 1.17.38l.29.09.51.15c.09.03.19.05.28.07.31.09.62.17.93.25.19.05.38.1.57.14.34.08.68.16 1.03.23.13.03.26.06.38.09.03 0 .07.01.1.02.31.06.63.12.95.18.17.03.34.07.51.1.42.07.84.14 1.27.2.07 0 .13.02.2.03.48.07.97.13 1.46.18.13.01.25.02.38.04.36.04.73.08 1.09.11h.03c.17.01.35.02.52.04.31.02.62.05.93.06l.62.03c.29.01.58.03.86.03H31.31c.32 0 .63.01.95 0h.63c.3 0 .59 0 .89-.02h.17c.14 0 .28-.02.41-.02.34-.01.69-.03 1.03-.05.21-.01.41-.03.62-.04.33-.02.66-.05.98-.08l.35-.03c.08 0 .16-.02.24-.03.51-.05 1.02-.11 1.53-.18l.24-.03c.58-.08 1.16-.17 1.73-.28.05 0 .11-.02.16-.03l.45-.09c.27-.05.53-.1.8-.16.22-.05.43-.09.65-.14l.78-.18c.22-.05.43-.11.64-.16.25-.07.51-.13.76-.2l.63-.18c.25-.07.5-.15.74-.23.11-.03.22-.06.33-.1l.45-.15c.09-.03.19-.06.28-.09.38-.13.76-.27 1.13-.41.07-.03.14-.05.2-.08.32-.12.63-.25.94-.38.09-.04.19-.08.28-.12.36-.16.72-.32 1.07-.48l.12-.06c.32-.15.63-.31.93-.47.09-.05.18-.09.27-.14.34-.18.68-.37 1.01-.56.13-.07.25-.15.37-.22s.22-.14.33-.21c.19-.12.37-.23.55-.35.17-.11.33-.22.49-.33.17-.12.35-.24.52-.36.15-.11.31-.23.45-.34.16-.12.32-.25.48-.37.14-.12.28-.23.42-.35l.44-.38c.06-.05.12-.1.18-.16.12-.11.23-.22.34-.33l.12-.12c.22-.22.43-.44.64-.66.05-.05.1-.11.14-.16.17-.19.34-.39.5-.58.03-.04.07-.08.1-.13.02-.02.03-.04.05-.06.16-.21.32-.42.46-.62.03-.04.06-.09.09-.13.16-.23.31-.46.45-.69.02-.04.04-.08.07-.11.05-.09.11-.18.16-.26.04-.07.08-.15.12-.22.08-.15.16-.3.24-.46l.18-.39c.07-.15.13-.31.19-.46l.09-.21c.02-.06.04-.13.06-.19.05-.15.1-.29.15-.44l.12-.4c.04-.15.08-.3.11-.45l.06-.24.03-.16c.03-.15.05-.31.07-.46.02-.13.04-.27.05-.4.02-.15.02-.31.03-.46 0-.09.02-.18.02-.27V19.3c0 .18 0 .36-.02.54l.02-.02Z" stroke="#008BC6" stroke-width=".25" stroke-linecap="round" stroke-linejoin="round"/><path d="M53.57 6.68c11.97 6.91 12.03 18.11.15 25.02-11.89 6.91-31.23 6.91-43.2 0-11.96-6.91-12.03-18.11-.14-25.02 11.89-6.91 31.23-6.91 43.19 0Z" stroke="#008BC6" stroke-width=".25" stroke-linecap="round" stroke-linejoin="round"/></g><defs><clipPath id="a"><path fill="#fff" d="M0 0h64.09v122.49H0z"/></clipPath></defs></svg>