<svg width="163" height="202" viewBox="0 0 163 202" fill="none" xmlns="http://www.w3.org/2000/svg">
<path d="M60.3722 178.946L50.68 173.35L2.79179 201.001L1.29781 200.123L1.25424 93.0233L160.22 1.24316L161.714 2.12088L161.757 109.22L111.398 138.297L120.057 143.302C121.14 143.924 121.663 144.746 121.632 145.568V146.539C121.632 147.323 121.115 148.101 120.088 148.699L67.979 178.983C65.9062 180.184 62.5074 180.184 60.422 178.983M117.753 146.302C117.915 146.209 118.034 146.103 118.133 145.985C118.034 145.873 117.903 145.767 117.741 145.667L111.46 142.044L114.921 147.946L117.753 146.302ZM111.46 149.956L111.429 149.944L106.704 142.256L105.615 141.634L67.6242 163.564L72.8158 172.416L111.454 149.956H111.46ZM62.775 176.586C63.578 177.053 64.8479 177.053 65.6447 176.586L69.3672 174.426L69.3299 174.408L64.6051 166.72L63.3851 166.01L53.9232 171.476L62.775 176.586ZM111.404 138.291L50.6862 173.35L111.404 138.291Z" fill="white"/>
<path d="M60.3722 178.946L50.68 173.35L2.79179 201.001L1.29781 200.123L1.25425 93.0233L160.22 1.24316L161.714 2.12088L161.757 109.22L111.398 138.297L120.057 143.302C121.14 143.924 121.663 144.746 121.632 145.568V146.539C121.632 147.323 121.115 148.101 120.088 148.699L67.979 178.983C65.9062 180.184 62.5074 180.184 60.422 178.983M111.404 138.291L50.6862 173.35M117.753 146.302C117.915 146.209 118.034 146.103 118.133 145.985C118.034 145.873 117.903 145.767 117.741 145.667L111.46 142.044L114.921 147.946L117.753 146.302ZM111.46 149.956L111.429 149.944L106.704 142.256L105.615 141.634L67.6242 163.564L72.8158 172.416L111.454 149.956H111.46ZM62.775 176.586C63.578 177.053 64.8479 177.053 65.6447 176.586L69.3672 174.426L69.3299 174.408L64.6051 166.72L63.3851 166.01L53.9232 171.476L62.775 176.586Z" stroke="#002332" stroke-linecap="round" stroke-linejoin="round"/>
<path d="M111.69 141.802L117.971 145.431C118.139 145.53 118.27 145.636 118.37 145.755" stroke="#002332" stroke-width="0.5" stroke-linecap="round" stroke-linejoin="round"/>
<path d="M118.575 145.088V144.466C118.575 144.167 118.382 143.862 117.978 143.632L109.972 139.013" stroke="#002332" stroke-width="0.5" stroke-linecap="round" stroke-linejoin="round"/>
<path d="M71.2905 175.155L68.2279 176.935" stroke="#002332" stroke-width="0.5" stroke-linecap="round" stroke-linejoin="round"/>
<path d="M113.383 150.691L73.9112 173.63" stroke="#002332" stroke-width="0.5" stroke-linecap="round" stroke-linejoin="round"/>
<path d="M68.221 178.734L120.336 148.45C121.363 147.852 121.874 147.074 121.874 146.29V145.331C121.874 145.331 121.793 145.132 121.625 145.437C121.376 145.885 120.946 146.302 120.342 146.657L116.01 149.178" stroke="#002332" stroke-width="0.5" stroke-linecap="round" stroke-linejoin="round"/>
<path d="M50.9226 173.106L60.6147 178.703" stroke="#002332" stroke-width="0.5" stroke-linecap="round" stroke-linejoin="round"/>
<path d="M60.6709 176.935L52.4789 172.204" stroke="#002332" stroke-width="0.5" stroke-linecap="round" stroke-linejoin="round"/>
<circle cx="0.102711" cy="0.102711" r="0.102711" transform="matrix(-1 0 0 1 68.3306 176.832)" fill="#002332" stroke="#002332" stroke-width="0.5" stroke-linecap="round" stroke-linejoin="round"/>
<path d="M60.671 176.935C62.7563 178.136 66.1551 178.136 68.228 176.935" stroke="#002332" stroke-width="0.5" stroke-linecap="round" stroke-linejoin="round"/>
<path d="M68.2217 178.734C66.1488 179.935 62.75 179.935 60.6646 178.734" stroke="#002332" stroke-width="0.5" stroke-linecap="round" stroke-linejoin="round"/>
<path d="M111.64 138.048L120.305 143.053C122.391 144.254 122.415 146.215 120.343 147.423L68.2276 177.707C66.1547 178.908 62.7559 178.908 60.6706 177.707L51.8125 172.59M115.033 147.784L117.99 146.066C118.774 145.611 118.786 144.87 117.977 144.403L110.669 140.183" stroke="#002332" stroke-width="0.5" stroke-linecap="round" stroke-linejoin="round"/>
<path d="M67.8667 163.321L74.2534 174.209L71.9627 175.541L65.5759 164.647" stroke="#002332" stroke-width="0.5" stroke-linecap="round" stroke-linejoin="round"/>
<path d="M65.5761 164.647L71.9629 175.541L69.5663 174.159L64.8416 166.478L63.6215 165.768" stroke="#002332" stroke-width="0.5" stroke-linecap="round" stroke-linejoin="round"/>
<path d="M109.978 139.006L116.353 149.751L114.056 151.083L107.743 140.326" stroke="#002332" stroke-width="0.5" stroke-linecap="round" stroke-linejoin="round"/>
<path d="M111.665 149.7L106.94 142.013L105.783 141.34" stroke="#002332" stroke-width="0.5" stroke-linecap="round" stroke-linejoin="round"/>
<path d="M107.743 140.326L114.055 151.082L111.665 149.7" stroke="#002332" stroke-width="0.5" stroke-linecap="round" stroke-linejoin="round"/>
<path d="M3.03467 200.751L1.53445 199.879L1.49089 92.7798L2.98487 93.6575L3.03467 200.751Z" stroke="#002332" stroke-width="0.5" stroke-linecap="round" stroke-linejoin="round"/>
<path d="M2.98516 93.6578L1.49118 92.7801L160.457 1L161.951 1.87771L2.98516 93.6578Z" stroke="#002332" stroke-width="0.5" stroke-linecap="round" stroke-linejoin="round"/>
<path d="M52.5349 172.173L3.03446 200.751L2.98466 93.658L161.95 1.87793L162 108.971" stroke="#002332" stroke-width="0.5" stroke-linecap="round" stroke-linejoin="round"/>
<path d="M5.15715 94.9032L159.796 5.62549L159.771 105.1L5.13225 194.377L5.15715 94.9032Z" stroke="#002332" stroke-width="0.5" stroke-linecap="round" stroke-linejoin="round"/>
<path d="M90.239 148.494L86.9771 150.38C86.6036 150.598 86.2986 150.467 86.2986 150.093C86.2986 149.72 86.6036 149.241 86.9771 149.029L90.239 147.143C90.6125 146.925 90.9175 147.056 90.9175 147.429C90.9175 147.803 90.6125 148.282 90.239 148.494Z" stroke="#002332" stroke-width="0.5" stroke-linecap="round" stroke-linejoin="round"/>
</svg>
