<svg width="282" height="200" fill="none" xmlns="http://www.w3.org/2000/svg"><path d="M280.987 80.814c-.063-2.82-1.819-5.679-5.673-7.884C252.217 59.725 163.332 8.752 156.797 5.14 150.262 1.528 145.552 1 140.995 1c-4.558 0-9.267.528-15.802 4.14-6.535 3.612-95.42 54.591-118.518 67.79-3.854 2.205-5.61 5.057-5.673 7.884v34.891c0 3.82 1.927 8.431 8.056 11.848 0 0 116.705 66.779 119.634 68.544 2.922 1.772 7.523 2.859 12.309 2.859s9.381-1.094 12.309-2.859c2.929-1.765 119.634-68.544 119.634-68.544 6.129-3.411 8.056-8.028 8.056-11.848v-34.89h-.013Z" fill="#002332" stroke="#16F3BE" stroke-width="2" stroke-linecap="round" stroke-linejoin="round"/><path d="M140.995 95.17c13.817 0 25.018-6.304 25.018-14.08 0-7.774-11.201-14.077-25.018-14.077s-25.018 6.303-25.018 14.078c0 7.775 11.201 14.078 25.018 14.078ZM207.955 117.37c0 1.043-1.471 1.891-3.29 1.891s-3.296-.848-3.296-1.891c0-1.043 1.477-1.891 3.296-1.891 1.819 0 3.29.848 3.29 1.891Z" fill="#002332" stroke="#CCEFFE" stroke-width=".5" stroke-linecap="round" stroke-linejoin="round"/><path d="M206.56 117.37c0 .603-.849 1.093-1.901 1.093s-1.902-.49-1.902-1.093.85-1.093 1.902-1.093 1.901.49 1.901 1.093ZM80.982 44.705c0 1.043-1.477 1.89-3.29 1.89s-3.29-.847-3.29-1.89 1.477-1.891 3.29-1.891 3.29.848 3.29 1.89Z" fill="#002332" stroke="#CCEFFE" stroke-width=".5" stroke-linecap="round" stroke-linejoin="round"/><path d="M79.587 44.705c0 .603-.85 1.093-1.902 1.093s-1.901-.49-1.901-1.093.85-1.093 1.901-1.093c1.052 0 1.902.49 1.902 1.093Z" fill="#002332" stroke="#CCEFFE" stroke-width=".5" stroke-linecap="round" stroke-linejoin="round"/><path d="M160.955 80.437c0 6.364-8.938 11.522-19.96 11.522-11.023 0-19.96-5.158-19.96-11.522 0-6.363 8.937-11.521 19.96-11.521 11.022 0 19.96 5.158 19.96 11.521Z" stroke="#CCEFFE" stroke-width=".5" stroke-linecap="round" stroke-linejoin="round"/><path d="M163.655 81.09c0 7.225-10.148 13.08-22.66 13.08-12.513 0-22.661-5.855-22.661-13.08 0-7.224 10.148-13.079 22.661-13.079 12.512 0 22.66 5.855 22.66 13.08Z" stroke="#CCEFFE" stroke-width=".5" stroke-linecap="round" stroke-linejoin="round"/><path d="M198.662 80.412c0 18.381-25.816 33.283-57.667 33.283-31.852 0-57.668-14.902-57.668-33.283 0-18.382 25.816-33.283 57.668-33.283 31.851 0 57.667 14.902 57.667 33.283Z" stroke="#CCEFFE" stroke-width=".5" stroke-linecap="round" stroke-linejoin="round"/><path d="M207.707 81.015c0 21.265-29.867 38.503-66.713 38.503-36.846 0-66.713-17.238-66.713-38.503s29.867-38.503 66.713-38.503c36.846 0 66.713 17.238 66.713 38.503Z" stroke="#CCEFFE" stroke-width=".5" stroke-linecap="round" stroke-linejoin="round"/><path d="M204.405 81.116c0 20.209-28.39 36.593-63.41 36.593-35.021 0-63.411-16.384-63.411-36.593 0-20.21 28.39-36.593 63.411-36.593 35.02 0 63.41 16.383 63.41 36.593Z" stroke="#CCEFFE" stroke-width=".5" stroke-linecap="round" stroke-linejoin="round"/><path d="M89.43 105.365c-8.62-6.39-13.754-14.418-13.754-23.144 0-20.819 29.246-37.699 65.319-37.699 36.072 0 65.325 16.88 65.325 37.7 0 8.845-5.28 16.98-14.116 23.407" stroke="#CCEFFE" stroke-width=".5" stroke-linecap="round" stroke-linejoin="round"/><path d="M201.008 81.769c0 19.129-26.869 34.633-60.013 34.633-33.145 0-60.014-15.504-60.014-34.633 0-19.13 26.869-34.64 60.014-34.64 33.144 0 60.013 15.51 60.013 34.64Z" stroke="#CCEFFE" stroke-width=".5" stroke-linecap="round" stroke-linejoin="round"/><path d="M280.994 115.749c-.026 3.116-2.105 6.182-5.673 8.261 0 0-107.077 61.106-119.786 68.418-4.228 2.432-9.52 3.361-14.534 3.361-5.014 0-10.306-.929-14.534-3.361C113.758 185.116 6.681 124.01 6.681 124.01c-3.594-2.092-5.673-5.176-5.673-8.311" stroke="#CCEFFE" stroke-width=".5" stroke-linecap="round" stroke-linejoin="round"/><path d="M140.995 159.071c-6.282 0-9.825-1.558-14.535-4.216-4.709-2.663-105.301-60.239-116.597-66.665-7.828-4.454-6.281-10.24-.253-13.953 0 0 114.518-65.635 118.01-67.665 3.493-2.029 7.676-3.536 13.375-3.536 5.698 0 9.875 1.507 13.374 3.536 3.499 2.03 118.011 67.665 118.011 67.665 6.028 3.713 7.574 9.499-.254 13.953-11.295 6.426-111.881 64.002-116.597 66.665-4.71 2.658-8.259 4.216-14.534 4.216ZM7.131 89.559v34.715c0 1.168.305 2.336 1.268 2.896M274.858 89.559v34.715c0 1.168-.304 2.336-1.268 2.896M155.529 157.713v34.715c0 1.376-.108 2.425-1.166 3.047M126.46 157.713v34.715c0 1.376.108 2.425 1.167 3.047" stroke="#CCEFFE" stroke-width=".5" stroke-linecap="round" stroke-linejoin="round"/><path d="M13.426 113.387c.729.415 1.312 1.42 1.312 2.249 0 .823-.59 1.156-1.318.741-.723-.414-1.313-1.42-1.306-2.242 0-.823.59-1.156 1.318-.742l-.006-.006Z" fill="#002332" stroke="#CCEFFE" stroke-width=".5" stroke-linecap="round" stroke-linejoin="round"/><path d="M14.726 115.768c-.039-.019-.083-.038-.12-.063-.723-.415-1.313-1.42-1.307-2.243v-.132" fill="#002332"/><path d="M14.726 115.768c-.039-.019-.083-.038-.12-.063-.723-.415-1.313-1.42-1.307-2.243v-.132" stroke="#CCEFFE" stroke-width=".5" stroke-linecap="round" stroke-linejoin="round"/><path d="M17.717 115.843c.729.415 1.312 1.42 1.312 2.249 0 .823-.59 1.156-1.318.741-.723-.414-1.313-1.419-1.306-2.242 0-.823.59-1.156 1.318-.742l-.006-.006Z" fill="#002332" stroke="#CCEFFE" stroke-width=".5" stroke-linecap="round" stroke-linejoin="round"/><path d="M19.016 118.224c-.038-.019-.082-.038-.12-.063-.723-.415-1.312-1.42-1.306-2.243v-.132" fill="#002332"/><path d="M19.016 118.224c-.038-.019-.082-.038-.12-.063-.723-.415-1.312-1.42-1.306-2.243v-.132" stroke="#CCEFFE" stroke-width=".5" stroke-linecap="round" stroke-linejoin="round"/><path d="M22.008 118.3c.729.414 1.312 1.419 1.312 2.249 0 .823-.59 1.155-1.318.741-.723-.415-1.313-1.42-1.306-2.243 0-.823.59-1.156 1.318-.741l-.006-.006Z" fill="#002332" stroke="#CCEFFE" stroke-width=".5" stroke-linecap="round" stroke-linejoin="round"/><path d="M23.308 120.681c-.038-.019-.083-.038-.12-.063-.723-.415-1.313-1.42-1.307-2.243v-.132" fill="#002332"/><path d="M23.308 120.681c-.038-.019-.083-.038-.12-.063-.723-.415-1.313-1.42-1.307-2.243v-.132" stroke="#CCEFFE" stroke-width=".5" stroke-linecap="round" stroke-linejoin="round"/><path d="M26.3 120.756c.728.414 1.311 1.419 1.311 2.249 0 .823-.589 1.155-1.318.741-.723-.415-1.312-1.42-1.306-2.243 0-.823.59-1.156 1.319-.741l-.007-.006Z" fill="#002332" stroke="#CCEFFE" stroke-width=".5" stroke-linecap="round" stroke-linejoin="round"/><path d="M27.6 123.137c-.039-.019-.083-.038-.121-.063-.723-.415-1.312-1.42-1.306-2.243v-.132" fill="#002332"/><path d="M27.6 123.137c-.039-.019-.083-.038-.121-.063-.723-.415-1.312-1.42-1.306-2.243v-.132" stroke="#CCEFFE" stroke-width=".5" stroke-linecap="round" stroke-linejoin="round"/><path d="M30.59 123.212c.73.415 1.313 1.42 1.313 2.249 0 .823-.59 1.156-1.319.741-.723-.414-1.312-1.419-1.306-2.242 0-.823.59-1.156 1.319-.742l-.007-.006Z" fill="#002332" stroke="#CCEFFE" stroke-width=".5" stroke-linecap="round" stroke-linejoin="round"/><path d="M31.89 125.587c-.038-.019-.083-.038-.12-.063-.723-.415-1.313-1.42-1.307-2.243v-.132" fill="#002332"/><path d="M31.89 125.587c-.038-.019-.083-.038-.12-.063-.723-.415-1.313-1.42-1.307-2.243v-.132" stroke="#CCEFFE" stroke-width=".5" stroke-linecap="round" stroke-linejoin="round"/><path d="M34.882 125.668c.729.415 1.312 1.42 1.312 2.249 0 .823-.59 1.156-1.318.741-.723-.414-1.313-1.419-1.306-2.242 0-.823.59-1.156 1.318-.742l-.006-.006Z" fill="#002332" stroke="#CCEFFE" stroke-width=".5" stroke-linecap="round" stroke-linejoin="round"/><path d="M36.182 128.043c-.038-.019-.083-.038-.12-.063-.723-.414-1.313-1.42-1.307-2.243v-.132" fill="#002332"/><path d="M36.182 128.043c-.038-.019-.083-.038-.12-.063-.723-.414-1.313-1.42-1.307-2.243v-.132" stroke="#CCEFFE" stroke-width=".5" stroke-linecap="round" stroke-linejoin="round"/><path d="M39.173 128.118c.729.415 1.312 1.42 1.312 2.249 0 .823-.59 1.156-1.318.741-.723-.414-1.312-1.42-1.306-2.243 0-.822.59-1.155 1.318-.741l-.006-.006Z" fill="#002332" stroke="#CCEFFE" stroke-width=".5" stroke-linecap="round" stroke-linejoin="round"/><path d="M40.472 130.499c-.038-.019-.082-.038-.12-.063-.723-.414-1.312-1.42-1.306-2.243v-.131" fill="#002332"/><path d="M40.472 130.499c-.038-.019-.082-.038-.12-.063-.723-.414-1.312-1.42-1.306-2.243v-.131" stroke="#CCEFFE" stroke-width=".5" stroke-linecap="round" stroke-linejoin="round"/><path d="M43.464 130.574c.729.415 1.312 1.42 1.312 2.249 0 .823-.59 1.156-1.318.742-.723-.415-1.312-1.42-1.306-2.243 0-.823.59-1.156 1.318-.741l-.006-.007Z" fill="#002332" stroke="#CCEFFE" stroke-width=".5" stroke-linecap="round" stroke-linejoin="round"/><path d="M44.764 132.956c-.038-.019-.083-.038-.12-.063-.723-.415-1.313-1.42-1.306-2.243v-.132" fill="#002332"/><path d="M44.764 132.956c-.038-.019-.083-.038-.12-.063-.723-.415-1.313-1.42-1.306-2.243v-.132" stroke="#CCEFFE" stroke-width=".5" stroke-linecap="round" stroke-linejoin="round"/><path d="M47.755 133.031c.729.415 1.312 1.42 1.312 2.249 0 .823-.59 1.156-1.318.741-.723-.414-1.312-1.419-1.306-2.242 0-.823.59-1.156 1.318-.742l-.006-.006Z" fill="#002332" stroke="#CCEFFE" stroke-width=".5" stroke-linecap="round" stroke-linejoin="round"/><path d="M49.055 135.412c-.038-.019-.083-.038-.12-.063-.723-.414-1.313-1.419-1.306-2.242v-.132" fill="#002332"/><path d="M49.055 135.412c-.038-.019-.083-.038-.12-.063-.723-.414-1.313-1.419-1.306-2.242v-.132" stroke="#CCEFFE" stroke-width=".5" stroke-linecap="round" stroke-linejoin="round"/><path d="M52.047 135.487c.728.415 1.312 1.42 1.312 2.249 0 .823-.59 1.156-1.319.741-.722-.414-1.312-1.419-1.306-2.242 0-.823.59-1.156 1.319-.742l-.006-.006ZM56.331 137.943c.73.415 1.312 1.42 1.312 2.249 0 .823-.59 1.156-1.318.741-.723-.414-1.312-1.419-1.306-2.242 0-.823.59-1.156 1.319-.742l-.007-.006ZM60.622 140.4c.73.414 1.312 1.419 1.312 2.249 0 .823-.59 1.156-1.318.741-.723-.415-1.312-1.42-1.306-2.243 0-.823.59-1.156 1.319-.741l-.007-.006ZM64.914 142.856c.729.415 1.312 1.42 1.312 2.249 0 .823-.59 1.156-1.319.741-.722-.414-1.312-1.419-1.305-2.242 0-.823.59-1.156 1.318-.742l-.006-.006ZM69.205 145.312c.729.415 1.312 1.42 1.312 2.249 0 .823-.59 1.156-1.319.742-.722-.415-1.312-1.42-1.305-2.243 0-.823.59-1.156 1.318-.741l-.006-.007ZM73.496 147.768c.73.415 1.312 1.42 1.312 2.249 0 .823-.59 1.156-1.318.742-.723-.415-1.312-1.42-1.306-2.243 0-.823.59-1.156 1.319-.741l-.007-.007ZM77.787 150.218c.73.415 1.312 1.42 1.312 2.25 0 .822-.59 1.155-1.318.741-.723-.415-1.312-1.42-1.306-2.243 0-.823.59-1.156 1.319-.741l-.007-.007ZM82.078 152.675c.73.414 1.312 1.419 1.312 2.249 0 .822-.59 1.155-1.318.741-.723-.415-1.312-1.42-1.306-2.243 0-.823.59-1.156 1.319-.741l-.007-.006ZM86.37 155.131c.729.415 1.312 1.42 1.312 2.249 0 .823-.59 1.156-1.319.741-.722-.414-1.312-1.419-1.305-2.242 0-.823.59-1.156 1.318-.742l-.006-.006Z" fill="#002332" stroke="#CCEFFE" stroke-width=".5" stroke-linecap="round" stroke-linejoin="round"/><path d="M87.675 157.512c-.038-.019-.082-.038-.12-.063-.723-.414-1.312-1.419-1.306-2.242v-.132" fill="#002332"/><path d="M87.675 157.512c-.038-.019-.082-.038-.12-.063-.723-.414-1.312-1.419-1.306-2.242v-.132" stroke="#CCEFFE" stroke-width=".5" stroke-linecap="round" stroke-linejoin="round"/><path d="M90.66 157.588c.73.414 1.312 1.419 1.312 2.249 0 .823-.59 1.156-1.318.741-.723-.415-1.312-1.42-1.306-2.243 0-.823.59-1.156 1.319-.741l-.007-.006Z" fill="#002332" stroke="#CCEFFE" stroke-width=".5" stroke-linecap="round" stroke-linejoin="round"/><path d="M91.966 159.969c-.038-.019-.082-.038-.12-.063-.723-.415-1.312-1.42-1.306-2.243v-.132" fill="#002332"/><path d="M91.966 159.969c-.038-.019-.082-.038-.12-.063-.723-.415-1.312-1.42-1.306-2.243v-.132" stroke="#CCEFFE" stroke-width=".5" stroke-linecap="round" stroke-linejoin="round"/><path d="M94.951 160.044c.73.414 1.312 1.419 1.312 2.249 0 .823-.59 1.156-1.318.741-.723-.415-1.312-1.42-1.306-2.243 0-.823.59-1.156 1.319-.741l-.007-.006Z" fill="#002332" stroke="#CCEFFE" stroke-width=".5" stroke-linecap="round" stroke-linejoin="round"/><path d="M96.257 162.418c-.038-.018-.082-.037-.12-.062-.723-.415-1.312-1.42-1.306-2.243v-.132" fill="#002332"/><path d="M96.257 162.418c-.038-.018-.082-.037-.12-.062-.723-.415-1.312-1.42-1.306-2.243v-.132" stroke="#CCEFFE" stroke-width=".5" stroke-linecap="round" stroke-linejoin="round"/><path d="M99.243 162.5c.729.414 1.312 1.42 1.312 2.249 0 .823-.59 1.156-1.319.741-.722-.415-1.312-1.42-1.305-2.243 0-.823.59-1.156 1.318-.741l-.006-.006Z" fill="#002332" stroke="#CCEFFE" stroke-width=".5" stroke-linecap="round" stroke-linejoin="round"/><path d="M100.549 164.874c-.038-.018-.083-.037-.121-.062-.722-.415-1.312-1.42-1.305-2.243v-.132" fill="#002332"/><path d="M100.549 164.874c-.038-.018-.083-.037-.121-.062-.722-.415-1.312-1.42-1.305-2.243v-.132" stroke="#CCEFFE" stroke-width=".5" stroke-linecap="round" stroke-linejoin="round"/><path d="M103.534 164.956c.729.415 1.312 1.42 1.312 2.249 0 .823-.59 1.156-1.319.742-.722-.415-1.312-1.42-1.305-2.243 0-.823.589-1.156 1.318-.741l-.006-.007Z" fill="#002332" stroke="#CCEFFE" stroke-width=".5" stroke-linecap="round" stroke-linejoin="round"/><path d="M104.84 167.332c-.038-.019-.083-.038-.121-.063-.722-.415-1.312-1.42-1.305-2.243v-.132" fill="#002332"/><path d="M104.84 167.332c-.038-.019-.083-.038-.121-.063-.722-.415-1.312-1.42-1.305-2.243v-.132" stroke="#CCEFFE" stroke-width=".5" stroke-linecap="round" stroke-linejoin="round"/><path d="M107.825 167.413c.729.414 1.312 1.42 1.312 2.249 0 .823-.589 1.156-1.318.741-.723-.414-1.312-1.42-1.306-2.243 0-.823.59-1.155 1.319-.741l-.007-.006Z" fill="#002332" stroke="#CCEFFE" stroke-width=".5" stroke-linecap="round" stroke-linejoin="round"/><path d="M109.131 169.788c-.038-.019-.082-.038-.12-.063-.723-.415-1.312-1.42-1.306-2.243v-.132" fill="#002332"/><path d="M109.131 169.788c-.038-.019-.082-.038-.12-.063-.723-.415-1.312-1.42-1.306-2.243v-.132" stroke="#CCEFFE" stroke-width=".5" stroke-linecap="round" stroke-linejoin="round"/><path d="M112.116 169.863c.729.414 1.312 1.419 1.312 2.249 0 .823-.589 1.155-1.318.741-.723-.415-1.312-1.42-1.306-2.243 0-.823.59-1.156 1.319-.741l-.007-.006Z" fill="#002332" stroke="#CCEFFE" stroke-width=".5" stroke-linecap="round" stroke-linejoin="round"/><path d="M113.422 172.244c-.038-.019-.082-.038-.12-.063-.723-.415-1.312-1.42-1.306-2.243v-.132" fill="#002332"/><path d="M113.422 172.244c-.038-.019-.082-.038-.12-.063-.723-.415-1.312-1.42-1.306-2.243v-.132" stroke="#CCEFFE" stroke-width=".5" stroke-linecap="round" stroke-linejoin="round"/><path d="M116.408 172.319c.729.415 1.312 1.42 1.312 2.249 0 .823-.59 1.156-1.319.741-.722-.414-1.312-1.419-1.305-2.242 0-.823.589-1.156 1.318-.742l-.006-.006Z" fill="#002332" stroke="#CCEFFE" stroke-width=".5" stroke-linecap="round" stroke-linejoin="round"/><path d="M117.714 174.7c-.038-.019-.083-.038-.121-.063-.722-.414-1.312-1.419-1.305-2.242v-.132" fill="#002332"/><path d="M117.714 174.7c-.038-.019-.083-.038-.121-.063-.722-.414-1.312-1.419-1.305-2.242v-.132" stroke="#CCEFFE" stroke-width=".5" stroke-linecap="round" stroke-linejoin="round"/><path d="M120.699 174.775c.729.415 1.312 1.42 1.312 2.249 0 .823-.59 1.156-1.318.741-.723-.414-1.313-1.419-1.306-2.242 0-.823.589-1.156 1.318-.742l-.006-.006Z" fill="#002332" stroke="#CCEFFE" stroke-width=".5" stroke-linecap="round" stroke-linejoin="round"/><path d="M122.005 177.156c-.038-.019-.083-.037-.121-.063-.722-.414-1.312-1.419-1.305-2.242v-.132" fill="#002332"/><path d="M122.005 177.156c-.038-.019-.083-.037-.121-.063-.722-.414-1.312-1.419-1.305-2.242v-.132" stroke="#CCEFFE" stroke-width=".5" stroke-linecap="round" stroke-linejoin="round"/><path d="M13.426 118.319c.729.414 1.312 1.419 1.312 2.249 0 .823-.59 1.156-1.318.741-.723-.415-1.313-1.42-1.306-2.243 0-.823.59-1.156 1.318-.741l-.006-.006Z" fill="#002332" stroke="#CCEFFE" stroke-width=".5" stroke-linecap="round" stroke-linejoin="round"/><path d="M14.726 120.7c-.039-.019-.083-.038-.12-.063-.723-.415-1.313-1.42-1.307-2.243v-.132" fill="#002332"/><path d="M14.726 120.7c-.039-.019-.083-.038-.12-.063-.723-.415-1.313-1.42-1.307-2.243v-.132" stroke="#CCEFFE" stroke-width=".5" stroke-linecap="round" stroke-linejoin="round"/><path d="M17.717 120.775c.729.414 1.312 1.419 1.312 2.249 0 .823-.59 1.156-1.318.741-.723-.415-1.313-1.42-1.306-2.243 0-.823.59-1.156 1.318-.741l-.006-.006Z" fill="#002332" stroke="#CCEFFE" stroke-width=".5" stroke-linecap="round" stroke-linejoin="round"/><path d="M19.016 123.156c-.038-.019-.082-.038-.12-.063-.723-.415-1.312-1.42-1.306-2.243v-.132" fill="#002332"/><path d="M19.016 123.156c-.038-.019-.082-.038-.12-.063-.723-.415-1.312-1.42-1.306-2.243v-.132" stroke="#CCEFFE" stroke-width=".5" stroke-linecap="round" stroke-linejoin="round"/><path d="M22.008 123.231c.729.414 1.312 1.419 1.312 2.249 0 .823-.59 1.156-1.318.741-.723-.415-1.313-1.42-1.306-2.243 0-.823.59-1.156 1.318-.741l-.006-.006Z" fill="#002332" stroke="#CCEFFE" stroke-width=".5" stroke-linecap="round" stroke-linejoin="round"/><path d="M23.308 125.606c-.038-.019-.083-.038-.12-.063-.723-.415-1.313-1.42-1.307-2.243v-.132" fill="#002332"/><path d="M23.308 125.606c-.038-.019-.083-.038-.12-.063-.723-.415-1.313-1.42-1.307-2.243v-.132" stroke="#CCEFFE" stroke-width=".5" stroke-linecap="round" stroke-linejoin="round"/><path d="M26.3 125.687c.728.415 1.311 1.42 1.311 2.249 0 .823-.589 1.156-1.318.742-.723-.415-1.312-1.42-1.306-2.243 0-.823.59-1.156 1.319-.741l-.007-.007Z" fill="#002332" stroke="#CCEFFE" stroke-width=".5" stroke-linecap="round" stroke-linejoin="round"/><path d="M27.6 128.062c-.039-.019-.083-.038-.121-.063-.723-.414-1.312-1.42-1.306-2.243v-.131" fill="#002332"/><path d="M27.6 128.062c-.039-.019-.083-.038-.121-.063-.723-.414-1.312-1.42-1.306-2.243v-.131" stroke="#CCEFFE" stroke-width=".5" stroke-linecap="round" stroke-linejoin="round"/><path d="M30.59 128.144c.73.414 1.313 1.42 1.313 2.249 0 .823-.59 1.156-1.319.741-.723-.415-1.312-1.42-1.306-2.243 0-.823.59-1.156 1.319-.741l-.007-.006Z" fill="#002332" stroke="#CCEFFE" stroke-width=".5" stroke-linecap="round" stroke-linejoin="round"/><path d="M31.89 130.519c-.038-.019-.083-.038-.12-.063-.723-.415-1.313-1.42-1.307-2.243v-.132" fill="#002332"/><path d="M31.89 130.519c-.038-.019-.083-.038-.12-.063-.723-.415-1.313-1.42-1.307-2.243v-.132" stroke="#CCEFFE" stroke-width=".5" stroke-linecap="round" stroke-linejoin="round"/><path d="M34.882 130.6c.729.415 1.312 1.42 1.312 2.249 0 .823-.59 1.156-1.318.742-.723-.415-1.313-1.42-1.306-2.243 0-.823.59-1.156 1.318-.741l-.006-.007Z" fill="#002332" stroke="#CCEFFE" stroke-width=".5" stroke-linecap="round" stroke-linejoin="round"/><path d="M36.182 132.975c-.038-.019-.083-.038-.12-.063-.723-.414-1.313-1.42-1.307-2.243v-.131" fill="#002332"/><path d="M36.182 132.975c-.038-.019-.083-.038-.12-.063-.723-.414-1.313-1.42-1.307-2.243v-.131" stroke="#CCEFFE" stroke-width=".5" stroke-linecap="round" stroke-linejoin="round"/><path d="M39.173 133.05c.729.415 1.312 1.42 1.312 2.249 0 .823-.59 1.156-1.318.741-.723-.414-1.312-1.419-1.306-2.242 0-.823.59-1.156 1.318-.742l-.006-.006Z" fill="#002332" stroke="#CCEFFE" stroke-width=".5" stroke-linecap="round" stroke-linejoin="round"/><path d="M40.472 135.431c-.038-.019-.082-.038-.12-.063-.723-.414-1.312-1.419-1.306-2.242v-.132" fill="#002332"/><path d="M40.472 135.431c-.038-.019-.082-.038-.12-.063-.723-.414-1.312-1.419-1.306-2.242v-.132" stroke="#CCEFFE" stroke-width=".5" stroke-linecap="round" stroke-linejoin="round"/><path d="M43.464 135.506c.729.415 1.312 1.42 1.312 2.249 0 .823-.59 1.156-1.318.741-.723-.414-1.312-1.419-1.306-2.242 0-.823.59-1.156 1.318-.742l-.006-.006Z" fill="#002332" stroke="#CCEFFE" stroke-width=".5" stroke-linecap="round" stroke-linejoin="round"/><path d="M44.764 137.887c-.038-.019-.083-.038-.12-.063-.723-.414-1.313-1.419-1.306-2.242v-.132" fill="#002332"/><path d="M44.764 137.887c-.038-.019-.083-.038-.12-.063-.723-.414-1.313-1.419-1.306-2.242v-.132" stroke="#CCEFFE" stroke-width=".5" stroke-linecap="round" stroke-linejoin="round"/><path d="M47.755 137.963c.729.414 1.312 1.419 1.312 2.249 0 .823-.59 1.156-1.318.741-.723-.415-1.312-1.42-1.306-2.243 0-.823.59-1.156 1.318-.741l-.006-.006Z" fill="#002332" stroke="#CCEFFE" stroke-width=".5" stroke-linecap="round" stroke-linejoin="round"/><path d="M49.055 140.344c-.038-.019-.083-.038-.12-.063-.723-.415-1.313-1.42-1.306-2.243v-.132" fill="#002332"/><path d="M49.055 140.344c-.038-.019-.083-.038-.12-.063-.723-.415-1.313-1.42-1.306-2.243v-.132" stroke="#CCEFFE" stroke-width=".5" stroke-linecap="round" stroke-linejoin="round"/><path d="M52.047 140.419c.728.415 1.312 1.42 1.312 2.249 0 .823-.59 1.156-1.319.741-.722-.414-1.312-1.419-1.306-2.242 0-.823.59-1.156 1.319-.742l-.006-.006ZM56.331 142.875c.73.415 1.312 1.42 1.312 2.249 0 .823-.59 1.156-1.318.742-.723-.415-1.312-1.42-1.306-2.243 0-.823.59-1.156 1.319-.741l-.007-.007ZM60.622 145.332c.73.414 1.312 1.42 1.312 2.249 0 .823-.59 1.156-1.318.741-.723-.415-1.312-1.42-1.306-2.243 0-.823.59-1.156 1.319-.741l-.007-.006ZM64.914 147.788c.729.414 1.312 1.42 1.312 2.249 0 .823-.59 1.156-1.319.741-.722-.414-1.312-1.42-1.305-2.243 0-.823.59-1.155 1.318-.741l-.006-.006ZM69.205 150.238c.729.415 1.312 1.42 1.312 2.249 0 .823-.59 1.156-1.319.741-.722-.414-1.312-1.419-1.305-2.242 0-.823.59-1.156 1.318-.742l-.006-.006ZM73.496 152.695c.73.414 1.312 1.419 1.312 2.249 0 .823-.59 1.155-1.318.741-.723-.415-1.312-1.42-1.306-2.243 0-.823.59-1.156 1.319-.741l-.007-.006ZM77.787 155.151c.73.414 1.312 1.419 1.312 2.249 0 .823-.59 1.156-1.318.741-.723-.415-1.312-1.42-1.306-2.243 0-.823.59-1.156 1.319-.741l-.007-.006ZM82.078 157.607c.73.414 1.312 1.419 1.312 2.249 0 .823-.59 1.156-1.318.741-.723-.415-1.312-1.42-1.306-2.243 0-.823.59-1.156 1.319-.741l-.007-.006ZM86.37 160.063c.729.414 1.312 1.42 1.312 2.249 0 .823-.59 1.156-1.319.741-.722-.415-1.312-1.42-1.305-2.243 0-.823.59-1.156 1.318-.741l-.006-.006Z" fill="#002332" stroke="#CCEFFE" stroke-width=".5" stroke-linecap="round" stroke-linejoin="round"/><path d="M87.675 162.444c-.038-.019-.082-.037-.12-.063-.723-.414-1.312-1.419-1.306-2.242v-.132" fill="#002332"/><path d="M87.675 162.444c-.038-.019-.082-.037-.12-.063-.723-.414-1.312-1.419-1.306-2.242v-.132" stroke="#CCEFFE" stroke-width=".5" stroke-linecap="round" stroke-linejoin="round"/><path d="M90.66 162.519c.73.415 1.312 1.42 1.312 2.249 0 .823-.59 1.156-1.318.742-.723-.415-1.312-1.42-1.306-2.243 0-.823.59-1.156 1.319-.741l-.007-.007Z" fill="#002332" stroke="#CCEFFE" stroke-width=".5" stroke-linecap="round" stroke-linejoin="round"/><path d="M91.966 164.9c-.038-.019-.082-.038-.12-.063-.723-.415-1.312-1.42-1.306-2.243v-.132" fill="#002332"/><path d="M91.966 164.9c-.038-.019-.082-.038-.12-.063-.723-.415-1.312-1.42-1.306-2.243v-.132" stroke="#CCEFFE" stroke-width=".5" stroke-linecap="round" stroke-linejoin="round"/><path d="M94.951 164.976c.73.414 1.312 1.42 1.312 2.249 0 .823-.59 1.156-1.318.741-.723-.415-1.312-1.42-1.306-2.243 0-.823.59-1.156 1.319-.741l-.007-.006Z" fill="#002332" stroke="#CCEFFE" stroke-width=".5" stroke-linecap="round" stroke-linejoin="round"/><path d="M96.257 167.351c-.038-.019-.082-.038-.12-.063-.723-.415-1.312-1.42-1.306-2.243v-.132" fill="#002332"/><path d="M96.257 167.351c-.038-.019-.082-.038-.12-.063-.723-.415-1.312-1.42-1.306-2.243v-.132" stroke="#CCEFFE" stroke-width=".5" stroke-linecap="round" stroke-linejoin="round"/><path d="M99.243 167.432c.729.414 1.312 1.42 1.312 2.249 0 .823-.59 1.156-1.319.741-.722-.414-1.312-1.42-1.305-2.243 0-.823.59-1.155 1.318-.741l-.006-.006Z" fill="#002332" stroke="#CCEFFE" stroke-width=".5" stroke-linecap="round" stroke-linejoin="round"/><path d="M100.549 169.806c-.038-.019-.083-.038-.121-.063-.722-.414-1.312-1.419-1.305-2.242v-.132" fill="#002332"/><path d="M100.549 169.806c-.038-.019-.083-.038-.121-.063-.722-.414-1.312-1.419-1.305-2.242v-.132" stroke="#CCEFFE" stroke-width=".5" stroke-linecap="round" stroke-linejoin="round"/><path d="M103.534 169.882c.729.415 1.312 1.42 1.312 2.249 0 .823-.59 1.156-1.319.741-.722-.414-1.312-1.419-1.305-2.242 0-.823.589-1.156 1.318-.742l-.006-.006Z" fill="#002332" stroke="#CCEFFE" stroke-width=".5" stroke-linecap="round" stroke-linejoin="round"/><path d="M104.84 172.263c-.038-.019-.083-.038-.121-.063-.722-.414-1.312-1.419-1.305-2.242v-.132" fill="#002332"/><path d="M104.84 172.263c-.038-.019-.083-.038-.121-.063-.722-.414-1.312-1.419-1.305-2.242v-.132" stroke="#CCEFFE" stroke-width=".5" stroke-linecap="round" stroke-linejoin="round"/><path d="M107.825 172.338c.729.415 1.312 1.42 1.312 2.249 0 .823-.589 1.156-1.318.741-.723-.414-1.312-1.419-1.306-2.242 0-.823.59-1.156 1.319-.742l-.007-.006Z" fill="#002332" stroke="#CCEFFE" stroke-width=".5" stroke-linecap="round" stroke-linejoin="round"/><path d="M109.131 174.719c-.038-.019-.082-.037-.12-.063-.723-.414-1.312-1.419-1.306-2.242v-.132" fill="#002332"/><path d="M109.131 174.719c-.038-.019-.082-.037-.12-.063-.723-.414-1.312-1.419-1.306-2.242v-.132" stroke="#CCEFFE" stroke-width=".5" stroke-linecap="round" stroke-linejoin="round"/><path d="M112.116 174.795c.729.414 1.312 1.419 1.312 2.249 0 .823-.589 1.156-1.318.741-.723-.415-1.312-1.42-1.306-2.243 0-.823.59-1.156 1.319-.741l-.007-.006Z" fill="#002332" stroke="#CCEFFE" stroke-width=".5" stroke-linecap="round" stroke-linejoin="round"/><path d="M113.422 177.176c-.038-.019-.082-.038-.12-.063-.723-.415-1.312-1.42-1.306-2.243v-.132" fill="#002332"/><path d="M113.422 177.176c-.038-.019-.082-.038-.12-.063-.723-.415-1.312-1.42-1.306-2.243v-.132" stroke="#CCEFFE" stroke-width=".5" stroke-linecap="round" stroke-linejoin="round"/><path d="M116.408 177.251c.729.414 1.312 1.419 1.312 2.249 0 .823-.59 1.156-1.319.741-.722-.415-1.312-1.42-1.305-2.243 0-.823.589-1.156 1.318-.741l-.006-.006Z" fill="#002332" stroke="#CCEFFE" stroke-width=".5" stroke-linecap="round" stroke-linejoin="round"/><path d="M117.714 179.632c-.038-.019-.083-.038-.121-.063-.722-.415-1.312-1.42-1.305-2.243v-.132" fill="#002332"/><path d="M117.714 179.632c-.038-.019-.083-.038-.121-.063-.722-.415-1.312-1.42-1.305-2.243v-.132" stroke="#CCEFFE" stroke-width=".5" stroke-linecap="round" stroke-linejoin="round"/><path d="M120.699 179.707c.729.414 1.312 1.42 1.312 2.249 0 .823-.59 1.156-1.318.741-.723-.415-1.313-1.42-1.306-2.243 0-.823.589-1.156 1.318-.741l-.006-.006Z" fill="#002332" stroke="#CCEFFE" stroke-width=".5" stroke-linecap="round" stroke-linejoin="round"/><path d="M122.005 182.088c-.038-.019-.083-.038-.121-.063-.722-.415-1.312-1.42-1.305-2.243v-.132" fill="#002332"/><path d="M122.005 182.088c-.038-.019-.083-.038-.121-.063-.722-.415-1.312-1.42-1.305-2.243v-.132" stroke="#CCEFFE" stroke-width=".5" stroke-linecap="round" stroke-linejoin="round"/><path d="M13.426 123.25c.729.414 1.312 1.42 1.312 2.249 0 .823-.59 1.156-1.318.741-.723-.415-1.313-1.42-1.306-2.243 0-.823.59-1.156 1.318-.741l-.006-.006Z" fill="#002332" stroke="#CCEFFE" stroke-width=".5" stroke-linecap="round" stroke-linejoin="round"/><path d="M14.726 125.631c-.039-.019-.083-.038-.12-.063-.723-.415-1.313-1.42-1.307-2.243v-.132" fill="#002332"/><path d="M14.726 125.631c-.039-.019-.083-.038-.12-.063-.723-.415-1.313-1.42-1.307-2.243v-.132" stroke="#CCEFFE" stroke-width=".5" stroke-linecap="round" stroke-linejoin="round"/><path d="M17.717 125.706c.729.414 1.312 1.42 1.312 2.249 0 .823-.59 1.156-1.318.741-.723-.415-1.313-1.42-1.306-2.243 0-.823.59-1.156 1.318-.741l-.006-.006Z" fill="#002332" stroke="#CCEFFE" stroke-width=".5" stroke-linecap="round" stroke-linejoin="round"/><path d="M19.016 128.081c-.038-.019-.082-.038-.12-.063-.723-.415-1.312-1.42-1.306-2.243v-.132" fill="#002332"/><path d="M19.016 128.081c-.038-.019-.082-.038-.12-.063-.723-.415-1.312-1.42-1.306-2.243v-.132" stroke="#CCEFFE" stroke-width=".5" stroke-linecap="round" stroke-linejoin="round"/><path d="M22.008 128.162c.729.415 1.312 1.42 1.312 2.249 0 .823-.59 1.156-1.318.742-.723-.415-1.313-1.42-1.306-2.243 0-.823.59-1.156 1.318-.741l-.006-.007Z" fill="#002332" stroke="#CCEFFE" stroke-width=".5" stroke-linecap="round" stroke-linejoin="round"/><path d="M23.308 130.537c-.038-.019-.083-.038-.12-.063-.723-.414-1.313-1.42-1.307-2.242v-.132" fill="#002332"/><path d="M23.308 130.537c-.038-.019-.083-.038-.12-.063-.723-.414-1.313-1.42-1.307-2.242v-.132" stroke="#CCEFFE" stroke-width=".5" stroke-linecap="round" stroke-linejoin="round"/><path d="M26.3 130.618c.728.415 1.311 1.42 1.311 2.249 0 .823-.589 1.156-1.318.742-.723-.415-1.312-1.42-1.306-2.243 0-.823.59-1.156 1.319-.741l-.007-.007Z" fill="#002332" stroke="#CCEFFE" stroke-width=".5" stroke-linecap="round" stroke-linejoin="round"/><path d="M27.6 132.993c-.039-.019-.083-.038-.121-.063-.723-.414-1.312-1.419-1.306-2.242v-.132" fill="#002332"/><path d="M27.6 132.993c-.039-.019-.083-.038-.121-.063-.723-.414-1.312-1.419-1.306-2.242v-.132" stroke="#CCEFFE" stroke-width=".5" stroke-linecap="round" stroke-linejoin="round"/><path d="M30.59 133.069c.73.414 1.313 1.419 1.313 2.249 0 .823-.59 1.156-1.319.741-.723-.415-1.312-1.42-1.306-2.243 0-.823.59-1.156 1.319-.741l-.007-.006Z" fill="#002332" stroke="#CCEFFE" stroke-width=".5" stroke-linecap="round" stroke-linejoin="round"/><path d="M31.89 135.45c-.038-.019-.083-.038-.12-.063-.723-.414-1.313-1.419-1.307-2.242v-.132" fill="#002332"/><path d="M31.89 135.45c-.038-.019-.083-.038-.12-.063-.723-.414-1.313-1.419-1.307-2.242v-.132" stroke="#CCEFFE" stroke-width=".5" stroke-linecap="round" stroke-linejoin="round"/><path d="M34.882 135.525c.729.414 1.312 1.419 1.312 2.249 0 .823-.59 1.156-1.318.741-.723-.415-1.313-1.42-1.306-2.243 0-.823.59-1.156 1.318-.741l-.006-.006Z" fill="#002332" stroke="#CCEFFE" stroke-width=".5" stroke-linecap="round" stroke-linejoin="round"/><path d="M36.182 137.906c-.038-.019-.083-.038-.12-.063-.723-.414-1.313-1.419-1.307-2.242v-.132" fill="#002332"/><path d="M36.182 137.906c-.038-.019-.083-.038-.12-.063-.723-.414-1.313-1.419-1.307-2.242v-.132" stroke="#CCEFFE" stroke-width=".5" stroke-linecap="round" stroke-linejoin="round"/><path d="M39.173 137.981c.729.415 1.312 1.42 1.312 2.249 0 .823-.59 1.156-1.318.741-.723-.414-1.312-1.419-1.306-2.242 0-.823.59-1.156 1.318-.742l-.006-.006Z" fill="#002332" stroke="#CCEFFE" stroke-width=".5" stroke-linecap="round" stroke-linejoin="round"/><path d="M40.472 140.363c-.038-.019-.082-.038-.12-.063-.723-.415-1.312-1.42-1.306-2.243v-.132" fill="#002332"/><path d="M40.472 140.363c-.038-.019-.082-.038-.12-.063-.723-.415-1.312-1.42-1.306-2.243v-.132" stroke="#CCEFFE" stroke-width=".5" stroke-linecap="round" stroke-linejoin="round"/><path d="M43.464 140.437c.729.415 1.312 1.42 1.312 2.249 0 .823-.59 1.156-1.318.742-.723-.415-1.312-1.42-1.306-2.243 0-.823.59-1.156 1.318-.741l-.006-.007Z" fill="#002332" stroke="#CCEFFE" stroke-width=".5" stroke-linecap="round" stroke-linejoin="round"/><path d="M44.764 142.818c-.038-.019-.083-.037-.12-.063-.723-.414-1.313-1.419-1.306-2.242v-.132" fill="#002332"/><path d="M44.764 142.818c-.038-.019-.083-.037-.12-.063-.723-.414-1.313-1.419-1.306-2.242v-.132" stroke="#CCEFFE" stroke-width=".5" stroke-linecap="round" stroke-linejoin="round"/><path d="M47.755 142.894c.729.414 1.312 1.42 1.312 2.249 0 .823-.59 1.156-1.318.741-.723-.415-1.312-1.42-1.306-2.243 0-.823.59-1.156 1.318-.741l-.006-.006Z" fill="#002332" stroke="#CCEFFE" stroke-width=".5" stroke-linecap="round" stroke-linejoin="round"/><path d="M49.055 145.269c-.038-.019-.083-.038-.12-.063-.723-.415-1.313-1.42-1.306-2.243v-.132" fill="#002332"/><path d="M49.055 145.269c-.038-.019-.083-.038-.12-.063-.723-.415-1.313-1.42-1.306-2.243v-.132" stroke="#CCEFFE" stroke-width=".5" stroke-linecap="round" stroke-linejoin="round"/><path d="M52.047 145.35c.728.414 1.312 1.42 1.312 2.249 0 .823-.59 1.156-1.319.741-.722-.414-1.312-1.42-1.306-2.243 0-.823.59-1.155 1.319-.741l-.006-.006ZM56.331 147.806c.73.415 1.312 1.42 1.312 2.249 0 .823-.59 1.156-1.318.742-.723-.415-1.312-1.42-1.306-2.243 0-.823.59-1.156 1.319-.741l-.007-.007ZM60.622 150.262c.73.415 1.312 1.42 1.312 2.249 0 .823-.59 1.156-1.318.742-.723-.415-1.312-1.42-1.306-2.243 0-.823.59-1.156 1.319-.741l-.007-.007ZM64.914 152.712c.729.415 1.312 1.42 1.312 2.249 0 .823-.59 1.156-1.319.741-.722-.414-1.312-1.419-1.305-2.242 0-.823.59-1.156 1.318-.742l-.006-.006ZM69.205 155.169c.729.414 1.312 1.419 1.312 2.249 0 .823-.59 1.156-1.319.741-.722-.415-1.312-1.42-1.305-2.243 0-.823.59-1.156 1.318-.741l-.006-.006ZM73.496 157.625c.73.415 1.312 1.42 1.312 2.249 0 .823-.59 1.156-1.318.742-.723-.415-1.312-1.42-1.306-2.243 0-.823.59-1.156 1.319-.741l-.007-.007ZM77.787 160.082c.73.414 1.312 1.42 1.312 2.249 0 .823-.59 1.156-1.318.741-.723-.415-1.312-1.42-1.306-2.243 0-.823.59-1.156 1.319-.741l-.007-.006ZM82.078 162.538c.73.414 1.312 1.42 1.312 2.249 0 .823-.59 1.156-1.318.741-.723-.414-1.312-1.42-1.306-2.243 0-.823.59-1.155 1.319-.741l-.007-.006ZM86.37 164.994c.729.415 1.312 1.42 1.312 2.249 0 .823-.59 1.156-1.319.741-.722-.414-1.312-1.42-1.305-2.243 0-.822.59-1.155 1.318-.741l-.006-.006Z" fill="#002332" stroke="#CCEFFE" stroke-width=".5" stroke-linecap="round" stroke-linejoin="round"/><path d="M87.675 167.369c-.038-.019-.082-.038-.12-.063-.723-.415-1.312-1.42-1.306-2.243v-.132" fill="#002332"/><path d="M87.675 167.369c-.038-.019-.082-.038-.12-.063-.723-.415-1.312-1.42-1.306-2.243v-.132" stroke="#CCEFFE" stroke-width=".5" stroke-linecap="round" stroke-linejoin="round"/><path d="M90.66 167.451c.73.415 1.312 1.42 1.312 2.249 0 .823-.59 1.156-1.318.741-.723-.414-1.312-1.42-1.306-2.243 0-.822.59-1.155 1.319-.741l-.007-.006Z" fill="#002332" stroke="#CCEFFE" stroke-width=".5" stroke-linecap="round" stroke-linejoin="round"/><path d="M91.966 169.826c-.038-.019-.082-.038-.12-.063-.723-.415-1.312-1.42-1.306-2.243v-.132" fill="#002332"/><path d="M91.966 169.826c-.038-.019-.082-.038-.12-.063-.723-.415-1.312-1.42-1.306-2.243v-.132" stroke="#CCEFFE" stroke-width=".5" stroke-linecap="round" stroke-linejoin="round"/><path d="M94.951 169.901c.73.414 1.312 1.419 1.312 2.249 0 .823-.59 1.156-1.318.741-.723-.415-1.312-1.42-1.306-2.243 0-.823.59-1.156 1.319-.741l-.007-.006Z" fill="#002332" stroke="#CCEFFE" stroke-width=".5" stroke-linecap="round" stroke-linejoin="round"/><path d="M96.257 172.282c-.038-.019-.082-.038-.12-.063-.723-.415-1.312-1.42-1.306-2.243v-.132" fill="#002332"/><path d="M96.257 172.282c-.038-.019-.082-.038-.12-.063-.723-.415-1.312-1.42-1.306-2.243v-.132" stroke="#CCEFFE" stroke-width=".5" stroke-linecap="round" stroke-linejoin="round"/><path d="M99.243 172.357c.729.414 1.312 1.419 1.312 2.249 0 .823-.59 1.156-1.319.741-.722-.415-1.312-1.42-1.305-2.243 0-.823.59-1.156 1.318-.741l-.006-.006Z" fill="#002332" stroke="#CCEFFE" stroke-width=".5" stroke-linecap="round" stroke-linejoin="round"/><path d="M100.549 174.737c-.038-.019-.083-.037-.121-.063-.722-.414-1.312-1.419-1.305-2.242v-.132" fill="#002332"/><path d="M100.549 174.737c-.038-.019-.083-.037-.121-.063-.722-.414-1.312-1.419-1.305-2.242v-.132" stroke="#CCEFFE" stroke-width=".5" stroke-linecap="round" stroke-linejoin="round"/><path d="M103.534 174.813c.729.415 1.312 1.42 1.312 2.249 0 .823-.59 1.156-1.319.742-.722-.415-1.312-1.42-1.305-2.243 0-.823.589-1.156 1.318-.741l-.006-.007Z" fill="#002332" stroke="#CCEFFE" stroke-width=".5" stroke-linecap="round" stroke-linejoin="round"/><path d="M104.84 177.194c-.038-.019-.083-.038-.121-.063-.722-.415-1.312-1.42-1.305-2.243v-.132" fill="#002332"/><path d="M104.84 177.194c-.038-.019-.083-.038-.121-.063-.722-.415-1.312-1.42-1.305-2.243v-.132" stroke="#CCEFFE" stroke-width=".5" stroke-linecap="round" stroke-linejoin="round"/><path d="M107.825 177.269c.729.415 1.312 1.42 1.312 2.249 0 .823-.589 1.156-1.318.742-.723-.415-1.312-1.42-1.306-2.243 0-.823.59-1.156 1.319-.741l-.007-.007Z" fill="#002332" stroke="#CCEFFE" stroke-width=".5" stroke-linecap="round" stroke-linejoin="round"/><path d="M109.131 179.65c-.038-.019-.082-.038-.12-.063-.723-.415-1.312-1.42-1.306-2.243v-.132" fill="#002332"/><path d="M109.131 179.65c-.038-.019-.082-.038-.12-.063-.723-.415-1.312-1.42-1.306-2.243v-.132" stroke="#CCEFFE" stroke-width=".5" stroke-linecap="round" stroke-linejoin="round"/><path d="M112.116 179.725c.729.415 1.312 1.42 1.312 2.249 0 .823-.589 1.156-1.318.742-.723-.415-1.312-1.42-1.306-2.243 0-.823.59-1.156 1.319-.741l-.007-.007Z" fill="#002332" stroke="#CCEFFE" stroke-width=".5" stroke-linecap="round" stroke-linejoin="round"/><path d="M113.422 182.106c-.038-.018-.082-.037-.12-.062-.723-.415-1.312-1.42-1.306-2.243v-.132" fill="#002332"/><path d="M113.422 182.106c-.038-.018-.082-.037-.12-.062-.723-.415-1.312-1.42-1.306-2.243v-.132" stroke="#CCEFFE" stroke-width=".5" stroke-linecap="round" stroke-linejoin="round"/><path d="M116.408 182.182c.729.415 1.312 1.42 1.312 2.249 0 .823-.59 1.156-1.319.742-.722-.415-1.312-1.42-1.305-2.243 0-.823.589-1.156 1.318-.741l-.006-.007Z" fill="#002332" stroke="#CCEFFE" stroke-width=".5" stroke-linecap="round" stroke-linejoin="round"/><path d="M117.714 184.563c-.038-.019-.083-.038-.121-.063-.722-.415-1.312-1.42-1.305-2.243v-.132" fill="#002332"/><path d="M117.714 184.563c-.038-.019-.083-.038-.121-.063-.722-.415-1.312-1.42-1.305-2.243v-.132" stroke="#CCEFFE" stroke-width=".5" stroke-linecap="round" stroke-linejoin="round"/><path d="M120.699 184.639c.729.415 1.312 1.42 1.312 2.249 0 .823-.59 1.156-1.318.741-.723-.414-1.313-1.42-1.306-2.242 0-.823.589-1.156 1.318-.742l-.006-.006Z" fill="#002332" stroke="#CCEFFE" stroke-width=".5" stroke-linecap="round" stroke-linejoin="round"/><path d="M122.005 187.013c-.038-.019-.083-.038-.121-.063-.722-.414-1.312-1.419-1.305-2.242v-.132" fill="#002332"/><path d="M122.005 187.013c-.038-.019-.083-.038-.121-.063-.722-.414-1.312-1.419-1.305-2.242v-.132" stroke="#CCEFFE" stroke-width=".5" stroke-linecap="round" stroke-linejoin="round"/><path d="M179.209 162.437c0-.98 1.141-1.482 1.141-.502v6.552c0 .829-1.141 1.608-1.141.628v-6.678ZM181.377 161.213c0-.98 1.141-1.483 1.141-.503v6.553c0 .829-1.141 1.608-1.141.628v-6.678ZM177.042 163.657c0-.98 1.141-1.483 1.141-.503v6.552c0 .83-1.141 1.609-1.141.629v-6.678Z" fill="#002332" stroke="#CCEFFE" stroke-width=".5" stroke-linecap="round" stroke-linejoin="round"/><path d="M179.463 155.917s1.762 1.231 2.485 1.715c.723.483.97 1.111.97 2.11v7.627c0 1.413-.577 2.525-1.401 3.028-.824.509-2.738 1.809-3.195 2.054-.456.245-1.413.729-2.605 0-1.103-.678-2.687-1.658-2.687-1.658" stroke="#CCEFFE" stroke-width=".5" stroke-linecap="round" stroke-linejoin="round"/><path d="M182.911 159.742c0-1.262-1.16-1.96-2.32-1.338-1.16.622-1.996 1.112-2.415 1.357-.418.245-2.111 1.47-2.111 3.273v7.872c0 1.733 1.477 2.048 2.453 1.419" stroke="#CCEFFE" stroke-width=".5" stroke-linecap="round" stroke-linejoin="round"/><path d="m182.202 169.756 4.76-2.701c2.358-1.256 3.036-4.064 3.036-5.346v-8.28c0-2.462-1.851-2.582-3.068-1.885-1.217.704-9.52 5.573-10.991 6.452-1.47.88-2.916 2.733-2.916 4.844v9.121c0 1.433 1.56 2.243 3.746.855" stroke="#CCEFFE" stroke-width=".5" stroke-linecap="round" stroke-linejoin="round"/><path d="M186.81 151.614v8.826c0 2.281-1.616 3.732-2.491 4.31-.571.377-1.407.735-1.407.735M280.987 80.814c.076 3.198-2.015 6.352-5.673 8.481 0 0-107.076 61.106-119.785 68.419-4.228 2.431-9.521 3.361-14.534 3.361-5.014 0-10.307-.93-14.535-3.361C113.752 150.401 6.675 89.295 6.675 89.295c-3.657-2.13-5.75-5.29-5.673-8.48" stroke="#CCEFFE" stroke-width=".5" stroke-linecap="round" stroke-linejoin="round"/><path d="M161.651 75.707c4.818 5.409 3.284 10.837-2.636 15.146M120.338 75.707c-4.818 5.409-3.284 10.837 2.637 15.146" stroke="#CCEFFE" stroke-width=".5" stroke-linecap="round" stroke-linejoin="round"/></svg>