<svg width="320" height="229" viewBox="0 0 320 229" fill="none" xmlns="http://www.w3.org/2000/svg">
<path d="M308.872 81.6183C314.158 84.8733 318.512 87.9047 318.512 92.5636V133.09C318.512 136.047 316.646 141.936 310.427 145.439C304.207 148.943 178.658 221.808 174.913 223.634C162.474 229.697 153.219 228.132 144.823 223.634C136.426 219.137 9.3965 145.601 9.3965 145.601C3.96054 142.184 1 139.078 1 133.028L1 92.8866C1 87.9916 4.34616 85.0472 10.4041 81.6306C16.462 78.2141 143.753 4.91394 143.753 4.91394C155.707 -2.15518 170.336 1.93224 175.61 4.91394C190.151 13.1385 308.859 81.6306 308.859 81.6306L308.872 81.6183Z" stroke="white" stroke-width="1.5" stroke-linecap="round" stroke-linejoin="round"/>
<path d="M1 92.874C1 95.7439 3.12711 99.7816 7.67988 102.266C12.2327 104.751 132.346 174.014 143.753 180.611C155.16 187.208 169.863 184.263 175.846 180.611C181.83 176.958 311.434 102.266 311.434 102.266C314.544 100.328 318.512 97.3714 318.512 92.874" stroke="white" stroke-width="0.8" stroke-linecap="round" stroke-linejoin="round"/>
<path d="M308.946 85.1842C313.375 88.141 318.972 94.1169 308.946 100.403C298.92 106.69 174.217 178.288 174.217 178.288C163.183 183.406 153.381 182.636 146.614 178.984C139.847 175.331 11.4117 101.024 11.4117 101.024C4.18445 96.5271 2.24392 89.9922 10.4787 85.1842C18.7135 80.3762 146.141 6.91451 146.141 6.91451C152.286 3.33647 164.178 2.0941 173.197 6.91451C182.215 11.7349 308.934 85.1842 308.934 85.1842H308.946Z" stroke="white" stroke-width="0.8" stroke-linecap="round" stroke-linejoin="round"/>
<path d="M268.991 123.722L265.496 121.548L263.966 122.629V126.567" stroke="white" stroke-width="0.8" stroke-linecap="round" stroke-linejoin="round"/>
<path d="M267.238 124.729L263.966 122.629" stroke="white" stroke-width="0.8" stroke-linecap="round" stroke-linejoin="round"/>
<path d="M169.639 59.3048C173.205 59.3048 176.095 57.6361 176.095 55.5777C176.095 53.5193 173.205 51.8506 169.639 51.8506C166.074 51.8506 163.183 53.5193 163.183 55.5777C163.183 57.6361 166.074 59.3048 169.639 59.3048Z" stroke="white" stroke-width="0.8" stroke-linecap="round" stroke-linejoin="round"/>
<path d="M174.465 83.6426C173.284 84.4129 171.555 84.8973 169.639 84.8973C167.723 84.8973 165.994 84.4129 164.813 83.6426" stroke="white" stroke-width="0.8" stroke-linecap="round" stroke-linejoin="round"/>
<path d="M172.948 55.5901C172.948 56.5715 171.468 57.3667 169.639 57.3667C167.81 57.3667 166.33 56.5715 166.33 55.5901C166.33 54.6086 167.81 53.8135 169.639 53.8135C171.468 53.8135 172.948 54.6086 172.948 55.5901Z" stroke="white" stroke-width="0.8" stroke-linecap="round" stroke-linejoin="round"/>
<path d="M166.019 69.2317L163.419 70.8592L161.28 69.915L164.091 68.2627L166.019 69.2317Z" stroke="white" stroke-width="0.8" stroke-linecap="round" stroke-linejoin="round"/>
<path d="M161.28 69.9147V83.5561L163.419 84.5127L166.019 82.8727V69.2314" stroke="white" stroke-width="0.8" stroke-linecap="round" stroke-linejoin="round"/>
<path d="M163.419 70.8594V84.5131" stroke="white" stroke-width="0.8" stroke-linecap="round" stroke-linejoin="round"/>
<path d="M163.183 55.5781V68.797" stroke="white" stroke-width="0.8" stroke-linecap="round" stroke-linejoin="round"/>
<path d="M163.183 61.6904L161.578 62.411V69.7411" stroke="white" stroke-width="0.8" stroke-linecap="round" stroke-linejoin="round"/>
<path d="M161.578 62.4111L163.183 63.5044" stroke="white" stroke-width="0.8" stroke-linecap="round" stroke-linejoin="round"/>
<path d="M173.246 69.2317L175.846 70.8592L177.986 69.915L175.175 68.2627L173.246 69.2317Z" stroke="white" stroke-width="0.8" stroke-linecap="round" stroke-linejoin="round"/>
<path d="M177.986 69.9147V83.5561L175.846 84.5127L173.246 82.8727V69.2314" stroke="white" stroke-width="0.8" stroke-linecap="round" stroke-linejoin="round"/>
<path d="M175.846 70.8594V84.5131" stroke="white" stroke-width="0.8" stroke-linecap="round" stroke-linejoin="round"/>
<path d="M176.083 55.5781V68.797" stroke="white" stroke-width="0.8" stroke-linecap="round" stroke-linejoin="round"/>
<path d="M176.083 61.6904L177.687 62.411V69.7411" stroke="white" stroke-width="0.8" stroke-linecap="round" stroke-linejoin="round"/>
<path d="M177.687 62.4111L176.083 63.5044" stroke="white" stroke-width="0.8" stroke-linecap="round" stroke-linejoin="round"/>
<path d="M50.0231 102.801C53.5887 102.801 56.4791 101.132 56.4791 99.0738C56.4791 97.0154 53.5887 95.3467 50.0231 95.3467C46.4576 95.3467 43.5671 97.0154 43.5671 99.0738C43.5671 101.132 46.4576 102.801 50.0231 102.801Z" stroke="white" stroke-width="0.8" stroke-linecap="round" stroke-linejoin="round"/>
<path d="M53.3195 99.0862C53.3195 100.068 51.8393 100.863 50.0107 100.863C48.1821 100.863 46.7018 100.068 46.7018 99.0862C46.7018 98.1047 48.1821 97.3096 50.0107 97.3096C51.8393 97.3096 53.3195 98.1047 53.3195 99.0862Z" stroke="white" stroke-width="0.8" stroke-linecap="round" stroke-linejoin="round"/>
<path d="M41.6639 113.411L44.4752 111.759L46.4033 112.728L41.6639 115.697" stroke="white" stroke-width="0.8" stroke-linecap="round" stroke-linejoin="round"/>
<path d="M46.4033 121.25V112.728" stroke="white" stroke-width="0.8" stroke-linecap="round" stroke-linejoin="round"/>
<path d="M43.5671 99.0742V112.293" stroke="white" stroke-width="0.8" stroke-linecap="round" stroke-linejoin="round"/>
<path d="M43.5672 105.187L41.9625 105.907V113.237" stroke="white" stroke-width="0.8" stroke-linecap="round" stroke-linejoin="round"/>
<path d="M41.9625 105.907L43.5672 107.001" stroke="white" stroke-width="0.8" stroke-linecap="round" stroke-linejoin="round"/>
<path d="M56.4667 99.0742L56.4667 124.245" stroke="white" stroke-width="0.8" stroke-linecap="round" stroke-linejoin="round"/>
<path d="M56.4667 104.913L60.6338 102.577L62.6241 103.534V117.101L56.4667 121.051" stroke="white" stroke-width="0.8" stroke-linecap="round" stroke-linejoin="round"/>
<path d="M62.6241 103.534L56.4667 107" stroke="white" stroke-width="0.8" stroke-linecap="round" stroke-linejoin="round"/>
<path d="M255.109 108.715C258.675 108.715 261.565 107.046 261.565 104.988C261.565 102.929 258.675 101.261 255.109 101.261C251.544 101.261 248.653 102.929 248.653 104.988C248.653 107.046 251.544 108.715 255.109 108.715Z" stroke="white" stroke-width="0.8" stroke-linecap="round" stroke-linejoin="round"/>
<path d="M251.676 133.724C251.154 133.538 250.693 133.302 250.283 133.041" stroke="white" stroke-width="0.8" stroke-linecap="round" stroke-linejoin="round"/>
<path d="M258.418 105C258.418 105.982 256.938 106.777 255.109 106.777C253.281 106.777 251.8 105.982 251.8 105C251.8 104.019 253.281 103.224 255.109 103.224C256.938 103.224 258.418 104.019 258.418 105Z" stroke="white" stroke-width="0.8" stroke-linecap="round" stroke-linejoin="round"/>
<path d="M251.502 118.642L248.89 120.269L246.75 119.325L249.561 117.673L251.502 118.642Z" stroke="white" stroke-width="0.8" stroke-linecap="round" stroke-linejoin="round"/>
<path d="M246.75 119.325V132.966L248.89 133.91L251.502 132.283V118.642" stroke="white" stroke-width="0.8" stroke-linecap="round" stroke-linejoin="round"/>
<path d="M248.89 120.27V133.911" stroke="white" stroke-width="0.8" stroke-linecap="round" stroke-linejoin="round"/>
<path d="M248.653 104.988V118.207" stroke="white" stroke-width="0.8" stroke-linecap="round" stroke-linejoin="round"/>
<path d="M248.653 111.101L247.049 111.821V119.151" stroke="white" stroke-width="0.8" stroke-linecap="round" stroke-linejoin="round"/>
<path d="M247.049 111.821L248.653 112.915" stroke="white" stroke-width="0.8" stroke-linecap="round" stroke-linejoin="round"/>
<path d="M258.717 118.642L261.329 120.269L263.456 119.325L260.645 117.673L258.717 118.642Z" stroke="white" stroke-width="0.8" stroke-linecap="round" stroke-linejoin="round"/>
<path d="M258.717 129.649V118.642" stroke="white" stroke-width="0.8" stroke-linecap="round" stroke-linejoin="round"/>
<path d="M263.456 119.325V126.916" stroke="white" stroke-width="0.8" stroke-linecap="round" stroke-linejoin="round"/>
<path d="M261.329 120.27V128.146" stroke="white" stroke-width="0.8" stroke-linecap="round" stroke-linejoin="round"/>
<path d="M261.553 104.988V118.207" stroke="white" stroke-width="0.8" stroke-linecap="round" stroke-linejoin="round"/>
<path d="M261.553 111.101L263.157 111.821V119.151" stroke="white" stroke-width="0.8" stroke-linecap="round" stroke-linejoin="round"/>
<path d="M263.157 111.821L261.553 112.915" stroke="white" stroke-width="0.8" stroke-linecap="round" stroke-linejoin="round"/>
<path d="M173.246 32.0225C173.246 36.3336 167.139 39.8371 159.613 39.8371C152.087 39.8371 145.98 36.3336 145.98 32.0225C145.98 27.7115 152.087 24.208 159.613 24.208C167.139 24.208 173.246 27.7115 173.246 32.0225Z" stroke="white" stroke-width="0.8" stroke-linecap="round" stroke-linejoin="round"/>
<path d="M170.796 31.9728C170.796 35.3769 165.82 38.135 159.675 38.135C153.53 38.135 148.555 35.3769 148.555 31.9728C148.555 28.5686 153.53 25.8105 159.675 25.8105C165.82 25.8105 170.796 28.5686 170.796 31.9728Z" stroke="white" stroke-width="0.8" stroke-linecap="round" stroke-linejoin="round"/>
<path d="M164.265 35.5879C164.265 36.9918 162.213 38.1348 159.675 38.1348C157.138 38.1348 155.085 36.9918 155.085 35.5879C155.085 34.184 157.138 33.041 159.675 33.041C162.213 33.041 164.265 34.184 164.265 35.5879Z" stroke="white" stroke-width="0.8" stroke-linecap="round" stroke-linejoin="round"/>
<path d="M149.114 33.8861C149.089 33.7246 149.077 33.5631 149.077 33.3892C149.077 30.1466 153.829 27.5127 159.675 27.5127C165.522 27.5127 170.273 30.1466 170.273 33.3892" stroke="white" stroke-width="0.8" stroke-linecap="round" stroke-linejoin="round"/>
<path d="M149.326 34.2221C150.383 31.6007 154.612 29.6377 159.675 29.6377C164.738 29.6377 168.967 31.6007 170.025 34.2221" stroke="white" stroke-width="0.8" stroke-linecap="round" stroke-linejoin="round"/>
<path d="M284.615 114.678C280.684 113.312 278.072 110.827 278.072 107.994C278.072 103.683 284.18 100.18 291.706 100.18C296.557 100.18 300.824 101.633 303.237 103.82" stroke="white" stroke-width="0.8" stroke-linecap="round" stroke-linejoin="round"/>
<path d="M286.73 113.448C283.122 112.43 280.647 110.355 280.647 107.957C280.647 104.553 285.623 101.795 291.768 101.795C295.898 101.795 299.493 103.037 301.421 104.888" stroke="white" stroke-width="0.8" stroke-linecap="round" stroke-linejoin="round"/>
<path d="M287.787 112.839C287.402 112.467 287.178 112.032 287.178 111.572C287.178 110.168 289.23 109.025 291.768 109.025C292.526 109.025 293.236 109.125 293.857 109.311" stroke="white" stroke-width="0.8" stroke-linecap="round" stroke-linejoin="round"/>
<path d="M281.207 109.869C281.182 109.708 281.169 109.546 281.169 109.373C281.169 106.13 285.921 103.496 291.78 103.496C295.126 103.496 298.112 104.353 300.052 105.695" stroke="white" stroke-width="0.8" stroke-linecap="round" stroke-linejoin="round"/>
<path d="M281.418 110.205C282.476 107.584 286.705 105.621 291.768 105.621C294.169 105.621 296.383 106.068 298.162 106.814" stroke="white" stroke-width="0.8" stroke-linecap="round" stroke-linejoin="round"/>
<path d="M148.256 179.791C150.632 177.493 154.998 175.952 159.986 175.952C164.974 175.952 168.955 177.356 171.393 179.48" stroke="white" stroke-width="0.8" stroke-linecap="round" stroke-linejoin="round"/>
<path d="M150.445 180.623C152.373 178.797 155.956 177.555 160.061 177.555C163.867 177.555 167.226 178.611 169.229 180.238" stroke="white" stroke-width="0.8" stroke-linecap="round" stroke-linejoin="round"/>
<path d="M152.286 181.145C154.227 179.989 156.988 179.269 160.061 179.269C162.835 179.269 165.348 179.852 167.238 180.822" stroke="white" stroke-width="0.8" stroke-linecap="round" stroke-linejoin="round"/>
<path d="M170.286 33.3896C170.286 33.5512 170.286 33.725 170.249 33.8866" stroke="white" stroke-width="0.8" stroke-linecap="round" stroke-linejoin="round"/>
<path d="M202.703 185.853C202.703 184.747 203.971 184.188 203.971 185.282V192.661C203.971 193.593 202.703 194.475 202.703 193.369V185.853Z" stroke="white" stroke-width="0.8" stroke-linecap="round" stroke-linejoin="round"/>
<path d="M205.128 184.474C205.128 183.369 206.41 182.809 206.41 183.903V191.282C206.41 192.214 205.128 193.096 205.128 191.991V184.474Z" stroke="white" stroke-width="0.8" stroke-linecap="round" stroke-linejoin="round"/>
<path d="M200.289 187.232C200.289 186.126 201.558 185.567 201.558 186.661V194.04C201.558 194.972 200.289 195.854 200.289 194.748V187.232Z" stroke="white" stroke-width="0.8" stroke-linecap="round" stroke-linejoin="round"/>
<path d="M202.989 178.511C202.989 178.511 204.954 179.89 205.763 180.449C206.571 180.995 206.845 181.704 206.845 182.822V191.407C206.845 192.997 206.198 194.252 205.278 194.823C204.357 195.395 202.217 196.861 201.707 197.134C201.197 197.407 200.128 197.954 198.797 197.134C197.565 196.376 195.799 195.27 195.799 195.27" stroke="white" stroke-width="0.8" stroke-linecap="round" stroke-linejoin="round"/>
<path d="M206.845 182.822C206.845 181.405 205.551 180.623 204.257 181.318C202.964 182.014 202.031 182.573 201.558 182.846C201.098 183.12 199.207 184.499 199.207 186.536V195.394C199.207 197.345 200.849 197.705 201.944 196.997" stroke="white" stroke-width="0.8" stroke-linecap="round" stroke-linejoin="round"/>
<path d="M206.049 194.09L211.373 191.047C214.01 189.63 214.769 186.462 214.769 185.021V175.691C214.769 172.92 212.704 172.784 211.348 173.566C209.992 174.349 200.712 179.84 199.07 180.834C197.428 181.816 195.811 183.915 195.811 186.288V196.563C195.811 198.178 197.553 199.085 200.003 197.532" stroke="white" stroke-width="0.8" stroke-linecap="round" stroke-linejoin="round"/>
<path d="M211.199 173.666V183.605C211.199 186.177 209.395 187.804 208.412 188.463C207.778 188.885 206.845 189.295 206.845 189.295" stroke="white" stroke-width="0.8" stroke-linecap="round" stroke-linejoin="round"/>
<path d="M171.43 164.957C171.43 167.019 168.544 168.684 164.974 168.684C161.404 168.684 158.518 167.019 158.518 164.957C158.518 162.894 161.404 161.229 164.974 161.229C168.544 161.229 171.43 162.894 171.43 164.957Z" stroke="white" stroke-width="0.8" stroke-linecap="round" stroke-linejoin="round"/>
<path d="M168.283 164.969C168.283 165.95 166.803 166.746 164.974 166.746C163.146 166.746 161.665 165.95 161.665 164.969C161.665 163.987 163.146 163.192 164.974 163.192C166.803 163.192 168.283 163.987 168.283 164.969Z" stroke="white" stroke-width="0.8" stroke-linecap="round" stroke-linejoin="round"/>
<path d="M158.518 164.957V176.002" stroke="white" stroke-width="0.8" stroke-linecap="round" stroke-linejoin="round"/>
<path d="M172.736 178.946L170.51 177.642L169.477 178.151" stroke="white" stroke-width="0.8" stroke-linecap="round" stroke-linejoin="round"/>
<path d="M171.418 164.957V178.176" stroke="white" stroke-width="0.8" stroke-linecap="round" stroke-linejoin="round"/>
<path d="M171.418 171.069L173.023 171.79V178.822" stroke="white" stroke-width="0.8" stroke-linecap="round" stroke-linejoin="round"/>
<path d="M173.023 171.79L171.418 172.883" stroke="white" stroke-width="0.8" stroke-linecap="round" stroke-linejoin="round"/>
<path d="M109.172 157.502L112.257 155.738L114.222 156.981V160.422" stroke="white" stroke-width="0.8" stroke-linecap="round" stroke-linejoin="round"/>
<path d="M111.336 158.745L114.222 156.98" stroke="white" stroke-width="0.8" stroke-linecap="round" stroke-linejoin="round"/>
<path d="M54.041 125.685L57.126 123.921L59.0914 125.163V128.605" stroke="white" stroke-width="0.8" stroke-linecap="round" stroke-linejoin="round"/>
<path d="M56.193 126.941L59.0913 125.164" stroke="white" stroke-width="0.8" stroke-linecap="round" stroke-linejoin="round"/>
<path d="M177.986 76.8721L247.049 116.653" stroke="white" stroke-width="0.8" stroke-linecap="round" stroke-linejoin="round"/>
<path d="M145.98 32.0225V56.6712C145.98 60.9823 152.087 64.4857 159.613 64.4857C160.285 64.4857 160.932 64.4609 161.578 64.3988" stroke="white" stroke-width="0.8" stroke-linecap="round" stroke-linejoin="round"/>
<path d="M173.246 32.0225V52.4969" stroke="white" stroke-width="0.8" stroke-linecap="round" stroke-linejoin="round"/>
<path d="M142.534 56.584V58.9445C142.534 64.3861 150.209 68.809 159.688 68.809C160.335 68.809 160.969 68.7841 161.591 68.7468" stroke="white" stroke-width="0.8" stroke-linecap="round" stroke-linejoin="round"/>
<path d="M161.578 66.3867C160.956 66.424 160.322 66.4488 159.675 66.4488C150.209 66.4488 142.521 62.0384 142.521 56.5844C142.521 54.3605 143.803 52.3106 145.967 50.6582" stroke="white" stroke-width="0.8" stroke-linecap="round" stroke-linejoin="round"/>
<path d="M16.4122 103.919C18.813 101.683 23.117 100.204 28.0305 100.204C35.5563 100.204 41.6639 103.708 41.6639 108.019C41.6639 110.864 39.0268 113.348 35.0711 114.715" stroke="white" stroke-width="0.8" stroke-linecap="round" stroke-linejoin="round"/>
<path d="M18.3155 105.024C20.1938 103.111 23.8634 101.807 28.0927 101.807C34.2377 101.807 39.2134 104.565 39.2134 107.969C39.2134 110.404 36.6758 112.503 32.9813 113.51" stroke="white" stroke-width="0.8" stroke-linecap="round" stroke-linejoin="round"/>
<path d="M25.8412 109.36C26.5129 109.149 27.2717 109.037 28.0927 109.037C30.6303 109.037 32.6828 110.18 32.6828 111.584C32.6828 112.081 32.434 112.541 31.9862 112.926" stroke="white" stroke-width="0.8" stroke-linecap="round" stroke-linejoin="round"/>
<path d="M19.6838 105.807C21.6243 104.416 24.6719 103.509 28.0927 103.509C33.9516 103.509 38.691 106.143 38.691 109.385" stroke="white" stroke-width="0.8" stroke-linecap="round" stroke-linejoin="round"/>
<path d="M21.5497 106.889C23.3533 106.106 25.6297 105.634 28.0927 105.634C33.1555 105.634 37.3848 107.597 38.4422 110.218" stroke="white" stroke-width="0.8" stroke-linecap="round" stroke-linejoin="round"/>
<path d="M38.7034 109.386C38.7034 109.547 38.7034 109.721 38.6661 109.883" stroke="white" stroke-width="0.8" stroke-linecap="round" stroke-linejoin="round"/>
<path d="M41.6639 108.019V118.517" stroke="white" stroke-width="0.8" stroke-linecap="round" stroke-linejoin="round"/>
<path d="M14.8698 129.624C15.6908 130.096 16.3625 131.251 16.3501 132.183C16.3501 133.127 15.6783 133.5 14.8573 133.028C14.0364 132.556 13.3771 131.413 13.3771 130.469C13.3771 129.537 14.0488 129.152 14.8698 129.624Z" stroke="white" stroke-width="0.8" stroke-linecap="round" stroke-linejoin="round"/>
<path d="M16.3376 132.344C16.3376 132.344 16.2506 132.295 16.2008 132.27C15.3798 131.798 14.7205 130.655 14.7205 129.711C14.7205 129.661 14.7205 129.611 14.7205 129.562" stroke="white" stroke-width="0.8" stroke-linecap="round" stroke-linejoin="round"/>
<path d="M19.7211 132.419C20.5421 132.891 21.2138 134.047 21.2014 134.978C21.2014 135.923 20.5297 136.295 19.7087 135.823C18.8877 135.351 18.2284 134.208 18.2284 133.264C18.2284 132.32 18.9001 131.947 19.7211 132.419Z" stroke="white" stroke-width="0.8" stroke-linecap="round" stroke-linejoin="round"/>
<path d="M21.1889 135.14C21.1889 135.14 21.1019 135.091 21.0521 135.066C20.2311 134.594 19.5718 133.451 19.5718 132.507C19.5718 132.457 19.5718 132.407 19.5718 132.357" stroke="white" stroke-width="0.8" stroke-linecap="round" stroke-linejoin="round"/>
<path d="M24.5724 135.227C25.3934 135.699 26.0651 136.854 26.0527 137.786C26.0527 138.73 25.381 139.103 24.56 138.631C23.739 138.159 23.0797 137.016 23.0797 136.072C23.0797 135.127 23.7514 134.755 24.5724 135.227Z" stroke="white" stroke-width="0.8" stroke-linecap="round" stroke-linejoin="round"/>
<path d="M26.0527 137.935C26.0527 137.935 25.9656 137.886 25.9159 137.861C25.0949 137.389 24.4356 136.246 24.4356 135.301C24.4356 135.252 24.4356 135.202 24.4356 135.152" stroke="white" stroke-width="0.8" stroke-linecap="round" stroke-linejoin="round"/>
<path d="M29.4362 138.023C30.2572 138.495 30.9164 139.65 30.9164 140.582C30.9164 141.526 30.2447 141.899 29.4237 141.427C28.6027 140.955 27.9435 139.812 27.9435 138.867C27.9435 137.923 28.6152 137.551 29.4362 138.023Z" stroke="white" stroke-width="0.8" stroke-linecap="round" stroke-linejoin="round"/>
<path d="M30.904 140.744C30.904 140.744 30.8169 140.694 30.7672 140.669C29.9462 140.197 29.2869 139.042 29.2869 138.11C29.2869 138.06 29.2869 138.011 29.2869 137.961" stroke="white" stroke-width="0.8" stroke-linecap="round" stroke-linejoin="round"/>
<path d="M34.2875 140.83C35.1085 141.302 35.7802 142.458 35.7678 143.39C35.7678 144.334 35.096 144.706 34.275 144.234C33.4541 143.762 32.7948 142.619 32.7948 141.675C32.7948 140.731 33.4665 140.358 34.2875 140.83Z" stroke="white" stroke-width="0.8" stroke-linecap="round" stroke-linejoin="round"/>
<path d="M35.7553 143.539C35.7553 143.539 35.6682 143.489 35.6185 143.464C34.7975 142.992 34.1382 141.849 34.1382 140.905C34.1382 140.855 34.1382 140.806 34.1382 140.756" stroke="white" stroke-width="0.8" stroke-linecap="round" stroke-linejoin="round"/>
<path d="M39.1388 143.625C39.9598 144.097 40.6315 145.253 40.6191 146.184C40.6191 147.129 39.9474 147.501 39.1264 147.029C38.3054 146.557 37.6461 145.414 37.6461 144.47C37.6461 143.526 38.3178 143.153 39.1388 143.625Z" stroke="white" stroke-width="0.8" stroke-linecap="round" stroke-linejoin="round"/>
<path d="M40.6191 146.334C40.6191 146.334 40.532 146.284 40.4822 146.259C39.6612 145.787 39.002 144.644 39.002 143.7C39.002 143.65 39.002 143.6 39.002 143.551" stroke="white" stroke-width="0.8" stroke-linecap="round" stroke-linejoin="round"/>
<path d="M44.0025 146.421C44.8235 146.893 45.4828 148.049 45.4828 148.98C45.4828 149.925 44.8111 150.297 43.9901 149.825C43.1691 149.353 42.5098 148.21 42.5098 147.266C42.5098 146.322 43.1815 145.949 44.0025 146.421Z" stroke="white" stroke-width="0.8" stroke-linecap="round" stroke-linejoin="round"/>
<path d="M45.4704 149.142C45.4704 149.142 45.3833 149.093 45.3335 149.068C44.5126 148.596 43.8533 147.453 43.8533 146.508C43.8533 146.459 43.8533 146.409 43.8533 146.359" stroke="white" stroke-width="0.8" stroke-linecap="round" stroke-linejoin="round"/>
<path d="M48.8539 149.229C49.6748 149.701 50.3466 150.856 50.3341 151.788C50.3341 152.732 49.6624 153.105 48.8414 152.633C48.0204 152.161 47.3611 151.018 47.3611 150.073C47.3611 149.129 48.0329 148.757 48.8539 149.229Z" stroke="white" stroke-width="0.8" stroke-linecap="round" stroke-linejoin="round"/>
<path d="M50.3217 151.937C50.3217 151.937 50.2346 151.888 50.1849 151.863C49.3639 151.391 48.7046 150.248 48.7046 149.303C48.7046 149.254 48.7046 149.204 48.7046 149.154" stroke="white" stroke-width="0.8" stroke-linecap="round" stroke-linejoin="round"/>
<path d="M53.7052 152.024C54.5262 152.496 55.1855 153.651 55.1855 154.583C55.1855 155.527 54.5137 155.9 53.6927 155.428C52.8717 154.956 52.2125 153.813 52.2125 152.868C52.2125 151.924 52.8842 151.552 53.7052 152.024Z" stroke="white" stroke-width="0.8" stroke-linecap="round" stroke-linejoin="round"/>
<path d="M55.1854 154.732C55.1854 154.732 55.0984 154.682 55.0486 154.658C54.2276 154.185 53.5683 153.043 53.5683 152.098C53.5683 152.049 53.5683 151.999 53.5683 151.949" stroke="white" stroke-width="0.8" stroke-linecap="round" stroke-linejoin="round"/>
<path d="M58.5689 154.82C59.3899 155.292 60.0492 156.447 60.0492 157.379C60.0492 158.323 59.3775 158.696 58.5565 158.224C57.7355 157.752 57.0762 156.609 57.0762 155.664C57.0762 154.72 57.7479 154.347 58.5689 154.82Z" stroke="white" stroke-width="0.8" stroke-linecap="round" stroke-linejoin="round"/>
<path d="M63.4202 157.627C64.2412 158.099 64.9129 159.255 64.9005 160.186C64.9005 161.131 64.2288 161.503 63.4078 161.031C62.5868 160.559 61.9275 159.416 61.9275 158.472C61.9275 157.528 62.5992 157.155 63.4202 157.627Z" stroke="white" stroke-width="0.8" stroke-linecap="round" stroke-linejoin="round"/>
<path d="M68.2716 160.422C69.0925 160.894 69.7518 162.05 69.7518 162.981C69.7518 163.926 69.0801 164.298 68.2591 163.826C67.4381 163.354 66.7788 162.211 66.7788 161.267C66.7788 160.323 67.4506 159.95 68.2716 160.422Z" stroke="white" stroke-width="0.8" stroke-linecap="round" stroke-linejoin="round"/>
<path d="M73.1353 163.23C73.9563 163.702 74.6156 164.858 74.6156 165.79C74.6156 166.734 73.9438 167.107 73.1228 166.634C72.3019 166.162 71.6426 165.019 71.6426 164.075C71.6426 163.143 72.3143 162.758 73.1353 163.23Z" stroke="white" stroke-width="0.8" stroke-linecap="round" stroke-linejoin="round"/>
<path d="M77.9866 166.026C78.8076 166.498 79.4793 167.653 79.4669 168.585C79.4669 169.529 78.7952 169.902 77.9742 169.43C77.1532 168.958 76.4939 167.815 76.4939 166.87C76.4939 165.926 77.1656 165.553 77.9866 166.026Z" stroke="white" stroke-width="0.8" stroke-linecap="round" stroke-linejoin="round"/>
<path d="M82.8379 168.82C83.6589 169.293 84.3306 170.448 84.3182 171.38C84.3182 172.324 83.6465 172.697 82.8255 172.225C82.0045 171.752 81.3452 170.609 81.3452 169.665C81.3452 168.721 82.0169 168.348 82.8379 168.82Z" stroke="white" stroke-width="0.8" stroke-linecap="round" stroke-linejoin="round"/>
<path d="M87.7017 171.629C88.5227 172.101 89.1819 173.257 89.1819 174.188C89.1819 175.133 88.5102 175.505 87.6892 175.033C86.8682 174.561 86.209 173.418 86.209 172.474C86.209 171.53 86.8807 171.157 87.7017 171.629Z" stroke="white" stroke-width="0.8" stroke-linecap="round" stroke-linejoin="round"/>
<path d="M92.553 174.424C93.374 174.896 94.0457 176.051 94.0333 176.983C94.0333 177.927 93.3615 178.3 92.5405 177.828C91.7195 177.356 91.0603 176.213 91.0603 175.269C91.0603 174.325 91.732 173.952 92.553 174.424Z" stroke="white" stroke-width="0.8" stroke-linecap="round" stroke-linejoin="round"/>
<path d="M97.4043 177.219C98.2253 177.691 98.897 178.846 98.8846 179.778C98.8846 180.722 98.2128 181.095 97.3919 180.623C96.5709 180.151 95.9116 179.008 95.9116 178.064C95.9116 177.12 96.5833 176.747 97.4043 177.219Z" stroke="white" stroke-width="0.8" stroke-linecap="round" stroke-linejoin="round"/>
<path d="M98.8846 179.94C98.8846 179.94 98.7975 179.89 98.7477 179.866C97.9267 179.393 97.2675 178.251 97.2675 177.306C97.2675 177.257 97.2675 177.207 97.2675 177.157" stroke="white" stroke-width="0.8" stroke-linecap="round" stroke-linejoin="round"/>
<path d="M102.268 180.028C103.089 180.5 103.748 181.655 103.748 182.587C103.748 183.531 103.077 183.904 102.256 183.432C101.435 182.96 100.775 181.817 100.775 180.872C100.775 179.928 101.447 179.555 102.268 180.028Z" stroke="white" stroke-width="0.8" stroke-linecap="round" stroke-linejoin="round"/>
<path d="M103.736 182.736C103.736 182.736 103.649 182.686 103.599 182.661C102.778 182.189 102.119 181.046 102.119 180.102C102.119 180.053 102.119 180.003 102.119 179.953" stroke="white" stroke-width="0.8" stroke-linecap="round" stroke-linejoin="round"/>
<path d="M107.119 182.822C107.94 183.295 108.6 184.45 108.6 185.382C108.6 186.326 107.928 186.699 107.107 186.227C106.286 185.754 105.627 184.611 105.627 183.667C105.627 182.723 106.298 182.35 107.119 182.822Z" stroke="white" stroke-width="0.8" stroke-linecap="round" stroke-linejoin="round"/>
<path d="M108.6 185.544C108.6 185.544 108.513 185.494 108.463 185.469C107.642 184.997 106.983 183.854 106.983 182.91C106.983 182.86 106.983 182.81 106.983 182.761" stroke="white" stroke-width="0.8" stroke-linecap="round" stroke-linejoin="round"/>
<path d="M111.971 185.63C112.792 186.102 113.463 187.258 113.451 188.189C113.451 189.134 112.779 189.506 111.958 189.034C111.137 188.562 110.478 187.419 110.478 186.475C110.478 185.531 111.15 185.158 111.971 185.63Z" stroke="white" stroke-width="0.8" stroke-linecap="round" stroke-linejoin="round"/>
<path d="M113.451 188.339C113.451 188.339 113.364 188.289 113.314 188.264C112.493 187.792 111.834 186.649 111.834 185.705C111.834 185.655 111.834 185.605 111.834 185.556" stroke="white" stroke-width="0.8" stroke-linecap="round" stroke-linejoin="round"/>
<path d="M116.834 188.426C117.655 188.898 118.327 190.053 118.315 190.985C118.315 191.929 117.643 192.302 116.822 191.83C116.001 191.358 115.342 190.215 115.342 189.271C115.342 188.327 116.013 187.954 116.834 188.426Z" stroke="white" stroke-width="0.8" stroke-linecap="round" stroke-linejoin="round"/>
<path d="M118.302 191.134C118.302 191.134 118.215 191.085 118.165 191.06C117.344 190.588 116.685 189.445 116.685 188.501C116.685 188.451 116.685 188.401 116.685 188.352" stroke="white" stroke-width="0.8" stroke-linecap="round" stroke-linejoin="round"/>
<path d="M121.686 191.221C122.507 191.693 123.166 192.848 123.166 193.78C123.166 194.724 122.494 195.097 121.673 194.625C120.852 194.153 120.193 193.01 120.193 192.066C120.193 191.121 120.865 190.749 121.686 191.221Z" stroke="white" stroke-width="0.8" stroke-linecap="round" stroke-linejoin="round"/>
<path d="M123.166 193.942C123.166 193.942 123.079 193.892 123.029 193.868C122.208 193.395 121.549 192.252 121.549 191.308C121.549 191.259 121.549 191.209 121.549 191.159" stroke="white" stroke-width="0.8" stroke-linecap="round" stroke-linejoin="round"/>
<path d="M126.537 194.028C127.358 194.501 128.03 195.656 128.017 196.588C128.017 197.532 127.346 197.905 126.525 197.433C125.704 196.96 125.044 195.818 125.044 194.873C125.044 193.929 125.716 193.556 126.537 194.028Z" stroke="white" stroke-width="0.8" stroke-linecap="round" stroke-linejoin="round"/>
<path d="M128.017 196.737C128.017 196.737 127.93 196.687 127.88 196.662C127.059 196.19 126.4 195.047 126.4 194.103C126.4 194.053 126.4 194.004 126.4 193.954" stroke="white" stroke-width="0.8" stroke-linecap="round" stroke-linejoin="round"/>
<path d="M131.401 196.824C132.222 197.296 132.894 198.452 132.881 199.383C132.881 200.328 132.209 200.7 131.388 200.228C130.567 199.756 129.908 198.613 129.908 197.669C129.908 196.737 130.58 196.352 131.401 196.824Z" stroke="white" stroke-width="0.8" stroke-linecap="round" stroke-linejoin="round"/>
<path d="M132.869 199.533C132.869 199.533 132.782 199.483 132.732 199.458C131.911 198.986 131.252 197.831 131.252 196.899C131.252 196.849 131.252 196.8 131.252 196.75" stroke="white" stroke-width="0.8" stroke-linecap="round" stroke-linejoin="round"/>
<path d="M136.252 199.619C137.073 200.091 137.732 201.247 137.732 202.178C137.732 203.123 137.061 203.495 136.24 203.023C135.419 202.551 134.759 201.408 134.759 200.464C134.759 199.532 135.431 199.147 136.252 199.619Z" stroke="white" stroke-width="0.8" stroke-linecap="round" stroke-linejoin="round"/>
<path d="M137.732 202.34C137.732 202.34 137.645 202.29 137.596 202.265C136.775 201.793 136.115 200.65 136.115 199.706C136.115 199.656 136.115 199.606 136.115 199.557" stroke="white" stroke-width="0.8" stroke-linecap="round" stroke-linejoin="round"/>
<path d="M14.8698 135.252C15.6908 135.724 16.3625 136.88 16.3501 137.811C16.3501 138.756 15.6783 139.128 14.8573 138.656C14.0364 138.184 13.3771 137.041 13.3771 136.097C13.3771 135.153 14.0488 134.78 14.8698 135.252Z" stroke="white" stroke-width="0.8" stroke-linecap="round" stroke-linejoin="round"/>
<path d="M16.3376 137.961C16.3376 137.961 16.2506 137.911 16.2008 137.886C15.3798 137.414 14.7205 136.271 14.7205 135.327C14.7205 135.277 14.7205 135.227 14.7205 135.178" stroke="white" stroke-width="0.8" stroke-linecap="round" stroke-linejoin="round"/>
<path d="M19.7211 138.047C20.5421 138.519 21.2138 139.675 21.2014 140.606C21.2014 141.551 20.5297 141.923 19.7087 141.451C18.8877 140.979 18.2284 139.836 18.2284 138.892C18.2284 137.948 18.9001 137.575 19.7211 138.047Z" stroke="white" stroke-width="0.8" stroke-linecap="round" stroke-linejoin="round"/>
<path d="M21.1889 140.756C21.1889 140.756 21.1019 140.706 21.0521 140.681C20.2311 140.209 19.5718 139.066 19.5718 138.122C19.5718 138.072 19.5718 138.022 19.5718 137.973" stroke="white" stroke-width="0.8" stroke-linecap="round" stroke-linejoin="round"/>
<path d="M24.5724 140.843C25.3934 141.315 26.0651 142.47 26.0527 143.402C26.0527 144.346 25.381 144.719 24.56 144.247C23.739 143.775 23.0797 142.632 23.0797 141.688C23.0797 140.744 23.7514 140.371 24.5724 140.843Z" stroke="white" stroke-width="0.8" stroke-linecap="round" stroke-linejoin="round"/>
<path d="M26.0527 143.564C26.0527 143.564 25.9656 143.514 25.9159 143.49C25.0949 143.018 24.4356 141.875 24.4356 140.93C24.4356 140.881 24.4356 140.831 24.4356 140.781" stroke="white" stroke-width="0.8" stroke-linecap="round" stroke-linejoin="round"/>
<path d="M29.4362 143.651C30.2572 144.123 30.9164 145.278 30.9164 146.21C30.9164 147.154 30.2447 147.527 29.4237 147.055C28.6027 146.583 27.9435 145.44 27.9435 144.495C27.9435 143.551 28.6152 143.178 29.4362 143.651Z" stroke="white" stroke-width="0.8" stroke-linecap="round" stroke-linejoin="round"/>
<path d="M30.904 146.359C30.904 146.359 30.8169 146.309 30.7672 146.285C29.9462 145.812 29.2869 144.669 29.2869 143.725C29.2869 143.676 29.2869 143.626 29.2869 143.576" stroke="white" stroke-width="0.8" stroke-linecap="round" stroke-linejoin="round"/>
<path d="M34.2875 146.446C35.1085 146.918 35.7802 148.061 35.7678 149.005C35.7678 149.95 35.096 150.322 34.275 149.85C33.4541 149.378 32.7948 148.235 32.7948 147.291C32.7948 146.359 33.4665 145.974 34.2875 146.446Z" stroke="white" stroke-width="0.8" stroke-linecap="round" stroke-linejoin="round"/>
<path d="M35.7553 149.167C35.7553 149.167 35.6682 149.117 35.6185 149.092C34.7975 148.62 34.1382 147.465 34.1382 146.533C34.1382 146.483 34.1382 146.433 34.1382 146.384" stroke="white" stroke-width="0.8" stroke-linecap="round" stroke-linejoin="round"/>
<path d="M39.1388 149.254C39.9598 149.726 40.6315 150.881 40.6191 151.813C40.6191 152.757 39.9474 153.13 39.1264 152.658C38.3054 152.186 37.6461 151.043 37.6461 150.099C37.6461 149.167 38.3178 148.782 39.1388 149.254Z" stroke="white" stroke-width="0.8" stroke-linecap="round" stroke-linejoin="round"/>
<path d="M40.6191 151.963C40.6191 151.963 40.532 151.913 40.4822 151.888C39.6612 151.416 39.002 150.273 39.002 149.329C39.002 149.279 39.002 149.229 39.002 149.18" stroke="white" stroke-width="0.8" stroke-linecap="round" stroke-linejoin="round"/>
<path d="M44.0025 152.049C44.8235 152.521 45.4828 153.664 45.4828 154.608C45.4828 155.552 44.8111 155.925 43.9901 155.453C43.1691 154.981 42.5098 153.838 42.5098 152.894C42.5098 151.95 43.1815 151.577 44.0025 152.049Z" stroke="white" stroke-width="0.8" stroke-linecap="round" stroke-linejoin="round"/>
<path d="M45.4704 154.758C45.4704 154.758 45.3833 154.708 45.3335 154.683C44.5126 154.211 43.8533 153.068 43.8533 152.124C43.8533 152.074 43.8533 152.024 43.8533 151.975" stroke="white" stroke-width="0.8" stroke-linecap="round" stroke-linejoin="round"/>
<path d="M48.8539 154.845C49.6748 155.317 50.3466 156.46 50.3341 157.404C50.3341 158.348 49.6624 158.721 48.8414 158.249C48.0204 157.777 47.3611 156.634 47.3611 155.69C47.3611 154.746 48.0329 154.373 48.8539 154.845Z" stroke="white" stroke-width="0.8" stroke-linecap="round" stroke-linejoin="round"/>
<path d="M50.3217 157.566C50.3217 157.566 50.2346 157.516 50.1849 157.492C49.3639 157.019 48.7046 155.876 48.7046 154.932C48.7046 154.883 48.7046 154.833 48.7046 154.783" stroke="white" stroke-width="0.8" stroke-linecap="round" stroke-linejoin="round"/>
<path d="M53.7052 157.652C54.5262 158.124 55.1855 159.267 55.1855 160.211C55.1855 161.156 54.5137 161.528 53.6927 161.056C52.8717 160.584 52.2125 159.441 52.2125 158.497C52.2125 157.565 52.8842 157.18 53.7052 157.652Z" stroke="white" stroke-width="0.8" stroke-linecap="round" stroke-linejoin="round"/>
<path d="M55.1854 160.361C55.1854 160.361 55.0984 160.311 55.0486 160.286C54.2276 159.814 53.5683 158.659 53.5683 157.727C53.5683 157.678 53.5683 157.628 53.5683 157.578" stroke="white" stroke-width="0.8" stroke-linecap="round" stroke-linejoin="round"/>
<path d="M58.5689 160.447C59.3899 160.919 60.0492 162.062 60.0492 163.006C60.0492 163.951 59.3775 164.323 58.5565 163.851C57.7355 163.379 57.0762 162.236 57.0762 161.292C57.0762 160.36 57.7479 159.975 58.5689 160.447Z" stroke="white" stroke-width="0.8" stroke-linecap="round" stroke-linejoin="round"/>
<path d="M63.4202 163.242C64.2412 163.714 64.9129 164.87 64.9005 165.802C64.9005 166.746 64.2288 167.119 63.4078 166.647C62.5868 166.174 61.9275 165.031 61.9275 164.087C61.9275 163.143 62.5992 162.77 63.4202 163.242Z" stroke="white" stroke-width="0.8" stroke-linecap="round" stroke-linejoin="round"/>
<path d="M68.2716 166.051C69.0925 166.523 69.7518 167.666 69.7518 168.61C69.7518 169.554 69.0801 169.927 68.2591 169.455C67.4381 168.983 66.7788 167.84 66.7788 166.896C66.7788 165.952 67.4506 165.579 68.2716 166.051Z" stroke="white" stroke-width="0.8" stroke-linecap="round" stroke-linejoin="round"/>
<path d="M73.1353 168.846C73.9563 169.318 74.6156 170.461 74.6156 171.405C74.6156 172.349 73.9438 172.722 73.1228 172.25C72.3019 171.778 71.6426 170.635 71.6426 169.691C71.6426 168.746 72.3143 168.374 73.1353 168.846Z" stroke="white" stroke-width="0.8" stroke-linecap="round" stroke-linejoin="round"/>
<path d="M77.9866 171.641C78.8076 172.113 79.4793 173.268 79.4669 174.2C79.4669 175.144 78.7952 175.517 77.9742 175.045C77.1532 174.573 76.4939 173.43 76.4939 172.486C76.4939 171.541 77.1656 171.169 77.9866 171.641Z" stroke="white" stroke-width="0.8" stroke-linecap="round" stroke-linejoin="round"/>
<path d="M82.8379 174.449C83.6589 174.921 84.3306 176.077 84.3182 177.009C84.3182 177.953 83.6465 178.326 82.8255 177.853C82.0045 177.381 81.3452 176.238 81.3452 175.294C81.3452 174.35 82.0169 173.977 82.8379 174.449Z" stroke="white" stroke-width="0.8" stroke-linecap="round" stroke-linejoin="round"/>
<path d="M87.7017 177.244C88.5227 177.716 89.1819 178.859 89.1819 179.804C89.1819 180.748 88.5102 181.121 87.6892 180.648C86.8682 180.176 86.209 179.033 86.209 178.089C86.209 177.145 86.8807 176.772 87.7017 177.244Z" stroke="white" stroke-width="0.8" stroke-linecap="round" stroke-linejoin="round"/>
<path d="M92.553 180.052C93.374 180.524 94.0457 181.679 94.0333 182.611C94.0333 183.555 93.3615 183.928 92.5405 183.456C91.7195 182.984 91.0603 181.841 91.0603 180.897C91.0603 179.953 91.732 179.58 92.553 180.052Z" stroke="white" stroke-width="0.8" stroke-linecap="round" stroke-linejoin="round"/>
<path d="M97.4043 182.848C98.2253 183.32 98.897 184.475 98.8846 185.407C98.8846 186.351 98.2128 186.724 97.3919 186.252C96.5709 185.78 95.9116 184.637 95.9116 183.693C95.9116 182.748 96.5833 182.376 97.4043 182.848Z" stroke="white" stroke-width="0.8" stroke-linecap="round" stroke-linejoin="round"/>
<path d="M98.8846 185.556C98.8846 185.556 98.7975 185.507 98.7477 185.482C97.9267 185.01 97.2675 183.867 97.2675 182.923C97.2675 182.873 97.2675 182.823 97.2675 182.773" stroke="white" stroke-width="0.8" stroke-linecap="round" stroke-linejoin="round"/>
<path d="M102.268 185.643C103.089 186.115 103.748 187.27 103.748 188.202C103.748 189.146 103.077 189.519 102.256 189.047C101.435 188.575 100.775 187.432 100.775 186.488C100.775 185.543 101.447 185.171 102.268 185.643Z" stroke="white" stroke-width="0.8" stroke-linecap="round" stroke-linejoin="round"/>
<path d="M103.736 188.364C103.736 188.364 103.649 188.314 103.599 188.289C102.778 187.817 102.119 186.674 102.119 185.73C102.119 185.68 102.119 185.631 102.119 185.581" stroke="white" stroke-width="0.8" stroke-linecap="round" stroke-linejoin="round"/>
<path d="M107.119 188.45C107.94 188.922 108.6 190.078 108.6 191.01C108.6 191.954 107.928 192.327 107.107 191.854C106.286 191.382 105.627 190.239 105.627 189.295C105.627 188.351 106.298 187.978 107.119 188.45Z" stroke="white" stroke-width="0.8" stroke-linecap="round" stroke-linejoin="round"/>
<path d="M108.6 191.159C108.6 191.159 108.513 191.109 108.463 191.084C107.642 190.612 106.983 189.469 106.983 188.525C106.983 188.475 106.983 188.426 106.983 188.376" stroke="white" stroke-width="0.8" stroke-linecap="round" stroke-linejoin="round"/>
<path d="M111.971 191.246C112.792 191.718 113.463 192.874 113.451 193.806C113.451 194.75 112.779 195.122 111.958 194.65C111.137 194.178 110.478 193.035 110.478 192.091C110.478 191.147 111.15 190.774 111.971 191.246Z" stroke="white" stroke-width="0.8" stroke-linecap="round" stroke-linejoin="round"/>
<path d="M113.451 193.955C113.451 193.955 113.364 193.905 113.314 193.88C112.493 193.408 111.834 192.253 111.834 191.321C111.834 191.271 111.834 191.222 111.834 191.172" stroke="white" stroke-width="0.8" stroke-linecap="round" stroke-linejoin="round"/>
<path d="M116.834 194.041C117.655 194.513 118.327 195.669 118.315 196.6C118.315 197.545 117.643 197.917 116.822 197.445C116.001 196.973 115.342 195.83 115.342 194.886C115.342 193.942 116.013 193.569 116.834 194.041Z" stroke="white" stroke-width="0.8" stroke-linecap="round" stroke-linejoin="round"/>
<path d="M118.302 196.762C118.302 196.762 118.215 196.713 118.165 196.688C117.344 196.216 116.685 195.073 116.685 194.129C116.685 194.079 116.685 194.029 116.685 193.979" stroke="white" stroke-width="0.8" stroke-linecap="round" stroke-linejoin="round"/>
<path d="M121.686 196.849C122.507 197.321 123.166 198.476 123.166 199.408C123.166 200.352 122.494 200.725 121.673 200.253C120.852 199.781 120.193 198.638 120.193 197.694C120.193 196.749 120.865 196.377 121.686 196.849Z" stroke="white" stroke-width="0.8" stroke-linecap="round" stroke-linejoin="round"/>
<path d="M123.166 199.557C123.166 199.557 123.079 199.508 123.029 199.483C122.208 199.011 121.549 197.868 121.549 196.923C121.549 196.874 121.549 196.824 121.549 196.774" stroke="white" stroke-width="0.8" stroke-linecap="round" stroke-linejoin="round"/>
<path d="M126.537 199.645C127.358 200.117 128.03 201.272 128.017 202.204C128.017 203.148 127.346 203.521 126.525 203.049C125.704 202.577 125.044 201.434 125.044 200.49C125.044 199.545 125.716 199.173 126.537 199.645Z" stroke="white" stroke-width="0.8" stroke-linecap="round" stroke-linejoin="round"/>
<path d="M128.017 202.366C128.017 202.366 127.93 202.316 127.88 202.291C127.059 201.819 126.4 200.676 126.4 199.732C126.4 199.682 126.4 199.633 126.4 199.583" stroke="white" stroke-width="0.8" stroke-linecap="round" stroke-linejoin="round"/>
<path d="M131.401 202.452C132.222 202.924 132.894 204.08 132.881 205.012C132.881 205.956 132.209 206.329 131.388 205.856C130.567 205.384 129.908 204.241 129.908 203.297C129.908 202.353 130.58 201.98 131.401 202.452Z" stroke="white" stroke-width="0.8" stroke-linecap="round" stroke-linejoin="round"/>
<path d="M132.869 205.161C132.869 205.161 132.782 205.111 132.732 205.086C131.911 204.614 131.252 203.471 131.252 202.527C131.252 202.477 131.252 202.428 131.252 202.378" stroke="white" stroke-width="0.8" stroke-linecap="round" stroke-linejoin="round"/>
<path d="M136.252 205.247C137.073 205.719 137.732 206.875 137.732 207.807C137.732 208.751 137.061 209.124 136.24 208.651C135.419 208.179 134.759 207.036 134.759 206.092C134.759 205.148 135.431 204.775 136.252 205.247Z" stroke="white" stroke-width="0.8" stroke-linecap="round" stroke-linejoin="round"/>
<path d="M137.732 207.956C137.732 207.956 137.645 207.906 137.596 207.881C136.775 207.409 136.115 206.266 136.115 205.322C136.115 205.272 136.115 205.223 136.115 205.173" stroke="white" stroke-width="0.8" stroke-linecap="round" stroke-linejoin="round"/>
<path d="M14.8698 140.867C15.6908 141.339 16.3625 142.482 16.3501 143.427C16.3501 144.371 15.6783 144.744 14.8573 144.271C14.0364 143.799 13.3771 142.656 13.3771 141.712C13.3771 140.768 14.0488 140.395 14.8698 140.867Z" stroke="white" stroke-width="0.8" stroke-linecap="round" stroke-linejoin="round"/>
<path d="M16.3376 143.576C16.3376 143.576 16.2506 143.526 16.2008 143.501C15.3798 143.029 14.7205 141.874 14.7205 140.942C14.7205 140.892 14.7205 140.843 14.7205 140.793" stroke="white" stroke-width="0.8" stroke-linecap="round" stroke-linejoin="round"/>
<path d="M19.7211 143.675C20.5421 144.147 21.2138 145.29 21.2014 146.234C21.2014 147.178 20.5297 147.551 19.7087 147.079C18.8877 146.607 18.2284 145.464 18.2284 144.52C18.2284 143.588 18.9001 143.203 19.7211 143.675Z" stroke="white" stroke-width="0.8" stroke-linecap="round" stroke-linejoin="round"/>
<path d="M21.1889 146.384C21.1889 146.384 21.1019 146.334 21.0521 146.309C20.2311 145.837 19.5718 144.694 19.5718 143.75C19.5718 143.7 19.5718 143.65 19.5718 143.601" stroke="white" stroke-width="0.8" stroke-linecap="round" stroke-linejoin="round"/>
<path d="M24.5724 146.471C25.3934 146.943 26.0651 148.098 26.0527 149.03C26.0527 149.974 25.381 150.347 24.56 149.875C23.739 149.403 23.0797 148.26 23.0797 147.316C23.0797 146.372 23.7514 145.999 24.5724 146.471Z" stroke="white" stroke-width="0.8" stroke-linecap="round" stroke-linejoin="round"/>
<path d="M26.0527 149.179C26.0527 149.179 25.9656 149.13 25.9159 149.105C25.0949 148.633 24.4356 147.49 24.4356 146.546C24.4356 146.496 24.4356 146.446 24.4356 146.396" stroke="white" stroke-width="0.8" stroke-linecap="round" stroke-linejoin="round"/>
<path d="M29.4362 149.266C30.2572 149.738 30.9164 150.881 30.9164 151.825C30.9164 152.769 30.2447 153.142 29.4237 152.67C28.6027 152.198 27.9435 151.055 27.9435 150.111C27.9435 149.166 28.6152 148.794 29.4362 149.266Z" stroke="white" stroke-width="0.8" stroke-linecap="round" stroke-linejoin="round"/>
<path d="M30.904 151.987C30.904 151.987 30.8169 151.937 30.7672 151.912C29.9462 151.44 29.2869 150.297 29.2869 149.353C29.2869 149.303 29.2869 149.254 29.2869 149.204" stroke="white" stroke-width="0.8" stroke-linecap="round" stroke-linejoin="round"/>
<path d="M34.2875 152.073C35.1085 152.546 35.7802 153.689 35.7678 154.633C35.7678 155.577 35.096 155.95 34.275 155.478C33.4541 155.005 32.7948 153.862 32.7948 152.918C32.7948 151.974 33.4665 151.601 34.2875 152.073Z" stroke="white" stroke-width="0.8" stroke-linecap="round" stroke-linejoin="round"/>
<path d="M35.7553 154.782C35.7553 154.782 35.6682 154.732 35.6185 154.707C34.7975 154.235 34.1382 153.092 34.1382 152.148C34.1382 152.098 34.1382 152.049 34.1382 151.999" stroke="white" stroke-width="0.8" stroke-linecap="round" stroke-linejoin="round"/>
<path d="M39.1388 154.869C39.9598 155.341 40.6315 156.484 40.6191 157.429C40.6191 158.36 39.9474 158.746 39.1264 158.273C38.3054 157.801 37.6461 156.658 37.6461 155.714C37.6461 154.77 38.3178 154.397 39.1388 154.869Z" stroke="white" stroke-width="0.8" stroke-linecap="round" stroke-linejoin="round"/>
<path d="M40.6191 157.578C40.6191 157.578 40.532 157.528 40.4822 157.503C39.6612 157.031 39.002 155.888 39.002 154.944C39.002 154.894 39.002 154.845 39.002 154.795" stroke="white" stroke-width="0.8" stroke-linecap="round" stroke-linejoin="round"/>
<path d="M44.0025 157.664C44.8235 158.136 45.4828 159.292 45.4828 160.224C45.4828 161.168 44.8111 161.54 43.9901 161.068C43.1691 160.596 42.5098 159.453 42.5098 158.509C42.5098 157.565 43.1815 157.192 44.0025 157.664Z" stroke="white" stroke-width="0.8" stroke-linecap="round" stroke-linejoin="round"/>
<path d="M45.4704 160.385C45.4704 160.385 45.3833 160.336 45.3335 160.311C44.5126 159.839 43.8533 158.696 43.8533 157.752C43.8533 157.702 43.8533 157.652 43.8533 157.603" stroke="white" stroke-width="0.8" stroke-linecap="round" stroke-linejoin="round"/>
<path d="M48.8539 160.472C49.6748 160.944 50.3466 162.087 50.3341 163.031C50.3341 163.975 49.6624 164.348 48.8414 163.876C48.0204 163.404 47.3611 162.261 47.3611 161.317C47.3611 160.372 48.0329 160 48.8539 160.472Z" stroke="white" stroke-width="0.8" stroke-linecap="round" stroke-linejoin="round"/>
<path d="M50.3217 163.18C50.3217 163.18 50.2346 163.131 50.1849 163.106C49.3639 162.634 48.7046 161.491 48.7046 160.547C48.7046 160.497 48.7046 160.447 48.7046 160.397" stroke="white" stroke-width="0.8" stroke-linecap="round" stroke-linejoin="round"/>
<path d="M53.7052 163.268C54.5262 163.74 55.1855 164.883 55.1855 165.827C55.1855 166.771 54.5137 167.144 53.6927 166.672C52.8717 166.2 52.2125 165.057 52.2125 164.113C52.2125 163.168 52.8842 162.796 53.7052 163.268Z" stroke="white" stroke-width="0.8" stroke-linecap="round" stroke-linejoin="round"/>
<path d="M55.1854 165.976C55.1854 165.976 55.0984 165.927 55.0486 165.902C54.2276 165.43 53.5683 164.287 53.5683 163.342C53.5683 163.293 53.5683 163.243 53.5683 163.193" stroke="white" stroke-width="0.8" stroke-linecap="round" stroke-linejoin="round"/>
<path d="M58.5689 166.075C59.3899 166.547 60.0492 167.69 60.0492 168.635C60.0492 169.566 59.3775 169.952 58.5565 169.479C57.7355 169.007 57.0762 167.864 57.0762 166.92C57.0762 165.976 57.7479 165.603 58.5689 166.075Z" stroke="white" stroke-width="0.8" stroke-linecap="round" stroke-linejoin="round"/>
<path d="M63.4202 168.87C64.2412 169.342 64.9129 170.498 64.9005 171.43C64.9005 172.374 64.2288 172.746 63.4078 172.274C62.5868 171.802 61.9275 170.659 61.9275 169.715C61.9275 168.771 62.5992 168.398 63.4202 168.87Z" stroke="white" stroke-width="0.8" stroke-linecap="round" stroke-linejoin="round"/>
<path d="M68.2716 171.666C69.0925 172.138 69.7518 173.281 69.7518 174.225C69.7518 175.17 69.0801 175.542 68.2591 175.07C67.4381 174.598 66.7788 173.455 66.7788 172.511C66.7788 171.567 67.4506 171.194 68.2716 171.666Z" stroke="white" stroke-width="0.8" stroke-linecap="round" stroke-linejoin="round"/>
<path d="M73.1353 174.474C73.9563 174.946 74.6156 176.089 74.6156 177.033C74.6156 177.977 73.9438 178.35 73.1228 177.878C72.3019 177.406 71.6426 176.263 71.6426 175.319C71.6426 174.374 72.3143 174.002 73.1353 174.474Z" stroke="white" stroke-width="0.8" stroke-linecap="round" stroke-linejoin="round"/>
<path d="M77.9866 177.269C78.8076 177.741 79.4793 178.884 79.4669 179.828C79.4669 180.772 78.7952 181.145 77.9742 180.673C77.1532 180.201 76.4939 179.058 76.4939 178.114C76.4939 177.169 77.1656 176.797 77.9866 177.269Z" stroke="white" stroke-width="0.8" stroke-linecap="round" stroke-linejoin="round"/>
<path d="M82.8379 180.065C83.6589 180.537 84.3306 181.692 84.3182 182.624C84.3182 183.568 83.6465 183.941 82.8255 183.469C82.0045 182.997 81.3452 181.854 81.3452 180.909C81.3452 179.965 82.0169 179.593 82.8379 180.065Z" stroke="white" stroke-width="0.8" stroke-linecap="round" stroke-linejoin="round"/>
<path d="M87.7017 182.872C88.5227 183.344 89.1819 184.487 89.1819 185.432C89.1819 186.376 88.5102 186.748 87.6892 186.276C86.8682 185.804 86.209 184.661 86.209 183.717C86.209 182.773 86.8807 182.4 87.7017 182.872Z" stroke="white" stroke-width="0.8" stroke-linecap="round" stroke-linejoin="round"/>
<path d="M92.553 185.667C93.374 186.139 94.0457 187.282 94.0333 188.226C94.0333 189.171 93.3615 189.543 92.5405 189.071C91.7195 188.599 91.0603 187.456 91.0603 186.512C91.0603 185.568 91.732 185.195 92.553 185.667Z" stroke="white" stroke-width="0.8" stroke-linecap="round" stroke-linejoin="round"/>
<path d="M97.4043 188.475C98.2253 188.947 98.897 190.09 98.8846 191.034C98.8846 191.978 98.2128 192.351 97.3919 191.879C96.5709 191.407 95.9116 190.264 95.9116 189.32C95.9116 188.375 96.5833 188.003 97.4043 188.475Z" stroke="white" stroke-width="0.8" stroke-linecap="round" stroke-linejoin="round"/>
<path d="M98.8846 191.183C98.8846 191.183 98.7975 191.134 98.7477 191.109C97.9267 190.637 97.2675 189.494 97.2675 188.549C97.2675 188.5 97.2675 188.45 97.2675 188.4" stroke="white" stroke-width="0.8" stroke-linecap="round" stroke-linejoin="round"/>
<path d="M102.268 191.271C103.089 191.743 103.748 192.898 103.748 193.83C103.748 194.774 103.077 195.147 102.256 194.675C101.435 194.203 100.775 193.06 100.775 192.116C100.775 191.171 101.447 190.799 102.268 191.271Z" stroke="white" stroke-width="0.8" stroke-linecap="round" stroke-linejoin="round"/>
<path d="M103.736 193.979C103.736 193.979 103.649 193.93 103.599 193.905C102.778 193.433 102.119 192.29 102.119 191.345C102.119 191.296 102.119 191.246 102.119 191.196" stroke="white" stroke-width="0.8" stroke-linecap="round" stroke-linejoin="round"/>
<path d="M107.119 194.066C107.94 194.538 108.6 195.681 108.6 196.625C108.6 197.569 107.928 197.942 107.107 197.47C106.286 196.998 105.627 195.855 105.627 194.91C105.627 193.966 106.298 193.593 107.119 194.066Z" stroke="white" stroke-width="0.8" stroke-linecap="round" stroke-linejoin="round"/>
<path d="M108.6 196.787C108.6 196.787 108.513 196.737 108.463 196.712C107.642 196.24 106.983 195.097 106.983 194.153C106.983 194.103 106.983 194.054 106.983 194.004" stroke="white" stroke-width="0.8" stroke-linecap="round" stroke-linejoin="round"/>
<path d="M111.971 196.873C112.792 197.345 113.463 198.488 113.451 199.433C113.451 200.377 112.779 200.749 111.958 200.277C111.137 199.805 110.478 198.662 110.478 197.718C110.478 196.774 111.15 196.401 111.971 196.873Z" stroke="white" stroke-width="0.8" stroke-linecap="round" stroke-linejoin="round"/>
<path d="M113.451 199.582C113.451 199.582 113.364 199.532 113.314 199.507C112.493 199.035 111.834 197.892 111.834 196.948C111.834 196.898 111.834 196.849 111.834 196.799" stroke="white" stroke-width="0.8" stroke-linecap="round" stroke-linejoin="round"/>
<path d="M116.834 199.669C117.655 200.141 118.327 201.284 118.315 202.228C118.315 203.173 117.643 203.545 116.822 203.073C116.001 202.601 115.342 201.458 115.342 200.514C115.342 199.57 116.013 199.197 116.834 199.669Z" stroke="white" stroke-width="0.8" stroke-linecap="round" stroke-linejoin="round"/>
<path d="M118.302 202.378C118.302 202.378 118.215 202.328 118.165 202.303C117.344 201.831 116.685 200.688 116.685 199.744C116.685 199.694 116.685 199.644 116.685 199.595" stroke="white" stroke-width="0.8" stroke-linecap="round" stroke-linejoin="round"/>
<path d="M121.686 202.477C122.507 202.949 123.166 204.092 123.166 205.036C123.166 205.98 122.494 206.353 121.673 205.881C120.852 205.409 120.193 204.266 120.193 203.322C120.193 202.377 120.865 202.005 121.686 202.477Z" stroke="white" stroke-width="0.8" stroke-linecap="round" stroke-linejoin="round"/>
<path d="M123.166 205.185C123.166 205.185 123.079 205.136 123.029 205.111C122.208 204.639 121.549 203.496 121.549 202.551C121.549 202.502 121.549 202.452 121.549 202.402" stroke="white" stroke-width="0.8" stroke-linecap="round" stroke-linejoin="round"/>
<path d="M126.537 205.272C127.358 205.744 128.03 206.899 128.017 207.831C128.017 208.775 127.346 209.148 126.525 208.676C125.704 208.204 125.044 207.061 125.044 206.116C125.044 205.172 125.716 204.8 126.537 205.272Z" stroke="white" stroke-width="0.8" stroke-linecap="round" stroke-linejoin="round"/>
<path d="M128.017 207.98C128.017 207.98 127.93 207.93 127.88 207.906C127.059 207.434 126.4 206.291 126.4 205.346C126.4 205.297 126.4 205.247 126.4 205.197" stroke="white" stroke-width="0.8" stroke-linecap="round" stroke-linejoin="round"/>
<path d="M131.401 208.068C132.222 208.54 132.894 209.683 132.881 210.627C132.881 211.571 132.209 211.944 131.388 211.472C130.567 211 129.908 209.857 129.908 208.912C129.908 207.968 130.58 207.595 131.401 208.068Z" stroke="white" stroke-width="0.8" stroke-linecap="round" stroke-linejoin="round"/>
<path d="M132.869 210.776C132.869 210.776 132.782 210.726 132.732 210.702C131.911 210.229 131.252 209.086 131.252 208.142C131.252 208.093 131.252 208.043 131.252 207.993" stroke="white" stroke-width="0.8" stroke-linecap="round" stroke-linejoin="round"/>
<path d="M136.252 210.875C137.073 211.347 137.732 212.49 137.732 213.434C137.732 214.379 137.061 214.751 136.24 214.279C135.419 213.807 134.759 212.664 134.759 211.72C134.759 210.776 135.431 210.403 136.252 210.875Z" stroke="white" stroke-width="0.8" stroke-linecap="round" stroke-linejoin="round"/>
<path d="M137.732 213.584C137.732 213.584 137.645 213.534 137.596 213.509C136.775 213.037 136.115 211.882 136.115 210.95C136.115 210.9 136.115 210.85 136.115 210.801" stroke="white" stroke-width="0.8" stroke-linecap="round" stroke-linejoin="round"/>
<path d="M191.532 168.336V162.944C191.532 162.111 192.254 161.18 193.448 160.36C194.642 159.527 218.55 146.11 219.72 145.451C221.374 144.519 223.389 144.097 225.74 145.501C226.375 145.886 228.328 147.191 228.328 147.191" stroke="white" stroke-width="0.8" stroke-linecap="round" stroke-linejoin="round"/>
<path d="M191.532 162.932C191.532 163.491 192.254 164.373 193.149 165.006C193.535 165.28 195.052 166.311 195.052 166.311" stroke="white" stroke-width="0.8" stroke-linecap="round" stroke-linejoin="round"/>
<path d="M197.379 164.981L195.052 163.453C194.754 163.143 194.505 162.559 195.052 162.136C195.6 161.714 221.187 147.029 221.187 147.029C222.008 146.557 222.941 146.445 223.476 146.83C224.011 147.215 225.939 148.545 225.939 148.545" stroke="white" stroke-width="0.8" stroke-linecap="round" stroke-linejoin="round"/>
<path d="M217.916 148.905L221.474 151.117" stroke="white" stroke-width="0.8" stroke-linecap="round" stroke-linejoin="round"/>
<path d="M219.496 152.247L215.988 150.011V154.272" stroke="white" stroke-width="0.8" stroke-linecap="round" stroke-linejoin="round"/>
<path d="M149.338 173.306C149.338 174.971 147.012 176.325 144.151 176.325C141.29 176.325 138.964 174.971 138.964 173.306C138.964 171.641 141.29 170.287 144.151 170.287C147.012 170.287 149.338 171.641 149.338 173.306Z" stroke="white" stroke-width="0.8" stroke-linecap="round" stroke-linejoin="round"/>
<path d="M146.664 173.306C146.664 174.064 145.532 174.673 144.151 174.673C142.77 174.673 141.638 174.064 141.638 173.306C141.638 172.548 142.758 171.939 144.151 171.939C145.544 171.939 146.664 172.548 146.664 173.306Z" stroke="white" stroke-width="0.8" stroke-linecap="round" stroke-linejoin="round"/>
<path d="M76.1083 107.77C76.1083 109.435 73.7821 110.789 70.9211 110.789C68.0601 110.789 65.7339 109.435 65.7339 107.77C65.7339 106.105 68.0601 104.751 70.9211 104.751C73.7821 104.751 76.1083 106.105 76.1083 107.77Z" stroke="white" stroke-width="0.8" stroke-linecap="round" stroke-linejoin="round"/>
<path d="M74.4165 123.599C73.496 124.083 72.2645 124.381 70.9211 124.381C69.6647 124.381 68.5203 124.12 67.6247 123.698" stroke="white" stroke-width="0.8" stroke-linecap="round" stroke-linejoin="round"/>
<path d="M73.4338 107.77C73.4338 108.528 72.3018 109.137 70.9211 109.137C69.5403 109.137 68.4084 108.528 68.4084 107.77C68.4084 107.012 69.5279 106.403 70.9211 106.403C72.3143 106.403 73.4338 107.012 73.4338 107.77Z" stroke="white" stroke-width="0.8" stroke-linecap="round" stroke-linejoin="round"/>
<path d="M149.338 173.306V178.896" stroke="white" stroke-width="0.8" stroke-linecap="round" stroke-linejoin="round"/>
<path d="M149.338 178.287L158.518 172.982" stroke="white" stroke-width="0.8" stroke-linecap="round" stroke-linejoin="round"/>
<path d="M171.418 165.765L187.514 156.136L96.8072 103.671L76.1083 115.697" stroke="white" stroke-width="0.8" stroke-linecap="round" stroke-linejoin="round"/>
<path d="M76.3446 118.89L96.8072 107L146.539 135.761C149.686 134.705 156.006 138.109 157.71 142.221L184.678 157.826" stroke="white" stroke-width="0.8" stroke-linecap="round" stroke-linejoin="round"/>
<path d="M82.3155 122.405L79.9271 123.548L73.6329 119.945C73.6329 119.945 75.138 119.274 75.76 118.554L82.3155 122.405Z" stroke="white" stroke-width="0.8" stroke-linecap="round" stroke-linejoin="round"/>
<path d="M73.6453 119.945V123.163L79.9396 126.754L82.3155 125.623V122.405" stroke="white" stroke-width="0.8" stroke-linecap="round" stroke-linejoin="round"/>
<path d="M79.9396 123.549V126.754" stroke="white" stroke-width="0.8" stroke-linecap="round" stroke-linejoin="round"/>
<path d="M59.875 122.405L62.2634 123.548L68.5576 119.945C68.5576 119.945 67.0525 119.274 66.4305 118.554L59.875 122.405Z" stroke="white" stroke-width="0.8" stroke-linecap="round" stroke-linejoin="round"/>
<path d="M68.5576 119.945V123.163L62.2634 126.754L59.875 125.623V122.405" stroke="white" stroke-width="0.8" stroke-linecap="round" stroke-linejoin="round"/>
<path d="M62.2634 123.549V126.754" stroke="white" stroke-width="0.8" stroke-linecap="round" stroke-linejoin="round"/>
<path d="M76.1083 107.771V118.741" stroke="white" stroke-width="0.8" stroke-linecap="round" stroke-linejoin="round"/>
<path d="M65.7339 107.771V118.952" stroke="white" stroke-width="0.8" stroke-linecap="round" stroke-linejoin="round"/>
<path d="M62.6241 117.101L65.7339 118.952" stroke="white" stroke-width="0.8" stroke-linecap="round" stroke-linejoin="round"/>
<path d="M62.6241 113.783L65.7339 115.634" stroke="white" stroke-width="0.8" stroke-linecap="round" stroke-linejoin="round"/>
<path d="M62.6241 111.062L65.7339 112.926" stroke="white" stroke-width="0.8" stroke-linecap="round" stroke-linejoin="round"/>
<path d="M76.1083 113.1L94.6055 102.068C95.6006 101.508 97.0684 101.471 98.0885 102.043C99.096 102.627 189.231 154.632 189.231 154.632C190.164 155.179 190.86 155.701 190.86 156.446V159.291C190.86 159.701 190.86 160.124 189.99 160.733C189.119 161.341 171.828 171.243 171.828 171.243" stroke="white" stroke-width="0.8" stroke-linecap="round" stroke-linejoin="round"/>
<path d="M190.861 156.459C190.861 156.894 190.574 157.229 189.89 157.627C189.206 158.024 171.43 168.336 171.43 168.336" stroke="white" stroke-width="0.8" stroke-linecap="round" stroke-linejoin="round"/>
<path d="M96.8072 103.671V107" stroke="white" stroke-width="0.8" stroke-linecap="round" stroke-linejoin="round"/>
<path d="M147.273 130.431C149.861 128.083 154.438 126.53 159.65 126.53C167.723 126.53 174.266 130.27 174.266 134.879C174.266 137.886 171.48 140.519 167.313 141.985" stroke="white" stroke-width="0.8" stroke-linecap="round" stroke-linejoin="round"/>
<path d="M159.439 143.228C151.465 143.166 145.022 139.451 145.022 134.879" stroke="white" stroke-width="0.8" stroke-linecap="round" stroke-linejoin="round"/>
<path d="M148.38 131.078C150.197 128.543 154.55 126.767 159.638 126.767C166.355 126.767 171.803 129.873 171.803 133.712C171.803 136.644 168.631 139.153 164.141 140.172" stroke="white" stroke-width="0.8" stroke-linecap="round" stroke-linejoin="round"/>
<path d="M156.677 140.457C152.436 139.848 149.077 137.972 147.92 135.574" stroke="white" stroke-width="0.8" stroke-linecap="round" stroke-linejoin="round"/>
<path d="M150.097 132.071C150.557 129.288 154.65 127.114 159.638 127.114C164.937 127.114 169.229 129.562 169.229 132.593C169.229 135.463 165.372 137.811 160.459 138.047" stroke="white" stroke-width="0.8" stroke-linecap="round" stroke-linejoin="round"/>
<path d="M278.072 108.007V118.468" stroke="white" stroke-width="0.8" stroke-linecap="round" stroke-linejoin="round"/>
<path d="M287.053 81.8291L307.777 93.7311C307.777 93.7311 311.372 95.868 311.932 98.1415" stroke="white" stroke-width="0.8" stroke-linecap="round" stroke-linejoin="round"/>
<path d="M289.131 100.328V89.3333C289.131 85.0844 286.431 79.0838 282.762 76.8724L198.175 27.8855C196.981 27.1649 193.921 26.7922 192.789 27.5252C191.644 28.2457 176.108 37.0542 176.108 37.0542C175.287 37.5263 174.354 38.6072 174.354 41.2907V53.0436" stroke="white" stroke-width="0.8" stroke-linecap="round" stroke-linejoin="round"/>
<path d="M192.689 27.575L171.853 15.3873C164.427 11.0762 154.015 11.772 147.671 15.3873L11.7351 93.6817C11.7351 93.6817 8.40137 95.682 7.76697 98.117" stroke="white" stroke-width="0.8" stroke-linecap="round" stroke-linejoin="round"/>
<path d="M171.045 27.7616L172.848 26.8174L174.913 28.0846V38.3094" stroke="white" stroke-width="0.8" stroke-linecap="round" stroke-linejoin="round"/>
<path d="M174.913 28.084L172.537 29.5375" stroke="white" stroke-width="0.8" stroke-linecap="round" stroke-linejoin="round"/>
<path d="M53.3569 95.8931V75.0088" stroke="white" stroke-width="0.8" stroke-linecap="round" stroke-linejoin="round"/>
<path d="M55.8323 97.471V73.7665L52.0756 71.4805L49.7495 72.8968V74.897L47.1123 73.2944L47.1123 95.7565" stroke="white" stroke-width="0.8" stroke-linecap="round" stroke-linejoin="round"/>
<path d="M49.7495 72.8965L53.3568 75.0085L55.8323 73.7662" stroke="white" stroke-width="0.8" stroke-linecap="round" stroke-linejoin="round"/>
<path d="M116.598 74.8972V38.6074" stroke="white" stroke-width="0.8" stroke-linecap="round" stroke-linejoin="round"/>
<path d="M119.073 37.3651L115.317 35.0791L112.991 36.4954V38.4956L110.366 36.893V69.145C110.366 70.8222 111.573 71.9156 112.307 72.3752C113.04 72.8473 116.611 74.8972 116.611 74.8972L119.086 73.6549V37.3651H119.073Z" stroke="white" stroke-width="0.8" stroke-linecap="round" stroke-linejoin="round"/>
<path d="M112.978 36.4951L116.598 38.6072L119.073 37.3648" stroke="white" stroke-width="0.8" stroke-linecap="round" stroke-linejoin="round"/>
<path d="M112.294 72.375L60.6338 102.577" stroke="white" stroke-width="0.8" stroke-linecap="round" stroke-linejoin="round"/>
<path d="M119.073 68.7967L142.758 54.9814" stroke="white" stroke-width="0.8" stroke-linecap="round" stroke-linejoin="round"/>
<path d="M148.169 27.7733L146.539 26.8291L144.673 27.9969V51.8506" stroke="white" stroke-width="0.8" stroke-linecap="round" stroke-linejoin="round"/>
<path d="M144.673 27.9971L146.85 29.2643" stroke="white" stroke-width="0.8" stroke-linecap="round" stroke-linejoin="round"/>
<path d="M196.632 60.1129C199.954 62.0262 202.64 66.6602 202.628 70.4619C202.628 74.276 199.916 75.8165 196.595 73.8909C193.274 71.9776 190.587 67.3311 190.599 63.517C190.599 59.703 193.311 58.1873 196.632 60.1005V60.1129Z" stroke="white" stroke-width="0.8" stroke-linecap="round" stroke-linejoin="round"/>
<path d="M205.24 53.5279C204.481 54.733 203.884 56.5096 203.884 59.6155V71.4057C203.884 76.1515 200.501 78.0772 196.371 75.6919C192.229 73.3065 188.883 67.517 188.895 62.7711V46.4215C188.895 45.1294 189.952 44.707 189.952 44.707" stroke="white" stroke-width="0.8" stroke-linecap="round" stroke-linejoin="round"/>
<path d="M184.79 48.0122C184.79 47.391 184.84 45.8877 186.134 44.9063C187.427 43.9248 189.082 44.136 189.604 44.4963C190.127 44.8566 204.009 52.7829 205.054 53.4041C206.086 54.0253 206.447 54.9074 206.136 55.5907C205.825 56.274 205.116 58.3239 205.116 59.7651V73.6176C205.103 80.0531 200.526 82.6621 194.928 79.4195C189.318 76.1893 184.778 68.3251 184.79 61.8896V48.0122Z" stroke="white" stroke-width="0.8" stroke-linecap="round" stroke-linejoin="round"/>
<path d="M235.182 70.8838C235.182 70.8838 234.137 71.3062 234.137 72.5983V88.9479C234.137 89.8051 234.186 91.4699 235.182 92.0538C236.177 92.6378 252.161 101.67 252.161 101.67" stroke="white" stroke-width="0.8" stroke-linecap="round" stroke-linejoin="round"/>
<path d="M257.398 83.7422C256.639 84.9473 256.042 86.7239 256.042 89.8299V101.297" stroke="white" stroke-width="0.8" stroke-linecap="round" stroke-linejoin="round"/>
<path d="M257.286 101.509V89.9923C257.286 88.5387 257.995 86.5013 258.306 85.8179C258.617 85.1346 258.256 84.2525 257.224 83.6314C256.191 83.0102 235.381 71.0585 234.858 70.6857C234.336 70.3255 232.681 70.1143 231.388 71.0957C230.094 72.0772 230.044 73.5805 230.044 74.2017V89.7314C230.044 92.1789 230.828 94.0425 233.465 95.8315C236.102 97.6205 248.666 105 248.666 105" stroke="white" stroke-width="0.8" stroke-linecap="round" stroke-linejoin="round"/>
<path d="M174.341 41.0303C174.341 41.7012 175.672 42.7448 176.891 43.4157C178.11 44.0866 184.803 47.8137 184.803 47.8137" stroke="white" stroke-width="0.8" stroke-linecap="round" stroke-linejoin="round"/>
<path d="M205.116 59.7646L230.044 74.0023" stroke="white" stroke-width="0.8" stroke-linecap="round" stroke-linejoin="round"/>
<path d="M257.286 89.9922L261.565 92.2781C264.924 94.0423 273.843 97.9434 275.97 96.7632C278.097 95.5829 289.131 89.3213 289.131 89.3213" stroke="white" stroke-width="0.8" stroke-linecap="round" stroke-linejoin="round"/>
<path d="M235.244 86.8111C235.244 85.606 236.102 83.3945 238.043 84.4009C239.983 85.4072 250.357 91.3457 252.149 92.4639C253.94 93.5944 254.836 94.961 254.836 97.247V99.533C254.836 100.229 254.251 101.471 252.149 100.303C250.046 99.1354 238.192 92.4514 238.192 92.4514C236.836 91.6066 235.244 90.7121 235.244 88.6498V86.7862V86.8111Z" stroke="white" stroke-width="0.8" stroke-linecap="round" stroke-linejoin="round"/>
<path d="M196.197 59.877C196.197 59.877 194.928 64.1631 191.147 66.71" stroke="white" stroke-width="0.8" stroke-linecap="round" stroke-linejoin="round"/>
</svg>
