<svg width="168" height="106" viewBox="0 0 168 106" fill="none" xmlns="http://www.w3.org/2000/svg">
<path d="M167.064 48.6328C167.064 74.9339 129.896 96.2531 84.0321 96.2531C38.1685 96.2531 1 74.9339 1 48.6328" stroke="white" stroke-width="0.8" stroke-linecap="round" stroke-linejoin="round"/>
<path d="M1 57.2672C1 83.5683 38.1809 104.887 84.0321 104.887C129.883 104.887 167.064 83.5683 167.064 57.2672V48.6203C167.064 22.3192 129.896 1 84.0321 1C38.1685 1 1 22.3192 1 48.6203L1 57.2672Z" stroke="white" stroke-width="1.5" stroke-linecap="round" stroke-linejoin="round"/>
<path d="M149.873 41.9609C149.873 63.1061 120.392 80.2509 84.032 80.2509C47.6721 80.2509 18.191 63.1061 18.191 41.9609C18.191 20.8157 47.6721 3.6709 84.032 3.6709C120.392 3.6709 149.873 20.8157 149.873 41.9609Z" stroke="white" stroke-width="0.8" stroke-linecap="round" stroke-linejoin="round"/>
<path d="M162.275 47.7758C162.275 72.9091 127.246 93.2716 84.0445 93.2716C40.8429 93.2716 5.81396 72.8966 5.81396 47.7758C5.81396 22.655 40.8429 2.26758 84.0445 2.26758C127.246 2.26758 162.275 22.6425 162.275 47.7758Z" stroke="white" stroke-width="0.8" stroke-linecap="round" stroke-linejoin="round"/>
<path d="M158.668 45.6762C158.668 69.6416 125.256 89.0848 84.0321 89.0848C42.8083 89.0848 9.39648 69.654 9.39648 45.6762C9.39648 21.6983 42.8083 2.26758 84.0321 2.26758C125.256 2.26758 158.668 21.6983 158.668 45.6762Z" stroke="white" stroke-width="0.8" stroke-linecap="round" stroke-linejoin="round"/>
<path d="M156.267 44.284C156.267 67.4792 123.925 86.2887 84.032 86.2887C44.1393 86.2887 11.8097 67.4792 11.8097 44.284C11.8097 21.0889 44.1518 2.2793 84.032 2.2793C123.912 2.2793 156.267 21.0889 156.267 44.284Z" stroke="white" stroke-width="0.8" stroke-linecap="round" stroke-linejoin="round"/>
<path d="M153.866 42.8808C153.866 65.3057 122.606 83.4941 84.0445 83.4941C45.4828 83.4941 14.2229 65.3181 14.2229 42.8808C14.2229 20.4435 45.4828 2.26758 84.0445 2.26758C122.606 2.26758 153.866 20.456 153.866 42.8808Z" stroke="white" stroke-width="0.8" stroke-linecap="round" stroke-linejoin="round"/>
<path d="M111.946 43.2164C111.946 52.3105 99.4568 59.6778 84.0321 59.6778C68.6074 59.6778 56.1184 52.3105 56.1184 43.2164C56.1184 34.1222 68.6199 26.7549 84.0321 26.7549C99.4444 26.7549 111.946 34.1222 111.946 43.2164Z" stroke="white" stroke-width="0.8" stroke-linecap="round" stroke-linejoin="round"/>
<path d="M106.298 42.4459C106.298 49.8877 96.3221 55.9132 84.0321 55.9132C71.7421 55.9132 61.7659 49.8877 61.7659 42.4459C61.7659 35.004 71.7421 28.9785 84.0321 28.9785C96.3221 28.9785 106.298 35.004 106.298 42.4459Z" stroke="white" stroke-width="0.8" stroke-linecap="round" stroke-linejoin="round"/>
<path d="M109.309 43.2165C109.309 51.6647 97.9889 58.5102 84.0321 58.5102C70.0752 58.5102 58.7555 51.6647 58.7555 43.2165C58.7555 34.7684 70.0752 27.9229 84.0321 27.9229C97.9889 27.9229 109.309 34.7684 109.309 43.2165Z" stroke="white" stroke-width="0.8" stroke-linecap="round" stroke-linejoin="round"/>
<path d="M107.082 36.918C112.456 43.2417 110.739 49.5902 104.146 54.6342" stroke="white" stroke-width="0.8" stroke-linecap="round" stroke-linejoin="round"/>
<path d="M60.9946 36.918C55.6208 43.2417 57.3374 49.5902 63.9303 54.6342" stroke="white" stroke-width="0.8" stroke-linecap="round" stroke-linejoin="round"/>
</svg>
