<svg width="292" height="104" viewBox="0 0 292 104" fill="none" xmlns="http://www.w3.org/2000/svg">
<path d="M13.8249 10.058C18.1049 10.058 21.5745 8.11115 21.5745 5.70964C21.5745 3.30814 18.1049 1.36133 13.8249 1.36133C9.54487 1.36133 6.07523 3.30813 6.07523 5.70964C6.07523 8.11115 9.54487 10.058 13.8249 10.058Z" stroke="white" stroke-width="0.8" stroke-linecap="round" stroke-linejoin="round"/>
<path d="M17.171 5.69703C17.171 6.74062 15.6659 7.58546 13.8124 7.58546C11.959 7.58546 10.4538 6.74062 10.4538 5.69703C10.4538 4.65343 11.959 3.80859 13.8124 3.80859C15.6659 3.80859 17.171 4.65343 17.171 5.69703Z" stroke="white" stroke-width="0.8" stroke-linecap="round" stroke-linejoin="round"/>
<path d="M9.74481 11.9961L9.79457 20.3821" stroke="white" stroke-width="0.8" stroke-linecap="round" stroke-linejoin="round"/>
<path d="M13.8249 27.3021C24.2739 27.3021 26.6498 21.612 26.6498 20.5684L26.6498 15.0275C26.6498 11.9712 23.1294 9.79703 23.1294 9.79703L23.1294 7.1011C23.1294 3.16277 17.5069 1.36133 13.8249 1.36133C10.1429 1.36133 4.52031 3.17519 4.52031 7.1011L4.52031 9.79703C4.52031 9.79703 0.999999 11.9712 0.999999 15.0275L0.999999 20.5684C0.999999 21.5996 3.38834 27.3021 13.8249 27.3021Z" stroke="white" stroke-width="1.5" stroke-linecap="round" stroke-linejoin="round"/>
<path d="M26.6498 15.0273C26.6498 18.0836 22.9677 22.7424 13.8249 22.7424C4.68202 22.7424 1 18.0836 1 15.0273" stroke="white" stroke-width="0.8" stroke-linecap="round" stroke-linejoin="round"/>
<path d="M23.1294 9.79688L23.2538 16.0709L22.5199 17.3878C17.9298 17.9344 17.8552 20.3695 17.8552 20.3695C17.8552 20.3695 15.641 20.8416 13.8249 20.8416C12.0087 20.8416 9.79454 20.3695 9.79454 20.3695C9.79454 20.3695 9.71991 17.9344 5.12982 17.3878L4.3959 16.0709L4.5203 9.79688" stroke="white" stroke-width="0.8" stroke-linecap="round" stroke-linejoin="round"/>
<path d="M22.5199 17.4007L22.5199 9.80976C22.5199 9.80976 20.4923 8.12014 19.6464 8.57982C18.8006 9.05192 17.8925 12.0088 17.8925 12.0088C17.8925 12.0088 15.2803 12.5554 13.8249 12.5554C12.3695 12.5554 9.75723 12.0088 9.75723 12.0088C9.75723 12.0088 8.84916 9.05192 8.00329 8.57982C7.15742 8.10772 5.12982 9.80976 5.12982 9.80976L5.12982 17.4007" stroke="white" stroke-width="0.8" stroke-linecap="round" stroke-linejoin="round"/>
<path d="M17.8925 11.9961L17.8552 20.3821" stroke="white" stroke-width="0.8" stroke-linecap="round" stroke-linejoin="round"/>
<path d="M153.394 81.4079C153.394 83.8057 149.923 85.7562 145.644 85.7562C141.365 85.7562 137.895 83.8057 137.895 81.4079C137.895 79.0101 141.365 77.0596 145.644 77.0596C149.923 77.0596 153.394 79.0101 153.394 81.4079Z" stroke="white" stroke-width="0.8" stroke-linecap="round" stroke-linejoin="round"/>
<path d="M149.003 81.3953C149.003 82.4389 147.498 83.2837 145.644 83.2837C143.791 83.2837 142.286 82.4389 142.286 81.3953C142.286 80.3517 143.791 79.5068 145.644 79.5068C147.498 79.5068 149.003 80.3517 149.003 81.3953Z" stroke="white" stroke-width="0.8" stroke-linecap="round" stroke-linejoin="round"/>
<path d="M141.577 87.707L141.614 96.0806" stroke="white" stroke-width="0.8" stroke-linecap="round" stroke-linejoin="round"/>
<path d="M145.644 103C156.093 103 158.469 97.3102 158.469 96.2667L158.469 90.7257C158.469 87.6695 154.949 85.4953 154.949 85.4953L154.949 82.7993C154.949 78.861 149.326 77.0596 145.644 77.0596C141.962 77.0596 136.34 78.8734 136.34 82.7993L136.34 85.4953C136.34 85.4953 132.819 87.6695 132.819 90.7257L132.819 96.2666C132.819 97.2978 135.208 103 145.644 103Z" stroke="white" stroke-width="1.5" stroke-linecap="round" stroke-linejoin="round"/>
<path d="M158.482 90.7256C158.482 93.7818 154.8 98.4407 145.657 98.4407C136.514 98.4407 132.832 93.7818 132.832 90.7256" stroke="white" stroke-width="0.8" stroke-linecap="round" stroke-linejoin="round"/>
<path d="M154.949 85.5078L155.086 91.7818L154.352 93.0987C149.762 93.6454 149.687 96.0804 149.687 96.0804C149.687 96.0804 147.473 96.5526 145.657 96.5526C143.841 96.5526 141.626 96.0804 141.626 96.0804C141.626 96.0804 141.552 93.6454 136.962 93.0987L136.228 91.7818L136.352 85.5078" stroke="white" stroke-width="0.8" stroke-linecap="round" stroke-linejoin="round"/>
<path d="M154.352 93.0989L154.352 85.508C154.352 85.508 152.324 83.8184 151.478 84.2781C150.632 84.7502 149.724 87.707 149.724 87.707C149.724 87.707 147.1 88.2537 145.657 88.2537C144.214 88.2537 141.589 87.707 141.589 87.707C141.589 87.707 140.681 84.7502 139.835 84.2781C138.989 83.806 136.962 85.508 136.962 85.508L136.962 93.0989" stroke="white" stroke-width="0.8" stroke-linecap="round" stroke-linejoin="round"/>
<path d="M149.724 87.707L149.687 96.0806" stroke="white" stroke-width="0.8" stroke-linecap="round" stroke-linejoin="round"/>
<path d="M277.438 9.76011C281.718 9.76011 285.188 7.8133 285.188 5.41179C285.188 3.01028 281.718 1.06348 277.438 1.06348C273.158 1.06348 269.689 3.01028 269.689 5.41179C269.689 7.8133 273.158 9.76011 277.438 9.76011Z" stroke="white" stroke-width="0.8" stroke-linecap="round" stroke-linejoin="round"/>
<path d="M277.438 7.28754C279.293 7.28754 280.797 6.44212 280.797 5.39918C280.797 4.35624 279.293 3.51074 277.438 3.51074C275.583 3.51074 274.08 4.35624 274.08 5.39918C274.08 6.44212 275.583 7.28754 277.438 7.28754Z" stroke="white" stroke-width="0.8" stroke-linecap="round" stroke-linejoin="round"/>
<path d="M273.371 11.6982L273.408 20.0843" stroke="white" stroke-width="0.8" stroke-linecap="round" stroke-linejoin="round"/>
<path d="M277.438 27.0042C287.875 27.0042 290.263 21.3142 290.263 20.2706L290.263 14.7296C290.263 11.6734 286.743 9.49918 286.743 9.49918L286.743 6.80325C286.743 2.86492 281.12 1.06348 277.438 1.06348C273.756 1.06348 268.134 2.87734 268.134 6.80325L268.134 9.49918C268.134 9.49918 264.613 11.6734 264.613 14.7296L264.613 20.2706C264.613 21.3017 267.002 27.0042 277.438 27.0042Z" stroke="white" stroke-width="1.5" stroke-linecap="round" stroke-linejoin="round"/>
<path d="M290.263 14.7295C290.263 17.7857 286.581 22.4446 277.438 22.4446C268.295 22.4446 264.613 17.7857 264.613 14.7295" stroke="white" stroke-width="0.8" stroke-linecap="round" stroke-linejoin="round"/>
<path d="M286.743 9.49902L286.88 15.773L286.146 17.0899C281.556 17.6366 281.481 20.0717 281.481 20.0717C281.481 20.0717 279.267 20.5438 277.451 20.5438C275.634 20.5438 273.42 20.0717 273.42 20.0717C273.42 20.0717 273.346 17.6366 268.756 17.0899L268.022 15.773L268.146 9.49902" stroke="white" stroke-width="0.8" stroke-linecap="round" stroke-linejoin="round"/>
<path d="M286.133 17.1028L286.133 9.51191C286.133 9.51191 284.106 7.82229 283.26 8.28197C282.414 8.75407 281.506 11.7109 281.506 11.7109C281.506 11.7109 278.881 12.2575 277.438 12.2575C275.995 12.2575 273.371 11.7109 273.371 11.7109C273.371 11.7109 272.462 8.75407 271.617 8.28197C270.771 7.80986 268.743 9.51191 268.743 9.51191L268.743 17.1028" stroke="white" stroke-width="0.8" stroke-linecap="round" stroke-linejoin="round"/>
<path d="M281.506 11.6982L281.469 20.0843" stroke="white" stroke-width="0.8" stroke-linecap="round" stroke-linejoin="round"/>
</svg>
