<svg width="261" height="167" viewBox="0 0 261 167" fill="none" xmlns="http://www.w3.org/2000/svg">
<path d="M57.8598 21.6432C57.8598 22.0905 56.8896 22.4632 55.683 22.4632C54.4764 22.4632 53.5061 22.1029 53.5061 21.6432C53.5061 21.1835 54.4764 20.8232 55.683 20.8232C56.8896 20.8232 57.8598 21.1835 57.8598 21.6432Z" stroke="white" stroke-width="0.8" stroke-linecap="round" stroke-linejoin="round"/>
<path d="M59.4023 24.6006C60.2109 25.0354 60.7085 25.6069 60.7085 26.2405C60.7085 27.5947 58.4569 28.688 55.683 28.688C52.909 28.688 50.6575 27.5947 50.6575 26.2405C50.6575 25.6069 51.1551 25.0354 51.9637 24.6006" stroke="white" stroke-width="0.8" stroke-linecap="round" stroke-linejoin="round"/>
<path d="M59.3899 23.9795C61.1065 24.6504 62.2261 25.7685 62.2261 27.0481C62.2261 29.098 59.2904 30.7629 55.683 30.7629C52.0756 30.7629 49.14 29.098 49.14 27.0481C49.14 25.7809 50.2595 24.6628 51.9761 23.9919" stroke="white" stroke-width="0.8" stroke-linecap="round" stroke-linejoin="round"/>
<path d="M56.7901 19.5439C58.2952 19.8173 59.3899 20.6497 59.3899 21.6311C59.3899 22.8487 57.723 23.8301 55.683 23.8301C53.6429 23.8301 51.9761 22.8487 51.9761 21.6311" stroke="white" stroke-width="0.8" stroke-linecap="round" stroke-linejoin="round"/>
<path d="M51.9637 21.6437C51.9637 20.4261 53.6305 19.4446 55.6706 19.4446C56.0562 19.4446 56.4293 19.4819 56.7901 19.544C58.4072 18.6744 60.8453 19.308 61.6041 19.867L65.1742 22.2276L75.1007 16.2517C75.7973 15.7796 77.489 15.6306 78.4966 16.2517C79.5042 16.8729 84.5048 19.6186 85.3382 20.1031C86.1716 20.5876 87.7763 20.6746 88.6346 20.128C89.4929 19.5813 90.2144 19.1713 90.2144 19.1713L85.5994 16.4008C85.2636 16.1151 84.567 15.7051 84.567 15.0094V11.717C84.567 11.3816 84.5172 10.7853 85.3382 10.2883C86.1592 9.79137 99.5687 2.02653 100.601 1.44261C101.634 0.858692 103.238 0.846268 104.283 1.44261C105.328 2.03895 112.63 6.33759 115.354 7.86571C122.718 11.978 127.918 9.49321 132.558 11.9283L244.411 76.9418V81.8119C244.411 81.8119 257.522 89.4774 258.555 90.1979C259.587 90.9185 259.538 91.3409 259.538 91.8254V94.9811C259.538 95.4159 259.152 96.0744 258.48 96.5341C257.809 96.9937 243.914 105.106 243.914 105.106C242.832 105.752 240.593 105.653 239.535 105.106C238.465 104.56 235.443 102.833 235.443 102.833C234.435 102.237 232.52 102.261 231.636 102.833L230.368 103.603C230.368 103.603 232.855 105.106 233.191 105.343C233.527 105.579 234.124 105.914 234.124 106.635V109.268C234.124 109.939 233.888 110.486 233.042 111.082C232.196 111.679 196.135 132.513 196.135 132.513C195.052 133.234 192.789 133.184 192.067 132.7L189.48 131.221L184.79 133.892V135.42L181.369 137.669L180.138 136.638L177.115 138.415L178.769 139.781L178.906 150.702L169.676 155.982V160.479L165.907 162.939L161.877 160.479L153.456 165.473L138.653 157.063V149.683C134.822 147.72 129.51 147.434 123.751 147.558C122.631 147.583 121.574 147.322 120.952 147.086C120.33 146.85 119.21 146.204 119.21 146.204V142.378C118.203 142.378 116.225 141.732 116.225 140.8V137.122L110.155 140.701L12.9168 84.7439C12.9168 84.7439 12.0834 84.0233 12.0834 82.9797V79.4017C12.0834 78.9296 11.6729 76.2958 7.89135 74.0222C7.89135 74.0222 3.58737 71.7487 2.60466 71.1772C1.62196 70.6057 1 69.7857 1 68.7918L1 64.9653C1 64.2944 1.5722 63.462 2.3932 62.8905C3.21419 62.319 14.0861 56.0699 14.0861 56.0699C15.6783 54.9393 19.6091 55.0635 21.3506 56.0326C23.1046 57.0017 23.9504 57.2377 24.7714 56.7283C25.5924 56.219 26.9483 55.4487 26.9483 55.4487L22.1716 52.8894C21.5123 52.5043 21.2387 51.9203 21.2387 51.1004V47.9944C21.2387 47.5223 21.164 47.2614 22.0099 46.7148C22.8558 46.1681 40.0095 36.1173 40.0095 36.1173V30.3278C40.0095 29.9427 40.0842 28.9115 40.8056 28.4643C41.5271 28.017 51.9512 22.1158 51.9512 22.1158V21.6064L51.9637 21.6437Z" stroke="white" stroke-width="1.5" stroke-linecap="round" stroke-linejoin="round"/>
<path d="M169.676 155.522L165.895 157.982L159.986 154.652" stroke="white" stroke-width="0.8" stroke-linecap="round" stroke-linejoin="round"/>
<path d="M1.01245 65.0898C1.01245 66.0713 1.63441 66.9037 2.61711 67.4752C3.59982 68.0467 7.9038 70.3202 7.9038 70.3202C11.6853 72.5938 12.0958 75.24 12.0958 75.6997V79.2778C12.0958 80.3089 12.9293 81.0419 12.9293 81.0419L110.167 136.999L118.986 131.768L128.042 136.999L119.223 142.403" stroke="white" stroke-width="0.8" stroke-linecap="round" stroke-linejoin="round"/>
<path d="M119.21 142.502C119.21 142.502 120.33 143.148 120.952 143.384C121.574 143.62 122.631 143.881 123.751 143.856C129.51 143.72 134.809 144.006 138.653 145.981L146.427 150.18C147.398 150.839 149.338 150.69 150.234 150.18C151.129 149.671 180.747 132.551 180.747 132.551C181.755 131.892 182.414 130.985 181.208 130.141C180.548 129.669 180.486 128.637 181.581 128.016C181.991 127.78 183.919 126.625 183.919 126.625C184.541 126.24 186.221 125.618 187.962 126.625L192.055 128.973C192.776 129.47 195.04 129.519 196.122 128.786C196.122 128.786 232.171 107.952 233.03 107.355" stroke="white" stroke-width="0.8" stroke-linecap="round" stroke-linejoin="round"/>
<path d="M51.9637 22.1405V24.9979C51.9637 26.2155 53.6305 27.197 55.6706 27.197C57.7106 27.197 59.3775 26.2155 59.3775 24.9979V21.6436" stroke="white" stroke-width="0.8" stroke-linecap="round" stroke-linejoin="round"/>
<path d="M84.567 11.7168C84.567 12.1889 85.164 12.661 85.8855 13.0213C86.6692 13.4065 90.6995 15.6551 91.5081 16.1521C92.242 16.6118 92.5405 17.3945 91.6822 18.1275C90.8239 18.8605 90.2268 19.1711 90.2268 19.1711" stroke="white" stroke-width="0.8" stroke-linecap="round" stroke-linejoin="round"/>
<path d="M91.222 54.4668C91.222 55.4482 89.9532 56.2558 88.3858 56.2558C86.8185 56.2558 85.5497 55.4607 85.5497 54.4668C85.5497 53.4729 86.8185 52.6777 88.3858 52.6777C89.9532 52.6777 91.222 53.4729 91.222 54.4668Z" stroke="white" stroke-width="0.8" stroke-linecap="round" stroke-linejoin="round"/>
<path d="M134.759 65.2138C134.759 67.5247 131.575 69.4131 127.644 69.4131C123.713 69.4131 120.529 67.5371 120.529 65.2138C120.529 62.8906 123.713 61.0146 127.644 61.0146C131.575 61.0146 134.759 62.8906 134.759 65.2138Z" stroke="white" stroke-width="0.8" stroke-linecap="round" stroke-linejoin="round"/>
<path d="M157.063 69.0779C157.063 78.6566 143.89 86.4215 127.644 86.4215C111.398 86.4215 98.2253 78.6566 98.2253 69.0779C98.2253 59.4992 111.398 51.7344 127.644 51.7344C143.89 51.7344 157.063 59.4992 157.063 69.0779Z" stroke="white" stroke-width="0.8" stroke-linecap="round" stroke-linejoin="round"/>
<path d="M91.222 99.8261C91.222 100.808 89.9532 101.615 88.3858 101.615C86.8185 101.615 85.5497 100.82 85.5497 99.8261C85.5497 98.8322 86.8185 98.0371 88.3858 98.0371C89.9532 98.0371 91.222 98.8322 91.222 99.8261Z" stroke="white" stroke-width="0.8" stroke-linecap="round" stroke-linejoin="round"/>
<path d="M169.813 99.8261C169.813 100.808 168.544 101.615 166.977 101.615C165.41 101.615 164.141 100.82 164.141 99.8261C164.141 98.8322 165.41 98.0371 166.977 98.0371C168.544 98.0371 169.813 98.8322 169.813 99.8261Z" stroke="white" stroke-width="0.8" stroke-linecap="round" stroke-linejoin="round"/>
<path d="M169.813 54.4668C169.813 55.4482 168.544 56.2558 166.977 56.2558C165.41 56.2558 164.141 55.4607 164.141 54.4668C164.141 53.4729 165.41 52.6777 166.977 52.6777C168.544 52.6777 169.813 53.4729 169.813 54.4668Z" stroke="white" stroke-width="0.8" stroke-linecap="round" stroke-linejoin="round"/>
<path d="M65.1742 22.2275C65.1742 22.2275 68.6696 24.4514 69.3164 24.9235C69.9633 25.3956 70.0628 25.9795 70.0628 26.8367V33.3344C70.0628 34.1419 69.9633 35.2228 68.9184 35.8191C67.8735 36.4155 54.663 44.1803 54.0659 44.4909C53.4688 44.8015 52.1502 44.7766 51.4785 44.3666C50.8068 43.9567 41.1415 38.3412 41.1415 38.3412C41.1415 38.3412 40.0095 37.7945 40.0095 36.1546" stroke="white" stroke-width="0.8" stroke-linecap="round" stroke-linejoin="round"/>
<path d="M70.0752 26.8369C70.0752 26.8369 69.7269 27.2345 68.9308 27.6942C67.8983 28.2905 54.6754 36.0553 54.0783 36.3659C53.4812 36.6765 52.1627 36.6517 51.491 36.2417C50.8192 35.8317 41.1539 30.2162 41.1539 30.2162" stroke="white" stroke-width="0.8" stroke-linecap="round" stroke-linejoin="round"/>
<path d="M201.757 104.125C201.757 104.572 200.787 104.945 199.58 104.945C198.374 104.945 197.404 104.584 197.404 104.125C197.404 103.665 198.374 103.305 199.58 103.305C200.787 103.305 201.757 103.665 201.757 104.125Z" stroke="white" stroke-width="0.8" stroke-linecap="round" stroke-linejoin="round"/>
<path d="M203.3 107.094C204.108 107.529 204.606 108.1 204.606 108.734C204.606 110.088 202.354 111.181 199.58 111.181C196.806 111.181 194.555 110.088 194.555 108.734C194.555 108.1 195.052 107.529 195.861 107.094" stroke="white" stroke-width="0.8" stroke-linecap="round" stroke-linejoin="round"/>
<path d="M203.287 106.473C205.004 107.144 206.123 108.262 206.123 109.541C206.123 111.591 203.188 113.256 199.58 113.256C195.973 113.256 193.037 111.591 193.037 109.541C193.037 108.274 194.157 107.156 195.874 106.485" stroke="white" stroke-width="0.8" stroke-linecap="round" stroke-linejoin="round"/>
<path d="M200.687 102.038C202.193 102.311 203.287 103.144 203.287 104.125C203.287 105.343 201.62 106.324 199.58 106.324C197.54 106.324 195.873 105.343 195.873 104.125" stroke="white" stroke-width="0.8" stroke-linecap="round" stroke-linejoin="round"/>
<path d="M183.932 118.636V112.846C183.932 112.461 184.006 111.43 184.728 110.983C185.449 110.535 195.874 104.634 195.874 104.634V104.125C195.874 102.907 197.54 101.926 199.58 101.926C199.966 101.926 200.339 101.963 200.688 102.025C202.305 101.155 204.743 101.789 205.502 102.348L209.072 104.709" stroke="white" stroke-width="0.8" stroke-linecap="round" stroke-linejoin="round"/>
<path d="M195.861 104.635V107.492C195.861 108.71 197.528 109.691 199.568 109.691C201.608 109.691 203.275 108.71 203.275 107.492V104.138" stroke="white" stroke-width="0.8" stroke-linecap="round" stroke-linejoin="round"/>
<path d="M209.084 104.722C209.084 104.722 212.579 106.946 213.226 107.418C213.873 107.89 213.973 108.474 213.973 109.331V115.829C213.973 116.636 213.873 117.717 212.828 118.313C211.796 118.91 198.573 126.674 197.976 126.985C197.379 127.296 196.06 127.271 195.388 126.861C194.717 126.451 185.051 120.835 185.051 120.835C185.051 120.835 183.919 120.289 183.919 118.649" stroke="white" stroke-width="0.8" stroke-linecap="round" stroke-linejoin="round"/>
<path d="M22.2214 65.4376C22.2214 66.6924 20.4177 67.7112 18.2035 67.7112C15.9893 67.7112 14.1856 66.6924 14.1856 65.4376C14.1856 64.1828 15.9893 63.1641 18.2035 63.1641C20.4177 63.1641 22.2214 64.1828 22.2214 65.4376Z" stroke="white" stroke-width="0.8" stroke-linecap="round" stroke-linejoin="round"/>
<path d="M15.7405 67.227C16.4247 66.9288 17.2706 66.7549 18.2035 66.7549C19.124 66.7549 19.9823 66.9288 20.6665 67.227" stroke="white" stroke-width="0.8" stroke-linecap="round" stroke-linejoin="round"/>
<path d="M136.762 131.531C136.762 132.786 134.958 133.805 132.744 133.805C130.53 133.805 128.726 132.786 128.726 131.531C128.726 130.277 130.53 129.258 132.744 129.258C134.958 129.258 136.762 130.277 136.762 131.531Z" stroke="white" stroke-width="0.8" stroke-linecap="round" stroke-linejoin="round"/>
<path d="M130.281 133.321C130.965 133.023 131.811 132.849 132.744 132.849C133.677 132.849 134.523 133.023 135.207 133.321" stroke="white" stroke-width="0.8" stroke-linecap="round" stroke-linejoin="round"/>
<path d="M219.11 71.9229C219.048 71.7613 219.01 71.5998 219.01 71.4259C219.01 70.1711 220.814 69.1523 223.028 69.1523C225.243 69.1523 227.046 70.1711 227.046 71.4259C227.046 71.5874 227.021 71.7365 226.959 71.8856" stroke="white" stroke-width="0.8" stroke-linecap="round" stroke-linejoin="round"/>
<path d="M137.919 24.5012C140.138 24.5012 141.937 23.4833 141.937 22.2277C141.937 20.972 140.138 19.9541 137.919 19.9541C135.7 19.9541 133.901 20.972 133.901 22.2277C133.901 23.4833 135.7 24.5012 137.919 24.5012Z" stroke="white" stroke-width="0.8" stroke-linecap="round" stroke-linejoin="round"/>
<path d="M135.456 24.017C136.14 23.7189 136.986 23.5449 137.919 23.5449C138.852 23.5449 139.698 23.7189 140.382 24.017" stroke="white" stroke-width="0.8" stroke-linecap="round" stroke-linejoin="round"/>
<path d="M121.735 136.874C121.735 137.743 120.504 138.452 118.986 138.452C117.469 138.452 116.237 137.743 116.237 136.874C116.237 136.004 117.469 135.296 118.986 135.296C120.504 135.296 121.735 136.004 121.735 136.874Z" stroke="white" stroke-width="0.8" stroke-linecap="round" stroke-linejoin="round"/>
<path d="M121.735 136.874V140.85" stroke="white" stroke-width="0.8" stroke-linecap="round" stroke-linejoin="round"/>
<path d="M118.986 131.768V135.296" stroke="white" stroke-width="0.8" stroke-linecap="round" stroke-linejoin="round"/>
<path d="M110.167 136.985V140.712" stroke="white" stroke-width="0.8" stroke-linecap="round" stroke-linejoin="round"/>
<path d="M124.995 138.862L121.735 137.16" stroke="white" stroke-width="0.8" stroke-linecap="round" stroke-linejoin="round"/>
<path d="M71.7919 45.4976L75.9466 47.7463L80.064 45.2988L76.2949 42.9756L71.7919 45.4976Z" stroke="white" stroke-width="0.8" stroke-linecap="round" stroke-linejoin="round"/>
<path d="M80.064 45.2988V47.2618L75.9466 49.7093L71.7919 47.4606V45.4976" stroke="white" stroke-width="0.8" stroke-linecap="round" stroke-linejoin="round"/>
<path d="M75.9466 47.7461V49.7091" stroke="white" stroke-width="0.8" stroke-linecap="round" stroke-linejoin="round"/>
<path d="M175.311 105.045L179.466 107.293L183.584 104.846L179.814 102.522L175.311 105.045Z" stroke="white" stroke-width="0.8" stroke-linecap="round" stroke-linejoin="round"/>
<path d="M183.584 104.846V106.809L179.466 109.256L175.311 107.007V105.044" stroke="white" stroke-width="0.8" stroke-linecap="round" stroke-linejoin="round"/>
<path d="M179.466 107.293V109.256" stroke="white" stroke-width="0.8" stroke-linecap="round" stroke-linejoin="round"/>
<path d="M184.305 111.393C184.168 111.641 184.181 112.176 185.051 112.685C185.051 112.685 194.717 118.3 195.388 118.71C196.06 119.12 197.379 119.145 197.976 118.835C198.573 118.524 211.796 110.759 212.828 110.163C213.624 109.703 213.973 109.306 213.973 109.306" stroke="white" stroke-width="0.8" stroke-linecap="round" stroke-linejoin="round"/>
<path d="M259.538 91.4277C259.538 92.4216 258.493 92.8068 258.493 92.8068C257.821 93.2789 243.926 101.379 243.926 101.379C242.844 102.025 240.605 101.926 239.548 101.379C238.478 100.833 235.455 99.1056 235.455 99.1056C233.788 98.1614 231.91 98.9193 231.537 99.1553C231.176 99.3914 229.074 100.584 228.377 101.23C227.681 101.876 229.124 102.907 230.38 103.615" stroke="white" stroke-width="0.8" stroke-linecap="round" stroke-linejoin="round"/>
<path d="M181.854 131.085V134.663C181.854 135.495 180.946 136.204 180.125 136.638" stroke="white" stroke-width="0.8" stroke-linecap="round" stroke-linejoin="round"/>
<path d="M181.854 131.619C182.265 131.383 183.919 130.377 183.919 130.377C184.541 129.992 186.221 129.37 187.962 130.377L189.467 131.222" stroke="white" stroke-width="0.8" stroke-linecap="round" stroke-linejoin="round"/>
<path d="M138.653 149.695L146.427 153.894C147.398 154.553 149.338 154.403 150.234 153.894C151.129 153.385 177.115 138.414 177.115 138.414" stroke="white" stroke-width="0.8" stroke-linecap="round" stroke-linejoin="round"/>
<path d="M184.778 133.88V130.004" stroke="white" stroke-width="0.8" stroke-linecap="round" stroke-linejoin="round"/>
<path d="M181.357 137.67V135.731" stroke="white" stroke-width="0.8" stroke-linecap="round" stroke-linejoin="round"/>
<path d="M178.769 139.781L153.443 154.329L151.44 153.186" stroke="white" stroke-width="0.8" stroke-linecap="round" stroke-linejoin="round"/>
<path d="M153.443 154.329V165.486" stroke="white" stroke-width="0.8" stroke-linecap="round" stroke-linejoin="round"/>
<path d="M161.877 160.491L159.986 159.361V154.652L163.743 152.316L169.676 155.522V155.994" stroke="white" stroke-width="0.8" stroke-linecap="round" stroke-linejoin="round"/>
<path d="M165.895 157.982V162.952" stroke="white" stroke-width="0.8" stroke-linecap="round" stroke-linejoin="round"/>
<path d="M235.791 71.9346H213.973V91.8498H235.791L244.412 86.781V81.8115" stroke="white" stroke-width="0.8" stroke-linecap="round" stroke-linejoin="round"/>
<path d="M244.411 86.7812V94.074" stroke="white" stroke-width="0.8" stroke-linecap="round" stroke-linejoin="round"/>
<path d="M213.973 91.8506V98.7831" stroke="white" stroke-width="0.8" stroke-linecap="round" stroke-linejoin="round"/>
<path d="M194.555 87.5515L200.09 88.2845L201.732 85.3028L196.209 84.3213L194.555 87.5515Z" stroke="white" stroke-width="0.8" stroke-linecap="round" stroke-linejoin="round"/>
<path d="M194.555 87.5514V89.3156L200.09 90.0362L201.732 87.0669V85.3027" stroke="white" stroke-width="0.8" stroke-linecap="round" stroke-linejoin="round"/>
<path d="M200.09 88.2842V90.0359" stroke="white" stroke-width="0.8" stroke-linecap="round" stroke-linejoin="round"/>
<path d="M142.982 35.6325L148.53 36.3531L150.159 33.3838L144.636 32.4023L142.982 35.6325Z" stroke="white" stroke-width="0.8" stroke-linecap="round" stroke-linejoin="round"/>
<path d="M142.982 35.6325V37.3967L148.53 38.1172L150.159 35.148V33.3838" stroke="white" stroke-width="0.8" stroke-linecap="round" stroke-linejoin="round"/>
<path d="M148.53 36.3535V38.1177" stroke="white" stroke-width="0.8" stroke-linecap="round" stroke-linejoin="round"/>
<path d="M53.5061 65.4626L59.054 66.1832L60.6836 63.2139L55.1605 62.2324L53.5061 65.4626Z" stroke="white" stroke-width="0.8" stroke-linecap="round" stroke-linejoin="round"/>
<path d="M53.5061 65.4626V67.2268L59.054 67.9473L60.6836 64.9781V63.2139" stroke="white" stroke-width="0.8" stroke-linecap="round" stroke-linejoin="round"/>
<path d="M59.054 66.1836V67.9478" stroke="white" stroke-width="0.8" stroke-linecap="round" stroke-linejoin="round"/>
<path d="M105.079 117.058L110.627 117.779L112.257 114.809L106.746 113.815L105.079 117.058Z" stroke="white" stroke-width="0.8" stroke-linecap="round" stroke-linejoin="round"/>
<path d="M105.079 117.058V118.822L110.627 119.543L112.257 116.561V114.81" stroke="white" stroke-width="0.8" stroke-linecap="round" stroke-linejoin="round"/>
<path d="M110.627 117.778V119.542" stroke="white" stroke-width="0.8" stroke-linecap="round" stroke-linejoin="round"/>
<path d="M201.782 65.6484L196.035 66.2696L194.654 63.0146L200.153 62.207L201.782 65.6484Z" stroke="white" stroke-width="0.8" stroke-linecap="round" stroke-linejoin="round"/>
<path d="M194.654 63.0146V64.9528L196.035 68.2202L201.782 67.599V65.6485" stroke="white" stroke-width="0.8" stroke-linecap="round" stroke-linejoin="round"/>
<path d="M196.035 66.2695V68.2201" stroke="white" stroke-width="0.8" stroke-linecap="round" stroke-linejoin="round"/>
<path d="M150.134 117.269L144.4 117.89L143.007 114.623L148.505 113.815L150.134 117.269Z" stroke="white" stroke-width="0.8" stroke-linecap="round" stroke-linejoin="round"/>
<path d="M143.007 114.623V116.574L144.4 119.829L150.134 119.207V117.269" stroke="white" stroke-width="0.8" stroke-linecap="round" stroke-linejoin="round"/>
<path d="M144.4 117.891V119.829" stroke="white" stroke-width="0.8" stroke-linecap="round" stroke-linejoin="round"/>
<path d="M112.232 35.8437L106.497 36.4649L105.104 33.1974L110.602 32.4023L112.232 35.8437Z" stroke="white" stroke-width="0.8" stroke-linecap="round" stroke-linejoin="round"/>
<path d="M105.104 33.1973V35.1478L106.497 38.4153L112.232 37.7941V35.8435" stroke="white" stroke-width="0.8" stroke-linecap="round" stroke-linejoin="round"/>
<path d="M106.497 36.4648V38.4154" stroke="white" stroke-width="0.8" stroke-linecap="round" stroke-linejoin="round"/>
<path d="M60.6587 87.4772L54.9118 88.0984L53.531 84.831L59.0167 84.0234L60.6587 87.4772Z" stroke="white" stroke-width="0.8" stroke-linecap="round" stroke-linejoin="round"/>
<path d="M53.531 84.8311V86.7816L54.9118 90.0366L60.6587 89.4154V87.4773" stroke="white" stroke-width="0.8" stroke-linecap="round" stroke-linejoin="round"/>
<path d="M54.9117 88.0986V90.0367" stroke="white" stroke-width="0.8" stroke-linecap="round" stroke-linejoin="round"/>
<path d="M183.77 45.2486L179.566 47.8079L175.013 45.2486L179.08 42.8135L183.77 45.2486Z" stroke="white" stroke-width="0.8" stroke-linecap="round" stroke-linejoin="round"/>
<path d="M175.013 45.249V47.1995L179.566 49.7713L183.77 47.1995V45.249" stroke="white" stroke-width="0.8" stroke-linecap="round" stroke-linejoin="round"/>
<path d="M179.566 47.8076V49.7706" stroke="white" stroke-width="0.8" stroke-linecap="round" stroke-linejoin="round"/>
<path d="M80.4496 104.982L76.2575 107.541L71.6923 104.982L75.76 102.547L80.4496 104.982Z" stroke="white" stroke-width="0.8" stroke-linecap="round" stroke-linejoin="round"/>
<path d="M71.6923 104.981V106.932L76.2575 109.491L80.4496 106.932V104.981" stroke="white" stroke-width="0.8" stroke-linecap="round" stroke-linejoin="round"/>
<path d="M76.2575 107.541V109.492" stroke="white" stroke-width="0.8" stroke-linecap="round" stroke-linejoin="round"/>
<path d="M120.529 65.2139V67.1644C120.529 69.4752 123.713 71.3636 127.644 71.3636C131.575 71.3636 134.759 69.4876 134.759 67.1644V65.2139" stroke="white" stroke-width="0.8" stroke-linecap="round" stroke-linejoin="round"/>
<path d="M98.2253 69.0771V73.9597C98.2253 83.5384 111.398 91.3032 127.644 91.3032C143.89 91.3032 157.063 83.5384 157.063 73.9597V69.0771" stroke="white" stroke-width="0.8" stroke-linecap="round" stroke-linejoin="round"/>
<path d="M100.663 62.1572L102.032 62.5548" stroke="white" stroke-width="0.8" stroke-linecap="round" stroke-linejoin="round"/>
<path d="M98.5114 66.6924H100.24" stroke="white" stroke-width="0.8" stroke-linecap="round" stroke-linejoin="round"/>
<path d="M116.797 52.9512L117.009 54.0942" stroke="white" stroke-width="0.8" stroke-linecap="round" stroke-linejoin="round"/>
<path d="M123.664 51.8955L123.875 52.9515" stroke="white" stroke-width="0.8" stroke-linecap="round" stroke-linejoin="round"/>
<path d="M145.681 55.374L144.537 56.107" stroke="white" stroke-width="0.8" stroke-linecap="round" stroke-linejoin="round"/>
<path d="M150.893 58.4424L149.774 59.0884" stroke="white" stroke-width="0.8" stroke-linecap="round" stroke-linejoin="round"/>
<path d="M156.839 71.2514L155.62 70.916" stroke="white" stroke-width="0.8" stroke-linecap="round" stroke-linejoin="round"/>
<path d="M155.222 80.0104L155.122 75.3018L153.655 75.0781" stroke="white" stroke-width="0.8" stroke-linecap="round" stroke-linejoin="round"/>
<path d="M139.225 89.8995V85.017L138.267 83.7373" stroke="white" stroke-width="0.8" stroke-linecap="round" stroke-linejoin="round"/>
<path d="M131.538 91.142L131.699 86.2595L131.227 84.9053" stroke="white" stroke-width="0.8" stroke-linecap="round" stroke-linejoin="round"/>
<path d="M109.246 87.4892V82.6066L110.702 81.6748" stroke="white" stroke-width="0.8" stroke-linecap="round" stroke-linejoin="round"/>
<path d="M103.835 84.1347V79.2646L105.49 78.7676" stroke="white" stroke-width="0.8" stroke-linecap="round" stroke-linejoin="round"/>
<path d="M118.924 78.9795C118.924 78.9795 123.154 79.7125 126.475 79.8367L126.114 81.4518C126.114 81.4518 120.927 81.1661 117.842 80.3585L118.924 78.9795Z" stroke="white" stroke-width="0.8" stroke-linecap="round" stroke-linejoin="round"/>
<path d="M115.279 86.6201C115.279 86.6201 120.566 87.8873 124.945 88.024V89.9C124.945 89.9 119.397 89.8379 115.279 88.67V86.6201Z" stroke="white" stroke-width="0.8" stroke-linecap="round" stroke-linejoin="round"/>
<path d="M144.798 147.273L145.258 144.005L146.602 143.434L147 143.931L147.945 147.186" stroke="white" stroke-width="0.8" stroke-linecap="round" stroke-linejoin="round"/>
<path d="M146.602 143.434L146.378 147.596" stroke="white" stroke-width="0.8" stroke-linecap="round" stroke-linejoin="round"/>
<path d="M147.385 145.223C148.069 145.434 148.53 145.856 148.53 146.328C148.53 147.024 147.535 147.596 146.303 147.596C145.072 147.596 144.076 147.024 144.076 146.328C144.076 145.894 144.462 145.508 145.059 145.272" stroke="white" stroke-width="0.8" stroke-linecap="round" stroke-linejoin="round"/>
<path d="M171.418 129.01L171.182 133.172" stroke="white" stroke-width="0.8" stroke-linecap="round" stroke-linejoin="round"/>
<path d="M152.361 145.632V141.93L153.219 140.924L153.891 141.47V145.632" stroke="white" stroke-width="0.8" stroke-linecap="round" stroke-linejoin="round"/>
<path d="M153.891 144.775C154.277 144.875 154.525 145.036 154.525 145.235C154.525 145.533 153.903 145.782 153.132 145.782C152.361 145.782 151.739 145.533 151.739 145.235C151.739 145.049 151.988 144.875 152.373 144.775" stroke="white" stroke-width="0.8" stroke-linecap="round" stroke-linejoin="round"/>
<path d="M147.186 142.726V139.024L148.032 138.005L148.716 138.551V142.726" stroke="white" stroke-width="0.8" stroke-linecap="round" stroke-linejoin="round"/>
<path d="M148.716 141.856C149.102 141.956 149.351 142.117 149.351 142.316C149.351 142.614 148.729 142.863 147.957 142.863C147.186 142.863 146.564 142.614 146.564 142.316C146.564 142.13 146.813 141.956 147.199 141.856" stroke="white" stroke-width="0.8" stroke-linecap="round" stroke-linejoin="round"/>
<path d="M160.496 140.949V137.247L161.355 136.24L162.026 136.774V140.949" stroke="white" stroke-width="0.8" stroke-linecap="round" stroke-linejoin="round"/>
<path d="M162.026 140.079C162.412 140.178 162.661 140.34 162.661 140.539C162.661 140.837 162.039 141.085 161.267 141.085C160.496 141.085 159.874 140.837 159.874 140.539C159.874 140.352 160.123 140.178 160.509 140.079" stroke="white" stroke-width="0.8" stroke-linecap="round" stroke-linejoin="round"/>
<path d="M155.321 138.029V134.327L156.18 133.32L156.852 133.867V138.029" stroke="white" stroke-width="0.8" stroke-linecap="round" stroke-linejoin="round"/>
<path d="M156.852 137.172C157.237 137.271 157.486 137.433 157.486 137.632C157.486 137.93 156.864 138.178 156.093 138.178C155.321 138.178 154.7 137.93 154.7 137.632C154.7 137.445 154.948 137.271 155.334 137.172" stroke="white" stroke-width="0.8" stroke-linecap="round" stroke-linejoin="round"/>
<path d="M168.706 136.104V132.402L169.564 131.396L170.236 131.93V136.104" stroke="white" stroke-width="0.8" stroke-linecap="round" stroke-linejoin="round"/>
<path d="M170.236 135.234C170.622 135.334 170.871 135.495 170.871 135.694C170.871 135.992 170.249 136.241 169.477 136.241C168.706 136.241 168.084 135.992 168.084 135.694C168.084 135.508 168.333 135.334 168.719 135.234" stroke="white" stroke-width="0.8" stroke-linecap="round" stroke-linejoin="round"/>
<path d="M163.531 133.184V129.482L164.39 128.476L165.061 129.022V133.184" stroke="white" stroke-width="0.8" stroke-linecap="round" stroke-linejoin="round"/>
<path d="M165.061 132.327C165.447 132.427 165.696 132.588 165.696 132.787C165.696 133.085 165.074 133.333 164.303 133.333C163.531 133.333 162.909 133.085 162.909 132.787C162.909 132.6 163.158 132.427 163.544 132.327" stroke="white" stroke-width="0.8" stroke-linecap="round" stroke-linejoin="round"/>
<path d="M169.788 131.569L170.062 129.569L171.418 129.01L171.803 129.494L172.749 132.749" stroke="white" stroke-width="0.8" stroke-linecap="round" stroke-linejoin="round"/>
<path d="M168.918 132.141C168.893 132.066 168.88 131.979 168.88 131.905C168.88 131.47 169.266 131.085 169.863 130.849" stroke="white" stroke-width="0.8" stroke-linecap="round" stroke-linejoin="round"/>
<path d="M172.189 130.799C172.873 131.01 173.334 131.432 173.334 131.905C173.334 132.6 172.338 133.172 171.107 133.172C170.796 133.172 170.51 133.135 170.249 133.072" stroke="white" stroke-width="0.8" stroke-linecap="round" stroke-linejoin="round"/>
</svg>
