<svg width="154" height="113" viewBox="0 0 154 113" fill="none" xmlns="http://www.w3.org/2000/svg">
<path d="M52.9215 2.00319C54.8371 0.972017 58.4196 0.549598 60.5965 1.64289C62.7734 2.73618 147.46 51.8598 149.326 52.9655C151.192 54.0712 152.485 54.7545 152.485 56.6677V71.1663C152.485 72.7192 152.224 73.7504 150.57 74.7443C148.915 75.7258 110.242 98.2004 110.242 98.2004C110.242 98.2004 106.696 96.3616 105.602 95.6659C104.507 94.9701 101.87 94.846 100.278 95.6286V100.362C100.278 101.642 99.2329 104.288 97.5909 105.257C95.9613 106.226 92.1922 108.475 92.1922 108.475L90.7244 107.854C88.2365 106.922 86.3707 105.878 82.9747 107.829C80.8974 109.021 77.402 109.295 74.7026 107.829C73.5582 107.208 70.635 105.443 70.635 105.443C68.8189 104.512 67.6744 104.922 66.6171 105.493L65.7339 105.903V109.369L61.8156 111.78L12.581 83.2049L12.581 63.5629L16.2132 61.1278L19.1986 62.9914L20.256 62.1839L2.60466 51.9591C1.5722 51.2882 1 50.7665 1 49.9713L1 33.6714C1 32.5284 1.52245 31.7829 2.48027 31.2115C3.43809 30.64 20.1565 20.9619 20.1565 20.9619C20.1565 20.9619 25.2317 24.2169 29.9835 23.633L28.6152 22.8875V20.3779L30.7174 19.1107V17.4583L32.7948 13.8555L52.9339 2.02806L52.9215 2.00319Z" stroke="white" stroke-width="1.5" stroke-linecap="round" stroke-linejoin="round"/>
<path d="M100.813 53.4997C100.813 59.5004 92.2047 64.3705 81.5815 64.3705C70.9584 64.3705 62.3504 59.5004 62.3504 53.4997C62.3504 47.499 70.9584 42.6289 81.5815 42.6289C92.2047 42.6289 100.813 47.499 100.813 53.4997Z" stroke="white" stroke-width="0.8" stroke-linecap="round" stroke-linejoin="round"/>
<path d="M103.238 52.9653C103.238 59.8108 93.5357 65.3642 81.5815 65.3642C69.6274 65.3642 59.9248 59.8108 59.9248 52.9653C59.9248 46.1198 69.6274 40.5664 81.5815 40.5664C93.5357 40.5664 103.238 46.1198 103.238 52.9653Z" stroke="white" stroke-width="0.8" stroke-linecap="round" stroke-linejoin="round"/>
<path d="M61.828 91.9141V111.767" stroke="white" stroke-width="0.8" stroke-linecap="round" stroke-linejoin="round"/>
<path d="M65.7464 105.89V89.8759L19.1986 62.9785" stroke="white" stroke-width="0.8" stroke-linecap="round" stroke-linejoin="round"/>
<path d="M20.2684 62.1714C20.2684 62.1714 30.792 56.1956 31.9862 55.4129C33.1804 54.6302 33.8521 53.9096 32.2972 52.953C30.7423 51.9964 2.44296 35.5846 2.44296 35.5846C2.44296 35.5846 1.01245 34.7522 1.01245 33.6465" stroke="white" stroke-width="0.8" stroke-linecap="round" stroke-linejoin="round"/>
<path d="M33.3047 78.9188C34.1506 79.5524 35.6682 80.7823 35.6682 82.4099V90.8456C35.6682 91.7773 35.1458 92.734 33.3047 91.7277C31.4637 90.7214 19.833 83.8634 18.8503 83.2671C17.8676 82.6708 16.5988 81.3538 16.5988 79.54V71.6758C16.5988 70.744 17.3701 69.6258 18.7011 70.4085C20.0321 71.1912 32.4713 78.2976 33.3172 78.9188H33.3047Z" stroke="white" stroke-width="0.8" stroke-linecap="round" stroke-linejoin="round"/>
<path d="M35.606 91.3171C35.3199 91.2674 34.9841 91.1432 34.586 90.9195C32.745 89.9132 21.1143 83.0553 20.1316 82.459C19.1489 81.8626 17.8801 80.5457 17.8801 78.7319V70.8676C17.8801 70.6316 17.9298 70.3955 18.0169 70.1719" stroke="white" stroke-width="0.8" stroke-linecap="round" stroke-linejoin="round"/>
<path d="M55.5337 91.8143C56.3796 92.4479 57.8972 93.6779 57.8972 95.3054V103.741C57.8972 104.673 57.3747 105.63 55.5337 104.623C53.6927 103.617 42.062 96.759 41.0793 96.1626C40.0966 95.5663 38.8278 94.2494 38.8278 92.4355V84.5712C38.8278 83.6394 39.599 82.5213 40.93 83.304C42.261 84.0867 54.7003 91.1931 55.5462 91.8143H55.5337Z" stroke="white" stroke-width="0.8" stroke-linecap="round" stroke-linejoin="round"/>
<path d="M57.8474 104.214C57.5613 104.164 57.2254 104.04 56.8274 103.816C54.9864 102.81 43.3557 95.9518 42.373 95.3554C41.3903 94.7591 40.1215 93.4422 40.1215 91.6283V83.7641C40.1215 83.528 40.1712 83.292 40.2583 83.0684" stroke="white" stroke-width="0.8" stroke-linecap="round" stroke-linejoin="round"/>
<path d="M32.7823 13.8311C38.1188 16.5643 39.9225 22.8631 29.9835 23.6209" stroke="white" stroke-width="0.8" stroke-linecap="round" stroke-linejoin="round"/>
<path d="M30.705 17.4209C32.7077 18.539 35.519 19.8559 34.1133 22.7631" stroke="white" stroke-width="0.8" stroke-linecap="round" stroke-linejoin="round"/>
<path d="M28.6152 20.4775C30.8169 21.4839 32.0111 21.9808 31.6255 23.422" stroke="white" stroke-width="0.8" stroke-linecap="round" stroke-linejoin="round"/>
<path d="M30.5681 19.1729C30.5681 19.1729 33.8521 20.8376 34.4492 21.8067" stroke="white" stroke-width="0.8" stroke-linecap="round" stroke-linejoin="round"/>
<path d="M12.5934 63.8111L61.828 91.9136L66.6171 89.4165C67.6744 88.845 68.8188 88.4349 70.635 89.3667C70.635 89.3667 73.5582 91.1309 74.7026 91.7521C77.4019 93.2181 80.8974 92.9448 82.9747 91.7521C86.3582 89.8016 88.2365 90.8451 90.7244 91.7769L92.1922 92.3981C92.1922 92.3981 96.1728 89.9879 97.8148 89.0189L95.5633 87.5777C92.2295 85.6396 92.242 82.4715 95.6006 80.5334C98.9841 78.5829 104.432 78.5953 107.766 80.5334L110.279 81.9249C110.279 81.9249 149.562 59.2143 150.57 58.7422C151.577 58.2701 152.473 57.3507 152.473 56.6426" stroke="white" stroke-width="0.8" stroke-linecap="round" stroke-linejoin="round"/>
<path d="M97.8148 89.0189C95.4638 87.6523 95.4762 85.4285 97.8397 84.0619C100.216 82.6828 104.059 82.6952 106.41 84.0619L108.413 85.1551" stroke="white" stroke-width="0.8" stroke-linecap="round" stroke-linejoin="round"/>
<path d="M99.407 89.9761C98.0885 89.2183 98.1009 87.9759 99.4194 87.2056C100.75 86.4354 102.89 86.4354 104.209 87.2056L106.137 88.2492" stroke="white" stroke-width="0.8" stroke-linecap="round" stroke-linejoin="round"/>
<path d="M110.291 81.9375L108.401 85.1552V87.2425L106.124 88.2488V90.7832L107.953 89.9881V96.8958" stroke="white" stroke-width="0.8" stroke-linecap="round" stroke-linejoin="round"/>
<path d="M100.278 95.6041V94.2996L101.92 93.4673V90.908L99.9543 91.9391V90.3116L97.8148 89.0195" stroke="white" stroke-width="0.8" stroke-linecap="round" stroke-linejoin="round"/>
<path d="M106.124 90.7832L103.811 89.5781C102.766 89.0315 99.5812 89.4041 99.4692 90.0129" stroke="white" stroke-width="0.8" stroke-linecap="round" stroke-linejoin="round"/>
<path d="M101.92 90.9078L99.917 89.6777" stroke="white" stroke-width="0.8" stroke-linecap="round" stroke-linejoin="round"/>
<path d="M92.1922 92.3984V108.45" stroke="white" stroke-width="0.8" stroke-linecap="round" stroke-linejoin="round"/>
</svg>
