<svg width="311" height="192" viewBox="0 0 311 192" fill="none" xmlns="http://www.w3.org/2000/svg">
<path d="M79.8773 92.1799C81.8925 115.363 115.031 133.812 155.608 133.812C196.184 133.812 229.323 115.375 231.338 92.1799C229.323 68.9971 196.184 50.5479 155.608 50.5479C115.031 50.5479 81.8925 68.9847 79.8773 92.1799Z" stroke="white" stroke-width="0.8" stroke-linecap="round" stroke-linejoin="round"/>
<path d="M79.8773 92.1805C79.8152 91.435 79.7778 90.6896 79.7778 89.9318C79.7778 65.7054 113.725 46.0635 155.608 46.0635C197.491 46.0635 231.437 65.7054 231.437 89.9318C231.437 90.6896 231.4 91.435 231.338 92.1805" stroke="white" stroke-width="0.8" stroke-linecap="round" stroke-linejoin="round"/>
<path d="M309.879 89.9309C309.879 92.4156 308.324 95.447 304.282 97.6957C300.239 99.9444 168.544 175.891 168.544 175.891C162.25 179.469 150.508 180.314 142.658 175.891C134.809 171.468 6.74694 97.9317 6.74694 97.9317C2.31856 95.2109 1 91.4838 1 88.6885" stroke="white" stroke-width="0.8" stroke-linecap="round" stroke-linejoin="round"/>
<path d="M87.2166 48.5352C87.2166 49.8645 85.5995 50.9454 83.5967 50.9454C81.594 50.9454 79.9769 49.8645 79.9769 48.5352C79.9769 47.2059 81.594 46.125 83.5967 46.125C85.5995 46.125 87.2166 47.2059 87.2166 48.5352Z" stroke="white" stroke-width="0.8" stroke-linecap="round" stroke-linejoin="round"/>
<path d="M230.927 131.39C230.927 132.719 229.31 133.8 227.307 133.8C225.305 133.8 223.688 132.719 223.688 131.39C223.688 130.06 225.305 128.979 227.307 128.979C229.31 128.979 230.927 130.06 230.927 131.39Z" stroke="white" stroke-width="0.8" stroke-linecap="round" stroke-linejoin="round"/>
<path d="M145.333 184.6C144.4 184.24 143.504 183.818 142.646 183.346C134.797 178.923 6.74694 105.386 6.74694 105.386C2.31856 102.666 1 98.9385 1 96.1432L1 90.9376C1 86.3532 3.32614 84.2536 7.05792 82.0049C10.7897 79.7562 142.099 4.20737 142.099 4.20737C150.333 -0.451538 161.852 0.331159 168.607 4.20737C175.361 8.08358 304.195 82.0919 304.195 82.0919C307.615 84.3406 309.867 86.4402 309.867 90.2419V97.3855C309.867 99.8703 308.312 102.902 304.269 105.15C300.226 107.399 168.532 183.346 168.532 183.346C167.537 183.905 166.417 184.402 165.186 184.824C165.186 184.824 163.631 190.266 155.433 190.266C147.236 190.266 145.32 184.613 145.32 184.613L145.333 184.6Z" stroke="white" stroke-width="1.5" stroke-linecap="round" stroke-linejoin="round"/>
<path d="M165.186 184.824C159.476 186.774 151.627 187.035 145.32 184.612" stroke="white" stroke-width="0.8" stroke-linecap="round" stroke-linejoin="round"/>
<path d="M296.681 109.511C296.681 109.511 295.91 113.548 289.33 113.735" stroke="white" stroke-width="0.8" stroke-linecap="round" stroke-linejoin="round"/>
<path d="M14.198 109.673C14.198 109.673 15.3797 114.257 20.6789 113.4" stroke="white" stroke-width="0.8" stroke-linecap="round" stroke-linejoin="round"/>
</svg>
